<?xml version="1.0" encoding="UTF-8"?>
<svg width="604.34mm" height="8524.7mm" version="1.1" viewBox="0 0 604.34 8524.7" xmlns="http://www.w3.org/2000/svg">
 <g transform="translate(-127.21 4553.1)">
  <rect x="127.45" y="-4552.9" width="603.86" height="8524.2" style="fill:#000000;paint-order:markers fill stroke;stroke-linecap:round;stroke-linejoin:round;stroke-width:.48073;stroke:#000000"/>
  <path d="m616.89 2045.1a4.82 4.82 0 0 1-4.82 4.82 4.82 4.82 0 0 1-4.82-4.82 4.82 4.82 0 0 1 4.82-4.82 4.82 4.82 0 0 1 4.82 4.82z" style="fill:#9e7f7a;opacity:.999;paint-order:stroke fill markers"/>
  <path d="m614.32 2048.4h-0.908l-2.089-2.982-0.764 1.092v1.89h-0.744v-6.549h0.744v3.364l2.357-3.364h0.908l-2.045 2.922z" style="stroke-width:.47631"/>
  <path d="m611.59 2048.4 2.2994-3.3121 0.61304 0.4256-2.2994 3.3121z" style="fill:#000000;paint-order:stroke fill markers"/>
  <path d="m610.5 2048.4h2.806v0.899h-2.806z" style="fill:#9e7f7a;opacity:.999;paint-order:stroke fill markers"/>
  <path d="m1321.2-4617.4h-4.9585l-2.4793-4.2943 2.4793-4.2942h4.9585l2.4793 4.2942z" style="fill:#ffffff;paint-order:markers fill stroke;stroke-linecap:round;stroke-linejoin:round;stroke-width:.2;stroke:#000000"/>
  <text transform="rotate(-60)" x="4661.7676" y="-1162.995" style="font-family:'CMU Sans Serif';font-size:1.7639px;letter-spacing:0px;line-height:1;stroke-width:.2;word-spacing:0px" xml:space="preserve"><tspan x="4661.7676" y="-1162.995" style="font-family:'Gill Sans MT';font-size:1.7639px;stroke-width:.2;text-align:center;text-anchor:middle">Iron</tspan></text>
  <text x="1318.7596" y="-4618.7715" style="font-family:'CMU Sans Serif';font-size:7.9375px;letter-spacing:0px;line-height:1;stroke-width:.2;text-align:center;text-anchor:middle;word-spacing:0px" xml:space="preserve"><tspan x="1318.7596" y="-4618.7715" style="font-family:Catrinity;font-size:8.8194px;stroke-width:.2;text-align:center;text-anchor:middle">♂</tspan></text>
  <path d="m1321.2-4617.4h-4.9585l-2.4793-4.2943 2.4793-4.2942h4.9585l2.4793 4.2942z" style="fill:#ffffff;paint-order:markers fill stroke;stroke-linecap:round;stroke-linejoin:round;stroke-width:.2;stroke:#000000"/>
  <text transform="rotate(-60)" x="4661.7676" y="-1162.995" style="font-family:'CMU Sans Serif';font-size:1.7639px;letter-spacing:0px;line-height:1;stroke-width:.2;word-spacing:0px" xml:space="preserve"><tspan x="4661.7676" y="-1162.995" style="font-family:'Gill Sans MT';font-size:1.7639px;stroke-width:.2;text-align:center;text-anchor:middle">Iron</tspan></text>
  <text x="1318.7596" y="-4618.7715" style="font-family:'CMU Sans Serif';font-size:7.9375px;letter-spacing:0px;line-height:1;stroke-width:.2;text-align:center;text-anchor:middle;word-spacing:0px" xml:space="preserve"><tspan x="1318.7596" y="-4618.7715" style="font-family:Catrinity;font-size:8.8194px;stroke-width:.2;text-align:center;text-anchor:middle">♂</tspan></text>
  <circle cx="1319" cy="-4589.9" r="10.156" style="fill:#ff0000;paint-order:markers fill stroke"/>
  <path d="m434.26 2527.7a4.88 4.88 0 0 1-4.88 4.88 4.88 4.88 0 0 1-4.88-4.88 4.88 4.88 0 0 1 4.88-4.88 4.88 4.88 0 0 1 4.88 4.88z" style="fill:#e7e1e9;paint-order:markers fill stroke"/>
  <path d="m429.38 2528q0.493 0 0.842-0.348 0.353-0.354 0.353-0.847 0-0.494-0.353-0.842-0.349-0.353-0.842-0.353-0.494 0-0.847 0.353-0.348 0.348-0.348 0.842 0 0.493 0.348 0.847 0.353 0.348 0.847 0.348zm0.389 3.793h-0.779v-1.559h-1.169v-0.779h1.169v-0.712q-0.571-0.109-1.003-0.541-0.582-0.576-0.582-1.397 0-0.816 0.582-1.398 0.104-0.104 0.213-0.187-0.109-0.08-0.213-0.192-0.582-0.577-0.582-1.393h0.78q0 0.494 0.348 0.847 0.353 0.348 0.847 0.348 0.493 0 0.842-0.348 0.353-0.353 0.353-0.847h0.779q0 0.816-0.576 1.393-0.104 0.109-0.214 0.192 0.11 0.08 0.214 0.187 0.576 0.582 0.576 1.398 0 0.821-0.576 1.397-0.437 0.437-1.009 0.541v0.712h1.17v0.779h-1.17z" style="stroke-width:.24132"/>
  <path d="m441.48 2493.1a12.102 12.102 0 0 1-12.102 12.102 12.102 12.102 0 0 1-12.102-12.102 12.102 12.102 0 0 1 12.102-12.102 12.102 12.102 0 0 1 12.102 12.102z" style="fill:#efd7b2;paint-order:markers fill stroke"/>
  <path d="m429.38 2492.2q1.269 0 2.165-0.895 0.908-0.909 0.908-2.179 0-1.269-0.908-2.164-0.896-0.909-2.165-0.909-1.27 0-2.178 0.909-0.896 0.895-0.896 2.164 0 1.27 0.896 2.179 0.908 0.895 2.178 0.895zm1.002 9.755h-2.004v-4.009h-3.007v-2.005h3.007v-1.83q-1.47-0.281-2.579-1.39-1.497-1.483-1.497-3.595 0-2.097 1.483-3.581 1.497-1.496 3.595-1.496 2.111 0 3.594 1.496 1.484 1.484 1.484 3.581 0 2.112-1.484 3.595-1.122 1.122-2.592 1.39v1.83h3.007v2.005h-3.007z" style="stroke-width:.6206"/>
  <path d="m442.14 2465.4a12.756 12.756 0 0 1-12.756 12.756 12.756 12.756 0 0 1-12.756-12.756 12.756 12.756 0 0 1 12.756-12.756 12.756 12.756 0 0 1 12.756 12.756z" style="fill:#276cbd;paint-order:markers fill stroke"/>
  <path d="m421.99 2466.5q0.31 2.423 2.113 4.226t4.225 2.112v-6.338zm8.451 6.338q2.423-0.309 4.226-2.112 1.802-1.803 2.112-4.226h-6.338zm6.338-8.45q-0.31-2.423-2.112-4.226-1.803-1.803-4.226-2.112v6.338zm-8.451-6.338q-2.422 0.309-4.225 2.112t-2.113 4.226h6.338zm1.057 16.972q-3.958 0-6.775-2.803-2.803-2.803-2.803-6.775 0-3.958 2.803-6.761 2.817-2.817 6.775-2.817 3.972 0 6.775 2.817 2.802 2.803 2.802 6.761 0 3.972-2.802 6.775-2.803 2.803-6.775 2.803z" style="stroke-width:.65414"/>
  <path d="m436.17 2413a6.792 6.792 0 0 1-6.792 6.792 6.792 6.792 0 0 1-6.792-6.792 6.792 6.792 0 0 1 6.792-6.792 6.792 6.792 0 0 1 6.792 6.792z" style="fill:#e83b1b;paint-order:markers fill stroke"/>
  <path d="m427.73 2416.5q0.764 0 1.304-0.54t0.54-1.305q0-0.757-0.54-1.297-0.54-0.547-1.304-0.547-0.758 0-1.304 0.547-0.541 0.54-0.541 1.297 0 0.765 0.541 1.305 0.546 0.54 1.304 0.54zm0 0.988q-1.166 0-2.003-0.83-0.83-0.83-0.83-2.003 0-1.166 0.83-1.996 0.837-0.836 2.003-0.836 0.916 0 1.62 0.507l2.115-2.108-2.266-0.764 4.657-0.929-0.935 4.657-0.758-2.266-2.108 2.108q0.508 0.712 0.508 1.627 0 1.173-0.83 2.003-0.831 0.83-2.003 0.83z" style="stroke-width:.30594"/>
  <path d="m431.71-4201.4a2.326 2.326 0 0 1-2.326 2.326 2.326 2.326 0 0 1-2.326-2.326 2.326 2.326 0 0 1 2.326-2.326 2.326 2.326 0 0 1 2.326 2.326z" style="fill:#ffe4fe;paint-order:markers fill stroke"/>
  <path d="m429.6-4199.5h-0.435v-0.826q-0.31 0.304-0.725 0.304-0.481 0-0.821-0.409l0.308-0.307q0.212 0.281 0.513 0.281 0.302 0 0.514-0.278 0.211-0.282 0.211-0.679t-0.211-0.676q-0.212-0.281-0.514-0.281-0.301 0-0.513 0.281l-0.308-0.307q0.34-0.409 0.821-0.409 0.415 0 0.725 0.304v-0.826h0.435v0.826q0.311-0.304 0.725-0.304 0.482 0 0.821 0.409l-0.307 0.307q-0.212-0.281-0.514-0.281-0.301 0-0.513 0.281-0.212 0.279-0.212 0.676t0.212 0.679q0.212 0.278 0.513 0.278 0.302 0 0.514-0.281l0.307 0.307q-0.339 0.409-0.821 0.409-0.414 0-0.725-0.304z" style="stroke-width:.14586"/>
  <path d="m430.81-2013.5a1.43 1.43 0 0 1-1.43 1.43 1.43 1.43 0 0 1-1.43-1.43 1.43 1.43 0 0 1 1.43-1.43 1.43 1.43 0 0 1 1.43 1.43z" style="fill:#db5d3b;paint-order:markers fill stroke"/>
  <path d="m428.8-2013.4q-0.136 0-0.232-0.1-0.1-0.1-0.1-0.232 0-0.135 0.1-0.231 0.1-0.1 0.232-0.1 0.135 0 0.231 0.1 0.1 0.1 0.1 0.231 0 0.136-0.1 0.232-0.1 0.1-0.231 0.1zm0-0.218q0.05 0 0.08-0.03t0.03-0.08-0.03-0.08-0.08-0.03-0.08 0.03-0.03 0.08 0.03 0.08 0.08 0.03zm-0.11-0.584q-0.151 0-0.258 0.142-0.106 0.14-0.106 0.34 0 0.199 0.106 0.341 0.107 0.14 0.258 0.14v0.219q-0.242 0-0.412-0.205-0.171-0.205-0.171-0.495 0-0.291 0.171-0.495 0.17-0.205 0.412-0.205h1.385q0.242 0 0.413 0.205 0.171 0.204 0.171 0.495 0 0.29-0.171 0.495t-0.413 0.205v-0.219q0.152 0 0.259-0.14 0.106-0.142 0.106-0.341 0-0.2-0.106-0.34-0.107-0.142-0.259-0.142h-0.583v1.706h-0.219v-1.706zm1.276 0.802q-0.136 0-0.232-0.1-0.1-0.1-0.1-0.232 0-0.135 0.1-0.231 0.1-0.1 0.232-0.1 0.136 0 0.232 0.1 0.1 0.1 0.1 0.231 0 0.136-0.1 0.232-0.1 0.1-0.232 0.1zm0-0.218q0.05 0 0.08-0.03t0.03-0.08-0.03-0.08-0.08-0.03q-0.04 0-0.08 0.03-0.03 0.03-0.03 0.08t0.03 0.08 0.08 0.03z" style="stroke-width:.073332"/>
  <path d="m431.01-1771.1a1.6316 1.0704 0 0 1-1.631 1.07 1.6316 1.0704 0 0 1-1.632-1.07 1.6316 1.0704 0 0 1 1.632-1.07 1.6316 1.0704 0 0 1 1.631 1.07z" style="fill:#cccccc;paint-order:markers fill stroke"/>
  <path d="m424.87-1771.1h9.024" style="fill:#f4f4f4;paint-order:markers fill stroke;stroke-linecap:round;stroke-linejoin:round;stroke-width:.11424;stroke:#f2f2f2"/>
  <path d="m428.97-1771v0.123q0 0.272-0.12 0.465-0.119 0.191-0.29 0.191v-0.205q0.08 0 0.145-0.131 0.06-0.133 0.06-0.32v-0.123h-0.205v-0.205h1.64v0.205h-0.205v0.123q0 0.187 0.06 0.32 0.06 0.131 0.145 0.131v0.205q-0.171 0-0.291-0.191-0.119-0.193-0.119-0.465v-0.123zm0.41-0.314q-0.159 0-0.271-0.112t-0.112-0.271q0-0.158 0.112-0.27t0.271-0.112q0.158 0 0.27 0.112t0.112 0.27q0 0.159-0.112 0.271t-0.27 0.112zm0-0.205q0.07 0 0.125-0.05 0.05-0.05 0.05-0.126 0-0.07-0.05-0.125-0.05-0.05-0.125-0.05-0.07 0-0.126 0.05-0.05 0.05-0.05 0.125 0 0.07 0.05 0.126 0.05 0.05 0.126 0.05zm0 1.394q-0.159 0-0.271-0.112t-0.112-0.271q0-0.158 0.112-0.27t0.271-0.112q0.158 0 0.27 0.112t0.112 0.27q0 0.159-0.112 0.271t-0.27 0.112zm0-0.205q0.07 0 0.125-0.05 0.05-0.05 0.05-0.126 0-0.07-0.05-0.126-0.05-0.05-0.125-0.05-0.07 0-0.126 0.05-0.05 0.05-0.05 0.126 0 0.07 0.05 0.126 0.05 0.05 0.126 0.05z" style="stroke-width:.073219"/>
  <path d="m558.86 2045.1a129.48 129.48 0 0 1-129.48 129.48 129.48 129.48 0 0 1-129.48-129.48 129.48 129.48 0 0 1 129.48-129.48 129.48 129.48 0 0 1 129.48 129.48z" style="fill:#ff9d50;paint-order:markers fill stroke"/>
  <path d="m486.57 2082.3v57.188h-21.445v-57.188h-96.363q0-11.009 30.31-35.886t30.31-46.323q0-15.012-8.436-22.875-8.292-7.863-20.158-7.863-11.867 0-20.302 8.578-8.293 8.578-8.293 20.731h-21.445q0-21.017 14.583-35.886 14.726-14.869 35.457-14.869 20.73 0 35.313 14.154 14.726 14.154 14.726 38.03 0 31.025-39.317 60.62-0.143 0-0.143 0.143h53.758v-110.09h21.445v110.09h21.446v21.446z" style="stroke-width:6.64"/>
  <path d="m478.91-441.58a49.528 49.528 0 0 1-49.528 49.528 49.528 49.528 0 0 1-49.528-49.528 49.528 49.528 0 0 1 49.528-49.528 49.528 49.528 0 0 1 49.528 49.528z" style="fill:#73a4dc;paint-order:markers fill stroke"/>
  <path d="m433.48-404.94h-8.203v-12.852h-9.57v-8.203h9.57v-10.937q-8.695-1.203-15.203-7.766-8.039-7.984-8.039-19.851v-2.735h-4.101l8.203-10.937 8.203 10.937h-4.102v2.735q0 8.476 5.633 14.054 4.047 4.102 9.406 5.25v-22.039h-4.101l8.203-10.937 8.203 10.937h-4.102v22.039q5.36-1.148 9.461-5.25 5.578-5.578 5.578-14.054v-2.735h-4.101l8.203-10.937 8.203 10.937h-4.102v2.735q0 11.867-7.984 19.851-6.562 6.563-15.258 7.766v10.937h9.571v8.203h-9.571z" style="stroke-width:2.5398"/>
  <path d="m430.33 2288.8a0.946 0.946 0 0 1-0.946 0.946 0.946 0.946 0 0 1-0.946-0.946 0.946 0.946 0 0 1 0.946-0.946 0.946 0.946 0 0 1 0.946 0.946z" style="fill:#bdb7bf;paint-order:markers fill stroke"/>
  <path d="m429.46 2289.5h-0.157v-0.194h-0.183v-0.157h0.183v-0.204h0.08q0.109 0 0.185-0.101 0.08-0.102 0.08-0.246 0-0.143-0.08-0.244-0.08-0.102-0.185-0.102-0.109 0-0.186 0.102-0.08 0.101-0.08 0.244h-0.158q0-0.208 0.123-0.355 0.123-0.148 0.297-0.148t0.297 0.148q0.122 0.147 0.122 0.355 0 0.209-0.122 0.356-0.09 0.113-0.219 0.14v0.06h0.184v0.157h-0.184z" style="stroke-width:.048512"/>
  <path d="m480.5 646.42a51.118 51.118 0 0 1-51.118 51.118 51.118 51.118 0 0 1-51.118-51.118 51.118 51.118 0 0 1 51.118-51.118 51.118 51.118 0 0 1 51.118 51.118z" style="fill:#94d6ef;paint-order:markers fill stroke"/>
  <path d="m429.38 676.34q3.048 0 5.192-2.144 2.145-2.145 2.145-5.193t-2.145-5.193q-2.144-2.145-5.192-2.145t-5.193 2.145-2.145 5.193 2.145 5.193q2.145 2.144 5.193 2.144zm0 8.467q-6.548 0-11.176-4.628-4.628-4.629-4.628-11.176t4.628-11.176q3.048-3.048 6.943-4.12v-14.336h-16.651v21.73h-8.466v-51.927h8.466v21.73h16.651v-21.73h8.466v21.73h16.65v-21.73h8.467v51.927h-8.467v-21.73h-16.65v14.336q3.895 1.072 6.942 4.12 4.629 4.629 4.629 11.176t-4.629 11.176q-4.628 4.628-11.175 4.628z" style="stroke-width:2.6214"/>
  <path d="m549.92 1611.7a120.54 120.54 0 0 1-120.54 120.54 120.54 120.54 0 0 1-120.54-120.54 120.54 120.54 0 0 1 120.54-120.54 120.54 120.54 0 0 1 120.54 120.54z" style="fill:#ffbe50;paint-order:markers fill stroke"/>
  <path d="m151.82 1611.7h555.12" style="fill:#f4f4f4;paint-order:markers fill stroke;stroke-linecap:round;stroke-linejoin:round;stroke-width:5.8919;stroke:#b88f16"/>
  <path d="m475.61 1710.4q-14.494 0-24.74-10.245-10.245-10.246-10.245-24.739 0-14.494 13.119-31.362 13.12-16.867 13.12-36.109 0-14.619-6.623-21.616-6.497-7.122-16.992-7.122-12.87 0-22.49 12.12-9.496 11.995-10.121 29.112v57.476h-18.742v-127.57h-18.742v-18.742h18.742v-18.617h18.742v18.617h18.742v18.742h-18.742v24.864q14.369-14.744 33.36-14.744 18.243 0 29.863 12.62 11.744 12.495 11.744 34.86 0 26.988-13.119 43.856t-13.119 23.615 4.748 11.495 11.495 4.748z" style="stroke-width:5.8029"/>
  <path d="m431.76-1382.8a2.376 2.376 0 0 1-2.376 2.376 2.376 2.376 0 0 1-2.376-2.376 2.376 2.376 0 0 1 2.376-2.376 2.376 2.376 0 0 1 2.376 2.376z" style="fill:#f8c4b6;paint-order:markers fill stroke"/>
  <path d="m429.37-1382.9q0.273 0 0.464-0.173 0.192-0.173 0.192-0.417t-0.192-0.417q-0.191-0.173-0.464-0.173h-0.63v1.18zm1.049 1.889h-2.072v-3.463h1.023q0.435 0 0.742 0.289 0.307 0.288 0.307 0.695t-0.307 0.695q-0.307 0.289-0.742 0.289h-0.63v1.102h1.679z" style="stroke-width:.12184"/>
  <path d="m1820.4 3956.4a1391 1391 0 0 1-1391 1391 1391 1391 0 0 1-1391-1391 1391 1391 0 0 1 1391-1391 1391 1391 0 0 1 1391 1391z" style="fill:#fdff00;paint-order:markers fill stroke"/>
  <path d="m429.38 5000.8q-431.58 0-738.76-305.64-305.64-305.64-305.64-738.76 0-431.58 305.64-737.22 307.18-307.18 738.76-307.18 433.12 0 738.76 307.18 305.64 305.64 305.64 737.22 0 433.12-305.64 738.76t-738.76 305.64zm0-230.38q337.89 0 575.96-238.06t238.06-575.96q0-337.9-238.06-575.96t-575.96-238.06q-337.9 0-575.96 238.06t-238.06 575.96q0 337.89 238.06 575.96t575.96 238.06zm0-645.07q-69.115 0-119.8-49.148-49.148-50.684-49.148-119.8 0-70.651 49.148-119.8 50.684-49.148 119.8-49.148 70.65 0 119.8 49.148 49.148 49.148 49.148 119.8 0 69.115-49.148 119.8-49.149 49.148-119.8 49.148z" style="fill:#f1bf15;stroke-width:71.331"/>
  <text x="429.76166" y="-4452.5371" style="font-family:'CMU Sans Serif';font-size:50.8px;letter-spacing:0px;line-height:1;stroke-width:.26458;word-spacing:0px" xml:space="preserve"><tspan x="429.76166" y="-4452.5371" style="fill:#ffffff;font-family:'CMU Serif Extra';font-size:50.8px;stroke-width:.26458;text-align:center;text-anchor:middle">The Solar System</tspan></text>
  <text x="429.76166" y="-4410.7832" style="font-family:'CMU Sans Serif';font-size:16.933px;letter-spacing:0px;line-height:0;stroke-width:.26458;word-spacing:0px" xml:space="preserve"><tspan x="429.76166" y="-4410.7832" style="fill:#ffffff;font-size:16.933px;line-height:1;stroke-width:.26458;text-align:center;text-anchor:middle"/><tspan x="429.76166" y="-4400.5811" style="fill:#ffffff;font-family:'CMU Sans Serif';font-size:8.4667px;line-height:1.01;stroke-width:.26458;text-align:center;text-anchor:middle">Distance<tspan style="font-family:'CMU Sans Serif';font-weight:500">s from the sun are to </tspan>scale.</tspan><tspan x="429.76166" y="-4392.0293" style="fill:#ffffff;font-family:'CMU Sans Serif';font-size:8.4667px;line-height:1.01;stroke-width:.26458;text-align:center;text-anchor:middle">Object diameters are to scale.</tspan><tspan x="429.76166" y="-4385.2139" style="fill:#ffffff;font-family:'CMU Sans Serif';font-size:5.6444px;line-height:1.01;stroke-width:.26458;text-align:center;text-anchor:middle">But they're different scales.</tspan><tspan x="429.76166" y="-4378.9766" style="fill:#ffffff;font-family:'CMU Sans Serif';font-size:3.5278px;line-height:1.01;stroke-width:.26458;text-align:center;text-anchor:middle">Don't worry about it.</tspan></text>
  <text x="429.0351" y="-4429.9141" style="font-family:'CMU Sans Serif';font-size:12.7px;letter-spacing:0px;line-height:1;stroke-width:.26458;word-spacing:0px" xml:space="preserve"><tspan x="431.14963" y="-4429.9141" style="fill:#ffffff;font-family:'CMU Sans Serif';font-size:12.7px;stroke-width:.26458;text-align:center;text-anchor:middle">The Sun, Major Planets, and IAU-recognized Dwarf Planets </tspan></text>
  <path d="m1222.5 2221.3h117.64v150h-117.64z" style="fill:#483737;paint-order:markers fill stroke"/>
  <path d="m451.34 2465.4a3.474 3.474 0 0 1-3.474 3.474 3.474 3.474 0 0 1-3.474-3.474 3.474 3.474 0 0 1 3.474-3.474 3.474 3.474 0 0 1 3.474 3.474z" style="fill:#bfc1c2;paint-order:markers fill stroke"/>
  <path d="m447.84 2463.4q-0.843 0-1.438 0.594-0.595 0.595-0.595 1.439 0 0.843 0.595 1.438t1.438 0.595q0.127 0 0.246-0.01-0.775-0.813-0.775-2.021 0-1.082 0.618-1.845 0.08-0.09 0.153-0.177-0.119-0.01-0.242-0.01zm0-0.576q0.967 0 1.612 0.576-0.403 0-0.71 0.203-0.219 0.146-0.407 0.391-0.449 0.595-0.449 1.439 0 0.843 0.449 1.438 0.188 0.246 0.407 0.391 0.307 0.204 0.71 0.204-0.653 0.575-1.612 0.575-1.081 0-1.845-0.763-0.763-0.768-0.763-1.845 0-1.082 0.763-1.845 0.764-0.764 1.845-0.764z" style="stroke-width:.17815"/>
  <path d="m573.61 2045.1a3.63 3.63 0 0 1-3.63 3.63 3.63 3.63 0 0 1-3.63-3.63 3.63 3.63 0 0 1 3.63-3.63 3.63 3.63 0 0 1 3.63 3.63z" style="fill:#ebdd21;paint-order:stroke fill markers"/>
  <path d="m570.94 2047.8h-1.913v-0.638h0.637v-4.336h-0.637v-0.637h1.913v0.637h-0.638v4.336h0.638z" style="stroke-width:.40809"/>
  <path d="m568.17 2045.7h3.63v0.639h-3.63z" style="fill:#000000;paint-order:stroke fill markers"/>
  <path d="m585.5 2045.1a3.138 3.138 0 0 1-3.138 3.138 3.138 3.138 0 0 1-3.138-3.138 3.138 3.138 0 0 1 3.138-3.138 3.138 3.138 0 0 1 3.138 3.138z" style="fill:#b97565;paint-order:stroke fill markers"/>
  <path d="m583.7 2046.9h-2.666v-4.189h2.666v0.476h-2.19v1.38h1.809v0.476h-1.809v1.381h2.19z" style="stroke-width:.30463"/>
  <path d="m583.03 2047.5v-1.807h-0.477v1.807z" style="fill:#000000;paint-order:stroke fill markers"/>
  <path d="m582.2 2043.8h1.88v1.879h-1.88z" style="fill:#b97565;paint-order:stroke fill markers"/>
  <path d="m601.64 2045.1a5.268 5.268 0 0 1-5.268 5.268 5.268 5.268 0 0 1-5.268-5.268 5.268 5.268 0 0 1 5.268-5.268 5.268 5.268 0 0 1 5.268 5.268z" style="fill:#e7e1e9;paint-order:stroke fill markers"/>
  <path d="m595.44 2048.6h-0.792v-6.974h4.438v0.792h-3.646z" style="stroke-width:.50725"/>
  <path d="m593.56 2046.5h3.009v0.795h-3.009z" style="fill:#000000;paint-order:stroke fill markers"/>
  <text x="429.0351" y="-4418.8027" style="font-family:'CMU Sans Serif';font-size:9.8778px;letter-spacing:0px;line-height:1;stroke-width:.26458;word-spacing:0px" xml:space="preserve"><tspan x="429.0351" y="-4418.8027" style="fill:#ffffff;font-family:'CMU Sans Serif';font-size:9.8778px;stroke-width:.26458;text-align:center;text-anchor:middle">(and planetary-mass moons)</tspan></text>
  <path d="m492.65-441.57a2.706 2.706 0 0 1-2.706 2.706 2.706 2.706 0 0 1-2.706-2.706 2.706 2.706 0 0 1 2.706-2.706 2.706 2.706 0 0 1 2.706 2.706z" style="fill:#ebc8df;paint-order:stroke fill markers"/>
  <path d="m490.16-439.55h-0.438v-1.706q-0.463-0.06-0.811-0.415-0.429-0.426-0.429-1.03v-0.7h0.438v0.7q0 0.423 0.301 0.721 0.216 0.219 0.501 0.28v-1.701h0.438v1.701q0.286-0.06 0.505-0.28 0.297-0.298 0.297-0.721v-0.7h0.438v0.7q0 0.604-0.426 1.03-0.35 0.35-0.814 0.415z" style="stroke-width:.28009"/>
  <path d="m488.3-442.58h3.299v0.439h-3.299z" style="fill:#000000;paint-order:stroke fill markers"/>
  <text x="53.779236" y="-4628.6875" style="font-family:'CMU Sans Serif';font-size:141.11px;letter-spacing:0px;line-height:1;stroke-width:.26458;word-spacing:0px" xml:space="preserve"><tspan x="53.779236" y="-4628.6875" style="font-size:141.11px;stroke-width:.26458">With Moons</tspan></text>
  <path d="m435.58-1382.8a1.206 1.206 0 0 1-1.206 1.206 1.206 1.206 0 0 1-1.206-1.206 1.206 1.206 0 0 1 1.206-1.206 1.206 1.206 0 0 1 1.206 1.206z" style="fill:#f8c4b6;paint-order:markers fill stroke"/>
  <path d="m433.67-1382.8q0 0.293 0.206 0.499 0.207 0.207 0.5 0.207t0.499-0.207q0.207-0.206 0.207-0.499 0-0.04 0-0.09-0.283 0.269-0.702 0.269-0.376 0-0.641-0.215-0.03-0.03-0.06-0.05 0 0.04 0 0.08zm-0.2 0q0-0.336 0.2-0.559 0 0.139 0.07 0.246 0.05 0.08 0.135 0.141 0.207 0.156 0.5 0.156t0.499-0.156q0.08-0.06 0.136-0.141 0.07-0.107 0.07-0.246 0.199 0.226 0.199 0.559 0 0.375-0.266 0.64-0.265 0.265-0.639 0.265-0.376 0-0.641-0.265t-0.265-0.64zm0.906-0.16q-0.155 0-0.264-0.109t-0.109-0.264q0-0.154 0.109-0.263 0.109-0.11 0.264-0.11 0.154 0 0.264 0.11 0.109 0.109 0.109 0.263 0 0.155-0.109 0.264-0.11 0.109-0.264 0.109zm0-0.2q0.07 0 0.122-0.05 0.05-0.05 0.05-0.123 0-0.07-0.05-0.122-0.05-0.05-0.122-0.05-0.07 0-0.123 0.05-0.05 0.05-0.05 0.122 0 0.07 0.05 0.123 0.05 0.05 0.123 0.05z" style="stroke-width:.061845"/>
  <path d="m508.87 646.42a1.522 1.522 0 0 1-1.522 1.522 1.522 1.522 0 0 1-1.522-1.522 1.522 1.522 0 0 1 1.522-1.522 1.522 1.522 0 0 1 1.522 1.522z" style="fill:#b4888d;paint-order:markers fill stroke"/>
  <path d="m507.34 647.32q0.09 0 0.154-0.06 0.06-0.06 0.06-0.155 0-0.09-0.06-0.154-0.06-0.06-0.154-0.06-0.09 0-0.155 0.06-0.06 0.06-0.06 0.154 0 0.09 0.06 0.155 0.06 0.06 0.155 0.06zm0 0.252q-0.195 0-0.333-0.138t-0.138-0.333q0-0.194 0.138-0.332 0.09-0.09 0.207-0.123v-0.427h-0.496v0.647h-0.252v-1.546h0.252v0.647h0.496v-0.647h0.252v0.647h0.495v-0.647h0.253v1.546h-0.253v-0.647h-0.495v0.427q0.116 0.03 0.206 0.123 0.138 0.138 0.138 0.332 0 0.195-0.138 0.333-0.137 0.138-0.332 0.138z" style="stroke-width:.078049"/>
  <path d="m506.45 645.3h1.795v0.921h-1.795z" style="fill:#b4888d;opacity:.999;paint-order:stroke fill markers"/>
  <path d="m506.02 646.03h0.77v0.922h-0.77z" style="fill:#b4888d;opacity:.999;paint-order:stroke fill markers"/>
  <path d="m507.91 646.04h0.77v0.921h-0.77z" style="fill:#b4888d;opacity:.999;paint-order:stroke fill markers"/>
  <path d="m507.82 645.77a0.47478 0.47478 0 0 1-0.474 0.475 0.47478 0.47478 0 0 1-0.475-0.475 0.47478 0.47478 0 0 1 0.475-0.475 0.47478 0.47478 0 0 1 0.474 0.475z" style="fill:#b4888d;opacity:.999;paint-order:stroke fill markers;stroke-miterlimit:10;stroke-width:.5;stroke:#000000"/>
  <path d="m501.99 646.43a1.578 1.578 0 0 1-1.578 1.578 1.578 1.578 0 0 1-1.578-1.578 1.578 1.578 0 0 1 1.578-1.578 1.578 1.578 0 0 1 1.578 1.578z" style="fill:#c7b6bd;paint-order:markers fill stroke"/>
  <path d="m500.41 647.35q0.09 0 0.16-0.07t0.07-0.161q0-0.09-0.07-0.16t-0.16-0.07-0.16 0.07-0.07 0.16 0.07 0.161q0.07 0.07 0.16 0.07zm0 0.261q-0.202 0-0.345-0.143-0.143-0.142-0.143-0.345 0-0.202 0.143-0.345 0.09-0.09 0.214-0.127v-0.442h-0.514v0.67h-0.261v-1.603h0.261v0.671h0.514v-0.671h0.262v0.671h0.514v-0.671h0.261v1.603h-0.261v-0.67h-0.514v0.442q0.12 0.03 0.214 0.127 0.143 0.143 0.143 0.345 0 0.203-0.143 0.345-0.143 0.143-0.345 0.143z" style="fill:#000000;stroke-width:.080921"/>
  <path d="m499.36 645.54h2.184v0.936h-2.184z" style="fill:#c7b6bd;opacity:.999;paint-order:stroke fill markers"/>
  <path d="m499.38 646.07h0.467v0.906h-0.467z" style="fill:#c7b6bd;opacity:.999;paint-order:stroke fill markers"/>
  <path d="m499.42 645.22h1.968v0.907h-1.968z" style="fill:#c7b6bd;opacity:.999;paint-order:stroke fill markers"/>
  <path d="m500.28 645.6v1.274h0.261v-1.274z" style="fill:#000000;opacity:.999;paint-order:stroke fill markers"/>
  <path d="m499.5 645.55h1.811v0.261h-1.811z" style="fill:#000000;opacity:.999;paint-order:stroke fill markers"/>
  <path d="m500.99 646.2h0.541v0.936h-0.541z" style="fill:#c7b6bd;opacity:.999;paint-order:stroke fill markers"/>
  <path d="m488.82 646.43a1.158 1.158 0 0 1-1.158 1.158 1.158 1.158 0 0 1-1.158-1.158 1.158 1.158 0 0 1 1.158-1.158 1.158 1.158 0 0 1 1.158 1.158z" style="fill:#ebdfef;paint-order:markers fill stroke"/>
  <path d="m487.65 647.2q0.07 0 0.115-0.05 0.05-0.05 0.05-0.115 0-0.07-0.05-0.115-0.05-0.05-0.115-0.05-0.07 0-0.115 0.05-0.05 0.05-0.05 0.115 0 0.07 0.05 0.115 0.05 0.05 0.115 0.05zm0 0.187q-0.145 0-0.247-0.102-0.103-0.102-0.103-0.247t0.103-0.248q0.07-0.07 0.154-0.09v-0.317h-0.369v0.481h-0.187v-1.15h0.187v0.481h0.369v-0.481h0.187v0.481h0.368v-0.481h0.188v1.15h-0.188v-0.481h-0.368v0.317q0.09 0.02 0.154 0.09 0.102 0.103 0.102 0.248t-0.102 0.247q-0.103 0.102-0.248 0.102z" style="stroke-width:.058017"/>
  <path d="m486.94 646.17h0.333v0.733h-0.333z" style="fill:#ebdfef;opacity:.999;paint-order:stroke fill markers"/>
  <path d="m486.97 645.65h1.365v0.62h-1.365z" style="fill:#ebdfef;opacity:.999;paint-order:stroke fill markers"/>
  <path d="m488.05 646.18h0.332v0.733h-0.332z" style="fill:#ebdfef;opacity:.999;paint-order:stroke fill markers"/>
  <path d="m488.36 647.01h-0.2l-0.221-0.606h-0.56l-0.221 0.606h-0.2l0.601-1.649h0.2zm-0.488-0.793-0.213-0.581-0.212 0.581z" style="stroke-width:.058017"/>
  <path d="m494.99 646.43a1.17 1.17 0 0 1-1.17 1.17 1.17 1.17 0 0 1-1.17-1.17 1.17 1.17 0 0 1 1.17-1.17 1.17 1.17 0 0 1 1.17 1.17z" style="fill:#24272e;paint-order:markers fill stroke"/>
  <path d="m493.82 647.11q0.07 0 0.119-0.05 0.05-0.05 0.05-0.119 0-0.07-0.05-0.119-0.05-0.05-0.119-0.05-0.07 0-0.119 0.05-0.05 0.05-0.05 0.119 0 0.07 0.05 0.119 0.05 0.05 0.119 0.05zm0 0.193q-0.15 0-0.256-0.106-0.106-0.105-0.106-0.255t0.106-0.256q0.07-0.07 0.159-0.09v-0.329h-0.381v0.498h-0.194v-1.189h0.194v0.498h0.381v-0.498h0.194v0.498h0.381v-0.498h0.194v1.189h-0.194v-0.498h-0.381v0.329q0.09 0.02 0.159 0.09 0.106 0.106 0.106 0.256t-0.106 0.255q-0.106 0.106-0.256 0.106z" style="fill:#000000;stroke-width:.059999"/>
  <path d="m493.12 645.55h1.415v0.728h-1.415z" style="fill:#24272e;opacity:.999;paint-order:stroke fill markers"/>
  <path d="m493.82 646.3c-0.178 0-0.33-0.06-0.457-0.189-0.126-0.126-0.189-0.279-0.189-0.457v-0.09h0.194v0.09c0 0.125 0.04 0.231 0.132 0.32 0.09 0.09 0.195 0.132 0.32 0.132s0.232-0.04 0.319-0.132c0.09-0.09 0.133-0.195 0.133-0.32v-0.09h0.194v0.09c0 0.178-0.06 0.331-0.19 0.457-0.125 0.126-0.277 0.189-0.456 0.189z" style="fill:#000000;stroke-width:.059999"/>
  <path d="m494.26 646.18h0.273v0.824h-0.273z" style="fill:#24272e;opacity:.999;paint-order:stroke fill markers"/>
  <path d="m493.12 646.17h0.273v0.83h-0.273z" style="fill:#24272e;opacity:.999;paint-order:stroke fill markers"/>
  <path d="m567.66 1597.4a1.528 1.528 0 0 1-1.528 1.528 1.528 1.528 0 0 1-1.528-1.528 1.528 1.528 0 0 1 1.528-1.527 1.528 1.528 0 0 1 1.528 1.527z" style="fill:#ececec;paint-order:markers fill stroke"/>
  <path d="m566.08 1596.6v0.595h-0.201v-0.595z" style="fill:#000000;opacity:.999;paint-order:stroke fill markers"/>
  <path d="m566.77 1596.6a0.39751 0.39751 0 0 1-0.397 0.397 0.39751 0.39751 0 0 1-0.398-0.397 0.39751 0.39751 0 0 1 0.398-0.398 0.39751 0.39751 0 0 1 0.397 0.398z" style="fill:none;opacity:.999;paint-order:stroke fill markers;stroke-miterlimit:10;stroke-width:.20176;stroke:#000000"/>
  <path d="m566.35 1598.7c-0.105 0-0.194-0.04-0.267-0.11-0.07-0.07-0.111-0.163-0.111-0.267s0.05-0.217 0.142-0.338c0.09-0.121 0.141-0.251 0.141-0.389 0-0.105-0.02-0.183-0.07-0.233s-0.108-0.08-0.183-0.08c-0.09 0-0.192 0.02-0.261 0.105-0.07 0.09-0.09 0.217-0.09 0.34v0.619h-0.143c0-0.924-0.05-0.905 0.128-1.109 0.103-0.106 0.238-0.15 0.375-0.15 0.131 0 0.238 0.04 0.322 0.136 0.08 0.09 0.126 0.215 0.126 0.376 0 0.194-0.05 0.351-0.141 0.473-0.09 0.121-0.142 0.206-0.142 0.254 0 0.05 0.02 0.09 0.05 0.124 0.03 0.03 0.08 0.05 0.124 0.05z" style="fill:#000000;stroke-width:.062555"/>
  <path d="m565.39 1597.6h0.371v0.838h-0.371z" style="fill:#ececec;opacity:.999;paint-order:stroke fill markers"/>
  <path d="m588.41 1597.4a1.472 1.472 0 0 1-1.472 1.472 1.472 1.472 0 0 1-1.472-1.472 1.472 1.472 0 0 1 1.472-1.471 1.472 1.472 0 0 1 1.472 1.471z" style="fill:#a99066;paint-order:stroke fill markers"/>
  <path d="m587.36 1598.4q-0.136 0-0.231-0.1-0.1-0.1-0.1-0.231 0-0.135 0.122-0.293 0.123-0.157 0.123-0.337 0-0.137-0.06-0.202-0.06-0.07-0.158-0.07-0.121 0-0.211 0.113-0.09 0.112-0.09 0.272v0.536h-0.175v-1.191h-0.175v-0.175h0.175v-0.174h0.175v0.174h0.175v0.175h-0.175v0.232q0.134-0.137 0.312-0.137 0.17 0 0.278 0.117 0.11 0.117 0.11 0.326 0 0.252-0.123 0.41-0.122 0.157-0.122 0.22 0 0.06 0.04 0.107 0.05 0.04 0.108 0.04z" style="stroke-width:.054194"/>
  <path d="m586.3 1596.6h0.731v0.304h-0.731z" style="fill:#a99066;opacity:.999;paint-order:stroke fill markers"/>
  <path d="m586.76 1596.5v1.136h-0.175v-1.136z" style="fill:#000000;opacity:.999;paint-order:stroke fill markers"/>
  <path d="m586.51 1597.4h0.322v0.726h-0.322z" style="fill:#a99066;opacity:.999;paint-order:stroke fill markers"/>
  <path d="m586.12 1596.4h1.623v0.174h-1.623z" style="fill:#000000;opacity:.999;paint-order:stroke fill markers"/>
  <path d="m586.12 1598.2h1.623v0.175h-1.623z" style="fill:#000000;opacity:.999;paint-order:stroke fill markers"/>
  <path d="m793.06 1587.5a1.066 1.066 0 0 1-1.066 1.066 1.066 1.066 0 0 1-1.066-1.066 1.066 1.066 0 0 1 1.066-1.066 1.066 1.066 0 0 1 1.066 1.066z" style="fill:#ececec;paint-order:markers fill stroke"/>
  <path d="m792.45 1588.3q-0.09 0-0.15-0.06t-0.06-0.15 0.08-0.19q0.08-0.102 0.08-0.219 0-0.09-0.04-0.131-0.04-0.04-0.103-0.04-0.08 0-0.137 0.07-0.06 0.07-0.06 0.176v0.348h-0.113v-0.773h-0.114v-0.113h0.114v-0.113h0.113v0.113h0.114v0.113h-0.114v0.151q0.09-0.09 0.202-0.09 0.111 0 0.181 0.08t0.07 0.211q0 0.164-0.08 0.266t-0.08 0.143q0 0.04 0.03 0.07t0.07 0.03z" style="stroke-width:.035153"/>
  <path d="m791.36 1586.8h1.261v0.113h-1.261z" style="fill:#000000;opacity:.999;paint-order:stroke fill markers"/>
  <path d="m791.76 1587.1h0.474v0.197h-0.474z" style="fill:#ececec;opacity:.999;paint-order:stroke fill markers"/>
  <path d="m791.89 1587.8h0.208v0.313h-0.208z" style="fill:#ececec;opacity:.999;paint-order:stroke fill markers"/>
  <path d="m792.05 1586.9v0.974h-0.113v-0.974z" style="fill:#000000;opacity:.999;paint-order:stroke fill markers"/>
  <path d="m560.12 1597.4a1.124 1.124 0 0 1-1.124 1.124 1.124 1.124 0 0 1-1.124-1.124 1.124 1.124 0 0 1 1.124-1.123 1.124 1.124 0 0 1 1.124 1.123z" style="fill:#ececec;paint-order:markers fill stroke"/>
  <path d="m558.2 1597.4h1.584v0.13h-1.584z" style="fill:#000000;opacity:.999;paint-order:stroke fill markers"/>
  <path d="m558.2 1597.4h1.585l-0.798-0.811z" style="fill:none;opacity:.999;paint-order:stroke fill markers;stroke-miterlimit:10;stroke-width:.148;stroke:#000000"/>
  <path d="m559.26 1598.3c-0.08 0-0.142-0.03-0.196-0.08-0.06-0.05-0.08-0.12-0.08-0.196 0-0.08 0.03-0.16 0.104-0.249 0.07-0.09 0.104-0.185 0.104-0.286 0-0.08-0.02-0.135-0.05-0.172-0.03-0.04-0.08-0.06-0.135-0.06-0.07 0-0.141 0.01-0.192 0.08-0.05 0.06-0.06 0.159-0.07 0.25v0.456h-0.106c0-0.679-0.04-0.665 0.09-0.816 0.08-0.08 0.176-0.11 0.276-0.11s0.175 0.03 0.237 0.1c0.06 0.07 0.09 0.159 0.09 0.277 0 0.142-0.03 0.258-0.104 0.348-0.07 0.09-0.104 0.151-0.104 0.187 0 0.03 0.01 0.07 0.04 0.09 0.02 0.03 0.06 0.04 0.09 0.04z" style="fill:#000000;stroke-width:.046016"/>
  <path d="m559.2 1597.5c0-0.08-0.02-0.135-0.05-0.172-0.03-0.04-0.08-0.06-0.135-0.06-0.07 0-0.141 0.01-0.192 0.08-0.05 0.06-0.06 0.159-0.07 0.25v0.456l0.144-0.01c0-0.68-0.08-0.281 0.05-0.431 0.1-0.03 0.08-0.01 0.248-0.111z" style="fill:#ececec;stroke-width:.046016"/>
  <path d="m558.48 1597.5h0.359v0.587h-0.359z" style="fill:#ececec;opacity:.999;paint-order:stroke fill markers"/>
  <path d="m582.31 1597.4a5.152 5.152 0 0 1-5.152 5.152 5.152 5.152 0 0 1-5.152-5.152 5.152 5.152 0 0 1 5.152-5.151 5.152 5.152 0 0 1 5.152 5.151z" style="fill:#f39e11;paint-order:markers fill stroke"/>
  <path d="m579.54 1601.3q-0.464 0-0.791-0.328-0.328-0.327-0.328-0.791t0.419-1.003q0.42-0.54 0.42-1.156 0-0.467-0.212-0.691-0.208-0.228-0.543-0.228-0.412 0-0.72 0.388-0.303 0.383-0.324 0.931v1.839h-0.599v-4.081h-0.6v-0.6h0.6v-0.596h0.599v0.596h0.6v0.6h-0.6v0.795q0.46-0.472 1.068-0.472 0.583 0 0.955 0.404 0.376 0.4 0.376 1.115 0 0.864-0.42 1.403-0.42 0.54-0.42 0.756t0.152 0.368 0.368 0.152z" style="stroke-width:.18565"/>
  <path d="m573.53 1594.6h7.259v0.597h-7.259z" style="fill:#000000;opacity:.999;paint-order:stroke fill markers"/>
  <path d="m575.9 1595.3h2.505v1.039h-2.505z" style="fill:#f39e11;opacity:.999;paint-order:stroke fill markers"/>
  <path d="m577.45 1594.7v3.89h-0.598v-3.89z" style="fill:#000000;opacity:.999;paint-order:stroke fill markers"/>
  <path d="m576.6 1598h1.103v2.487h-1.103z" style="fill:#f39e11;opacity:.999;paint-order:stroke fill markers"/>
  <path d="m578.31 1595a1.1797 1.1797 0 0 1-1.18 1.179 1.1797 1.1797 0 0 1-1.18-1.179 1.1797 1.1797 0 0 1 1.18-1.18 1.1797 1.1797 0 0 1 1.18 1.18z" style="fill:none;opacity:.999;paint-order:stroke fill markers;stroke-miterlimit:10;stroke-width:.5988;stroke:#000000"/>
  <path d="m616.89 2045.1a4.82 4.82 0 0 1-4.82 4.82 4.82 4.82 0 0 1-4.82-4.82 4.82 4.82 0 0 1 4.82-4.82 4.82 4.82 0 0 1 4.82 4.82z" style="fill:#9e7f7a;opacity:.999;paint-order:stroke fill markers"/>
  <path d="m614.32 2048.4h-0.90796l-2.0888-2.9819-0.76407 1.0915v1.8904h-0.74423v-6.5492h0.74423v3.3639l2.3567-3.3639h0.90796l-2.0442 2.9223z" style="stroke-width:.47631"/>
  <path transform="rotate(-55.23)" d="m-1333.9 1670.5h4.0326v0.7464h-4.0326z" style="fill:#000000;paint-order:stroke fill markers"/>
  <path d="m610.5 2048.4h2.8064v0.8986h-2.8064z" style="fill:#9e7f7a;opacity:.999;paint-order:stroke fill markers"/>
  <path d="m573.61 2045.1a3.63 3.63 0 0 1-3.63 3.63 3.63 3.63 0 0 1-3.63-3.63 3.63 3.63 0 0 1 3.63-3.63 3.63 3.63 0 0 1 3.63 3.63z" style="fill:#ebdd21;paint-order:stroke fill markers"/>
  <path d="m570.94 2047.8h-1.9129v-0.6377h0.63764v-4.3359h-0.63764v-0.6377h1.9129v0.6377h-0.63763v4.3359h0.63763z" style="stroke-width:.40809"/>
  <path d="m568.17 2045.7h3.6301v0.6395h-3.6301z" style="fill:#000000;paint-order:stroke fill markers"/>
  <path d="m585.5 2045.1a3.138 3.138 0 0 1-3.138 3.138 3.138 3.138 0 0 1-3.138-3.138 3.138 3.138 0 0 1 3.138-3.138 3.138 3.138 0 0 1 3.138 3.138z" style="fill:#b97565;paint-order:stroke fill markers"/>
  <path d="m583.7 2046.9h-2.6655v-4.1887h2.6655v0.476h-2.1895v1.3804h1.8088v0.476h-1.8088v1.3803h2.1895z" style="stroke-width:.30463"/>
  <path transform="matrix(0,-1,-1,0,0,0)" d="m-2047.5-583.03h1.8066v0.47735h-1.8066z" style="fill:#000000;paint-order:stroke fill markers"/>
  <path d="m582.2 2043.8h1.8799v1.8799h-1.8799z" style="fill:#b97565;paint-order:stroke fill markers"/>
  <path d="m601.64 2045.1a5.268 5.268 0 0 1-5.268 5.268 5.268 5.268 0 0 1-5.268-5.268 5.268 5.268 0 0 1 5.268-5.268 5.268 5.268 0 0 1 5.268 5.268z" style="fill:#e7e1e9;paint-order:stroke fill markers"/>
  <path d="m595.44 2048.6h-0.79257v-6.9746h4.4384v0.7926h-3.6458z" style="stroke-width:.50725"/>
  <path d="m593.55 2046.5h3.0096v0.7948h-3.0096z" style="fill:#000000;paint-order:stroke fill markers"/>
  <path d="m585.5 2045.1a3.138 3.138 0 0 1-3.138 3.138 3.138 3.138 0 0 1-3.138-3.138 3.138 3.138 0 0 1 3.138-3.138 3.138 3.138 0 0 1 3.138 3.138z" style="fill:#b97565;paint-order:markers fill stroke"/>
  <path d="m583.26 2042.8v4.513" style="fill:none;opacity:.999;paint-order:stroke fill markers;stroke-miterlimit:10;stroke-width:.47546;stroke:#000000"/>
  <path d="m581.63 2045.7a0.69288 0.69288 0 0 1-0.60006-0.3464 0.69288 0.69288 0 0 1 0-0.6929 0.69288 0.69288 0 0 1 0.60006-0.3464" style="fill:none;opacity:.999;paint-order:stroke fill markers;stroke-linecap:round;stroke-miterlimit:10;stroke-width:.47546;stroke:#000000"/>
  <path d="m584.07 2045.7h-2.4419" style="fill:none;opacity:.999;paint-order:stroke fill markers;stroke-miterlimit:10;stroke-width:.47546;stroke:#000000"/>
  <path d="m581.62 2044.4a0.58903 0.58903 0 0 1-0.54419-0.3636 0.58903 0.58903 0 0 1 0.12769-0.642 0.58903 0.58903 0 0 1 0.64191-0.1276 0.58903 0.58903 0 0 1 0.36362 0.5441" style="fill:none;opacity:.999;paint-order:stroke fill markers;stroke-miterlimit:10;stroke-width:.47546;stroke:#000000"/>
  <path d="m601.64 2045.1a5.268 5.268 0 0 1-5.268 5.268 5.268 5.268 0 0 1-5.268-5.268 5.268 5.268 0 0 1 5.268-5.268 5.268 5.268 0 0 1 5.268 5.268z" style="fill:#e7e1e9;paint-order:markers fill stroke"/>
  <path d="m596.48 2048q0.0634 0 0.11096-0.048 0.0476-0.047 0.0476-0.1109 0-0.063-0.0476-0.2431-0.0476-0.1796-0.11096-0.1796-0.0634 0-0.11096 0.1796-0.0476 0.1797-0.0476 0.2431 0 0.063 0.0476 0.1109 0.0476 0.048 0.11096 0.048zm0 0.7926q-0.39629 0-0.67633-0.2801-0.27476-0.2747-0.27476-0.671t0.28004-1.0198q0.0951-0.2166 0.21135-0.3593l-1.3157-3.6089q-0.0951-0.2694-0.35402-0.391-0.13738-0.063-0.28004-0.063v-0.7925q0.31174 0 0.61821 0.1426 0.5548 0.2589 0.76087 0.8349l1.0304 2.8268 1.3474-3.6987h0.84541l-1.7278 4.7502q0.11096 0.1427 0.21135 0.3593 0.27476 0.6235 0.27476 1.0198t-0.28004 0.671q-0.27476 0.2801-0.67105 0.2801z" style="stroke-width:.50725"/>
  <path d="m596.59 2041.6 1.6977 4.9657" style="fill:none;opacity:.999;paint-order:stroke fill markers;stroke-miterlimit:10;stroke-width:.79818;stroke:#000000"/>
  <path d="m616.89 2045.1a4.82 4.82 0 0 1-4.82 4.82 4.82 4.82 0 0 1-4.82-4.82 4.82 4.82 0 0 1 4.82-4.82 4.82 4.82 0 0 1 4.82 4.82z" style="fill:#9e7f7a;opacity:.999;paint-order:stroke fill markers"/>
  <path d="m613.58 2044.5-0.0274 3.0217" style="fill:none;opacity:.999;paint-order:stroke fill markers;stroke-miterlimit:10;stroke-width:.6577;stroke:#000000"/>
  <path d="m614.61 2046h-2.1903c-0.52184 0-0.70055-0.8259-0.70055-1.0187 0-0.718 0.70731-2.6368 0.70731-2.6368s-2.036 3.309-2.376 4.348c0 0 0.42205-3.9522 0.31419-4.1392-0.18904-0.3273-0.58592-0.4111-0.78154-0.4078" style="fill:none;opacity:.999;paint-order:stroke fill markers;stroke-linejoin:round;stroke-miterlimit:10;stroke-width:.6577;stroke:#000000"/>
  <path d="m492.65-441.57a2.706 2.706 0 0 1-2.706 2.706 2.706 2.706 0 0 1-2.706-2.706 2.706 2.706 0 0 1 2.706-2.706 2.706 2.706 0 0 1 2.706 2.706z" style="fill:#ebc8df;paint-order:stroke fill markers"/>
  <path d="m490.16-439.55h-0.43763v-1.7068q-0.46389-0.0642-0.81108-0.41429-0.42888-0.42596-0.42888-1.0299v-0.70021h0.43763v0.70021q0 0.42305 0.30051 0.72064 0.2159 0.21882 0.50182 0.28009v-1.7009h0.43763v1.7009q0.28592-0.0613 0.50474-0.28009 0.29759-0.29759 0.29759-0.72064v-0.70021h0.43763v0.70021q0 0.60394-0.42596 1.0299-0.35011 0.35011-0.814 0.41429z" style="stroke-width:.28009"/>
  <path d="m488.3-442.58h3.2996v0.43889h-3.2996z" style="fill:#000000;paint-order:stroke fill markers"/>
  <path d="m492.65-441.57a2.706 2.706 0 0 1-2.706 2.706 2.706 2.706 0 0 1-2.706-2.706 2.706 2.706 0 0 1 2.706-2.706 2.706 2.706 0 0 1 2.706 2.706z" style="fill:#ebc8df;paint-order:markers fill stroke"/>
  <path d="m490.16-439.67h-0.42637v-0.6681-0.42644-0.56859c-0.30138-0.0417-0.56477-0.17626-0.79032-0.4037-0.27861-0.27672-0.41799-0.62072-0.41799-1.032v-0.14216h-0.21325l0.42651-0.56859 0.42637 0.56859h-0.21312v0.14216c0 0.29376 0.0976 0.53731 0.29272 0.73064 0.14035 0.14215 0.30333 0.23312 0.48908 0.27293v-1.1457h-0.21326l0.42651-0.56859 0.42637 0.56859h-0.21325v1.1457c0.18574-0.0398 0.34969-0.13078 0.49186-0.27293 0.19329-0.19333 0.28993-0.43688 0.28993-0.73064v-0.14216h-0.21312l0.42637-0.56859 0.42651 0.56859h-0.21325v0.14216c0 0.41127-0.1384 0.75527-0.41506 1.032-0.2275 0.22744-0.49187 0.36201-0.79324 0.4037v0.56859 0.42644z" style="stroke-width:.13204"/>
  <path transform="rotate(90)" d="m-442.56-491.9h0.42382v3.9123h-0.42382z" style="fill:#000000;opacity:.999;paint-order:stroke fill markers"/>
 </g>
</svg>
