<?xml version="1.0" encoding="UTF-8"?>
<svg width="105.49mm" height="105.49mm" version="1.1" viewBox="0 0 105.49 105.49" xmlns="http://www.w3.org/2000/svg">
 <circle transform="rotate(-38.703)" cx="8.1802" cy="74.141" r="25.4" style="fill:#ef6366;paint-order:markers stroke fill;stroke-linecap:round;stroke-linejoin:round"/>
 <path d="m41.346 38.521a18.226 57.645 51.297 0 0-33.589 50.268 18.226 57.645 51.297 0 0 56.382-21.822 18.226 57.645 51.297 0 0 33.59-50.268 18.226 57.645 51.297 0 0-56.383 21.821zm0.254 0.3165a17.82 56.363 51.297 0 1 55.127-21.336 17.82 56.363 51.297 0 1-32.842 49.149 17.82 56.363 51.297 0 1-55.127 21.336 17.82 56.363 51.297 0 1 32.842-49.149zm-0.05 0.097a17.776 56.223 51.297 0 0-32.684 48.967 17.776 56.223 51.297 0 0 54.991-21.283 17.776 56.223 51.297 0 0 32.761-49.028 17.776 56.223 51.297 0 0-54.991 21.283 17.776 56.223 51.297 0 0-0.08 0.063zm1 1.0876a16.302 51.562 51.297 0 1 50.432-19.519 16.302 51.562 51.297 0 1-30.045 44.963 16.302 51.562 51.297 0 1-50.432 19.519 16.302 51.562 51.297 0 1 30.045-44.963z" style="fill:#13fcd5;paint-order:markers stroke fill;stroke-linecap:round;stroke-linejoin:round"/>
 <path d="m42.953 40.526a15.656 49.517 51.297 0 0-28.853 43.18 15.656 49.517 51.297 0 0 48.432-18.745 15.656 49.517 51.297 0 0 28.853-43.18 15.656 49.517 51.297 0 0-48.432 18.744zm2.111 2.6667a12.255 38.76 51.297 0 1 0.02-0.012 12.255 38.76 51.297 0 1 37.911-14.672 12.255 38.76 51.297 0 1-22.586 33.8 12.255 38.76 51.297 0 1-37.91 14.672 12.255 38.76 51.297 0 1 22.565-33.784z" style="fill:#35d7ce;paint-order:markers stroke fill;stroke-linecap:round;stroke-linejoin:round"/>
 <path d="m45.06 43.196a12.255 38.76 51.297 0 0-22.565 33.784 12.255 38.76 51.297 0 0 37.91-14.672 12.255 38.76 51.297 0 0 22.586-33.8 12.255 38.76 51.297 0 0-37.911 14.672 12.255 38.76 51.297 0 0-0.02 0.012zm0.367 0.4261a11.693 36.982 51.297 0 1 36.172-14 11.693 36.982 51.297 0 1-21.549 32.249 11.693 36.982 51.297 0 1-36.172 13.999 11.693 36.982 51.297 0 1 21.549-32.249zm0.02 0.028a11.657 36.868 51.297 0 0-21.483 32.15 11.657 36.868 51.297 0 0 36.06-13.956 11.657 36.868 51.297 0 0 21.483-32.15 11.657 36.868 51.297 0 0-36.06 13.956zm1.067 1.332a9.9501 31.471 51.297 0 1 30.781-11.913 9.9501 31.471 51.297 0 1-18.338 27.443 9.9501 31.471 51.297 0 1-30.78 11.913 9.9501 31.471 51.297 0 1 18.337-27.443z" style="fill:#0d8f82;paint-order:markers stroke fill;stroke-linecap:round;stroke-linejoin:round"/>
 <path d="m46.434 45.074a9.93 31.407 51.297 0 0-18.201 27.308 9.93 31.407 51.297 0 0 30.719-11.889 9.93 31.407 51.297 0 0 18.3-27.388 9.93 31.407 51.297 0 0-30.718 11.889 9.93 31.407 51.297 0 0-0.1 0.079zm0.735 0.7135a8.9141 28.194 51.297 0 1 27.576-10.673 8.9141 28.194 51.297 0 1-16.428 24.586 8.9141 28.194 51.297 0 1-27.577 10.673 8.9141 28.194 51.297 0 1 16.429-24.586z" style="fill:#0a5043;paint-order:markers stroke fill;stroke-linecap:round;stroke-linejoin:round"/>
 <path transform="matrix(.78039 -.62529 -.62529 -.78039 0 0)" d="m33.58-74.141a25.4 25.4 0 0 1-12.7 21.997 25.4 25.4 0 0 1-25.4-1e-6 25.4 25.4 0 0 1-12.7-21.997h25.4z" style="fill:#ef6366;paint-order:markers stroke fill;stroke-linecap:round;stroke-linejoin:round"/>
</svg>
