<?xml version="1.0" encoding="UTF-8"?>
<svg width="26.655mm" height="25.955mm" version="1.1" viewBox="0 0 26.655 25.955" xmlns="http://www.w3.org/2000/svg">
 <g transform="translate(-395.99 -185.81)">
  <path d="m410.77 211.77h-2.9049v-4.5519-2.9054-3.874c-2.0534-0.28403-3.8479-1.2009-5.3846-2.7505-1.8982-1.8853-2.8478-4.229-2.8478-7.0311v-0.96854h-1.4529l2.9059-3.874 2.9049 3.874h-1.452v0.96854c0 2.0015 0.6651 3.6608 1.9944 4.978 0.95626 0.96854 2.0667 1.5884 3.3322 1.8595v-7.806h-1.453l2.9059-3.874 2.9049 3.874h-1.4529v7.806c1.2655-0.27118 2.3826-0.89099 3.3512-1.8595 1.3169-1.3172 1.9753-2.9765 1.9753-4.978v-0.96854h-1.452l2.9049-3.874 2.9059 3.874h-1.4529v0.96854c0 2.8021-0.94294 5.1458-2.8279 7.0311-1.55 1.5496-3.3512 2.4665-5.4045 2.7505v3.874 2.9054z" style="stroke-width:.89959"/>
  <path transform="rotate(90)" d="m192.08-422.65h2.8876v26.655h-2.8876z" style="fill:#000000;opacity:.999;paint-order:stroke fill markers"/>
 </g>
</svg>
