<?xml version="1.0" encoding="UTF-8" standalone="no"?>
<svg
   xmlns:dc="http://purl.org/dc/elements/1.1/"
   xmlns:cc="http://creativecommons.org/ns#"
   xmlns:rdf="http://www.w3.org/1999/02/22-rdf-syntax-ns#"
   xmlns:svg="http://www.w3.org/2000/svg"
   xmlns="http://www.w3.org/2000/svg"
   xmlns:sodipodi="http://sodipodi.sourceforge.net/DTD/sodipodi-0.dtd"
   xmlns:inkscape="http://www.inkscape.org/namespaces/inkscape"
   width="10mm"
   height="10mm"
   version="1.1"
   viewBox="0 0 10 10"
   id="svg10"
   sodipodi:docname="moonicon_fontglyph_deimos2.svg"
   inkscape:version="1.0.2-2 (e86c870879, 2021-01-15)">
  <metadata
     id="metadata16">
    <rdf:RDF>
      <cc:Work
         rdf:about="">
        <dc:format>image/svg+xml</dc:format>
        <dc:type
           rdf:resource="http://purl.org/dc/dcmitype/StillImage" />
        <dc:title></dc:title>
      </cc:Work>
    </rdf:RDF>
  </metadata>
  <defs
     id="defs14" />
  <sodipodi:namedview
     pagecolor="#ffffff"
     bordercolor="#666666"
     borderopacity="1"
     objecttolerance="10"
     gridtolerance="10"
     guidetolerance="10"
     inkscape:pageopacity="0"
     inkscape:pageshadow="2"
     inkscape:window-width="640"
     inkscape:window-height="480"
     id="namedview12"
     showgrid="false"
     inkscape:zoom="9.7895833"
     inkscape:cx="4.6188345"
     inkscape:cy="18.324857"
     inkscape:current-layer="svg10"
     inkscape:document-rotation="0"
     showguides="false" />
  <path
     id="path886-9"
     style="color:#000000;font-style:normal;font-variant:normal;font-weight:normal;font-stretch:normal;font-size:medium;line-height:normal;font-family:sans-serif;font-variant-ligatures:normal;font-variant-position:normal;font-variant-caps:normal;font-variant-numeric:normal;font-variant-alternates:normal;font-variant-east-asian:normal;font-feature-settings:normal;font-variation-settings:normal;text-indent:0;text-align:start;text-decoration:none;text-decoration-line:none;text-decoration-style:solid;text-decoration-color:#000000;letter-spacing:normal;word-spacing:normal;text-transform:none;writing-mode:lr-tb;direction:ltr;text-orientation:mixed;dominant-baseline:auto;baseline-shift:baseline;text-anchor:start;white-space:normal;shape-padding:0;shape-margin:0;inline-size:0;clip-rule:nonzero;display:inline;overflow:visible;visibility:visible;opacity:0.999;isolation:auto;mix-blend-mode:normal;color-interpolation:sRGB;color-interpolation-filters:linearRGB;solid-color:#000000;solid-opacity:1;vector-effect:none;fill:#008000;fill-opacity:1;fill-rule:nonzero;stroke:none;stroke-width:3.77953;stroke-linecap:butt;stroke-linejoin:miter;stroke-miterlimit:4;stroke-dasharray:none;stroke-dashoffset:0;stroke-opacity:1;paint-order:stroke fill markers;color-rendering:auto;image-rendering:auto;shape-rendering:auto;text-rendering:auto;enable-background:accumulate;stop-color:#000000;stop-opacity:1"
     d="M 23.955078 1.5761719 L 22.613281 4.7089844 C 21.168084 3.4629091 19.503843 2.9323323 17.996094 2.9902344 C 16.333562 3.0540807 14.89363 3.7379287 13.871094 4.7089844 C 12.864657 5.6647506 11.976585 7.0633576 11.751953 8.7910156 C 11.527321 10.518673 12.109382 12.544928 13.78125 14.216797 L 13.789062 14.232422 L 16.865234 17.152344 C 12.347052 17.563326 8.7851559 21.380912 8.7851562 26.005859 C 8.7851559 30.903237 12.777812 34.908203 17.671875 34.908203 C 22.565939 34.908203 26.568359 30.903237 26.568359 26.005859 C 26.568359 23.540349 25.551477 21.305613 23.919922 19.691406 L 23.923828 19.6875 L 15.908203 12.0625 C 14.811216 10.95777 14.634699 10.055355 14.748047 9.1835938 C 14.861995 8.3072101 15.403829 7.4239851 15.953125 6.9023438 C 16.436613 6.443198 17.254086 6.0428361 18.115234 6.0097656 C 18.836939 5.9820498 19.610841 6.1851309 20.4375 6.8378906 L 17.388672 8.1425781 L 26.359375 10.544922 L 23.955078 1.5761719 z M 17.671875 20.130859 C 19.083906 20.130859 20.373726 20.621623 21.382812 21.443359 L 21.84375 21.880859 L 21.853516 21.871094 C 22.89794 22.929823 23.541016 24.386773 23.541016 26.005859 C 23.541016 29.27116 20.92943 31.890625 17.671875 31.890625 C 14.414321 31.890625 11.802734 29.27116 11.802734 26.005859 C 11.802734 22.740558 14.414321 20.130859 17.671875 20.130859 z "
     transform="scale(0.26458333)" />
</svg>
