<?xml version="1.0" encoding="UTF-8"?>
<svg width="22.408mm" height="35.612mm" version="1.1" viewBox="0 0 22.408 35.612" xmlns="http://www.w3.org/2000/svg">
 <g transform="translate(-171.54 -174.05)">
  <g style="stroke-width:2.4698" aria-label="γ">
   <path d="m183.27 205.8q0.30873 0 0.54027-0.23154 0.23155-0.23154 0.23155-0.54027 0-0.30872-0.23155-1.1834-0.23154-0.87472-0.54027-0.87472-0.30872 0-0.54027 0.87472-0.23154 0.87473-0.23154 1.1834 0 0.30873 0.23154 0.54027 0.23155 0.23154 0.54027 0.23154zm0 3.8591q-1.9295 0-3.2931-1.3635-1.3378-1.3378-1.3378-3.2673t1.3635-4.9653q0.46309-1.0548 1.0291-1.7494l-6.406-17.572q-0.46309-1.3121-1.7237-1.9038-0.6689-0.30872-1.3635-0.30872v-3.8591q1.5179 0 3.0101 0.69464 2.7013 1.2606 3.7047 4.0649l5.0168 13.764 6.5604-18.009h4.1163l-8.4128 23.129q0.54027 0.69463 1.0291 1.7494 1.3378 3.0358 1.3378 4.9653t-1.3635 3.2673q-1.3378 1.3635-3.2674 1.3635z" style="stroke-width:2.4698"/>
  </g>
  <path d="m183.79 174.68 8.266 24.178" style="fill:none;opacity:.999;paint-order:stroke fill markers;stroke-miterlimit:10;stroke-width:3.8864;stroke:#000000"/>
 </g>
</svg>
