<?xml version="1.0" encoding="UTF-8"?>
<svg width="14.562mm" height="21.139mm" version="1.1" viewBox="0 0 14.562 21.139" xmlns="http://www.w3.org/2000/svg">
 <path d="m3.2575 9.47v1.2181h2.9993v3.2964c-0.59664 0.1643-1.1295 0.47995-1.597 0.94721-0.70934 0.70934-1.0639 1.5661-1.0639 2.5699 0 1.0036 0.35455 1.8603 1.0639 2.5696 0.70935 0.70961 1.5661 1.0647 2.5699 1.0647 1.0033 0 1.86-0.35507 2.5699-1.0647 0.70935-0.70935 1.0652-1.5661 1.0652-2.5696 0-1.0038-0.35586-1.8606-1.0652-2.5699-0.46725-0.46726-0.99933-0.78291-1.5968-0.94721v-3.2964h3.1017v-1.2181zm3.9722 6.3444c0.46752 0 0.86519 0.16457 1.1938 0.49344 0.32861 0.32888 0.49292 0.72655 0.49292 1.1938 0 0.46699-0.16431 0.86546-0.49292 1.1941-0.32861 0.32888-0.72628 0.49318-1.1938 0.49318-0.46725 0-0.86439-0.1643-1.193-0.49318-0.32888-0.32861-0.49425-0.72708-0.49425-1.1941 0-0.46725 0.16537-0.86492 0.49425-1.1938 0.32861-0.32887 0.72575-0.49344 1.193-0.49344z" style="stroke-width:.60278"/>
 <path d="m14.562 17.13h-2.077l-2.297-6.2948h-5.814l-2.298 6.2948h-2.076l6.242-17.132h2.077zm-5.075-8.2416-2.206-6.0351-2.207 6.0351z" style="stroke-width:.60278"/>
</svg>
