<?xml version="1.0" encoding="UTF-8"?>
<svg width="12.395mm" height="23.371mm" version="1.1" viewBox="0 0 12.395 23.371" xmlns="http://www.w3.org/2000/svg">
 <g transform="translate(-489.28 -192.89)">
  <path d="m494.51 197.73v5.3853h-1.821v-5.3853z" style="fill:#000000;opacity:.999;paint-order:stroke fill markers"/>
  <path d="m500.76 197.4a3.5953 3.5953 0 0 1-3.595 3.5953 3.5953 3.5953 0 0 1-3.595-3.5953 3.5953 3.5953 0 0 1 3.595-3.5953 3.5953 3.5953 0 0 1 3.595 3.5953z" style="fill:none;opacity:.999;paint-order:stroke fill markers;stroke-miterlimit:10;stroke-width:1.8249;stroke:#000000"/>
  <path d="m493.87 201.64c-1.234 0-2.4612 0.39714-3.3941 1.3555-0.90355 1.0462-1.1533 1.4465-1.2004 3.1142h1.4809c0.11695-0.6395 0.32041-1.2372 0.68236-1.6949 0.6268-0.7874 1.5208-0.94721 2.358-0.94721 0.68183 0 1.234 0.23151 1.656 0.69453 0.44106 0.45482 0.64611 1.157 0.64611 2.1071 0 1.2507-0.42704 2.4246-1.2801 3.5208-0.8509 1.0964-1.2769 2.1156-1.2769 3.0578 0 0.94192 0.33284 1.7462 0.9988 2.4122 0.6641 0.66595 1.4692 0.9988 2.4112 0.9988v-1.8277c-0.43789 0-0.81228-0.15399-1.1202-0.46249-0.30295-0.30877-0.46302-0.68236-0.46302-1.1208 0-0.43868 0.42651-1.2062 1.2774-2.3027 0.85301-1.0964 1.2795-2.5215 1.2795-4.2759 0-1.4536-0.38073-2.5866-1.1446-3.3986-0.75512-0.82021-1.7269-1.2306-2.9109-1.2306z" style="fill:#000000;stroke-width:.56578"/>
 </g>
</svg>
