<svg width="10mm" height="10mm" version="1.1" viewBox="0 0 10 10" xmlns="http://www.w3.org/2000/svg">
 <path d="m6.8039 0.25v9.4999" style="fill:none;opacity:.999;paint-order:stroke fill markers;stroke-miterlimit:10;stroke:#ff0000"/>
 <path d="m3.6108 6.3717a1.3593 1.4585 0 0 1-1.1772-0.72927 1.3593 1.4585 0 0 1 0-1.4585 1.3593 1.4585 0 0 1 1.1772-0.72927" style="fill:none;opacity:.999;paint-order:stroke fill markers;stroke-linecap:round;stroke-miterlimit:10;stroke:#ff0000"/>
 <path d="m8.3865 6.3717h-4.7907" style="fill:none;opacity:.999;paint-order:stroke fill markers;stroke-miterlimit:10;stroke:#ff0000"/>
 <path d="m3.5828 3.4593a1.1556 1.2399 0 0 1-1.0676-0.7654 1.1556 1.2399 0 0 1 0.2505-1.3513 1.1556 1.2399 0 0 1 1.2593-0.26878 1.1556 1.2399 0 0 1 0.71334 1.1455" style="fill:none;opacity:.999;paint-order:stroke fill markers;stroke-miterlimit:10;stroke:#ff0000"/>
</svg>
