<?xml version="1.0" encoding="UTF-8" standalone="no"?>
<svg
   xmlns:dc="http://purl.org/dc/elements/1.1/"
   xmlns:cc="http://creativecommons.org/ns#"
   xmlns:rdf="http://www.w3.org/1999/02/22-rdf-syntax-ns#"
   xmlns:svg="http://www.w3.org/2000/svg"
   xmlns="http://www.w3.org/2000/svg"
   xmlns:sodipodi="http://sodipodi.sourceforge.net/DTD/sodipodi-0.dtd"
   xmlns:inkscape="http://www.inkscape.org/namespaces/inkscape"
   width="22.408mm"
   height="35.612mm"
   version="1.1"
   viewBox="0 0 22.408 35.612"
   id="svg10"
   sodipodi:docname="moonicon_ganymede2.svg"
   inkscape:version="1.0.2-2 (e86c870879, 2021-01-15)">
  <metadata
     id="metadata16">
    <rdf:RDF>
      <cc:Work
         rdf:about="">
        <dc:format>image/svg+xml</dc:format>
        <dc:type
           rdf:resource="http://purl.org/dc/dcmitype/StillImage" />
        <dc:title></dc:title>
      </cc:Work>
    </rdf:RDF>
  </metadata>
  <defs
     id="defs14" />
  <sodipodi:namedview
     pagecolor="#ffffff"
     bordercolor="#666666"
     borderopacity="1"
     objecttolerance="10"
     gridtolerance="10"
     guidetolerance="10"
     inkscape:pageopacity="0"
     inkscape:pageshadow="2"
     inkscape:window-width="640"
     inkscape:window-height="480"
     id="namedview12"
     showgrid="false"
     inkscape:zoom="5.4979128"
     inkscape:cx="42.345829"
     inkscape:cy="67.298267"
     inkscape:current-layer="svg10" />
  <path
     id="path2"
     style="stroke-width:9.33468"
     d="M 53.246094 0.0078125 L 39.353516 4.7539062 L 53.685547 46.681641 L 44.333984 72.353516 L 25.373047 20.332031 C 22.844795 13.266079 18.177519 8.1450649 11.371094 4.96875 C 7.6112198 3.218476 3.8187705 2.34375 -0.005859375 2.34375 L -0.005859375 16.929688 C 1.7443138 16.929688 3.4630202 17.317826 5.1484375 18.095703 C 8.3247776 19.586601 10.495268 21.984937 11.662109 25.291016 L 35.875 91.705078 C 34.448833 93.455251 33.151216 95.658642 31.984375 98.316406 C 28.548784 105.96567 26.832031 112.22225 26.832031 117.08398 C 26.832031 121.94572 28.515884 126.06081 31.886719 129.43164 C 35.322561 132.86723 39.472252 134.58594 44.333984 134.58594 C 49.195969 134.58594 53.312759 132.86723 56.683594 129.43164 C 60.119184 126.06081 61.835937 121.94572 61.835938 117.08398 C 61.835937 112.22225 60.150132 105.96567 56.779297 98.316406 C 55.547599 95.658718 54.251935 93.455327 52.890625 91.705078 L 61.234375 68.763672 L 70.59375 96.142578 L 84.492188 91.388672 L 69.234375 46.769531 L 84.6875 4.2871094 L 69.128906 4.2871094 L 61.691406 24.705078 L 53.246094 0.0078125 z M 44.333984 109.30469 C 45.111887 109.30469 45.791592 110.40536 46.375 112.60938 C 46.958433 114.81329 47.25 116.30415 47.25 117.08203 C 47.25 117.85993 46.958433 118.54159 46.375 119.125 C 45.791592 119.70841 45.111887 120 44.333984 120 C 43.556107 120 42.874449 119.70841 42.291016 119.125 C 41.707608 118.54159 41.416016 117.85993 41.416016 117.08203 C 41.416016 116.30428 41.707608 114.81342 42.291016 112.60938 C 42.874449 110.40536 43.556107 109.30469 44.333984 109.30469 z "
     transform="scale(0.26458333)" />
</svg>
