<?xml version="1.0" encoding="UTF-8"?>
<svg width="13.355mm" height="17.893mm" version="1.1" viewBox="0 0 13.355 17.893" xmlns="http://www.w3.org/2000/svg">
 <g transform="translate(-398.87 -187.68)">
  <path d="m404.55 194.94v3.2726c-0.61463 0.16934-1.162 0.49398-1.6428 0.97473-0.72998 0.72998-1.0951 1.611-1.0951 2.6437 0 1.0327 0.36513 1.914 1.0951 2.6437 0.72999 0.72999 1.611 1.0951 2.6437 1.0951s1.9143-0.36512 2.6442-1.0951c0.72998-0.72972 1.0951-1.611 1.0951-2.6437 0-1.0327-0.36513-1.9137-1.0951-2.6437-0.48049-0.48075-1.0284-0.80539-1.6433-0.97473v-3.2726zm1.0009 5.1554c0.48075 0 0.89138 0.16907 1.2295 0.50747 0.33866 0.33814 0.508 0.74745 0.508 1.2282 0 0.48074-0.16934 0.89058-0.508 1.229-0.33814 0.33813-0.74877 0.50694-1.2295 0.50694s-0.88927-0.16881-1.2269-0.50694c-0.33867-0.33841-0.50774-0.74825-0.50774-1.229 0-0.48075 0.16907-0.89006 0.50774-1.2282 0.3376-0.3384 0.74612-0.50747 1.2269-0.50747z" style="fill:#000000;stroke-width:.62016"/>
  <path d="m405.55 195.23c-1.839 0-3.411-0.6512-4.723-1.9494-1.303-1.3086-1.954-2.8838-1.954-4.7267v-0.8786h2.005v0.8786c0 1.291 0.414 2.3938 1.365 3.3106 0.93 0.9096 2.015 1.3624 3.307 1.3624s2.398-0.4548 3.298-1.3624c0.93-0.9199 1.374-2.0196 1.374-3.3106v-0.8786h2.006v0.8786c0 1.8429-0.621 3.4181-1.964 4.7267-1.292 1.2993-2.863 1.9494-4.714 1.9494z" style="fill:#000000;stroke-width:.62016"/>
 </g>
</svg>
