<?xml version="1.0" encoding="UTF-8"?>
<svg width="35.755mm" height="38.4mm" version="1.1" viewBox="0 0 35.755 38.4" xmlns="http://www.w3.org/2000/svg">
 <path d="m17.756 6.2648e-7c-3.4204 0.0014-6.3087 2.3929-7.0797 5.5857h-10.676v2.9435h10.582c0.51793 2.9781 2.8602 5.3514 5.8229 5.9149v7.8031h3.2494c0.2614-0.97042 0.69375-1.8417 1.3017-2.6112 1.0127-1.2734 2.1953-1.91 3.5471-1.91 1.1011 0 1.9931 0.37374 2.6763 1.1219 0.69558 0.73516 1.0433 1.8708 1.0433 3.4065 0 2.0216-0.68923 3.9182-2.0681 5.6901-1.3764 1.7721-2.065 3.4197-2.065 4.9423s0.53834 2.8222 1.6149 3.8985c1.0741 1.0763 2.3732 1.6144 3.8969 1.6144v-2.9528c-0.70786 0-1.3113-0.24984-1.8102-0.74879-0.49895-0.4987-0.74879-1.1024-0.74879-1.8113 0-0.70886 0.68859-1.9492 2.065-3.7212 1.3789-1.7719 2.0681-4.0752 2.0681-6.9107 0-2.3495-0.61721-4.1804-1.851-5.4932-1.2216-1.3255-2.7891-1.9885-4.7036-1.9885-1.9958 0-3.7484 0.77416-5.2576 2.3229v-2.7037c2.8437-0.646 5.0694-2.9691 5.5728-5.8632h10.819v-2.9435h-10.914c-0.7715-3.1948-3.6627-5.5871-7.0854-5.5857zm0.0016 2.9492c1.8084-7.467e-4 3.3429 1.0794 3.9982 2.6365h-7.9933c0.65538-1.5558 2.1882-2.6358 3.9951-2.6365zm-4.1548 5.58h2.8019v2.8773c-1.3493-0.43757-2.3991-1.5117-2.8019-2.8773zm5.7604 0h2.5523c-0.37852 1.2848-1.3307 2.3104-2.5652 2.7921v-2.4086h0.01292z" style="fill:currentcolor;paint-order:stroke fill markers"/>
</svg>
