<?xml version="1.0" encoding="UTF-8" standalone="no"?>
<svg
   xmlns:dc="http://purl.org/dc/elements/1.1/"
   xmlns:cc="http://creativecommons.org/ns#"
   xmlns:rdf="http://www.w3.org/1999/02/22-rdf-syntax-ns#"
   xmlns:svg="http://www.w3.org/2000/svg"
   xmlns="http://www.w3.org/2000/svg"
   xmlns:sodipodi="http://sodipodi.sourceforge.net/DTD/sodipodi-0.dtd"
   xmlns:inkscape="http://www.inkscape.org/namespaces/inkscape"
   width="10mm"
   height="10mm"
   version="1.1"
   viewBox="0 0 10 10"
   id="svg10"
   sodipodi:docname="moonicon_fontglyph_tethys2.svg"
   inkscape:version="1.0.2-2 (e86c870879, 2021-01-15)">
  <metadata
     id="metadata16">
    <rdf:RDF>
      <cc:Work
         rdf:about="">
        <dc:format>image/svg+xml</dc:format>
        <dc:type
           rdf:resource="http://purl.org/dc/dcmitype/StillImage" />
        <dc:title></dc:title>
      </cc:Work>
    </rdf:RDF>
  </metadata>
  <defs
     id="defs14" />
  <sodipodi:namedview
     pagecolor="#ffffff"
     bordercolor="#666666"
     borderopacity="1"
     objecttolerance="10"
     gridtolerance="10"
     guidetolerance="10"
     inkscape:pageopacity="0"
     inkscape:pageshadow="2"
     inkscape:window-width="640"
     inkscape:window-height="480"
     id="namedview12"
     showgrid="false"
     inkscape:zoom="16"
     inkscape:cx="16.305501"
     inkscape:cy="10.570918"
     inkscape:current-layer="svg10"
     inkscape:document-rotation="0"
     showguides="false" />
  <path
     id="path942-0"
     style="color:#000000;font-style:normal;font-variant:normal;font-weight:normal;font-stretch:normal;font-size:medium;line-height:normal;font-family:sans-serif;font-variant-ligatures:normal;font-variant-position:normal;font-variant-caps:normal;font-variant-numeric:normal;font-variant-alternates:normal;font-variant-east-asian:normal;font-feature-settings:normal;font-variation-settings:normal;text-indent:0;text-align:start;text-decoration:none;text-decoration-line:none;text-decoration-style:solid;text-decoration-color:#000000;letter-spacing:normal;word-spacing:normal;text-transform:none;writing-mode:lr-tb;direction:ltr;text-orientation:mixed;dominant-baseline:auto;baseline-shift:baseline;text-anchor:start;white-space:normal;shape-padding:0;shape-margin:0;inline-size:0;clip-rule:nonzero;display:inline;overflow:visible;visibility:visible;opacity:0.999;isolation:auto;mix-blend-mode:normal;color-interpolation:sRGB;color-interpolation-filters:linearRGB;solid-color:#000000;solid-opacity:1;vector-effect:none;fill:#008000;fill-opacity:1;fill-rule:nonzero;stroke:none;stroke-width:3.77953;stroke-linecap:butt;stroke-linejoin:round;stroke-miterlimit:10;stroke-dasharray:none;stroke-dashoffset:0;stroke-opacity:1;paint-order:stroke fill markers;color-rendering:auto;image-rendering:auto;shape-rendering:auto;text-rendering:auto;enable-background:accumulate;stop-color:#000000;stop-opacity:1"
     d="M 1.890625 0.953125 L 1.890625 3.9707031 L 17.384766 3.9707031 L 17.384766 35.513672 L 20.410156 35.513672 L 20.410156 22 C 21.346998 18.639216 23.865697 17.554688 24.972656 17.554688 C 25.388959 17.554688 26.404191 17.707211 27.166016 18.277344 C 27.92784 18.847476 28.642578 19.77783 28.642578 22.072266 C 28.642578 23.366569 27.799807 24.893919 26.751953 26.441406 C 25.704099 27.988893 24.337891 29.394135 24.337891 31.498047 C 24.337891 33.384513 25.257158 34.878704 26.367188 35.712891 C 27.477217 36.547077 28.676969 36.849609 29.697266 36.849609 L 29.697266 33.824219 C 29.395913 33.824219 28.664137 33.659956 28.183594 33.298828 C 27.703051 32.9377 27.365234 32.507299 27.365234 31.498047 C 27.365234 31.19745 28.150654 29.769925 29.253906 28.140625 C 30.357158 26.511325 31.667969 24.524063 31.667969 22.072266 C 31.667969 19.052909 30.469739 16.970005 28.980469 15.855469 C 27.491198 14.740933 25.916774 14.535156 24.972656 14.535156 C 23.496142 14.535156 21.834543 15.144346 20.410156 16.388672 L 20.410156 3.9707031 L 35.90625 3.9707031 L 35.90625 0.953125 L 1.890625 0.953125 z "
     transform="scale(0.26458333)" />
</svg>
