<svg width="10mm" height="10mm" version="1.1" viewBox="0 0 10 10" xmlns="http://www.w3.org/2000/svg">
 <path d="m6.6325 2.3622a1.6324 1.6122 0 0 1-1.6324 1.6122 1.6324 1.6122 0 0 1-1.6324-1.6122 1.6324 1.6122 0 0 1 1.6324-1.6122 1.6324 1.6122 0 0 1 1.6324 1.6122z" style="fill:none;opacity:.999;paint-order:stroke fill markers;stroke-linejoin:round;stroke-miterlimit:10;stroke:#ff0000"/>
 <path d="m0.83343 2.32h8.3331" style="fill:none;opacity:.999;paint-order:stroke fill markers;stroke-linejoin:round;stroke-miterlimit:10;stroke:#ff0000"/>
 <path d="m7.716 9.25c-0.32929 0-0.95723-0.23634-0.95723-0.96226 0-0.60278 1.0719-1.4246 1.0719-2.3637 0-1.3321-0.95225-1.5107-1.2912-1.5107-0.48588 0-1.2335 0.40662-1.504 1.4038v-3.4803" style="fill:none;opacity:.999;paint-order:stroke fill markers;stroke-linejoin:round;stroke-miterlimit:10;stroke:#ff0000"/>
</svg>
