<?xml version="1.0" encoding="UTF-8"?>
<svg width="14.957mm" height="17.937mm" version="1.1" viewBox="0 0 14.957 17.937" xmlns="http://www.w3.org/2000/svg">
 <g transform="translate(-478.68 -193.75)">
  <path d="m482.93 194.68v0.84852h1.6129v-0.84852zm0 3.6436v4.5233h1.7719c0.14288-0.52944 0.37862-1.0049 0.71014-1.4248 0.55325-0.69532 1.1988-1.0432 1.9368-1.0432 0.6014 0 1.0893 0.20426 1.4626 0.61278 0.37994 0.40137 0.56938 1.0216 0.56938 1.8603 0 1.1041-0.37623 2.1397-1.1295 3.1073-0.75142 0.96784-1.1266 1.8677-1.1266 2.6993 0 0.83132 0.29343 1.5412 0.88159 2.1288 0.58659 0.5879 1.2959 0.88159 2.128 0.88159v-1.6126c-0.38682 0-0.71676-0.13573-0.98928-0.40825-0.27226-0.27252-0.40825-0.60246-0.40825-0.98954 0-0.38735 0.37597-1.0647 1.1271-2.0325 0.75327-0.96758 1.1303-2.2254 1.1303-3.774 0-1.283-0.33734-2.2834-1.0115-3.0004-0.66728-0.72364-1.5235-1.0856-2.5688-1.0856-1.0898 0-2.0471 0.42281-2.871 1.2687v-1.7111z" style="stroke-width:.4994"/>
  <path d="m482.93 194.68v8.169h1.6074v-8.169z" style="fill:#000000;opacity:.999;paint-order:stroke fill markers"/>
  <path d="m478.68 193.75h14.957v1.6074h-14.957z" style="fill:#000000;opacity:.999;paint-order:stroke fill markers"/>
  <path d="m478.68 210.08h14.957v1.6074h-14.957z" style="fill:#000000;opacity:.999;paint-order:stroke fill markers"/>
 </g>
</svg>
