<?xml version="1.0" encoding="UTF-8"?>
<svg width="16.116mm" height="18.358mm" version="1.1" viewBox="0 0 16.116 18.358" xmlns="http://www.w3.org/2000/svg">
 <g transform="translate(-468.59 -201.22)">
  <path d="m475.47 209.46v1.5756c-0.71332 0.19659-1.3494 0.57362-1.9074 1.1319-0.84799 0.84772-1.2734 1.8714-1.2734 3.0705 0 1.1994 0.42545 2.223 1.2734 3.0708 0.84799 0.84773 1.8698 1.2711 3.0684 1.2711 1.1994 0 2.2249-0.42333 3.0729-1.2711 0.84799-0.84772 1.27-1.8714 1.27-3.0708 0-1.1991-0.42201-2.2228-1.27-3.0705-0.55801-0.55827-1.1938-0.9353-1.9071-1.1319v-1.5756zm1.161 3.7621c0.5588 0 1.0364 0.19632 1.429 0.58923 0.39265 0.39264 0.58685 0.86836 0.58685 1.4266s-0.1942 1.034-0.58685 1.4269c-0.39264 0.3929-0.87021 0.58896-1.429 0.58896-0.55801 0-1.0321-0.19606-1.4248-0.58896-0.39291-0.39291-0.59002-0.86863-0.59002-1.4269s0.19711-1.034 0.59002-1.4266c0.39264-0.39291 0.86677-0.58923 1.4248-0.58923z" style="fill:#000000;stroke-width:.72022"/>
  <path d="m475.48 201.67v11.342h2.321v-11.342z" style="fill:#000000;opacity:.999;paint-order:stroke fill markers"/>
  <path d="m468.59 201.22h16.116v2.3206h-16.116z" style="fill:#000000;opacity:.999;paint-order:stroke fill markers"/>
 </g>
</svg>
