<?xml version="1.0" encoding="UTF-8"?>
<svg width="18.947mm" height="26.458mm" version="1.1" viewBox="0 0 18.947 26.458" xmlns="http://www.w3.org/2000/svg">
 <g transform="matrix(.92677 0 0 .92915 -.72816 0)" style="stroke-width:1.0776;stroke:#ff0000">
  <path d="m16.14 0v28.476" style="fill:none;opacity:.999;paint-order:stroke fill markers;stroke-miterlimit:10;stroke-width:1.4256;stroke:#ff0000"/>
  <path d="m5.87 18.35a4.3719 4.3719 0 0 1-3.7862-2.186 4.3719 4.3719 0 0 1 0-4.3719 4.3719 4.3719 0 0 1 3.7862-2.186" style="fill:none;opacity:.999;paint-order:stroke fill markers;stroke-linecap:round;stroke-miterlimit:10;stroke-width:1.4256;stroke:#ff0000"/>
  <path d="m21.23 18.35h-15.408" style="fill:none;opacity:.999;paint-order:stroke fill markers;stroke-miterlimit:10;stroke-width:1.4256;stroke:#ff0000"/>
  <path d="m5.78 9.62a3.7166 3.7166 0 0 1-3.4337-2.2943 3.7166 3.7166 0 0 1 0.80567-4.0504 3.7166 3.7166 0 0 1 4.0503-0.80566 3.7166 3.7166 0 0 1 2.2943 3.4337" style="fill:none;opacity:.999;paint-order:stroke fill markers;stroke-miterlimit:10;stroke-width:1.4256;stroke:#ff0000"/>
 </g>
</svg>
