<?xml version="1.0" encoding="UTF-8"?>
<svg width="20.415mm" height="19.005mm" version="1.1" viewBox="0 0 20.415 19.005" xmlns="http://www.w3.org/2000/svg">
 <g transform="translate(-475.16 -198.34)">
  <path d="m485.6 204.81c-1.0581 0-2.11 0.34052-2.9099 1.1623-0.8001 0.92657-1.002 1.2697-1.0327 2.8231h1.2449v-5e-3c0.0238-0.14605 0.0505-0.28946 0.0844-0.42995 3e-3 -0.0159 8e-3 -0.0312 0.0132-0.0471 0.0291-0.11536 0.0632-0.22781 0.10134-0.33735 0.0212-0.0609 0.0426-0.12091 0.0667-0.17939 8e-3 -0.0212 0.0159-0.0421 0.0265-0.0624 0.0368-0.0839 0.0775-0.16457 0.12144-0.24289 0.0132-0.0238 0.0273-0.0471 0.0413-0.0704 0.046-0.0762 0.095-0.14976 0.14896-0.21908 3e-3 -5e-3 5e-3 -8e-3 8e-3 -0.0132 0.0672-0.0844 0.13837-0.16034 0.21246-0.22886 0.51699-0.47837 1.1824-0.58341 1.8105-0.58341 0.0733 0 0.14446 3e-3 0.21405 8e-3 0.0693 5e-3 0.13705 0.0159 0.20293 0.028 0.0661 0.0132 0.13044 0.0278 0.19288 0.0463 0.18759 0.0558 0.35984 0.1397 0.51621 0.25135 0.10424 0.0743 0.20161 0.16113 0.29183 0.26035 0.0945 0.0974 0.17595 0.20823 0.24554 0.33232 0.0349 0.0619 0.0664 0.12726 0.0953 0.19579 0.0571 0.13732 0.10292 0.28787 0.13678 0.45164 0.0339 0.16378 0.0561 0.34079 0.0672 0.53129 5e-3 0.0952 8e-3 0.19367 8e-3 0.29554 0 1.0724-0.36539 2.0788-1.0964 3.0189-0.72998 0.94033-1.0956 1.8137-1.0956 2.6215 0 0.80804 0.28496 1.4978 0.8562 2.0688 0.56991 0.57097 1.2597 0.85619 2.0677 0.85619v-1.5674c-0.37597 0-0.69664-0.13229-0.9607-0.39688-0.26008-0.26458-0.3974-0.58499-0.3974-0.96123 0-0.37597 0.36671-1.0337 1.0967-1.9738 0.73104-0.94006 1.0964-2.1622 1.0964-3.6666 0-1.2465-0.32676-2.2175-0.98187-2.9141-0.64691-0.703-1.4803-1.0552-2.4953-1.0552z" style="fill:#000000;stroke-width:.48513"/>
  <path d="m485.3 198.34-10.137 10.451h7.7499c0.0921-0.58632 0.26564-1.1377 0.58499-1.5605h-4.6503l6.4569-6.6601 6.5474 6.6601h-4.689c0.24077 0.38047 0.35692 0.89614 0.35692 1.5518-5e-3 3e-3 -8e-3 5e-3 -0.0132 8e-3h8.0711z" style="color-rendering:auto;color:#000000;dominant-baseline:auto;fill:#000000;font-feature-settings:normal;font-variant-alternates:normal;font-variant-caps:normal;font-variant-east-asian:normal;font-variant-ligatures:normal;font-variant-numeric:normal;font-variant-position:normal;font-variation-settings:normal;image-rendering:auto;inline-size:0;isolation:auto;mix-blend-mode:normal;opacity:.999;paint-order:stroke fill markers;shape-margin:0;shape-padding:0;shape-rendering:auto;solid-color:#000000;stop-color:#000000;text-decoration-color:#000000;text-decoration-line:none;text-decoration-style:solid;text-indent:0;text-orientation:mixed;text-transform:none;white-space:normal"/>
 </g>
</svg>
