<?xml version="1.0" encoding="UTF-8"?>
<svg width="13.654mm" height="15.242mm" version="1.1" viewBox="0 0 13.654 15.242" xmlns="http://www.w3.org/2000/svg">
 <g transform="translate(-488.11 -201.15)">
  <path d="m494.33 203.44v0.67442h1.2293v-0.67442zm0 2.8048v5.1372h1.2293v-0.89297c0.0272-0.74851 0.24844-1.3854 0.66304-1.9098 0.42122-0.53023 0.91334-0.79534 1.4758-0.79534 0.45879 0 0.83026 0.15557 1.1142 0.46699 0.28945 0.30612 0.43471 0.77893 0.43471 1.4182 0 0.84138-0.28655 1.6312-0.8599 2.3688s-0.85989 1.4235-0.85989 2.0571c0 0.63395 0.22383 1.1748 0.67177 1.6227 0.44715 0.44821 0.98796 0.67231 1.6222 0.67231v-1.2292c-0.29474 0-0.5461-0.10399-0.75353-0.31168-0.20796-0.2077-0.31221-0.45879-0.31221-0.75407 0-0.29501 0.28655-0.81147 0.8599-1.5491 0.57414-0.73766 0.86095-1.6965 0.86095-2.8768 0-0.97816-0.25691-1.7402-0.77099-2.2868-0.508-0.55166-1.1602-0.82735-1.9574-0.82735-0.83079 0-1.5605 0.32226-2.1886 0.96705v-1.2771z" style="stroke-width:.38066"/>
  <path d="m488.11 201.15h13.654v1.2253h-13.654z" style="fill:#000000;opacity:.999;paint-order:stroke fill markers"/>
  <path d="m495.56 202.1v10.548h-1.225v-10.548z" style="fill:#000000;opacity:.999;paint-order:stroke fill markers"/>
 </g>
</svg>
