<?xml version="1.0" encoding="UTF-8"?>
<svg width="21.233mm" height="28.476mm" version="1.1" viewBox="0 0 21.233 28.476" xmlns="http://www.w3.org/2000/svg">
 <g transform="translate(-140.75 -177.77)">
  <path d="m156.89 177.77v28.476" style="fill:none;opacity:.999;paint-order:stroke fill markers;stroke-miterlimit:10;stroke-width:3;stroke:#000000"/>
  <path d="m146.62 196.12a4.3719 4.3719 0 0 1-3.7862-2.186 4.3719 4.3719 0 0 1 0-4.3719 4.3719 4.3719 0 0 1 3.7862-2.186" style="fill:none;opacity:.999;paint-order:stroke fill markers;stroke-linecap:round;stroke-miterlimit:10;stroke-width:3;stroke:#000000"/>
  <path d="m161.98 196.12h-15.408" style="fill:none;opacity:.999;paint-order:stroke fill markers;stroke-miterlimit:10;stroke-width:3;stroke:#000000"/>
  <path d="m146.53 187.39a3.7166 3.7166 0 0 1-3.4337-2.2943 3.7166 3.7166 0 0 1 0.80567-4.0504 3.7166 3.7166 0 0 1 4.0503-0.80566 3.7166 3.7166 0 0 1 2.2943 3.4337" style="fill:none;opacity:.999;paint-order:stroke fill markers;stroke-miterlimit:10;stroke-width:3;stroke:#000000"/>
 </g>
</svg>
