<?xml version="1.0" encoding="UTF-8"?>
<svg width="10.856mm" height="21.72mm" version="1.1" viewBox="0 0 10.856 21.72" xmlns="http://www.w3.org/2000/svg">
 <g transform="translate(-470.72 -191.87)">
  <path d="m475 201.41v3.7925c-0.70062 0.19288-1.3253 0.56329-1.8738 1.1115-0.83212 0.83264-1.2472 1.8381-1.2472 3.016 0 1.1777 0.41513 2.1825 1.2472 3.0152 0.83264 0.83264 1.8381 1.2491 3.016 1.2491 1.1779 0 2.1828-0.41646 3.0147-1.2491 0.83291-0.83265 1.2491-1.8375 1.2491-3.0152 0-1.1779-0.41619-2.1834-1.2491-3.016-0.54795-0.54822-1.1721-0.91863-1.8727-1.1115v-3.7925zm1.1422 5.9402c0.54795 0 1.016 0.19262 1.402 0.57838s0.57758 0.85301 0.57758 1.4015c0 0.54821-0.19155 1.0152-0.57758 1.401-0.38603 0.38577-0.85408 0.57865-1.402 0.57865s-1.0149-0.19288-1.401-0.57865c-0.38602-0.38576-0.57891-0.85275-0.57891-1.401 0-0.54849 0.19289-1.0157 0.57891-1.4015 0.38603-0.38576 0.85302-0.57838 1.401-0.57838z" style="stroke-width:.70732"/>
  <path d="m480.45 197.3a4.3027 4.3027 0 0 1-4.303 4.3027 4.3027 4.3027 0 0 1-4.303-4.3027 4.3027 4.3027 0 0 1 4.303-4.3027 4.3027 4.3027 0 0 1 4.303 4.3027z" style="fill:none;opacity:.999;paint-order:stroke fill markers;stroke-miterlimit:10;stroke-width:2.25;stroke:#000000"/>
 </g>
</svg>
