<?xml version="1.0" encoding="UTF-8" standalone="no"?>
<svg
   xmlns:dc="http://purl.org/dc/elements/1.1/"
   xmlns:cc="http://creativecommons.org/ns#"
   xmlns:rdf="http://www.w3.org/1999/02/22-rdf-syntax-ns#"
   xmlns:svg="http://www.w3.org/2000/svg"
   xmlns="http://www.w3.org/2000/svg"
   xmlns:sodipodi="http://sodipodi.sourceforge.net/DTD/sodipodi-0.dtd"
   xmlns:inkscape="http://www.inkscape.org/namespaces/inkscape"
   width="10mm"
   height="10mm"
   version="1.1"
   viewBox="0 0 10 10"
   id="svg10"
   sodipodi:docname="moonicon_fontglyph_planetorcus2.svg"
   inkscape:version="1.0.2-2 (e86c870879, 2021-01-15)">
  <metadata
     id="metadata16">
    <rdf:RDF>
      <cc:Work
         rdf:about="">
        <dc:format>image/svg+xml</dc:format>
        <dc:type
           rdf:resource="http://purl.org/dc/dcmitype/StillImage" />
        <dc:title></dc:title>
      </cc:Work>
    </rdf:RDF>
  </metadata>
  <defs
     id="defs14" />
  <sodipodi:namedview
     pagecolor="#ffffff"
     bordercolor="#666666"
     borderopacity="1"
     objecttolerance="10"
     gridtolerance="10"
     guidetolerance="10"
     inkscape:pageopacity="0"
     inkscape:pageshadow="2"
     inkscape:window-width="640"
     inkscape:window-height="480"
     id="namedview12"
     showgrid="false"
     inkscape:zoom="9.7895837"
     inkscape:cx="22.552499"
     inkscape:cy="27.852171"
     inkscape:current-layer="svg10"
     inkscape:document-rotation="0" />
  <path
     id="path833"
     style="color:#000000;font-style:normal;font-variant:normal;font-weight:normal;font-stretch:normal;font-size:medium;line-height:normal;font-family:sans-serif;font-variant-ligatures:normal;font-variant-position:normal;font-variant-caps:normal;font-variant-numeric:normal;font-variant-alternates:normal;font-variant-east-asian:normal;font-feature-settings:normal;font-variation-settings:normal;text-indent:0;text-align:start;text-decoration:none;text-decoration-line:none;text-decoration-style:solid;text-decoration-color:#000000;letter-spacing:normal;word-spacing:normal;text-transform:none;writing-mode:lr-tb;direction:ltr;text-orientation:mixed;dominant-baseline:auto;baseline-shift:baseline;text-anchor:start;white-space:normal;shape-padding:0;shape-margin:0;inline-size:0;clip-rule:nonzero;display:inline;overflow:visible;visibility:visible;opacity:0.999;isolation:auto;mix-blend-mode:normal;color-interpolation:sRGB;color-interpolation-filters:linearRGB;solid-color:#000000;solid-opacity:1;vector-effect:none;fill:#008000;fill-opacity:1;fill-rule:nonzero;stroke:none;stroke-width:3.77953;stroke-linecap:round;stroke-linejoin:round;stroke-miterlimit:4;stroke-dasharray:none;stroke-dashoffset:0;stroke-opacity:1;paint-order:stroke fill markers;color-rendering:auto;image-rendering:auto;shape-rendering:auto;text-rendering:auto;enable-background:accumulate;stop-color:#000000"
     d="M 18.898438 0.94726562 C 12.925979 0.94726562 7.7578125 4.8584939 7.7578125 10.097656 C 7.7578125 14.884898 12.076315 18.561852 17.376953 19.162109 L 17.376953 36.851562 L 20.417969 36.851562 L 20.417969 26.837891 C 20.846441 27.682243 21.308839 28.531997 21.814453 29.365234 C 23.022972 31.356839 24.419175 33.248531 25.976562 34.724609 C 27.53395 36.200688 29.282349 37.32909 31.291016 37.417969 L 31.423828 34.400391 C 30.546775 34.361583 29.327638 33.734039 28.058594 32.53125 C 26.78955 31.328461 25.505168 29.620048 24.396484 27.792969 C 23.2878 25.965889 22.346257 24.017729 21.703125 22.337891 C 21.189096 20.995264 20.899557 19.79396 20.806641 19.113281 C 25.928974 18.381876 30.037109 14.768051 30.037109 10.097656 C 30.037109 4.8584943 24.870895 0.94726581 18.898438 0.94726562 z M 17.376953 4.0644531 L 17.376953 16.140625 C 13.514418 15.58323 10.798828 12.951151 10.798828 10.097656 C 10.798828 7.2441731 13.514442 4.6205656 17.376953 4.0644531 z M 20.417969 4.0644531 C 24.28048 4.6205656 26.996094 7.2441731 26.996094 10.097656 C 26.996094 12.951151 24.280504 15.58323 20.417969 16.140625 L 20.417969 4.0644531 z "
     transform="scale(0.26458333)" />
</svg>
