<?xml version="1.0" encoding="UTF-8" standalone="no"?>
<svg
   xmlns:dc="http://purl.org/dc/elements/1.1/"
   xmlns:cc="http://creativecommons.org/ns#"
   xmlns:rdf="http://www.w3.org/1999/02/22-rdf-syntax-ns#"
   xmlns:svg="http://www.w3.org/2000/svg"
   xmlns="http://www.w3.org/2000/svg"
   xmlns:sodipodi="http://sodipodi.sourceforge.net/DTD/sodipodi-0.dtd"
   xmlns:inkscape="http://www.inkscape.org/namespaces/inkscape"
   width="27.065821mm"
   height="42.877529mm"
   viewBox="0 0 27.06582 42.877531"
   version="1.1"
   id="svg3149"
   inkscape:version="1.0.2-2 (e86c870879, 2021-01-15)"
   sodipodi:docname="moonicon_enceladus.svg">
  <defs
     id="defs3143" />
  <sodipodi:namedview
     id="base"
     pagecolor="#ffffff"
     bordercolor="#666666"
     borderopacity="1.0"
     inkscape:pageopacity="0.0"
     inkscape:pageshadow="2"
     inkscape:zoom="2.8"
     inkscape:cx="169.98992"
     inkscape:cy="29.714826"
     inkscape:document-units="mm"
     inkscape:current-layer="layer1"
     inkscape:document-rotation="0"
     showgrid="false" />
  <metadata
     id="metadata3146">
    <rdf:RDF>
      <cc:Work
         rdf:about="">
        <dc:format>image/svg+xml</dc:format>
        <dc:type
           rdf:resource="http://purl.org/dc/dcmitype/StillImage" />
        <dc:title></dc:title>
      </cc:Work>
    </rdf:RDF>
  </metadata>
  <g
     inkscape:label="Layer 1"
     inkscape:groupmode="layer"
     id="layer1"
     transform="translate(-498.574,-184.1541)">
    <path
       id="path5091-7-2-9-0"
       style="font-style:normal;font-variant:normal;font-weight:normal;font-stretch:normal;font-size:51.0841px;line-height:1;font-family:Catrinity;-inkscape-font-specification:Catrinity;letter-spacing:0px;word-spacing:0px;fill:#000000;stroke-width:2.39457"
       d="m 517.33376,197.09958 c -2.52704,0 -4.74689,0.98108 -6.66009,2.94296 -1.70577,1.70709 -3.74068,4.80827 -3.74068,9.39112 h 3.74068 v -0.36115 c 0.0831,-2.27807 0.75723,-4.21614 2.02115,-5.81211 1.28005,-1.6129 2.77627,-2.41882 4.48918,-2.41882 1.397,0 2.5281,0.47308 3.39302,1.42108 0.88106,0.93186 1.32186,2.36987 1.32186,4.31588 0,2.56011 -0.87286,4.96306 -2.61885,7.20805 -1.74598,2.24499 -2.61911,4.33202 -2.61911,6.2611 0,1.92881 0.68183,3.57505 2.04497,4.93924 1.36286,1.36287 3.01016,2.0447 4.93924,2.0447 v -3.74095 c -0.898,0 -1.66291,-0.31617 -2.295,-0.94826 -0.63209,-0.63183 -0.94826,-1.39674 -0.94826,-2.29473 0,-0.898 0.87286,-2.46909 2.61884,-4.71408 1.74599,-2.24499 2.61911,-5.16388 2.61911,-8.75507 0,-2.97682 -0.78105,-5.29722 -2.34421,-6.96013 -1.54675,-1.67904 -3.53377,-2.51883 -5.96185,-2.51883 z" />
    <g
       aria-label="E"
       id="text3622-8-8-40-2-1-3-0"
       style="font-style:normal;font-variant:normal;font-weight:normal;font-stretch:normal;font-size:51.0841px;line-height:1;font-family:Catrinity;-inkscape-font-specification:Catrinity;letter-spacing:0px;word-spacing:0px;fill:#000000;stroke-width:2.39457"
       transform="translate(14230.936,-9647.4295)">
      <path
         d="m -13716.52,9857.1006 h -15.842 v -25.517 h 26.773 v 3.7415 h -23.033 v 3.4421 h 12.102 v 3.7415 h -12.102 v 10.8504 h 12.102 z"
         style="font-style:normal;font-variant:normal;font-weight:normal;font-stretch:normal;font-family:Catrinity;-inkscape-font-specification:Catrinity;fill:#000000;stroke-width:2.39457"
         id="path5094-1-9-7-2"
         sodipodi:nodetypes="ccccccccccccc" />
    </g>
  </g>
</svg>
