<?xml version="1.0" encoding="UTF-8" standalone="no"?>
<svg
   xmlns:dc="http://purl.org/dc/elements/1.1/"
   xmlns:cc="http://creativecommons.org/ns#"
   xmlns:rdf="http://www.w3.org/1999/02/22-rdf-syntax-ns#"
   xmlns:svg="http://www.w3.org/2000/svg"
   xmlns="http://www.w3.org/2000/svg"
   xmlns:sodipodi="http://sodipodi.sourceforge.net/DTD/sodipodi-0.dtd"
   xmlns:inkscape="http://www.inkscape.org/namespaces/inkscape"
   width="685.20636mm"
   height="2734.0708mm"
   viewBox="0 0 685.20636 2734.0708"
   version="1.1"
   id="svg15356"
   inkscape:version="1.0.2-2 (e86c870879, 2021-01-15)"
   sodipodi:docname="quadraticsolarsystem.svg">
  <defs
     id="defs15350" />
  <sodipodi:namedview
     id="base"
     pagecolor="#ffffff"
     bordercolor="#666666"
     borderopacity="1.0"
     inkscape:pageopacity="0.0"
     inkscape:pageshadow="2"
     inkscape:zoom="0.12374369"
     inkscape:cx="-22.872884"
     inkscape:cy="4545.9699"
     inkscape:document-units="mm"
     inkscape:current-layer="layer1"
     inkscape:document-rotation="0"
     showgrid="false" />
  <metadata
     id="metadata15353">
    <rdf:RDF>
      <cc:Work
         rdf:about="">
        <dc:format>image/svg+xml</dc:format>
        <dc:type
           rdf:resource="http://purl.org/dc/dcmitype/StillImage" />
        <dc:title></dc:title>
      </cc:Work>
    </rdf:RDF>
  </metadata>
  <g
     inkscape:label="Layer 1"
     inkscape:groupmode="layer"
     id="layer1"
     transform="translate(-863.48937,1221.892)">
    <path
       id="rect1404-6-5"
       style="fill:#000000;stroke:#000000;stroke-width:0.289937;stroke-linecap:round;stroke-linejoin:round;paint-order:markers fill stroke"
       d="M 863.63434,-1221.7471 H 1548.5508 V 1512.0337 H 863.63434 Z" />
    <path
       id="path25-7-8-3-5-4-3"
       style="fill:#efd7b2;fill-opacity:1;stroke:none;stroke-width:0.765912;stroke-linecap:round;stroke-linejoin:round;paint-order:markers fill stroke"
       d="m 1060.0999,501.17981 a 38.894001,38.894001 0 0 1 -38.894,38.894 38.894001,38.894001 0 0 1 -38.89403,-38.894 38.894001,38.894001 0 0 1 38.89403,-38.894 38.894001,38.894001 0 0 1 38.894,38.894 z" />
    <g
       aria-label="♀"
       id="text873-4-3-1-20-3-8-9-5-8-5-3-3-1-6-3"
       style="font-size:79.1571px;line-height:1;font-family:'CMU Sans Serif';-inkscape-font-specification:'CMU Sans Serif';text-align:center;letter-spacing:0px;word-spacing:0px;text-anchor:middle;stroke-width:1.99451;stroke-miterlimit:4;stroke-dasharray:none">
      <path
         d="m 1021.2059,498.17419 q 4.0798,0 6.9571,-2.87733 2.9203,-2.92028 2.9203,-7.00008 0,-4.0798 -2.9203,-6.95713 -2.8773,-2.92028 -6.9571,-2.92028 -4.0798,0 -7.0001,2.92028 -2.8773,2.87733 -2.8773,6.95713 0,4.0798 2.8773,7.00008 2.9203,2.87733 7.0001,2.87733 z m 3.2209,31.35004 h -6.4418 v -12.88358 h -9.6627 v -6.44179 h 9.6627 v -5.8835 q -4.724,-0.90185 -8.2885,-4.46631 -4.8098,-4.76692 -4.8098,-11.55227 0,-6.74241 4.7669,-11.50933 4.8099,-4.80987 11.5523,-4.80987 6.7853,0 11.5522,4.80987 4.767,4.76692 4.767,11.50933 0,6.78535 -4.767,11.55227 -3.6074,3.60741 -8.3313,4.46631 v 5.8835 h 9.6627 v 6.44179 h -9.6627 z"
         style="font-style:normal;font-variant:normal;font-weight:normal;font-stretch:normal;font-size:87.9519px;font-family:Catrinity;-inkscape-font-specification:Catrinity;text-align:center;text-anchor:middle;stroke-width:1.99451;stroke-miterlimit:4;stroke-dasharray:none"
         id="path17605" />
    </g>
    <path
       id="path25-7-8-39-53-7-49"
       style="fill:#276cbd;fill-opacity:1;stroke:none;stroke-width:0.786314;stroke-linecap:round;stroke-linejoin:round;paint-order:markers fill stroke"
       d="m 1061.1359,401.51736 a 39.93,39.93 0 0 1 -39.93,39.93 39.93,39.93 0 0 1 -39.93003,-39.93 39.93,39.93 0 0 1 39.93003,-39.93 39.93,39.93 0 0 1 39.93,39.93 z" />
    <g
       aria-label="⊕"
       id="text873-4-3-1-20-3-8-9-5-8-5-3-8-09-7-31"
       style="font-size:81.2654px;line-height:1;font-family:'CMU Sans Serif';-inkscape-font-specification:'CMU Sans Serif';text-align:center;letter-spacing:0px;word-spacing:0px;text-anchor:middle;stroke-width:2.04764;stroke-miterlimit:4;stroke-dasharray:none">
      <path
         d="m 998.05896,404.82452 q 0.96997,7.58337 6.61344,13.2268 5.6434,5.64344 13.2268,6.61341 v -19.84021 z m 26.45364,19.84021 q 7.5833,-0.96997 13.2268,-6.61341 5.6434,-5.64343 6.6134,-13.2268 h -19.8402 z m 19.8402,-26.45361 q -0.97,-7.58337 -6.6134,-13.22681 -5.6435,-5.64344 -13.2268,-6.6134 v 19.84021 z m -26.4536,-19.84021 q -7.5834,0.96996 -13.2268,6.6134 -5.64347,5.64344 -6.61344,13.22681 h 19.84024 z m 3.3067,53.12767 q -12.3891,0 -21.20701,-8.77378 -8.77378,-8.77379 -8.77378,-21.20698 0,-12.38911 8.77378,-21.16289 8.81791,-8.81787 21.20701,-8.81787 12.4332,0 21.207,8.81787 8.7737,8.77378 8.7737,21.16289 0,12.43319 -8.7737,21.20698 -8.7738,8.77378 -21.207,8.77378 z"
         style="font-style:normal;font-variant:normal;font-weight:normal;font-stretch:normal;font-size:90.295px;font-family:Catrinity;-inkscape-font-specification:Catrinity;text-align:center;text-anchor:middle;stroke-width:2.04764;stroke-miterlimit:4;stroke-dasharray:none"
         id="path17609" />
    </g>
    <path
       id="path25-7-8-68-3-4-6"
       style="fill:#e83b1b;fill-opacity:1;stroke:none;stroke-width:0.573813;stroke-linecap:round;stroke-linejoin:round;paint-order:markers fill stroke"
       d="m 1050.3449,301.85474 a 29.139,29.139 0 0 1 -29.139,29.139 29.139,29.139 0 0 1 -29.13903,-29.139 29.139,29.139 0 0 1 29.13903,-29.139 29.139,29.139 0 0 1 29.139,29.139 z" />
    <g
       aria-label="♂"
       id="text873-4-3-1-20-3-8-9-5-8-5-3-4-3-3-2"
       style="font-size:52.0922px;line-height:1;font-family:'CMU Sans Serif';-inkscape-font-specification:'CMU Sans Serif';text-align:center;letter-spacing:0px;word-spacing:0px;text-anchor:middle;stroke-width:1.31257;stroke-miterlimit:4;stroke-dasharray:none">
      <path
         d="m 1014.1404,316.83326 q 3.2784,0 5.5959,-2.31746 2.3174,-2.31747 2.3174,-5.59583 0,-3.2501 -2.3174,-5.56757 -2.3175,-2.34573 -5.5959,-2.34573 -3.2501,0 -5.5958,2.34573 -2.3175,2.31747 -2.3175,5.56757 0,3.27836 2.3175,5.59583 2.3457,2.31746 5.5958,2.31746 z m 0,4.23927 q -5.0023,0 -8.5915,-3.56098 -3.561,-3.56099 -3.561,-8.59158 0,-5.00233 3.561,-8.56332 3.5892,-3.58924 8.5915,-3.58924 3.9284,0 6.9524,2.17615 l 9.0721,-9.04376 -9.7221,-3.27837 19.9811,-3.98491 -4.0132,19.98107 -3.2501,-9.72204 -9.0438,9.04376 q 2.1762,3.05227 2.1762,6.98066 0,5.03059 -3.561,8.59158 -3.561,3.56098 -8.5916,3.56098 z"
         style="font-style:normal;font-variant:normal;font-weight:normal;font-stretch:normal;font-size:57.8801px;font-family:Catrinity;-inkscape-font-specification:Catrinity;text-align:center;text-anchor:middle;stroke-width:1.31257;stroke-miterlimit:4;stroke-dasharray:none"
         id="path17613" />
    </g>
    <path
       id="path25-7-8-6-9-5-54"
       style="fill:#e7e1e9;fill-opacity:1;stroke:none;stroke-width:0.486361;stroke-linecap:round;stroke-linejoin:round;paint-order:markers fill stroke"
       d="m 1045.9039,600.84235 a 24.697998,24.697998 0 0 1 -24.698,24.69799 24.697998,24.697998 0 0 1 -24.69803,-24.69799 24.697998,24.697998 0 0 1 24.69803,-24.698 24.697998,24.697998 0 0 1 24.698,24.698 z" />
    <g
       aria-label="☿"
       id="text873-4-3-1-20-3-8-9-5-8-5-3-7-0-0-07"
       style="font-size:48.4713px;line-height:1;font-family:'CMU Sans Serif';-inkscape-font-specification:'CMU Sans Serif';text-align:center;letter-spacing:0px;word-spacing:0px;text-anchor:middle;stroke-width:1.22133;stroke-miterlimit:4;stroke-dasharray:none">
      <path
         d="m 1021.2059,602.28966 q 2.4982,0 4.2601,-1.76192 1.7883,-1.78822 1.7883,-4.28647 0,-2.49824 -1.7883,-4.26016 -1.7619,-1.78822 -4.2601,-1.78822 -2.4983,0 -4.2865,1.78822 -1.7619,1.76192 -1.7619,4.26016 0,2.49825 1.7619,4.28647 1.7882,1.76192 4.2865,1.76192 z m 1.9723,19.19703 h -3.9446 v -7.88919 h -5.9169 v -3.9446 h 5.9169 v -3.60273 q -2.8927,-0.55224 -5.0754,-2.73492 -2.9453,-2.919 -2.9453,-7.07398 0,-4.12868 2.9453,-7.07397 0.5259,-0.52595 1.0782,-0.94671 -0.5523,-0.42076 -1.0782,-0.973 -2.9453,-2.919 -2.9453,-7.04768 h 3.9446 q 0,2.49825 1.7619,4.28646 1.7882,1.76192 4.2865,1.76192 2.4982,0 4.2601,-1.76192 1.7883,-1.78821 1.7883,-4.28646 h 3.9446 q 0,4.12868 -2.9191,7.04768 -0.5259,0.55224 -1.0781,0.973 0.5522,0.42076 1.0781,0.94671 2.9191,2.94529 2.9191,7.07397 0,4.15498 -2.9191,7.07398 -2.2089,2.20897 -5.1016,2.73492 v 3.60273 h 5.9169 v 3.9446 h -5.9169 z"
         style="font-style:normal;font-variant:normal;font-weight:normal;font-stretch:normal;font-size:53.8569px;font-family:Catrinity;-inkscape-font-specification:Catrinity;text-align:center;text-anchor:middle;stroke-width:1.22133;stroke-miterlimit:4;stroke-dasharray:none"
         id="path17617" />
    </g>
    <path
       id="path25-7-4-0-2-1"
       style="fill:#ffe4fe;fill-opacity:1;stroke:none;stroke-width:0.336;stroke-linecap:round;stroke-linejoin:round;stroke-miterlimit:4;stroke-dasharray:none;paint-order:markers fill stroke"
       d="m 1038.2572,-1048.4706 a 17.05135,17.05135 0 0 1 -17.0513,17.0514 17.05135,17.05135 0 0 1 -17.0514,-17.0514 17.05135,17.05135 0 0 1 17.0514,-17.0513 17.05135,17.05135 0 0 1 17.0513,17.0513 z" />
    <g
       aria-label="⯰"
       id="text873-4-3-1-20-3-8-9-5-8-5-9-93-1-4"
       style="font-size:34.7028px;line-height:1;font-family:'CMU Sans Serif';-inkscape-font-specification:'CMU Sans Serif';text-align:center;letter-spacing:0px;word-spacing:0px;text-anchor:middle;stroke-width:0.874402;stroke-miterlimit:4;stroke-dasharray:none">
      <path
         d="m 1022.5099,-1036.9955 h -2.6081 v -4.9553 q -1.8604,1.8256 -4.3467,1.8256 -2.8863,0 -4.9206,-2.4515 l 1.8431,-1.8431 q 1.2692,1.6866 3.0775,1.6866 1.8082,0 3.0775,-1.6692 1.2692,-1.6865 1.2692,-4.0685 0,-2.3821 -1.2692,-4.0512 -1.2693,-1.6866 -3.0775,-1.6866 -1.8083,0 -3.0775,1.6866 l -1.8431,-1.8431 q 2.0343,-2.4515 4.9206,-2.4515 2.4863,0 4.3467,1.8256 v -4.9553 h 2.6081 v 4.9553 q 1.8604,-1.8256 4.3468,-1.8256 2.8862,0 4.9205,2.4515 l -1.843,1.8431 q -1.2693,-1.6866 -3.0775,-1.6866 -1.8083,0 -3.0775,1.6866 -1.2693,1.6691 -1.2693,4.0512 0,2.382 1.2693,4.0685 1.2692,1.6692 3.0775,1.6692 1.8082,0 3.0775,-1.6866 l 1.843,1.8431 q -2.0343,2.4515 -4.9205,2.4515 -2.4864,0 -4.3468,-1.8256 z"
         style="font-style:normal;font-variant:normal;font-weight:normal;font-stretch:normal;font-size:35.6087px;font-family:Catrinity;-inkscape-font-specification:Catrinity;text-align:center;text-anchor:middle;stroke-width:0.874402;stroke-miterlimit:4;stroke-dasharray:none"
         id="path17621" />
    </g>
    <path
       id="path25-7-7-3-1-9"
       style="fill:#db5d3b;fill-opacity:1;stroke:none;stroke-width:0.263277;stroke-linecap:round;stroke-linejoin:round;paint-order:markers fill stroke"
       d="m 1034.5754,-952.12982 a 13.3695,13.3695 0 0 1 -13.3695,13.3695 13.3695,13.3695 0 0 1 -13.3695,-13.3695 13.3695,13.3695 0 0 1 13.3695,-13.3695 13.3695,13.3695 0 0 1 13.3695,13.3695 z" />
    <g
       aria-label=""
       id="text873-4-3-1-20-3-8-9-5-8-5-2-6-7-2"
       style="font-size:27.2096px;line-height:1;font-family:'CMU Sans Serif';-inkscape-font-specification:'CMU Sans Serif';text-align:center;letter-spacing:0px;word-spacing:0px;text-anchor:middle;stroke-width:0.685599;stroke-miterlimit:4;stroke-dasharray:none">
      <path
         d="m 1015.7528,-950.52629 q -1.2679,0 -2.1676,-0.89976 -0.8998,-0.89976 -0.8998,-2.16761 0,-1.26785 0.8998,-2.16761 0.8997,-0.89976 2.1676,-0.89976 1.2678,0 2.1676,0.89976 0.8997,0.89976 0.8997,2.16761 0,1.26785 -0.8997,2.16761 -0.8998,0.89976 -2.1676,0.89976 z m 0,-2.04491 q 0.4226,0 0.7225,-0.29992 0.2999,-0.29992 0.2999,-0.72254 0,-0.42262 -0.2999,-0.72254 -0.2999,-0.29992 -0.7225,-0.29992 -0.4226,0 -0.7226,0.29992 -0.2999,0.29992 -0.2999,0.72254 0,0.42262 0.2999,0.72254 0.3,0.29992 0.7226,0.29992 z m -1.0225,-5.45311 q -1.4178,0 -2.413,1.32238 -0.9952,1.30874 -0.9952,3.17643 0,1.86769 0.9952,3.19007 0.9952,1.30875 2.413,1.30875 v 2.04491 q -2.263,0 -3.8581,-1.90859 -1.595,-1.92222 -1.595,-4.63514 0,-2.71292 1.595,-4.6215 1.5951,-1.92222 3.8581,-1.92222 h 12.9511 q 2.2631,0 3.8581,1.92222 1.595,1.90858 1.595,4.6215 0,2.71292 -1.595,4.63514 -1.595,1.90859 -3.8581,1.90859 v -2.04491 q 1.4178,0 2.413,-1.30875 0.9952,-1.32238 0.9952,-3.19007 0,-1.86769 -0.9952,-3.17643 -0.9952,-1.32238 -2.413,-1.32238 h -5.4531 v 15.95034 h -2.0449 v -15.95034 z m 11.9287,7.49802 q -1.2679,0 -2.1676,-0.89976 -0.8998,-0.89976 -0.8998,-2.16761 0,-1.26785 0.8998,-2.16761 0.8997,-0.89976 2.1676,-0.89976 1.2678,0 2.1676,0.89976 0.8997,0.89976 0.8997,2.16761 0,1.26785 -0.8997,2.16761 -0.8998,0.89976 -2.1676,0.89976 z m 0,-2.04491 q 0.4226,0 0.7225,-0.29992 0.2999,-0.29992 0.2999,-0.72254 0,-0.42262 -0.2999,-0.72254 -0.2999,-0.29992 -0.7225,-0.29992 -0.4226,0 -0.7226,0.29992 -0.2999,0.29992 -0.2999,0.72254 0,0.42262 0.2999,0.72254 0.3,0.29992 0.7226,0.29992 z"
         style="font-style:normal;font-variant:normal;font-weight:normal;font-stretch:normal;font-size:27.9199px;font-family:Catrinity;-inkscape-font-specification:Catrinity;text-align:center;text-anchor:middle;stroke-width:0.685599;stroke-miterlimit:4;stroke-dasharray:none"
         id="path17625" />
    </g>
    <path
       id="path25-7-5-4-5-9"
       style="fill:#cccccc;stroke:none;stroke-width:0.227806;stroke-linecap:round;stroke-linejoin:round;paint-order:markers fill stroke"
       d="m 1035.4887,-865.96729 a 14.28285,9.369648 0 0 1 -14.2828,9.36965 14.28285,9.369648 0 0 1 -14.2829,-9.36965 14.28285,9.369648 0 0 1 14.2829,-9.36964 14.28285,9.369648 0 0 1 14.2828,9.36964 z" />
    <path
       style="fill:#f4f4f4;fill-opacity:1;stroke:#f2f2f2;stroke-width:0.999998;stroke-linecap:round;stroke-linejoin:round;stroke-miterlimit:4;stroke-dasharray:none;paint-order:markers fill stroke"
       d="m 981.70462,-865.9673 h 79.00258"
       id="path3412-7-0" />
    <g
       aria-label=""
       id="text873-4-3-1-20-3-8-9-5-8-5-7-1-0-4"
       style="font-size:24.4985px;line-height:1;font-family:'CMU Sans Serif';-inkscape-font-specification:'CMU Sans Serif';text-align:center;letter-spacing:0px;word-spacing:0px;text-anchor:middle;stroke-width:0.640951;stroke-miterlimit:4;stroke-dasharray:none">
      <path
         d="m 1017.6172,-865.06997 v 1.07659 q 0,2.38047 -1.0526,4.06714 -1.0408,1.6747 -2.536,1.6747 v -1.79432 q 0.7416,0 1.268,-1.14837 0.5263,-1.16033 0.5263,-2.79915 v -1.07659 h -1.7943 v -1.79432 h 14.3546 v 1.79432 h -1.7944 v 1.07659 q 0,1.63882 0.5264,2.79915 0.5263,1.14837 1.268,1.14837 v 1.79432 q -1.4953,0 -2.548,-1.6747 -1.0407,-1.68667 -1.0407,-4.06714 v -1.07659 z m 3.5887,-2.7513 q -1.3876,0 -2.3685,-0.98089 -0.9809,-0.9809 -0.9809,-2.36851 0,-1.38761 0.9809,-2.36851 0.9809,-0.9809 2.3685,-0.9809 1.3876,0 2.3685,0.9809 0.9809,0.9809 0.9809,2.36851 0,1.38761 -0.9809,2.36851 -0.9809,0.98089 -2.3685,0.98089 z m 0,-1.79432 q 0.6459,0 1.1005,-0.45456 0.4546,-0.45457 0.4546,-1.10052 0,-0.64596 -0.4546,-1.10052 -0.4546,-0.45456 -1.1005,-0.45456 -0.646,0 -1.1005,0.45456 -0.4546,0.45456 -0.4546,1.10052 0,0.64595 0.4546,1.10052 0.4545,0.45456 1.1005,0.45456 z m 0,12.2014 q -1.3876,0 -2.3685,-0.9809 -0.9809,-0.98089 -0.9809,-2.3685 0,-1.38761 0.9809,-2.36851 0.9809,-0.9809 2.3685,-0.9809 1.3876,0 2.3685,0.9809 0.9809,0.9809 0.9809,2.36851 0,1.38761 -0.9809,2.3685 -0.9809,0.9809 -2.3685,0.9809 z m 0,-1.79432 q 0.6459,0 1.1005,-0.45457 0.4546,-0.45456 0.4546,-1.10051 0,-0.64596 -0.4546,-1.10052 -0.4546,-0.45456 -1.1005,-0.45456 -0.646,0 -1.1005,0.45456 -0.4546,0.45456 -0.4546,1.10052 0,0.64595 0.4546,1.10051 0.4545,0.45457 1.1005,0.45457 z"
         style="font-style:normal;font-variant:normal;font-weight:normal;font-stretch:normal;font-size:24.4985px;font-family:Catrinity;-inkscape-font-specification:Catrinity;text-align:center;text-anchor:middle;stroke-width:0.640951;stroke-miterlimit:4;stroke-dasharray:none"
         id="path17629" />
    </g>
    <path
       id="path25-7-8-66-3-69"
       style="fill:#f8c4b6;fill-opacity:1;stroke:none;stroke-width:0.339367;stroke-linecap:round;stroke-linejoin:round;paint-order:markers fill stroke"
       d="m 1038.4394,-818.79913 a 17.2335,17.2335 0 0 1 -17.2335,17.2335 17.2335,17.2335 0 0 1 -17.2335,-17.2335 17.2335,17.2335 0 0 1 17.2335,-17.2335 17.2335,17.2335 0 0 1 17.2335,17.2335 z" />
    <g
       aria-label="♇"
       id="text873-4-3-1-20-3-8-9-5-8-5-3-31-2-08"
       style="font-size:35.0735px;line-height:1;font-family:'CMU Sans Serif';-inkscape-font-specification:'CMU Sans Serif';text-align:center;letter-spacing:0px;word-spacing:0px;text-anchor:middle;stroke-width:0.883749;stroke-miterlimit:4;stroke-dasharray:none">
      <path
         d="m 1021.1107,-819.94151 q 1.979,0 3.3681,-1.25589 1.3891,-1.25588 1.3891,-3.02555 0,-1.76966 -1.3891,-3.02554 -1.3891,-1.25589 -3.3681,-1.25589 h -4.5668 v 8.56287 z m 7.6115,13.7006 h -15.0326 v -25.11777 h 7.4211 q 3.1588,0 5.3851,2.09315 2.2264,2.09315 2.2264,5.04258 0,2.94944 -2.2264,5.04259 -2.2263,2.09314 -5.3851,2.09314 h -4.5668 v 7.99202 h 12.1783 z"
         style="font-style:normal;font-variant:normal;font-weight:normal;font-stretch:normal;font-size:38.9706px;font-family:Catrinity;-inkscape-font-specification:Catrinity;text-align:center;text-anchor:middle;stroke-width:0.883749;stroke-miterlimit:4;stroke-dasharray:none"
         id="path17633" />
    </g>
    <path
       id="path25-7-8-39-56-4-3-4"
       style="fill:#ff9d50;fill-opacity:1;stroke:none;stroke-width:2.63266;stroke-linecap:round;stroke-linejoin:round;paint-order:markers fill stroke"
       d="M 1154.8961,-13.02707 A 133.68993,133.68993 0 0 1 1021.2062,120.66286 133.68993,133.68993 0 0 1 887.51625,-13.02707 133.68993,133.68993 0 0 1 1021.2062,-146.717 133.68993,133.68993 0 0 1 1154.8961,-13.02707 Z" />
    <g
       aria-label="♃"
       id="text873-4-3-1-20-3-8-9-5-8-5-3-8-1-21-6-6"
       style="font-size:272.085px;line-height:1;font-family:'CMU Sans Serif';-inkscape-font-specification:'CMU Sans Serif';text-align:center;letter-spacing:0px;word-spacing:0px;text-anchor:middle;stroke-width:6.85573;stroke-miterlimit:4;stroke-dasharray:none">
      <path
         d="M 1080.2523,25.352632 V 84.398727 H 1058.11 V 25.352632 h -99.49268 q 0,-11.366374 31.29443,-37.051425 31.29445,-25.685052 31.29445,-47.827338 0,-15.4996 -8.7093,-23.618438 -8.5617,-8.118838 -20.81377,-8.118838 -12.25207,0 -20.96136,8.856914 -8.56169,8.856915 -8.56169,21.40421 H 940.0178 q 0,-21.69944 15.05675,-37.051425 15.20437,-15.351982 36.60858,-15.351982 21.40417,0 36.46097,14.613906 15.2044,14.613908 15.2044,39.265653 0,32.032507 -40.5942,62.5888617 -0.1476,0 -0.1476,0.1476153 H 1058.11 V -110.45339 h 22.1423 V 3.210346 h 22.1423 v 22.142286 z"
         style="font-style:normal;font-variant:normal;font-weight:normal;font-stretch:normal;font-size:302.316px;font-family:Catrinity;-inkscape-font-specification:Catrinity;text-align:center;text-anchor:middle;stroke-width:6.85573;stroke-miterlimit:4;stroke-dasharray:none"
         id="path17637" />
    </g>
    <path
       id="path25-7-8-39-7-0-2-8"
       style="fill:#73a4dc;fill-opacity:1;stroke:none;stroke-width:1.54945;stroke-linecap:round;stroke-linejoin:round;paint-order:markers fill stroke"
       d="m 1099.8894,-700.98395 a 78.682899,78.682899 0 0 1 -78.6829,78.6829 78.682899,78.682899 0 0 1 -78.68292,-78.6829 78.682899,78.682899 0 0 1 78.68292,-78.6829 78.682899,78.682899 0 0 1 78.6829,78.6829 z" />
    <g
       aria-label="♆"
       id="text873-4-3-1-20-3-8-9-5-8-5-3-8-0-6-2-1"
       style="font-size:160.135px;line-height:1;font-family:'CMU Sans Serif';-inkscape-font-specification:'CMU Sans Serif';text-align:center;letter-spacing:0px;word-spacing:0px;text-anchor:middle;stroke-width:4.03492;stroke-miterlimit:4;stroke-dasharray:none">
      <path
         d="m 1027.7224,-642.7757 h -13.0318 v -20.41654 h -15.20384 v -13.03183 h 15.20384 v -17.37578 q -13.8138,-1.91134 -24.15237,-12.33681 -12.7712,-12.68432 -12.7712,-31.53704 v -4.34395 h -6.51592 l 13.03184,-17.37578 13.03183,17.37578 h -6.51591 v 4.34395 q 0,13.46623 8.94852,22.32788 6.42901,6.51592 14.94321,8.34037 v -35.0122 h -6.516 l 13.0319,-17.37578 13.0318,17.37578 h -6.5159 v 35.0122 q 8.5141,-1.82445 15.03,-8.34037 8.8617,-8.86165 8.8617,-22.32788 v -4.34395 h -6.5159 l 13.0318,-17.37578 13.0319,17.37578 h -6.516 v 4.34395 q 0,18.85272 -12.6843,31.53704 -10.4255,10.42547 -24.2392,12.33681 v 17.37578 h 15.2038 v 13.03183 h -15.2038 z"
         style="font-style:normal;font-variant:normal;font-weight:normal;font-stretch:normal;font-size:177.928px;font-family:Catrinity;-inkscape-font-specification:Catrinity;text-align:center;text-anchor:middle;stroke-width:4.03492;stroke-miterlimit:4;stroke-dasharray:none"
         id="path17641" />
    </g>
    <path
       id="path25-7-8-39-56-1-2-5-5"
       style="fill:#fdff00;fill-opacity:1;stroke:none;stroke-width:8.21068;stroke-linecap:round;stroke-linejoin:round;paint-order:markers fill stroke"
       d="m 1438.1561,1073.4573 a 416.94998,416.94998 0 0 1 -416.95,416.95 416.94998,416.94998 0 0 1 -416.94997,-416.95 416.94998,416.94998 0 0 1 416.94997,-416.95001 416.94998,416.94998 0 0 1 416.95,416.95001 z" />
    <g
       aria-label="☉"
       id="text873-4-3-1-20-3-8-9-5-8-5-3-8-1-2-2-7-7"
       style="font-size:848.573px;line-height:1;font-family:'CMU Sans Serif';-inkscape-font-specification:'CMU Sans Serif';text-align:center;letter-spacing:0px;word-spacing:0px;text-anchor:middle;fill:#f1bf15;fill-opacity:1;stroke-width:21.3815;stroke-miterlimit:4;stroke-dasharray:none">
      <path
         d="m 1021.2061,1386.5201 q -129.36646,0 -221.44224,-91.6154 -91.61541,-91.6154 -91.61541,-221.4423 0,-129.36646 91.61541,-220.98186 92.07578,-92.07579 221.44224,-92.07579 129.8269,0 221.4423,92.07579 91.6154,91.6154 91.6154,220.98186 0,129.8269 -91.6154,221.4423 -91.6154,91.6154 -221.4423,91.6154 z m 0,-69.0569 q 101.2834,0 172.6421,-71.3587 71.3587,-71.3587 71.3587,-172.6421 0,-101.28335 -71.3587,-172.64208 -71.3587,-71.35873 -172.6421,-71.35873 -101.28335,0 -172.64208,71.35873 -71.35873,71.35873 -71.35873,172.64208 0,101.2834 71.35873,172.6421 71.35873,71.3587 172.64208,71.3587 z m 0,-193.3591 q -20.717,0 -35.90954,-14.7321 -14.73212,-15.1925 -14.73212,-35.9096 0,-21.1774 14.73212,-35.9095 15.19254,-14.7322 35.90954,-14.7322 21.1774,0 35.9096,14.7322 14.7321,14.7321 14.7321,35.9095 0,20.7171 -14.7321,35.9096 -14.7322,14.7321 -35.9096,14.7321 z"
         style="font-style:normal;font-variant:normal;font-weight:normal;font-stretch:normal;font-size:942.856px;font-family:Catrinity;-inkscape-font-specification:Catrinity;text-align:center;text-anchor:middle;fill:#f1bf15;fill-opacity:1;stroke-width:21.3815;stroke-miterlimit:4;stroke-dasharray:none"
         id="path17645" />
    </g>
    <path
       id="path25-7-46-4-9"
       style="fill:#bdb7bf;fill-opacity:1;stroke:none;stroke-width:0.214154;stroke-linecap:round;stroke-linejoin:round;paint-order:markers fill stroke"
       d="m 1032.0809,202.19221 a 10.875,10.875 0 0 1 -10.875,10.875 10.875,10.875 0 0 1 -10.875,-10.875 10.875,10.875 0 0 1 10.875,-10.875 10.875,10.875 0 0 1 10.875,10.875 z" />
    <g
       aria-label="⚳"
       id="text873-4-3-1-20-3-8-9-5-8-5-8-8-1"
       style="font-size:24.6945px;line-height:1;font-family:'CMU Sans Serif';-inkscape-font-specification:'CMU Sans Serif';text-align:center;letter-spacing:0px;word-spacing:0px;text-anchor:middle;stroke-width:0.557677;stroke-miterlimit:4;stroke-dasharray:none">
      <path
         d="m 1022.1102,210.27074 h -1.8087 v -2.23071 h -2.1101 v -1.80868 h 2.1101 v -2.35128 h 0.9044 q 1.254,0 2.1342,-1.15755 0.8802,-1.16962 0.8802,-2.82154 0,-1.65193 -0.8802,-2.80949 -0.8802,-1.16961 -2.1342,-1.16961 -1.254,0 -2.1343,1.16961 -0.8802,1.15756 -0.8802,2.80949 h -1.8087 q 0,-2.39952 1.4108,-4.08762 1.4108,-1.70016 3.4124,-1.70016 2.0016,0 3.4123,1.70016 1.4108,1.6881 1.4108,4.08762 0,2.39951 -1.4108,4.08761 -1.0852,1.30225 -2.508,1.6037 v 0.63906 h 2.1101 v 1.80868 h -2.1101 z"
         style="font-style:normal;font-variant:normal;font-weight:normal;font-stretch:normal;font-size:24.6945px;font-family:Catrinity;-inkscape-font-specification:Catrinity;text-align:center;text-anchor:middle;stroke-width:0.557677;stroke-miterlimit:4;stroke-dasharray:none"
         id="path17649" />
    </g>
    <path
       id="path25-7-8-39-5-8-4-1"
       style="fill:#94d6ef;fill-opacity:1;stroke:none;stroke-width:1.5741;stroke-linecap:round;stroke-linejoin:round;paint-order:markers fill stroke"
       d="m 1101.1409,-518.20587 a 79.935005,79.935005 0 0 1 -79.935,79.935 79.935005,79.935005 0 0 1 -79.93503,-79.935 79.935005,79.935005 0 0 1 79.93503,-79.93501 79.935005,79.935005 0 0 1 79.935,79.93501 z" />
    <g
       aria-label="♅"
       id="text873-4-3-1-20-3-8-9-5-8-5-3-8-6-4-2-7"
       style="font-size:162.684px;line-height:1;font-family:'CMU Sans Serif';-inkscape-font-specification:'CMU Sans Serif';text-align:center;letter-spacing:0px;word-spacing:0px;text-anchor:middle;stroke-width:4.09913;stroke-miterlimit:4;stroke-dasharray:none">
      <path
         d="m 1021.2059,-471.42687 q 4.7661,0 8.12,-3.35393 3.3539,-3.35393 3.3539,-8.12003 0,-4.76611 -3.3539,-8.12003 -3.3539,-3.35393 -8.12,-3.35393 -4.7661,0 -8.1201,3.35393 -3.3539,3.35392 -3.3539,8.12003 0,4.7661 3.3539,8.12003 3.354,3.35393 8.1201,3.35393 z m 0,13.23918 q -10.2383,0 -17.4758,-7.23742 -7.23737,-7.23742 -7.23737,-17.47572 0,-10.2383 7.23737,-17.47573 4.7662,-4.7661 10.8562,-6.44307 v -22.41835 h -26.03708 v 33.98058 h -13.23919 v -81.20034 h 13.23919 v 33.98058 h 26.03708 v -33.98058 h 13.2392 v 33.98058 h 26.037 v -33.98058 h 13.2392 v 81.20034 h -13.2392 v -33.98058 h -26.037 v 22.41835 q 6.09,1.67697 10.8561,6.44307 7.2374,7.23743 7.2374,17.47573 0,10.2383 -7.2374,17.47572 -7.2374,7.23742 -17.4757,7.23742 z"
         style="font-style:normal;font-variant:normal;font-weight:normal;font-stretch:normal;font-size:180.759px;font-family:Catrinity;-inkscape-font-specification:Catrinity;text-align:center;text-anchor:middle;stroke-width:4.09913;stroke-miterlimit:4;stroke-dasharray:none"
         id="path17653" />
    </g>
    <path
       id="path25-7-8-39-4-7-9-0"
       style="fill:#ffbe50;fill-opacity:1;stroke:none;stroke-width:2.41718;stroke-linecap:round;stroke-linejoin:round;paint-order:markers fill stroke"
       d="m 1143.9541,-292.49399 a 122.7475,122.7475 0 0 1 -122.7475,122.7475 122.7475,122.7475 0 0 1 -122.74749,-122.7475 122.7475,122.7475 0 0 1 122.74749,-122.7475 122.7475,122.7475 0 0 1 122.7475,122.7475 z" />
    <path
       style="fill:#f4f4f4;fill-opacity:1;stroke:#b88f16;stroke-width:5.99998;stroke-linecap:round;stroke-linejoin:round;stroke-miterlimit:4;stroke-dasharray:none;stroke-opacity:1;paint-order:markers fill stroke"
       d="M 738.55157,-292.49405 H 1303.8616"
       id="path3412-4" />
    <g
       aria-label="♄"
       id="text873-4-3-1-20-3-8-9-5-8-5-3-8-07-0-7-41"
       style="font-size:234.526px;line-height:1;font-family:'CMU Sans Serif';-inkscape-font-specification:'CMU Sans Serif';text-align:center;letter-spacing:0px;word-spacing:0px;text-anchor:middle;stroke-width:5.90939;stroke-miterlimit:4;stroke-dasharray:none">
      <path
         d="m 1068.2848,-191.97792 q -14.7597,0 -25.1932,-10.43354 -10.4336,-10.43354 -10.4336,-25.19318 0,-14.75964 13.3601,-31.93681 13.36,-17.17717 13.36,-36.77187 0,-14.88688 -6.7436,-22.01222 -6.6164,-7.25258 -17.3044,-7.25258 -13.1056,0 -22.9029,12.34211 -9.6701,12.21488 -10.3063,29.64652 v 58.52961 h -19.08578 v -129.91029 h -19.08575 v -19.08574 h 19.08575 v -18.95851 h 19.08578 v 18.95851 h 19.0857 v 19.08574 h -19.0857 v 25.32042 q 14.6324,-15.01412 33.9726,-15.01412 18.5768,0 30.4099,12.85107 11.9604,12.72383 11.9604,35.49948 0,27.48347 -13.36,44.66064 -13.36,17.17717 -13.36,24.04804 0,6.87087 4.835,11.70592 4.8351,4.83506 11.706,4.83506 z"
         style="font-style:normal;font-variant:normal;font-weight:normal;font-stretch:normal;font-size:260.584px;font-family:Catrinity;-inkscape-font-specification:Catrinity;text-align:center;text-anchor:middle;stroke-width:5.90939;stroke-miterlimit:4;stroke-dasharray:none"
         id="path17657" />
    </g>
    <path
       id="path25-7-8-66-3-4-4"
       style="fill:#d51c3c;fill-opacity:1;stroke:none;stroke-width:0.219504;stroke-linecap:round;stroke-linejoin:round;paint-order:markers fill stroke"
       d="m 1032.3532,-1097.2336 a 11.1467,11.1467 0 0 1 -11.1467,11.1467 11.1467,11.1467 0 0 1 -11.1467,-11.1467 11.1467,11.1467 0 0 1 11.1467,-11.1467 11.1467,11.1467 0 0 1 11.1467,11.1467 z" />
    <g
       aria-label="⯲"
       id="text873-4-3-1-20-3-8-9-5-8-5-3-31-2-0-9"
       style="font-size:20.5085px;line-height:1;font-family:'CMU Sans Serif';-inkscape-font-specification:'CMU Sans Serif';text-align:center;letter-spacing:0px;word-spacing:0px;text-anchor:middle;stroke-width:0.516754;stroke-miterlimit:4;stroke-dasharray:none">
      <path
         d="m 1017.646,-1097.9016 q 1.057,0 1.8025,-0.7455 0.7566,-0.7566 0.7566,-1.8136 0,-1.057 -0.7566,-1.8025 -0.7455,-0.7566 -1.8025,-0.7566 -1.0571,0 -1.8137,0.7566 -0.7455,0.7455 -0.7455,1.8025 0,1.057 0.7455,1.8136 0.7566,0.7455 1.8137,0.7455 z m 11.3491,8.1224 h -1.669 q 0,-1.5243 -1.0793,-2.5925 -1.0681,-1.0793 -2.5925,-1.0793 h -0.8345 v -2.7816 h -5.1738 q -1.7469,0 -2.9931,-1.2351 -1.235,-1.2461 -1.235,-2.993 0,-1.7469 1.235,-2.982 1.2462,-1.2461 2.9931,-1.2461 1.7468,0 2.9819,1.2461 1.2462,1.2351 1.2462,2.982 0,1.4576 -0.8568,2.5591 h 1.8025 v -6.5647 h 1.669 v 6.5647 h 2.8373 v 1.669 h -2.8373 v 1.1683 q 1.6802,0.2448 2.9486,1.5132 1.5577,1.5689 1.5577,3.7719 z"
         style="font-style:normal;font-variant:normal;font-weight:normal;font-stretch:normal;font-size:22.7873px;font-family:Catrinity;-inkscape-font-specification:Catrinity;text-align:center;text-anchor:middle;stroke-width:0.516754;stroke-miterlimit:4;stroke-dasharray:none"
         id="path17661" />
    </g>
    <path
       id="path25-7-8-66-3-4-2-6"
       style="fill:#886648;fill-opacity:1;stroke:none;stroke-width:0.219504;stroke-linecap:round;stroke-linejoin:round;paint-order:markers fill stroke"
       d="m 1032.3532,-907.04865 a 11.1467,11.1467 0 0 1 -11.1467,11.1467 11.1467,11.1467 0 0 1 -11.1467,-11.1467 11.1467,11.1467 0 0 1 11.1467,-11.14669 11.1467,11.1467 0 0 1 11.1467,11.14669 z" />
    <g
       aria-label=""
       id="text873-4-3-1-20-3-8-9-5-8-5-3-31-2-0-4-2"
       style="font-size:21.2089px;line-height:1;font-family:'CMU Sans Serif';-inkscape-font-specification:'CMU Sans Serif';text-align:center;letter-spacing:0px;word-spacing:0px;text-anchor:middle;stroke-width:0.534401;stroke-miterlimit:4;stroke-dasharray:none">
      <path
         d="m 1026.396,-901.74844 q -0.4488,-1.25422 -1.4499,-2.2553 -1.001,-1.00107 -2.2553,-1.44983 0.4488,1.25422 1.4499,2.25529 1.001,1.00108 2.2553,1.44984 z m -2.8767,0.32218 -2.3128,2.31282 -7.8245,-7.82448 7.8245,-7.82448 7.8245,7.82448 -2.3129,2.31283 q 1.7375,2.1057 1.7375,4.93633 -2.8306,0 -4.9363,-1.7375 z m -1.2082,-1.23121 q -1.6799,-2.08269 -1.6799,-4.85578 2.773,0 4.8557,1.67997 l 1.1047,-1.10464 -5.3851,-5.38508 -5.3851,5.38508 5.3851,5.38509 z"
         style="font-style:normal;font-variant:normal;font-weight:normal;font-stretch:normal;font-size:23.5655px;font-family:Catrinity;-inkscape-font-specification:Catrinity;text-align:center;text-anchor:middle;stroke-width:0.534401;stroke-miterlimit:4;stroke-dasharray:none"
         id="path17665" />
    </g>
    <path
       id="path25-7-8-66-3-4-22-69"
       style="fill:#b14955;fill-opacity:1;stroke:none;stroke-width:0.244086;stroke-linecap:round;stroke-linejoin:round;paint-order:markers fill stroke"
       d="m 1033.6011,-998.45911 a 12.395,12.395 0 0 1 -12.395,12.395 12.395,12.395 0 0 1 -12.395,-12.395 12.395,12.395 0 0 1 12.395,-12.39499 12.395,12.395 0 0 1 12.395,12.39499 z" />
    <g
       aria-label="共"
       id="text873-4-3-1-20-3-8-9-5-8-5-3-31-2-0-6-2"
       style="font-style:normal;font-variant:normal;font-weight:normal;font-stretch:normal;font-size:16.7829px;line-height:1;font-family:'Noto Sans Mono CJK SC';-inkscape-font-specification:'Noto Sans Mono CJK SC';text-align:center;letter-spacing:0px;word-spacing:0px;text-anchor:middle;stroke-width:0.422879;stroke-miterlimit:4;stroke-dasharray:none">
      <path
         d="m 1017.8026,-995.0463 c -1.007,1.32399 -3.0209,2.89039 -4.8111,3.84143 0.4103,0.29836 1.0443,0.85779 1.3986,1.2121 1.8461,-1.04428 3.8974,-2.75986 5.24,-4.34492 z m 4.8298,0.83915 c 1.6969,1.28669 3.9346,3.11416 4.9975,4.19573 l 1.6783,-1.00698 c -1.1934,-1.13751 -3.4684,-2.87174 -5.1467,-4.08384 z m -3.8788,-7.47775 h 4.8112 v 4.02792 h -4.8112 z m 6.62,4.02792 v -4.02792 h 3.5803 v -1.6783 h -3.5803 v -3.599 h -1.8088 v 3.599 h -4.8112 v -3.599 h -1.7901 v 3.599 h -3.4499 v 1.6783 h 3.4499 v 4.02792 h -4.1585 v 1.69694 h 16.7643 v -1.69694 z"
         style="font-style:normal;font-variant:normal;font-weight:500;font-stretch:normal;font-size:18.6477px;font-family:'Noto Sans CJK SC';-inkscape-font-specification:'Noto Sans CJK SC Medium';text-align:center;text-anchor:middle;stroke-width:0.422879;stroke-miterlimit:4;stroke-dasharray:none"
         id="path17669" />
    </g>
    <path
       id="path2805-6"
       style="fill:#ebdd21;fill-opacity:1;stroke:none;stroke-width:0.0733365;stroke-miterlimit:10;paint-order:stroke fill markers"
       d="m 1188.0411,-111.84753 a 21.299999,21.299982 0 0 1 -21.3,21.299986 21.299999,21.299982 0 0 1 -21.3,-21.299986 21.299999,21.299982 0 0 1 21.3,-21.29998 21.299999,21.299982 0 0 1 21.3,21.29998 z" />
    <g
       aria-label="Ι"
       id="text3622-8"
       style="font-style:normal;font-variant:normal;font-weight:normal;font-stretch:normal;font-size:51.0841px;line-height:1;font-family:Catrinity;-inkscape-font-specification:Catrinity;letter-spacing:0px;word-spacing:0px;stroke-width:2.39457">
      <path
         d="m 1172.3517,-95.699715 h -11.2245 v -3.741511 h 3.7415 V -124.8835 h -3.7415 v -3.74151 h 11.2245 v 3.74151 h -3.7415 v 25.442274 h 3.7415 z"
         style="font-style:normal;font-variant:normal;font-weight:normal;font-stretch:normal;font-family:Catrinity;-inkscape-font-specification:Catrinity;stroke-width:2.39457"
         id="path17673" />
    </g>
    <path
       id="rect3624-18"
       style="fill:#000000;fill-opacity:1;stroke:none;stroke-width:3.88754;stroke-miterlimit:10;paint-order:stroke fill markers"
       d="m 1156.0886,-108.40652 h 21.3007 v 3.75223 h -21.3007 z" />
    <path
       id="path2805-2-5"
       style="fill:#b97565;fill-opacity:1;stroke:none;stroke-width:0.0681718;stroke-miterlimit:10;paint-order:stroke fill markers"
       d="m 1212.429,-51.674786 a 19.799999,19.799984 0 0 1 -19.8,19.799984 19.799999,19.799984 0 0 1 -19.8,-19.799984 19.799999,19.799984 0 0 1 19.8,-19.799984 19.799999,19.799984 0 0 1 19.8,19.799984 z" />
    <g
       aria-label="Ε"
       id="text3622-6-0"
       style="font-style:normal;font-variant:normal;font-weight:normal;font-stretch:normal;font-size:41.006px;line-height:1;font-family:Catrinity;-inkscape-font-specification:Catrinity;text-align:center;letter-spacing:0px;word-spacing:0px;text-anchor:middle;stroke-width:1.92216">
      <path
         d="m 1201.1145,-40.551712 h -16.8189 v -26.429649 h 16.8189 v 3.003369 h -13.8155 v 8.709771 h 11.4128 v 3.003369 h -11.4128 v 8.709771 h 13.8155 z"
         style="font-style:normal;font-variant:normal;font-weight:normal;font-stretch:normal;font-family:Catrinity;-inkscape-font-specification:Catrinity;text-align:center;text-anchor:middle;stroke-width:1.92216"
         id="path17678" />
    </g>
    <path
       id="rect3624-1-9"
       style="fill:#000000;fill-opacity:1;stroke:none;stroke-width:2.54797;stroke-miterlimit:10;paint-order:stroke fill markers"
       transform="matrix(0,-1,-1,0,0,0)"
       d="m 36.366802,-1196.8501 h 11.399172 v 3.012 H 36.366802 Z" />
    <path
       id="rect3816-4"
       style="fill:#b97565;fill-opacity:1;stroke:none;stroke-width:2.35172;stroke-miterlimit:10;paint-order:stroke fill markers"
       d="m 1191.6515,-59.723015 h 11.8615 v 11.861505 h -11.8615 z" />
    <path
       id="path2805-32-9"
       style="fill:#e7e1e9;fill-opacity:1;stroke:none;stroke-width:0.0883138;stroke-miterlimit:10;paint-order:stroke fill markers"
       d="m 1222.4544,20.377682 a 25.65,25.649977 0 0 1 -25.65,25.649976 25.65,25.649977 0 0 1 -25.65,-25.649976 25.65,25.649977 0 0 1 25.65,-25.649977 25.65,25.649977 0 0 1 25.65,25.649977 z" />
    <g
       aria-label="Γ"
       id="text3622-4-7"
       style="font-style:normal;font-variant:normal;font-weight:normal;font-stretch:normal;font-size:52.6891px;line-height:1;font-family:Catrinity;-inkscape-font-specification:Catrinity;text-align:center;letter-spacing:0px;word-spacing:0px;text-anchor:middle;stroke-width:2.46981">
      <path
         d="m 1192.2746,37.357624 h -3.859 V 3.3978536 h 21.6107 v 3.8590648 h -17.7517 z"
         style="font-style:normal;font-variant:normal;font-weight:normal;font-stretch:normal;font-family:Catrinity;-inkscape-font-specification:Catrinity;text-align:center;text-anchor:middle;stroke-width:2.46981"
         id="path17684" />
    </g>
    <path
       id="rect3624-5-1"
       style="fill:#000000;fill-opacity:1;stroke:none;stroke-width:3.27473;stroke-miterlimit:10;paint-order:stroke fill markers"
       d="m 1183.0771,27.241327 h 14.6541 v 3.870122 h -14.6541 z" />
    <path
       id="path2805-4-2-2-7"
       style="opacity:0.999;fill:#9e7f7a;fill-opacity:1;stroke:none;stroke-width:0.0883137;stroke-miterlimit:10;paint-order:stroke fill markers"
       d="m 1194.3584,85.749046 a 25.65,25.649981 0 0 1 -25.65,25.649984 25.65,25.649981 0 0 1 -25.65,-25.649984 25.65,25.649981 0 0 1 25.65,-25.64998 25.65,25.649981 0 0 1 25.65,25.64998 z" />
    <g
       aria-label="Κ"
       id="text3622-41-2-3-8"
       style="font-style:normal;font-variant:normal;font-weight:normal;font-stretch:normal;font-size:54.0737px;line-height:1;font-family:Catrinity;-inkscape-font-specification:Catrinity;text-align:center;letter-spacing:0px;word-spacing:0px;text-anchor:middle;stroke-width:2.5347">
      <path
         d="m 1180.6954,103.18166 h -4.8318 l -11.1157,-15.868304 -4.0661,5.808698 v 10.059606 h -3.9605 V 68.329474 h 3.9605 v 17.901352 l 12.5415,-17.901352 h 4.8318 l -10.8781,15.551469 z"
         style="font-style:normal;font-variant:normal;font-weight:normal;font-stretch:normal;font-family:Catrinity;-inkscape-font-specification:Catrinity;text-align:center;text-anchor:middle;stroke-width:2.5347"
         id="path17689" />
    </g>
    <path
       id="rect3624-50-5-9-0"
       style="fill:#000000;fill-opacity:1;stroke:none;stroke-width:3.44244;stroke-miterlimit:10;paint-order:stroke fill markers"
       inkscape:transform-center-x="2.1058146"
       inkscape:transform-center-y="0.55552165"
       transform="rotate(-55.230123)"
       d="m 580.28162,1016.7842 h 21.45988 v 3.9717 h -21.45988 z" />
    <path
       id="rect11888-1"
       style="opacity:0.999;fill:#9e7f7a;fill-opacity:1;stroke:none;stroke-width:4;stroke-linecap:square;stroke-miterlimit:10;stroke-dasharray:none;paint-order:stroke fill markers"
       d="m 1160.3656,103.18166 h 14.9345 v 4.78205 h -14.9345 z" />
    <path
       id="path2805-0-9"
       style="fill:#ebc8df;fill-opacity:1;stroke:none;stroke-width:0.0634774;stroke-miterlimit:10;paint-order:stroke fill markers"
       d="m 1145.5616,-706.10504 a 18.436501,18.436483 0 0 1 -18.4365,18.43648 18.436501,18.436483 0 0 1 -18.4365,-18.43648 18.436501,18.436483 0 0 1 18.4365,-18.43648 18.436501,18.436483 0 0 1 18.4365,18.43648 z" />
    <g
       aria-label="Ψ"
       id="text3622-7-3"
       style="font-style:normal;font-variant:normal;font-weight:normal;font-stretch:normal;font-size:40.7099px;line-height:1;font-family:Catrinity;-inkscape-font-specification:Catrinity;text-align:center;letter-spacing:0px;word-spacing:0px;text-anchor:middle;stroke-width:1.90828">
      <path
         d="m 1128.6165,-692.28137 h -2.9817 v -11.62856 q -3.1606,-0.43732 -5.5261,-2.82266 -2.922,-2.90217 -2.922,-7.01689 v -4.77069 h 2.9817 v 4.77069 q 0,2.88229 2.0474,4.90983 1.4709,1.49084 3.419,1.90828 v -11.5888 h 2.9817 v 11.5888 q 1.948,-0.41744 3.4388,-1.90828 2.0276,-2.02754 2.0276,-4.90983 v -4.77069 h 2.9817 v 4.77069 q 0,4.11472 -2.9022,7.01689 -2.3854,2.38534 -5.5459,2.82266 z"
         style="font-style:normal;font-variant:normal;font-weight:normal;font-stretch:normal;font-family:Catrinity;-inkscape-font-specification:Catrinity;text-align:center;text-anchor:middle;stroke-width:1.90828"
         id="path17695" />
    </g>
    <path
       id="rect3624-6-4"
       style="fill:#000000;fill-opacity:1;stroke:none;stroke-width:3.56526;stroke-miterlimit:10;paint-order:stroke fill markers"
       d="m 1115.8846,-712.94385 h 22.481 v 2.99022 h -22.481 z" />
    <path
       id="circle3031-8-3-4"
       style="fill:#bfc1c2;fill-opacity:1;stroke:none;stroke-width:0.410289;stroke-linecap:round;stroke-linejoin:round;paint-order:markers fill stroke"
       d="m 1126.6894,399.19833 a 20.835001,20.835001 0 0 1 -20.835,20.835 20.835001,20.835001 0 0 1 -20.835,-20.835 20.835001,20.835001 0 0 1 20.835,-20.835 20.835001,20.835001 0 0 1 20.835,20.835 z" />
    <g
       aria-label="☾"
       id="text3035-7-8-7"
       style="font-size:42.4033px;line-height:1;font-family:'CMU Sans Serif';-inkscape-font-specification:'CMU Sans Serif';text-align:center;letter-spacing:0px;word-spacing:0px;text-anchor:middle;stroke-width:1.06843;stroke-miterlimit:4;stroke-dasharray:none">
      <path
         d="m 1105.6706,387.00587 q -5.0611,0 -8.627,3.56582 -3.5658,3.56583 -3.5658,8.627 0,5.06117 3.5658,8.627 3.5659,3.56582 8.627,3.56582 0.7592,0 1.4724,-0.069 -4.6471,-4.87712 -4.6471,-12.1238 0,-6.4875 3.7038,-11.06556 0.4602,-0.55213 0.9203,-1.05824 -0.7132,-0.069 -1.4494,-0.069 z m 0,-3.4508 q 5.7974,0 9.6623,3.4508 -2.4156,0 -4.256,1.21928 -1.3113,0.8742 -2.4386,2.34654 -2.6916,3.56583 -2.6916,8.627 0,5.06117 2.6916,8.627 1.1273,1.47234 2.4386,2.34654 1.8404,1.21928 4.256,1.21928 -3.9109,3.4508 -9.6623,3.4508 -6.4875,0 -11.0655,-4.57806 -4.5781,-4.60106 -4.5781,-11.06556 0,-6.4875 4.5781,-11.06556 4.578,-4.57806 11.0655,-4.57806 z"
         style="font-style:normal;font-variant:normal;font-weight:normal;font-stretch:normal;font-size:47.1149px;font-family:Catrinity;-inkscape-font-specification:Catrinity;text-align:center;text-anchor:middle;stroke-width:1.06843;stroke-miterlimit:4;stroke-dasharray:none"
         id="path17700" />
    </g>
    <path
       id="circle3097-53-0-5"
       style="fill:#b4888d;fill-opacity:1;stroke:none;stroke-width:0.271618;stroke-linecap:round;stroke-linejoin:round;paint-order:markers fill stroke"
       d="m 1125.9192,-467.06223 a 13.793115,13.793115 0 0 1 -13.7931,13.79312 13.793115,13.793115 0 0 1 -13.7931,-13.79312 13.793115,13.793115 0 0 1 13.7931,-13.79311 13.793115,13.793115 0 0 1 13.7931,13.79311 z" />
    <g
       aria-label="♅"
       id="text3101-8-2-9"
       style="font-size:28.0717px;line-height:1;font-family:'CMU Sans Serif';-inkscape-font-specification:'CMU Sans Serif';text-align:center;letter-spacing:0px;word-spacing:0px;text-anchor:middle;stroke-width:0.707322;stroke-miterlimit:4;stroke-dasharray:none">
      <path
         d="m 1112.1261,-458.99285 q 0.8224,0 1.4011,-0.57873 0.5788,-0.57874 0.5788,-1.40115 0,-0.82241 -0.5788,-1.40114 -0.5787,-0.57874 -1.4011,-0.57874 -0.8224,0 -1.4011,0.57874 -0.5788,0.57873 -0.5788,1.40114 0,0.82241 0.5788,1.40115 0.5787,0.57873 1.4011,0.57873 z m 0,2.28448 q -1.7667,0 -3.0155,-1.24885 -1.2489,-1.24885 -1.2489,-3.01551 0,-1.76666 1.2489,-3.0155 0.8224,-0.82242 1.8733,-1.11178 v -3.86838 h -4.4928 v 5.86349 h -2.2845 v -14.01145 h 2.2845 v 5.86349 h 4.4928 v -5.86349 h 2.2844 v 5.86349 h 4.4928 v -5.86349 h 2.2845 v 14.01145 h -2.2845 v -5.86349 h -4.4928 v 3.86838 q 1.0509,0.28936 1.8733,1.11178 1.2489,1.24884 1.2489,3.0155 0,1.76666 -1.2489,3.01551 -1.2488,1.24885 -3.0155,1.24885 z"
         style="font-style:normal;font-variant:normal;font-weight:normal;font-stretch:normal;font-size:31.1907px;font-family:Catrinity;-inkscape-font-specification:Catrinity;text-align:center;text-anchor:middle;stroke-width:0.707322;stroke-miterlimit:4;stroke-dasharray:none"
         id="path17704" />
    </g>
    <path
       id="rect5746-4"
       style="opacity:0.999;fill:#b4888d;fill-opacity:1;stroke:none;stroke-width:2.16726;stroke-miterlimit:10;paint-order:stroke fill markers"
       d="m 1104.0283,-477.23984 h 16.2676 v 8.34722 h -16.2676 z" />
    <path
       id="rect5746-5-18"
       style="opacity:0.999;fill:#b4888d;fill-opacity:1;stroke:none;stroke-width:1.4191;stroke-miterlimit:10;paint-order:stroke fill markers"
       d="m 1100.1166,-470.62881 h 6.9746 v 8.34721 h -6.9746 z" />
    <path
       id="rect5746-5-1-8"
       style="opacity:0.999;fill:#b4888d;fill-opacity:1;stroke:none;stroke-width:1.4191;stroke-miterlimit:10;paint-order:stroke fill markers"
       d="m 1117.2769,-470.56244 h 6.9746 v 8.34722 h -6.9746 z" />
    <path
       id="path5744-1"
       style="opacity:0.999;fill:#b4888d;fill-opacity:1;stroke:#000000;stroke-width:4.53125;stroke-miterlimit:10;stroke-dasharray:none;paint-order:stroke fill markers"
       d="m 1116.4288,-473.00064 a 4.3026652,4.3026652 0 0 1 -4.3027,4.30266 4.3026652,4.3026652 0 0 1 -4.3027,-4.30266 4.3026652,4.3026652 0 0 1 4.3027,-4.30267 4.3026652,4.3026652 0 0 1 4.3027,4.30267 z" />
    <path
       id="circle3097-53-1-7"
       style="fill:#c7b6bd;fill-opacity:1;stroke:none;stroke-width:0.27657;stroke-linecap:round;stroke-linejoin:round;paint-order:markers fill stroke"
       d="m 1139.6077,-506.98795 a 14.044572,14.044572 0 0 1 -14.0446,14.04458 14.044572,14.044572 0 0 1 -14.0446,-14.04458 14.044572,14.044572 0 0 1 14.0446,-14.04457 14.044572,14.044572 0 0 1 14.0446,14.04457 z" />
    <g
       aria-label="♅"
       id="text3101-8-0-0"
       style="font-size:28.5835px;line-height:1;font-family:'CMU Sans Serif';-inkscape-font-specification:'CMU Sans Serif';text-align:center;letter-spacing:0px;word-spacing:0px;text-anchor:middle;fill:#000000;stroke-width:0.720217;stroke-miterlimit:4;stroke-dasharray:none">
      <path
         d="m 1125.5631,-498.76951 q 0.8374,0 1.4267,-0.58929 0.5893,-0.58928 0.5893,-1.42668 0,-0.83741 -0.5893,-1.42669 -0.5893,-0.58928 -1.4267,-0.58928 -0.8374,0 -1.4267,0.58928 -0.5893,0.58928 -0.5893,1.42669 0,0.8374 0.5893,1.42668 0.5893,0.58929 1.4267,0.58929 z m 0,2.32612 q -1.7989,0 -3.0705,-1.27161 -1.2716,-1.27162 -1.2716,-3.07048 0,-1.79887 1.2716,-3.07048 0.8374,-0.83741 1.9075,-1.13205 v -3.93889 h -4.5748 v 5.97037 h -2.3261 v -14.26687 h 2.3261 v 5.97037 h 4.5748 v -5.97037 h 2.3261 v 5.97037 h 4.5747 v -5.97037 h 2.3261 v 14.26687 h -2.3261 v -5.97037 h -4.5747 v 3.93889 q 1.07,0.29464 1.9074,1.13205 1.2716,1.27161 1.2716,3.07048 0,1.79886 -1.2716,3.07048 -1.2716,1.27161 -3.0705,1.27161 z"
         style="font-style:normal;font-variant:normal;font-weight:normal;font-stretch:normal;font-size:31.7593px;font-family:Catrinity;-inkscape-font-specification:Catrinity;text-align:center;text-anchor:middle;fill:#000000;stroke-width:0.720217;stroke-miterlimit:4;stroke-dasharray:none"
         id="path17712" />
    </g>
    <path
       id="rect5898-1-9"
       style="opacity:0.999;fill:#c7b6bd;fill-opacity:1;stroke:none;stroke-width:8.95132;stroke-miterlimit:10;stroke-dasharray:none;paint-order:stroke fill markers"
       d="m 1116.2021,-514.89301 h 19.4329 v 8.32962 h -19.4329 z" />
    <path
       id="rect5898-1-9-1-2"
       style="opacity:0.999;fill:#c7b6bd;fill-opacity:1;stroke:none;stroke-width:4.07531;stroke-miterlimit:10;stroke-dasharray:none;paint-order:stroke fill markers"
       d="m 1116.4282,-510.14301 h 4.1578 v 8.06944 h -4.1578 z" />
    <path
       id="rect5898-1-9-1-0-5"
       style="opacity:0.999;fill:#c7b6bd;fill-opacity:1;stroke:none;stroke-width:8.36494;stroke-miterlimit:10;stroke-dasharray:none;paint-order:stroke fill markers"
       d="m 1116.7759,-517.71777 h 17.5173 v 8.06943 h -17.5173 z" />
    <path
       id="rect5898-6-4"
       style="opacity:0.999;fill:#000000;fill-opacity:1;stroke:none;stroke-width:3.60956;stroke-miterlimit:10;stroke-dasharray:none;paint-order:stroke fill markers"
       transform="matrix(0,1,1,0,0,0)"
       d="m -514.35413,1124.4071 h 11.34197 v 2.3206 h -11.34197 z" />
    <path
       id="rect5898-7"
       style="opacity:0.999;fill:#000000;fill-opacity:1;stroke:none;stroke-width:4.30268;stroke-miterlimit:10;stroke-dasharray:none;paint-order:stroke fill markers"
       d="m 1117.5146,-514.8017 h 16.1161 v 2.32061 h -16.1161 z" />
    <path
       id="rect5898-1-1-2"
       style="opacity:0.999;fill:#c7b6bd;fill-opacity:1;stroke:none;stroke-width:4.45382;stroke-miterlimit:10;stroke-dasharray:none;paint-order:stroke fill markers"
       d="m 1130.7781,-508.9566 h 4.8109 v 8.32961 h -4.8109 z" />
    <path
       id="circle3097-53-5-3"
       style="fill:#ebdfef;fill-opacity:1;stroke:none;stroke-width:0.236922;stroke-linecap:round;stroke-linejoin:round;paint-order:markers fill stroke"
       d="m 1116.2611,-578.93811 a 12.031199,12.031199 0 0 1 -12.0312,12.0312 12.031199,12.031199 0 0 1 -12.0312,-12.0312 12.031199,12.031199 0 0 1 12.0312,-12.0312 12.031199,12.031199 0 0 1 12.0312,12.0312 z" />
    <g
       aria-label="♅"
       id="text3101-8-7-2"
       style="font-size:23.9226px;line-height:1;font-family:'CMU Sans Serif';-inkscape-font-specification:'CMU Sans Serif';text-align:center;letter-spacing:0px;word-spacing:0px;text-anchor:middle;stroke-width:0.602777;stroke-miterlimit:4;stroke-dasharray:none">
      <path
         d="m 1104.1698,-570.82775 q 0.7009,0 1.1941,-0.4932 0.4932,-0.4932 0.4932,-1.19406 0,-0.70085 -0.4932,-1.19405 -0.4932,-0.4932 -1.1941,-0.4932 -0.7009,0 -1.1941,0.4932 -0.4932,0.4932 -0.4932,1.19405 0,0.70086 0.4932,1.19406 0.4932,0.4932 1.1941,0.4932 z m 0,1.94682 q -1.5055,0 -2.5698,-1.06426 -1.0643,-1.06427 -1.0643,-2.56982 0,-1.50554 1.0643,-2.56981 0.7008,-0.70086 1.5964,-0.94746 v -3.29663 h -3.8288 v 4.99686 h -1.9468 v -11.94054 h 1.9468 v 4.99686 h 3.8288 v -4.99686 h 1.9468 v 4.99686 h 3.8288 v -4.99686 h 1.9468 v 11.94054 h -1.9468 v -4.99686 h -3.8288 v 3.29663 q 0.8956,0.2466 1.5964,0.94746 1.0643,1.06427 1.0643,2.56981 0,1.50555 -1.0643,2.56982 -1.0643,1.06426 -2.5698,1.06426 z"
         style="font-style:normal;font-variant:normal;font-weight:normal;font-stretch:normal;font-size:26.5807px;font-family:Catrinity;-inkscape-font-specification:Catrinity;text-align:center;text-anchor:middle;stroke-width:0.602777;stroke-miterlimit:4;stroke-dasharray:none"
         id="path17722" />
    </g>
    <path
       id="rect6276-9-90"
       style="opacity:0.999;fill:#ebdfef;fill-opacity:1;stroke:none;stroke-width:2.88208;stroke-miterlimit:10;stroke-dasharray:none;paint-order:stroke fill markers"
       d="m 1096.7452,-581.54626 h 3.4525 v 7.61644 h -3.4525 z" />
    <path
       id="rect6276-3"
       style="opacity:0.999;fill:#ebdfef;fill-opacity:1;stroke:none;stroke-width:5.37226;stroke-miterlimit:10;stroke-dasharray:none;paint-order:stroke fill markers"
       d="m 1097.0922,-586.9884 h 14.1838 v 6.44146 h -14.1838 z" />
    <path
       id="rect6276-9-9-1"
       style="opacity:0.999;fill:#ebdfef;fill-opacity:1;stroke:none;stroke-width:2.88208;stroke-miterlimit:10;stroke-dasharray:none;paint-order:stroke fill markers"
       d="m 1108.244,-581.50171 h 3.4524 v 7.61645 h -3.4524 z" />
    <g
       aria-label="A"
       id="text3101-8-7-0-0"
       style="font-size:23.9226px;line-height:1;font-family:'CMU Sans Serif';-inkscape-font-specification:'CMU Sans Serif';text-align:center;letter-spacing:0px;word-spacing:0px;text-anchor:middle;stroke-width:0.602777;stroke-miterlimit:4;stroke-dasharray:none">
      <path
         d="m 1111.4509,-572.88751 h -2.0766 l -2.2972,-6.29475 h -5.8146 l -2.2972,6.29475 h -2.0766 l 6.2428,-17.13209 h 2.0766 z m -5.0747,-8.24158 -2.2064,-6.03517 -2.2064,6.03517 z"
         style="font-style:normal;font-variant:normal;font-weight:normal;font-stretch:normal;font-size:26.5807px;font-family:Catrinity;-inkscape-font-specification:Catrinity;text-align:center;text-anchor:middle;stroke-width:0.602777;stroke-miterlimit:4;stroke-dasharray:none"
         id="path17728" />
    </g>
    <path
       id="circle3097-53-16-9"
       style="fill:#24272e;fill-opacity:1;stroke:none;stroke-width:0.238147;stroke-linecap:round;stroke-linejoin:round;paint-order:markers fill stroke"
       d="m 1135.9213,-546.35419 a 12.093387,12.093387 0 0 1 -12.0934,12.09339 12.093387,12.093387 0 0 1 -12.0934,-12.09339 12.093387,12.093387 0 0 1 12.0934,-12.09338 12.093387,12.093387 0 0 1 12.0934,12.09338 z" />
    <g
       aria-label="♅"
       id="text3101-8-6-7"
       style="font-size:24.6124px;line-height:1;font-family:'CMU Sans Serif';-inkscape-font-specification:'CMU Sans Serif';text-align:center;letter-spacing:0px;word-spacing:0px;text-anchor:middle;fill:#000000;stroke-width:0.620159;stroke-miterlimit:4;stroke-dasharray:none">
      <path
         d="m 1123.8279,-539.27801 q 0.721,0 1.2285,-0.50742 0.5074,-0.50742 0.5074,-1.22848 0,-0.72107 -0.5074,-1.22849 -0.5075,-0.50741 -1.2285,-0.50741 -0.7211,0 -1.2285,0.50741 -0.5074,0.50742 -0.5074,1.22849 0,0.72106 0.5074,1.22848 0.5074,0.50742 1.2285,0.50742 z m 0,2.00296 q -1.549,0 -2.6439,-1.09495 -1.095,-1.09496 -1.095,-2.64391 0,-1.54896 1.095,-2.64391 0.721,-0.72107 1.6424,-0.97478 v -3.39168 h -3.9392 v 5.14094 h -2.0029 v -12.28483 h 2.0029 v 5.14093 h 3.9392 v -5.14093 h 2.003 v 5.14093 h 3.9391 v -5.14093 h 2.003 v 12.28483 h -2.003 v -5.14094 h -3.9391 v 3.39168 q 0.9213,0.25371 1.6424,0.97478 1.0949,1.09495 1.0949,2.64391 0,1.54895 -1.0949,2.64391 -1.095,1.09495 -2.6439,1.09495 z"
         style="font-style:normal;font-variant:normal;font-weight:normal;font-stretch:normal;font-size:27.3471px;font-family:Catrinity;-inkscape-font-specification:Catrinity;text-align:center;text-anchor:middle;fill:#000000;stroke-width:0.620159;stroke-miterlimit:4;stroke-dasharray:none"
         id="path17732" />
    </g>
    <path
       id="rect6586-8"
       style="opacity:0.999;fill:#24272e;fill-opacity:1;stroke:none;stroke-width:5.1681;stroke-miterlimit:10;stroke-dasharray:none;paint-order:stroke fill markers"
       d="m 1116.5198,-555.42865 h 14.6243 v 7.52366 h -14.6243 z" />
    <path
       d="m 1123.8244,-547.61317 c -1.8399,0 -3.411,-0.65119 -4.7237,-1.94942 -1.3024,-1.30856 -1.9535,-2.8838 -1.9535,-4.72675 v -0.87858 h 2.0052 v 0.87858 c 0,1.29099 0.4134,2.39387 1.3644,3.31069 0.9302,0.90959 2.0155,1.36231 3.3076,1.36231 1.292,0 2.398,-0.45479 3.2972,-1.36231 0.9303,-0.91992 1.3747,-2.0197 1.3747,-3.31069 v -0.87858 h 2.0053 v 0.87858 c 0,1.84295 -0.6202,3.41819 -1.9639,4.72675 -1.292,1.29927 -2.8632,1.94942 -4.7133,1.94942 z"
       style="font-style:normal;font-variant:normal;font-weight:normal;font-stretch:normal;font-size:2.64575px;line-height:1;font-family:Catrinity;-inkscape-font-specification:Catrinity;text-align:center;letter-spacing:0px;word-spacing:0px;text-anchor:middle;fill:#000000;stroke-width:0.620159;stroke-miterlimit:4;stroke-dasharray:none"
       id="path6583-7"
       sodipodi:nodetypes="sssccsssssccsss" />
    <path
       id="rect6586-7-4"
       style="opacity:0.999;fill:#24272e;fill-opacity:1;stroke:none;stroke-width:2.41617;stroke-miterlimit:10;stroke-dasharray:none;paint-order:stroke fill markers"
       d="m 1128.3197,-548.89789 h 2.824 v 8.51608 h -2.824 z" />
    <path
       id="rect6586-7-9-1"
       style="opacity:0.999;fill:#24272e;fill-opacity:1;stroke:none;stroke-width:2.42492;stroke-miterlimit:10;stroke-dasharray:none;paint-order:stroke fill markers"
       d="m 1116.5198,-548.95844 h 2.8239 v 8.57786 h -2.8239 z" />
    <path
       id="circle3115-0-4-0"
       style="fill:#f8c4b6;fill-opacity:1;stroke:none;stroke-width:0.241723;stroke-linecap:round;stroke-linejoin:round;paint-order:markers fill stroke"
       d="m 1068.4713,-818.82318 a 12.275001,12.275001 0 0 1 -12.275,12.275 12.275001,12.275001 0 0 1 -12.275,-12.275 12.275001,12.275001 0 0 1 12.275,-12.275 12.275001,12.275001 0 0 1 12.275,12.275 z" />
    <g
       aria-label="⯕"
       id="text3119-8-3-9"
       style="font-size:24.982px;line-height:1;font-family:'CMU Sans Serif';-inkscape-font-specification:'CMU Sans Serif';text-align:center;letter-spacing:0px;word-spacing:0px;text-anchor:middle;stroke-width:0.629473;stroke-miterlimit:4;stroke-dasharray:none">
      <path
         d="m 1049.0129,-818.82362 q 0,2.9818 2.1008,5.08261 2.1008,2.10081 5.0826,2.10081 2.9818,0 5.0826,-2.10081 2.1008,-2.10081 2.1008,-5.08261 0,-0.44727 -0.041,-0.86743 -2.8733,2.73783 -7.1427,2.73783 -3.8221,0 -6.5193,-2.18213 -0.3253,-0.27107 -0.6235,-0.54215 -0.041,0.42017 -0.041,0.85388 z m -2.0331,0 q 0,-3.41551 2.0331,-5.69252 0,1.42313 0.7183,2.50742 0.5151,0.77256 1.3825,1.43668 2.1008,1.58578 5.0826,1.58578 2.9818,0 5.0826,-1.58578 0.8674,-0.66412 1.3825,-1.43668 0.7183,-1.08429 0.7183,-2.50742 2.033,2.30412 2.033,5.69252 0,3.82212 -2.7107,6.51929 -2.6971,2.69717 -6.5057,2.69717 -3.8221,0 -6.5193,-2.69717 -2.6972,-2.69717 -2.6972,-6.51929 z m 9.2165,-1.62643 q -1.5722,0 -2.6836,-1.1114 -1.1114,-1.1114 -1.1114,-2.68361 0,-1.57222 1.1114,-2.68362 1.1114,-1.1114 2.6836,-1.1114 1.5722,0 2.6836,1.1114 1.1114,1.1114 1.1114,2.68362 0,1.57221 -1.1114,2.68361 -1.1114,1.1114 -2.6836,1.1114 z m 0,-2.03304 q 0.7319,0 1.2469,-0.51504 0.5151,-0.51504 0.5151,-1.24693 0,-0.7319 -0.5151,-1.24694 -0.515,-0.51503 -1.2469,-0.51503 -0.7319,0 -1.2469,0.51503 -0.5151,0.51504 -0.5151,1.24694 0,0.73189 0.5151,1.24693 0.515,0.51504 1.2469,0.51504 z"
         style="font-style:normal;font-variant:normal;font-weight:normal;font-stretch:normal;font-size:27.7578px;font-family:Catrinity;-inkscape-font-specification:Catrinity;text-align:center;text-anchor:middle;stroke-width:0.629473;stroke-miterlimit:4;stroke-dasharray:none"
         id="path17739" />
    </g>
    <path
       id="path25-7-8-39-7-0-2-8-2"
       style="fill:#ebc8df;fill-opacity:1;stroke:none;stroke-width:0.363057;stroke-linecap:round;stroke-linejoin:round;paint-order:markers fill stroke"
       d="m 1343.5113,-706.10529 a 18.436501,18.436501 0 0 1 -18.4365,18.4365 18.436501,18.436501 0 0 1 -18.4365,-18.4365 18.436501,18.436501 0 0 1 18.4365,-18.4365 18.436501,18.436501 0 0 1 18.4365,18.4365 z" />
    <g
       aria-label="☾"
       transform="rotate(-90)"
       id="text3035-7-8-7-9-7"
       style="font-size:27.133px;line-height:1;font-family:'CMU Sans Serif';-inkscape-font-specification:'CMU Sans Serif';text-align:center;letter-spacing:0px;word-spacing:0px;text-anchor:middle;fill:#000000;stroke-width:0.68367;stroke-miterlimit:4;stroke-dasharray:none">
      <path
         d="m 714.86907,1317.2735 q -3.23855,0 -5.52026,2.2817 -2.28171,2.2817 -2.28171,5.5203 0,3.2385 2.28171,5.5202 2.28171,2.2817 5.52026,2.2817 0.48579,0 0.94213,-0.044 -2.97358,-3.1208 -2.97358,-7.7578 0,-4.1513 2.37003,-7.0807 0.29442,-0.3533 0.58883,-0.6771 -0.45634,-0.044 -0.92741,-0.044 z m 0,-2.2081 q 3.70962,0 6.1827,2.2081 -1.54567,0 -2.72333,0.7802 -0.83908,0.5594 -1.56039,1.5015 -1.72233,2.2817 -1.72233,5.5203 0,3.2385 1.72233,5.5202 0.72131,0.9422 1.56039,1.5015 1.17766,0.7802 2.72333,0.7802 -2.50252,2.2082 -6.1827,2.2082 -4.15123,0 -7.08065,-2.9295 -2.92942,-2.9441 -2.92942,-7.0806 0,-4.1513 2.92942,-7.0807 2.92942,-2.9294 7.08065,-2.9294 z"
         style="font-style:normal;font-variant:normal;font-weight:normal;font-stretch:normal;font-size:30.148px;font-family:Catrinity;-inkscape-font-specification:Catrinity;text-align:center;text-anchor:middle;fill:#000000;stroke-width:0.68367;stroke-miterlimit:4;stroke-dasharray:none"
         id="path17743" />
    </g>
    <path
       d="m 1326.602,-692.4666 h -3.054 v -4.7839 h -3.562 v -3.0535 h 3.562 v -4.0714 c -2.158,-0.2985 -4.044,-1.2621 -5.659,-2.8907 -1.995,-1.9814 -2.993,-4.4446 -2.993,-7.3895 v -1.0179 h -1.526 l 3.053,-4.0714 3.054,4.0714 h -1.527 v 1.0179 c 0,2.1035 0.699,3.8474 2.097,5.2317 1.004,1.0179 2.171,1.6693 3.501,1.9543 v -11.3789 h -1.527 l 3.054,-4.0714 3.053,4.0714 h -1.526 v 11.3789 c 1.33,-0.285 2.504,-0.9364 3.521,-1.9543 1.385,-1.3843 2.077,-3.1282 2.077,-5.2317 v -1.0179 h -1.527 l 3.054,-4.0714 3.053,4.0714 h -1.527 v 1.0179 c 0,2.9449 -0.991,5.4081 -2.972,7.3895 -1.629,1.6286 -3.522,2.5922 -5.679,2.8907 v 4.0714 h 3.562 v 3.0535 h -3.562 z"
       style="font-style:normal;font-variant:normal;font-weight:normal;font-stretch:normal;font-size:41.691px;line-height:1;font-family:Catrinity;-inkscape-font-specification:Catrinity;text-align:center;letter-spacing:0px;word-spacing:0px;text-anchor:middle;stroke-width:0.945439;stroke-miterlimit:4;stroke-dasharray:none"
       id="path10790"
       sodipodi:nodetypes="ccccccccscccccsccccccccsscccccsscccccc" />
    <path
       style="font-style:normal;font-variant:normal;font-weight:normal;font-stretch:normal;font-size:30.148px;line-height:1;font-family:Catrinity;-inkscape-font-specification:Catrinity;text-align:center;letter-spacing:0px;word-spacing:0px;text-anchor:middle;fill:#ebc8df;fill-opacity:1;stroke-width:0.68367;stroke-miterlimit:4;stroke-dasharray:none"
       d="m 1317.2735,-714.8691 q 0,3.2386 2.282,5.5203 2.281,2.2817 5.52,2.2817 3.239,0 5.52,-2.2817 2.282,-2.2817 2.282,-5.5203 0,-0.4857 -0.04,-0.9421 -3.121,2.9736 -7.758,2.9736 -4.151,0 -7.081,-2.37 -0.353,-0.2944 -0.677,-0.5889 -0.04,0.4564 -0.04,0.9274 z"
       id="path10783" />
    <path
       id="path25-7-8-39-7-0-2-8-2-6"
       style="fill:#ebc8df;fill-opacity:1;stroke:none;stroke-width:0.363057;stroke-linecap:round;stroke-linejoin:round;paint-order:markers fill stroke"
       d="m 1211.545,-706.10504 a 18.436501,18.436501 0 0 1 -18.4365,18.4365 18.436501,18.436501 0 0 1 -18.4365,-18.4365 18.436501,18.436501 0 0 1 18.4365,-18.4365 18.436501,18.436501 0 0 1 18.4365,18.4365 z" />
    <g
       aria-label="☾"
       transform="rotate(-90)"
       id="text3035-7-8-7-9-7-4"
       style="font-size:27.133px;line-height:1;font-family:'CMU Sans Serif';-inkscape-font-specification:'CMU Sans Serif';text-align:center;letter-spacing:0px;word-spacing:0px;text-anchor:middle;fill:#000000;stroke-width:0.68367;stroke-miterlimit:4;stroke-dasharray:none">
      <path
         d="m 703.11389,1185.3052 q -3.23856,0 -5.52027,2.2817 -2.28171,2.2818 -2.28171,5.5203 0,3.2386 2.28171,5.5203 2.28171,2.2817 5.52027,2.2817 0.48578,0 0.94212,-0.044 -2.97358,-3.1208 -2.97358,-7.7578 0,-4.1512 2.37003,-7.0806 0.29442,-0.3533 0.58883,-0.6772 -0.45634,-0.044 -0.9274,-0.044 z m 0,-2.2081 q 3.70961,0 6.18269,2.2081 -1.54567,0 -2.72333,0.7802 -0.83908,0.5594 -1.56039,1.5015 -1.72232,2.2818 -1.72232,5.5203 0,3.2386 1.72232,5.5203 0.72131,0.9421 1.56039,1.5015 1.17766,0.7802 2.72333,0.7802 -2.50252,2.2081 -6.18269,2.2081 -4.15124,0 -7.08066,-2.9294 -2.92942,-2.9442 -2.92942,-7.0807 0,-4.1512 2.92942,-7.0806 2.92942,-2.9295 7.08066,-2.9295 z"
         style="font-style:normal;font-variant:normal;font-weight:normal;font-stretch:normal;font-size:30.148px;font-family:Catrinity;-inkscape-font-specification:Catrinity;text-align:center;text-anchor:middle;fill:#000000;stroke-width:0.68367;stroke-miterlimit:4;stroke-dasharray:none"
         id="path17747" />
    </g>
    <path
       d="m 1194.635,-693.4357 h -3.054 v 0 l -2.638,-1.1576 -0.924,-1.8959 h 3.562 v -4.0714 c -2.158,-0.2985 -4.044,-1.2621 -5.659,-2.8907 -1.995,-1.9814 -2.993,-4.4446 -2.993,-7.3895 v -1.0179 h -1.526 l 3.053,-4.0714 3.054,4.0714 h -1.527 v 1.0179 c 0,2.1035 0.699,3.8474 2.097,5.2317 1.004,1.0179 2.171,1.6693 3.501,1.9543 v -11.3789 h -1.527 l 3.054,-4.0714 3.053,4.0714 h -1.526 v 11.3789 c 1.33,-0.285 2.504,-0.9364 3.521,-1.9543 1.385,-1.3843 2.077,-3.1282 2.077,-5.2317 v -1.0179 h -1.527 l 3.054,-4.0714 3.053,4.0714 h -1.527 v 1.0179 c 0,2.9449 -0.991,5.4081 -2.972,7.3895 -1.629,1.6286 -3.522,2.5922 -5.679,2.8907 v 4.0714 h 3.562 l -0.819,2.1531 z"
       style="font-style:normal;font-variant:normal;font-weight:normal;font-stretch:normal;font-size:41.691px;line-height:1;font-family:Catrinity;-inkscape-font-specification:Catrinity;text-align:center;letter-spacing:0px;word-spacing:0px;text-anchor:middle;stroke-width:0.945439;stroke-miterlimit:4;stroke-dasharray:none"
       id="path10790-0"
       sodipodi:nodetypes="ccccccccscccccsccccccccsscccccsscccccc" />
    <path
       style="font-style:normal;font-variant:normal;font-weight:normal;font-stretch:normal;font-size:30.148px;line-height:1;font-family:Catrinity;-inkscape-font-specification:Catrinity;text-align:center;letter-spacing:0px;word-spacing:0px;text-anchor:middle;fill:#ebc8df;fill-opacity:1;stroke-width:0.68367;stroke-miterlimit:4;stroke-dasharray:none"
       d="m 1185.3059,-703.1167 q 0,3.2386 2.282,5.5203 2.281,2.2817 5.52,2.2817 3.239,0 5.52,-2.2817 2.282,-2.2817 2.282,-5.5203 0,-0.4857 -0.04,-0.9421 -3.121,2.9736 -7.758,2.9736 -4.151,0 -7.081,-2.37 -0.353,-0.2944 -0.677,-0.5889 -0.04,0.4564 -0.04,0.9274 z"
       id="path10783-2" />
    <path
       id="path25-7-8-39-7-0-2-8-1"
       style="fill:#ebc8df;fill-opacity:1;stroke:none;stroke-width:0.363057;stroke-linecap:round;stroke-linejoin:round;paint-order:markers fill stroke"
       d="m 1277.5281,-706.10516 a 18.436501,18.436501 0 0 1 -18.4365,18.4365 18.436501,18.436501 0 0 1 -18.4365,-18.4365 18.436501,18.436501 0 0 1 18.4365,-18.4365 18.436501,18.436501 0 0 1 18.4365,18.4365 z" />
    <path
       d="m 1260.5434,-693.12789 h -2.9049 v -4.55189 c 0,-1.11859 0,-2.05572 0,-2.90541 v -3.87395 c -2.0534,-0.28403 -3.8479,-1.2009 -5.3846,-2.75051 -1.8982,-1.88531 -2.8478,-4.22905 -2.8478,-7.03113 v -0.96854 h -1.453 l 2.9059,-3.87395 2.905,3.87395 h -1.452 v 0.96854 c 0,2.00148 0.6651,3.66081 1.9943,4.97797 0.9563,0.96854 2.0667,1.58835 3.3322,1.85953 v -7.80604 h -1.453 l 2.9059,-3.87395 2.905,3.87395 h -1.453 v 7.80604 c 1.2655,-0.27118 2.3826,-0.89099 3.3512,-1.85953 1.3169,-1.31716 1.9753,-2.97649 1.9753,-4.97797 v -0.96854 h -1.452 l 2.905,-3.87395 2.9059,3.87395 h -1.453 v 0.96854 c 0,2.80208 -0.9429,5.14582 -2.8278,7.03113 -1.55,1.54961 -3.3512,2.46648 -5.4046,2.75051 v 3.87395 c 0,0.83599 0,1.61517 0,2.90541 z"
       style="font-style:normal;font-variant:normal;font-weight:normal;font-stretch:normal;font-size:41.691px;line-height:1;font-family:Catrinity;-inkscape-font-specification:Catrinity;text-align:center;letter-spacing:0px;word-spacing:0px;text-anchor:middle;stroke-width:0.899588;stroke-miterlimit:4;stroke-dasharray:none"
       id="path10973"
       sodipodi:nodetypes="ccccccscccccsccccccccsscccccsscccc" />
    <path
       id="rect10976"
       style="opacity:0.999;fill:#000000;fill-opacity:1;stroke:none;stroke-width:0.272222;stroke-miterlimit:10;stroke-dasharray:none;paint-order:stroke fill markers"
       transform="rotate(90)"
       d="m -712.8158,-1272.4186 h 2.88759 v 26.6552 h -2.88759 z" />
    <path
       id="path25-7-8-39-56-4-3-4-5-0"
       style="fill:#b97565;fill-opacity:1;stroke:none;stroke-width:0.389908;stroke-linecap:round;stroke-linejoin:round;paint-order:markers fill stroke"
       d="m 1336.3397,-52.983475 a 19.799999,19.799999 0 0 1 -19.8,19.8 19.799999,19.799999 0 0 1 -19.8,-19.8 19.799999,19.799999 0 0 1 19.8,-19.799999 19.799999,19.799999 0 0 1 19.8,19.799999 z" />
    <path
       style="opacity:0.999;fill:none;fill-opacity:1;stroke:#000000;stroke-width:3;stroke-miterlimit:10;stroke-dasharray:none;paint-order:stroke fill markers"
       d="m 1322.237,-67.221 v 28.476"
       id="path11023-3"
       sodipodi:nodetypes="cc" />
    <path
       id="path11294-9"
       style="opacity:0.999;fill:none;fill-opacity:1;stroke:#000000;stroke-width:3;stroke-linecap:square;stroke-miterlimit:10;stroke-dasharray:none;paint-order:stroke fill markers"
       d="m 1311.9655,-48.875225 a 4.371922,4.371922 0 0 1 -3.7862,-2.185961 4.371922,4.371922 0 0 1 0,-4.371922 4.371922,4.371922 0 0 1 3.7862,-2.185961" />
    <path
       style="opacity:0.999;fill:none;fill-opacity:1;stroke:#000000;stroke-width:3;stroke-miterlimit:10;stroke-dasharray:none;paint-order:stroke fill markers"
       d="m 1326.991,-48.875 h -14.933"
       id="path11023-5-7"
       sodipodi:nodetypes="cc" />
    <path
       id="path11294-8-2"
       style="opacity:0.999;fill:none;fill-opacity:1;stroke:#000000;stroke-width:3;stroke-linecap:square;stroke-miterlimit:10;stroke-dasharray:none;paint-order:stroke fill markers"
       d="m 1311.8746,-57.60376 a 3.716629,3.716629 0 0 1 -3.4337,-2.294336 3.716629,3.716629 0 0 1 0.8057,-4.050346 3.716629,3.716629 0 0 1 4.0503,-0.805664 3.716629,3.716629 0 0 1 2.2944,3.433717" />
    <path
       id="path25-7-8-39-56-4-3-4-5-7-4-9"
       style="fill:#b97565;fill-opacity:1;stroke:none;stroke-width:0.389908;stroke-linecap:round;stroke-linejoin:round;paint-order:markers fill stroke"
       d="m 1276.6534,-52.984436 a 19.799999,19.799999 0 0 1 -19.8,19.799999 19.799999,19.799999 0 0 1 -19.8,-19.799999 19.799999,19.799999 0 0 1 19.8,-19.799999 19.799999,19.799999 0 0 1 19.8,19.799999 z" />
    <path
       style="opacity:0.999;fill:none;fill-opacity:1;stroke:#000000;stroke-width:3;stroke-miterlimit:10;stroke-dasharray:none;paint-order:stroke fill markers"
       d="m 1267.305,-48.876 h -19.403 V -65.69 h 9.522"
       id="path11021-1-8-0"
       sodipodi:nodetypes="cccc" />
    <path
       style="opacity:0.999;fill:none;fill-opacity:1;stroke:#000000;stroke-width:3;stroke-miterlimit:10;stroke-dasharray:none;paint-order:stroke fill markers"
       d="m 1262.551,-67.222 v 28.476"
       id="path11023-4-2-9"
       sodipodi:nodetypes="cc" />
    <path
       style="opacity:0.999;fill:none;fill-opacity:1;stroke:#000000;stroke-width:3;stroke-miterlimit:10;stroke-dasharray:none;paint-order:stroke fill markers"
       d="m 1248.893,-59.882 h 4.934"
       id="path11025-3-0-8" />
    <path
       id="path25-7-8-39-56-4-3-4-5-79-5"
       style="fill:#e7e1e9;fill-opacity:1;stroke:none;stroke-width:0.505108;stroke-linecap:round;stroke-linejoin:round;paint-order:markers fill stroke"
       d="m 1288.8342,18.339344 a 25.65,25.65 0 0 1 -25.65,25.65 25.65,25.65 0 0 1 -25.65,-25.65 25.65,25.65 0 0 1 25.65,-25.6499996 25.65,25.65 0 0 1 25.65,25.6499996 z" />
    <path
       style="opacity:0.999;fill:none;fill-opacity:1;stroke:#000000;stroke-width:3.88636;stroke-miterlimit:10;stroke-dasharray:none;paint-order:stroke fill markers"
       d="m 1270.565,-0.105 v 36.89"
       id="path11023-9-2"
       sodipodi:nodetypes="cc" />
    <g
       aria-label="γ"
       id="text3622-4-7-6-1"
       style="font-style:normal;font-variant:normal;font-weight:normal;font-stretch:normal;font-size:52.6891px;line-height:1;font-family:Catrinity;-inkscape-font-specification:Catrinity;text-align:center;letter-spacing:0px;word-spacing:0px;text-anchor:middle;stroke-width:2.46981">
      <path
         d="m 1261.7829,30.605973 q 0.3087,0 0.5403,-0.231544 0.2315,-0.231544 0.2315,-0.540269 0,-0.308725 -0.2315,-1.183446 -0.2316,-0.874722 -0.5403,-0.874722 -0.3087,0 -0.5403,0.874722 -0.2315,0.874721 -0.2315,1.183446 0,0.308725 0.2315,0.540269 0.2316,0.231544 0.5403,0.231544 z m 0,3.859065 q -1.9295,0 -3.2931,-1.363536 -1.3378,-1.337809 -1.3378,-3.267342 0,-1.929532 1.3636,-4.96533 0.463,-1.054811 1.029,-1.749443 l -6.406,-17.571608 q -0.4631,-1.3120821 -1.7237,-1.9038053 -0.6689,-0.3087252 -1.3636,-0.3087252 v -3.85906485 q 1.5179,0 3.0101,0.69463166 2.7014,1.26062789 3.7047,4.06488159 l 5.0168,13.7639981 6.5604,-18.00896938 h 4.1163 l -8.4127,23.12866138 q 0.5403,0.694632 1.0291,1.749443 1.3378,3.035798 1.3378,4.96533 0,1.929533 -1.3636,3.267342 -1.3378,1.363536 -3.2673,1.363536 z"
         style="font-style:normal;font-variant:normal;font-weight:normal;font-stretch:normal;font-family:Catrinity;-inkscape-font-specification:Catrinity;text-align:center;text-anchor:middle;stroke-width:2.46981"
         id="path17757" />
    </g>
    <path
       id="path2805-4-2-5-5"
       style="opacity:0.999;fill:#9e7f7a;fill-opacity:1;stroke:none;stroke-width:0.0883137;stroke-miterlimit:10;paint-order:stroke fill markers"
       d="m 1257.7077,82.447975 a 25.65,25.649981 0 0 1 -25.65,25.649985 25.65,25.649981 0 0 1 -25.65,-25.649985 25.65,25.649981 0 0 1 25.65,-25.64998 25.65,25.649981 0 0 1 25.65,25.64998 z" />
    <g
       aria-label="ϰ"
       id="text3622-41-2-5-2"
       style="font-style:normal;font-variant:normal;font-weight:normal;font-stretch:normal;font-size:47.3929px;line-height:1;font-family:Catrinity;-inkscape-font-specification:Catrinity;text-align:center;letter-spacing:0px;word-spacing:0px;text-anchor:middle;stroke-width:2.22154">
      <path
         d="m 1237.452,89.31652 q -2.6844,0 -4.582,-1.897567 -1.8975,-1.897567 -1.8975,-4.581931 v -6.687767 q -10.2515,10.598607 -10.9226,11.269698 -1.8976,1.897567 -4.5819,1.897567 v -3.47116 q 1.2496,0 2.1289,-0.87936 0.8794,-0.87936 0.8794,-2.128978 v -9.256425 q 0,-1.249618 -0.8794,-2.128978 -0.8793,-0.879361 -2.1289,-0.879361 v -3.471159 q 2.6843,0 4.5819,1.897567 1.8976,1.897567 1.8976,4.581931 v 6.687767 q 10.2514,-10.598607 10.9225,-11.269698 1.8976,-1.897567 4.582,-1.897567 v 3.471159 q -1.2497,0 -2.129,0.879361 -0.8794,0.87936 -0.8794,2.128978 v 9.256425 q 0,1.249618 0.8794,2.128978 0.8793,0.87936 2.129,0.87936 z"
         style="font-style:normal;font-variant:normal;font-weight:normal;font-stretch:normal;font-family:Catrinity;-inkscape-font-specification:Catrinity;text-align:center;text-anchor:middle;stroke-width:2.22154"
         id="path17761" />
    </g>
    <path
       style="opacity:0.999;fill:none;fill-opacity:1;stroke:#000000;stroke-width:3.5;stroke-miterlimit:10;stroke-dasharray:none;paint-order:stroke fill markers"
       d="M 1242.7274,70.967412 V 99.448563"
       id="path11023-6-7"
       sodipodi:nodetypes="cc" />
    <path
       style="opacity:0.999;fill:none;fill-opacity:1;stroke:#000000;stroke-width:3.5058;stroke-miterlimit:10;stroke-dasharray:none;paint-order:stroke fill markers"
       d="M 1248.6479,87.563888 H 1236.708"
       id="path11023-5-8-1"
       sodipodi:nodetypes="cc" />
    <path
       id="path2805-4-2-5-7-11"
       style="opacity:0.999;fill:#9e7f7a;fill-opacity:1;stroke:none;stroke-width:0.0883137;stroke-miterlimit:10;paint-order:stroke fill markers"
       d="m 1320.3591,82.447723 a 25.65,25.649981 0 0 1 -25.65,25.649977 25.65,25.649981 0 0 1 -25.65,-25.649977 25.65,25.649981 0 0 1 25.65,-25.64998 25.65,25.649981 0 0 1 25.65,25.64998 z" />
    <g
       aria-label="ϰ"
       id="text3622-41-2-5-3-3"
       style="font-style:normal;font-variant:normal;font-weight:normal;font-stretch:normal;font-size:42.8809px;line-height:1;font-family:Catrinity;-inkscape-font-specification:Catrinity;text-align:center;letter-spacing:0px;word-spacing:0px;text-anchor:middle;stroke-width:2.01004">
      <path
         d="m 1300.7817,85.363118 q -2.4288,0 -4.1457,-1.716911 -1.7169,-1.716912 -1.7169,-4.145713 V 73.44943 q -9.2755,9.589576 -9.8827,10.196777 -1.7169,1.716911 -4.1457,1.716911 v -3.140691 q 1.1306,0 1.9263,-0.795642 0.7956,-0.795642 0.7956,-1.926291 v -8.375176 q 0,-1.130648 -0.7956,-1.92629 -0.7957,-0.795642 -1.9263,-0.795642 v -3.140691 q 2.4288,0 4.1457,1.716911 1.7169,1.716911 1.7169,4.145712 v 6.051065 q 9.2755,-9.589577 9.8827,-10.196777 1.7169,-1.716911 4.1457,-1.716911 v 3.140691 q -1.1306,0 -1.9263,0.795642 -0.7956,0.795642 -0.7956,1.92629 v 8.375176 q 0,1.130649 0.7956,1.926291 0.7957,0.795642 1.9263,0.795642 z"
         style="font-style:normal;font-variant:normal;font-weight:normal;font-stretch:normal;font-family:Catrinity;-inkscape-font-specification:Catrinity;text-align:center;text-anchor:middle;stroke-width:2.01004"
         id="path17765" />
    </g>
    <path
       style="opacity:0.999;fill:none;fill-opacity:1;stroke:#000000;stroke-width:3.17203;stroke-miterlimit:10;stroke-dasharray:none;paint-order:stroke fill markers"
       d="M 1296.3902,69.299236 V 101.38599"
       id="path11023-6-5-2"
       sodipodi:nodetypes="cc" />
    <path
       style="opacity:0.999;fill:none;fill-opacity:1;stroke:#000000;stroke-width:3.17203;stroke-miterlimit:10;stroke-dasharray:none;paint-order:stroke fill markers"
       d="m 1311.4506,83.776864 h -10.8033"
       id="path11023-5-8-3-7"
       sodipodi:nodetypes="cc" />
    <path
       id="path2805-4-2-5-7-1-6"
       style="opacity:0.999;fill:#9e7f7a;fill-opacity:1;stroke:none;stroke-width:0.0883137;stroke-miterlimit:10;paint-order:stroke fill markers"
       d="m 1382.1811,83.53273 a 25.65,25.649981 0 0 1 -25.65,25.64998 25.65,25.649981 0 0 1 -25.65,-25.64998 25.65,25.649981 0 0 1 25.65,-25.64998 25.65,25.649981 0 0 1 25.65,25.64998 z" />
    <g
       aria-label="ϰ"
       id="text3622-41-2-5-3-2-3"
       style="font-style:normal;font-variant:normal;font-weight:normal;font-stretch:normal;font-size:42.8809px;line-height:1;font-family:Catrinity;-inkscape-font-specification:Catrinity;text-align:center;letter-spacing:0px;word-spacing:0px;text-anchor:middle;stroke-width:2.01004">
      <path
         d="m 1366.2425,85.571553 q -2.4288,0 -4.1457,-1.716911 -1.7169,-1.716911 -1.7169,-4.145713 v -6.051064 q -9.2755,9.589576 -9.8827,10.196777 -1.7169,1.716911 -4.1457,1.716911 v -3.140691 q 1.1306,0 1.9263,-0.795642 0.7956,-0.795642 0.7956,-1.926291 v -8.375176 q 0,-1.130648 -0.7956,-1.92629 -0.7957,-0.795642 -1.9263,-0.795642 V 65.47113 q 2.4288,0 4.1457,1.716911 1.7169,1.716911 1.7169,4.145712 v 6.051065 q 9.2755,-9.589576 9.8827,-10.196777 1.7169,-1.716911 4.1457,-1.716911 v 3.140691 q -1.1306,0 -1.9263,0.795642 -0.7956,0.795642 -0.7956,1.92629 v 8.375176 q 0,1.130649 0.7956,1.926291 0.7957,0.795642 1.9263,0.795642 z"
         style="font-style:normal;font-variant:normal;font-weight:normal;font-stretch:normal;font-family:Catrinity;-inkscape-font-specification:Catrinity;text-align:center;text-anchor:middle;stroke-width:2.01004"
         id="path17769" />
    </g>
    <path
       style="opacity:0.999;fill:none;fill-opacity:1;stroke:#000000;stroke-width:3.17203;stroke-miterlimit:10;stroke-dasharray:none;paint-order:stroke fill markers"
       d="m 1361.851,69.507 v 32.087"
       id="path11023-6-5-5-2"
       sodipodi:nodetypes="cc" />
    <path
       style="opacity:0.999;fill:#9e7f7a;fill-opacity:1;stroke:#9e7f7a;stroke-width:3.17203;stroke-miterlimit:10;stroke-dasharray:none;stroke-opacity:1;paint-order:stroke fill markers"
       d="m 1365.124,79.373 c -0.133,1.16 -0.184,2.329 -0.192,3.501 -0.01,2.426 0.158,4.871 0.192,7.302"
       id="path11023-5-8-3-1-4"
       sodipodi:nodetypes="csc" />
  </g>
</svg>
