<?xml version="1.0" encoding="UTF-8" standalone="no"?>
<svg
   xmlns:dc="http://purl.org/dc/elements/1.1/"
   xmlns:cc="http://creativecommons.org/ns#"
   xmlns:rdf="http://www.w3.org/1999/02/22-rdf-syntax-ns#"
   xmlns:svg="http://www.w3.org/2000/svg"
   xmlns="http://www.w3.org/2000/svg"
   xmlns:sodipodi="http://sodipodi.sourceforge.net/DTD/sodipodi-0.dtd"
   xmlns:inkscape="http://www.inkscape.org/namespaces/inkscape"
   width="685.20636mm"
   height="2734.0708mm"
   viewBox="0 0 685.20636 2734.0708"
   version="1.1"
   id="svg15356"
   inkscape:version="1.0.2-2 (e86c870879, 2021-01-15)"
   sodipodi:docname="quadraticsolarsystem.svg">
  <defs
     id="defs15350" />
  <sodipodi:namedview
     id="base"
     pagecolor="#ffffff"
     bordercolor="#666666"
     borderopacity="1.0"
     inkscape:pageopacity="0.0"
     inkscape:pageshadow="2"
     inkscape:zoom="0.030935923"
     inkscape:cx="154.15634"
     inkscape:cy="5354.8444"
     inkscape:document-units="mm"
     inkscape:current-layer="layer1"
     inkscape:document-rotation="0"
     showgrid="false" />
  <metadata
     id="metadata15353">
    <rdf:RDF>
      <cc:Work
         rdf:about="">
        <dc:format>image/svg+xml</dc:format>
        <dc:type
           rdf:resource="http://purl.org/dc/dcmitype/StillImage" />
        <dc:title />
      </cc:Work>
    </rdf:RDF>
  </metadata>
  <g
     inkscape:label="Layer 1"
     inkscape:groupmode="layer"
     id="layer1"
     transform="translate(-1244.9105,1278.2381)">
    <path
       id="rect1404-6-5"
       style="fill:#000000;stroke:#000000;stroke-width:0.289937;stroke-linecap:round;stroke-linejoin:round;paint-order:markers fill stroke"
       d="m 1245.0554,-1278.0931 h 684.9165 v 2733.7807 h -684.9165 z" />
    <path
       id="path25-7-8-3-5-4-3"
       style="fill:#efd7b2;fill-opacity:1;stroke:none;stroke-width:0.765912;stroke-linecap:round;stroke-linejoin:round;paint-order:markers fill stroke"
       d="m 1441.521,444.83383 a 38.894001,38.894001 0 0 1 -38.894,38.894 38.894001,38.894001 0 0 1 -38.894,-38.894 38.894001,38.894001 0 0 1 38.894,-38.894 38.894001,38.894001 0 0 1 38.894,38.894 z" />
    <g
       aria-label="♀"
       id="text873-4-3-1-20-3-8-9-5-8-5-3-3-1-6-3"
       style="font-size:79.1571px;line-height:1;font-family:'CMU Sans Serif';-inkscape-font-specification:'CMU Sans Serif';text-align:center;letter-spacing:0px;word-spacing:0px;text-anchor:middle;stroke-width:1.99451;stroke-miterlimit:4;stroke-dasharray:none">
      <path
         d="m 1402.627,441.82815 q 4.0798,0 6.9571,-2.87733 2.9203,-2.92028 2.9203,-7.00008 0,-4.0798 -2.9203,-6.95713 -2.8773,-2.92028 -6.9571,-2.92028 -4.0798,0 -7.0001,2.92028 -2.8774,2.87733 -2.8774,6.95713 0,4.0798 2.8774,7.00008 2.9203,2.87733 7.0001,2.87733 z m 3.2208,31.35004 h -6.4417 v -12.88358 h -9.6627 v -6.44179 h 9.6627 v -5.8835 q -4.724,-0.90185 -8.2885,-4.4663 -4.8098,-4.76693 -4.8098,-11.55228 0,-6.74241 4.7669,-11.50933 4.8098,-4.80987 11.5523,-4.80987 6.7853,0 11.5522,4.80987 4.767,4.76692 4.767,11.50933 0,6.78535 -4.767,11.55228 -3.6074,3.6074 -8.3314,4.4663 v 5.8835 h 9.6627 v 6.44179 h -9.6627 z"
         style="font-style:normal;font-variant:normal;font-weight:normal;font-stretch:normal;font-size:87.9519px;font-family:Catrinity;-inkscape-font-specification:Catrinity;text-align:center;text-anchor:middle;stroke-width:1.99451;stroke-miterlimit:4;stroke-dasharray:none"
         id="path20290" />
    </g>
    <path
       id="path25-7-8-39-53-7-49"
       style="fill:#276cbd;fill-opacity:1;stroke:none;stroke-width:0.786314;stroke-linecap:round;stroke-linejoin:round;paint-order:markers fill stroke"
       d="m 1442.557,345.17136 a 39.93,39.93 0 0 1 -39.93,39.93 39.93,39.93 0 0 1 -39.93,-39.93 39.93,39.93 0 0 1 39.93,-39.93 39.93,39.93 0 0 1 39.93,39.93 z" />
    <g
       aria-label="⊕"
       id="text873-4-3-1-20-3-8-9-5-8-5-3-8-09-7-31"
       style="font-size:81.2654px;line-height:1;font-family:'CMU Sans Serif';-inkscape-font-specification:'CMU Sans Serif';text-align:center;letter-spacing:0px;word-spacing:0px;text-anchor:middle;stroke-width:2.04764;stroke-miterlimit:4;stroke-dasharray:none">
      <path
         d="m 1379.48,348.47851 q 0.97,7.58337 6.6134,13.22681 5.6435,5.64343 13.2269,6.6134 v -19.84021 z m 26.4537,19.84021 q 7.5833,-0.96997 13.2268,-6.6134 5.6434,-5.64344 6.6134,-13.22681 h -19.8402 z m 19.8402,-26.45361 q -0.97,-7.58337 -6.6134,-13.22681 -5.6435,-5.64344 -13.2268,-6.6134 v 19.84021 z m -26.4536,-19.84021 q -7.5834,0.96996 -13.2269,6.6134 -5.6434,5.64344 -6.6134,13.22681 h 19.8403 z m 3.3067,53.12767 q -12.3892,0 -21.207,-8.77378 -8.7738,-8.77378 -8.7738,-21.20698 0,-12.38911 8.7738,-21.16289 8.8178,-8.81787 21.207,-8.81787 12.4332,0 21.2069,8.81787 8.7738,8.77378 8.7738,21.16289 0,12.4332 -8.7738,21.20698 -8.7737,8.77378 -21.2069,8.77378 z"
         style="font-style:normal;font-variant:normal;font-weight:normal;font-stretch:normal;font-size:90.295px;font-family:Catrinity;-inkscape-font-specification:Catrinity;text-align:center;text-anchor:middle;stroke-width:2.04764;stroke-miterlimit:4;stroke-dasharray:none"
         id="path20286" />
    </g>
    <path
       id="path25-7-8-68-3-4-6"
       style="fill:#e83b1b;fill-opacity:1;stroke:none;stroke-width:0.573813;stroke-linecap:round;stroke-linejoin:round;paint-order:markers fill stroke"
       d="m 1431.766,245.50874 a 29.139,29.139 0 0 1 -29.139,29.139 29.139,29.139 0 0 1 -29.139,-29.139 29.139,29.139 0 0 1 29.139,-29.139 29.139,29.139 0 0 1 29.139,29.139 z" />
    <g
       aria-label="♂"
       id="text873-4-3-1-20-3-8-9-5-8-5-3-4-3-3-2"
       style="font-size:52.0922px;line-height:1;font-family:'CMU Sans Serif';-inkscape-font-specification:'CMU Sans Serif';text-align:center;letter-spacing:0px;word-spacing:0px;text-anchor:middle;stroke-width:1.31257;stroke-miterlimit:4;stroke-dasharray:none">
      <path
         d="m 1395.5615,260.48729 q 3.2784,0 5.5958,-2.31747 2.3175,-2.31746 2.3175,-5.59583 0,-3.2501 -2.3175,-5.56757 -2.3174,-2.34572 -5.5958,-2.34572 -3.2501,0 -5.5958,2.34572 -2.3175,2.31747 -2.3175,5.56757 0,3.27837 2.3175,5.59583 2.3457,2.31747 5.5958,2.31747 z m 0,4.23926 q -5.0023,0 -8.5916,-3.56098 -3.5609,-3.56098 -3.5609,-8.59158 0,-5.00233 3.5609,-8.56331 3.5893,-3.58925 8.5916,-3.58925 3.9284,0 6.9524,2.17616 l 9.072,-9.04377 -9.722,-3.27836 19.9811,-3.98491 -4.0132,19.98107 -3.2501,-9.72205 -9.0438,9.04376 q 2.1762,3.05228 2.1762,6.98066 0,5.0306 -3.561,8.59158 -3.561,3.56098 -8.5916,3.56098 z"
         style="font-style:normal;font-variant:normal;font-weight:normal;font-stretch:normal;font-size:57.8801px;font-family:Catrinity;-inkscape-font-specification:Catrinity;text-align:center;text-anchor:middle;stroke-width:1.31257;stroke-miterlimit:4;stroke-dasharray:none"
         id="path20282" />
    </g>
    <path
       id="path25-7-8-6-9-5-54"
       style="fill:#e7e1e9;fill-opacity:1;stroke:none;stroke-width:0.486361;stroke-linecap:round;stroke-linejoin:round;paint-order:markers fill stroke"
       d="m 1427.325,544.49634 a 24.697998,24.697998 0 0 1 -24.698,24.698 24.697998,24.697998 0 0 1 -24.698,-24.698 24.697998,24.697998 0 0 1 24.698,-24.698 24.697998,24.697998 0 0 1 24.698,24.698 z" />
    <g
       aria-label="☿"
       id="text873-4-3-1-20-3-8-9-5-8-5-3-7-0-0-07"
       style="font-size:48.4713px;line-height:1;font-family:'CMU Sans Serif';-inkscape-font-specification:'CMU Sans Serif';text-align:center;letter-spacing:0px;word-spacing:0px;text-anchor:middle;stroke-width:1.22133;stroke-miterlimit:4;stroke-dasharray:none">
      <path
         d="m 1402.627,545.94365 q 2.4982,0 4.2601,-1.76192 1.7882,-1.78822 1.7882,-4.28647 0,-2.49824 -1.7882,-4.26016 -1.7619,-1.78822 -4.2601,-1.78822 -2.4983,0 -4.2865,1.78822 -1.7619,1.76192 -1.7619,4.26016 0,2.49825 1.7619,4.28647 1.7882,1.76192 4.2865,1.76192 z m 1.9723,19.19704 h -3.9446 v -7.8892 h -5.9169 v -3.9446 h 5.9169 v -3.60273 q -2.8927,-0.55224 -5.0754,-2.73492 -2.9453,-2.919 -2.9453,-7.07398 0,-4.12867 2.9453,-7.07397 0.5259,-0.52595 1.0782,-0.94671 -0.5523,-0.42075 -1.0782,-0.973 -2.9453,-2.919 -2.9453,-7.04768 h 3.9446 q 0,2.49825 1.7619,4.28647 1.7882,1.76192 4.2865,1.76192 2.4982,0 4.2601,-1.76192 1.7882,-1.78822 1.7882,-4.28647 h 3.9446 q 0,4.12868 -2.919,7.04768 -0.5259,0.55225 -1.0782,0.973 0.5523,0.42076 1.0782,0.94671 2.919,2.9453 2.919,7.07397 0,4.15498 -2.919,7.07398 -2.2089,2.20898 -5.1016,2.73492 v 3.60273 h 5.9168 v 3.9446 h -5.9168 z"
         style="font-style:normal;font-variant:normal;font-weight:normal;font-stretch:normal;font-size:53.8569px;font-family:Catrinity;-inkscape-font-specification:Catrinity;text-align:center;text-anchor:middle;stroke-width:1.22133;stroke-miterlimit:4;stroke-dasharray:none"
         id="path20278" />
    </g>
    <path
       id="path25-7-4-0-2-1"
       style="fill:#ffe4fe;fill-opacity:1;stroke:none;stroke-width:0.336;stroke-linecap:round;stroke-linejoin:round;stroke-miterlimit:4;stroke-dasharray:none;paint-order:markers fill stroke"
       d="m 1419.6783,-1104.8167 a 17.05135,17.05135 0 0 1 -17.0513,17.0514 17.05135,17.05135 0 0 1 -17.0514,-17.0514 17.05135,17.05135 0 0 1 17.0514,-17.0513 17.05135,17.05135 0 0 1 17.0513,17.0513 z" />
    <g
       aria-label="⯰"
       id="text873-4-3-1-20-3-8-9-5-8-5-9-93-1-4"
       style="font-size:34.7028px;line-height:1;font-family:'CMU Sans Serif';-inkscape-font-specification:'CMU Sans Serif';text-align:center;letter-spacing:0px;word-spacing:0px;text-anchor:middle;stroke-width:0.874402;stroke-miterlimit:4;stroke-dasharray:none">
      <path
         d="m 1403.931,-1093.3414 h -2.6081 v -4.9553 q -1.8604,1.8256 -4.3467,1.8256 -2.8863,0 -4.9206,-2.4516 l 1.843,-1.843 q 1.2693,1.6865 3.0776,1.6865 1.8082,0 3.0775,-1.6691 1.2692,-1.6866 1.2692,-4.0686 0,-2.382 -1.2692,-4.0512 -1.2693,-1.6865 -3.0775,-1.6865 -1.8083,0 -3.0776,1.6865 l -1.843,-1.843 q 2.0343,-2.4516 4.9206,-2.4516 2.4863,0 4.3467,1.8257 v -4.9554 h 2.6081 v 4.9554 q 1.8604,-1.8257 4.3467,-1.8257 2.8863,0 4.9206,2.4516 l -1.843,1.843 q -1.2693,-1.6865 -3.0776,-1.6865 -1.8082,0 -3.0775,1.6865 -1.2692,1.6692 -1.2692,4.0512 0,2.382 1.2692,4.0686 1.2693,1.6691 3.0775,1.6691 1.8083,0 3.0776,-1.6865 l 1.843,1.843 q -2.0343,2.4516 -4.9206,2.4516 -2.4863,0 -4.3467,-1.8256 z"
         style="font-style:normal;font-variant:normal;font-weight:normal;font-stretch:normal;font-size:35.6087px;font-family:Catrinity;-inkscape-font-specification:Catrinity;text-align:center;text-anchor:middle;stroke-width:0.874402;stroke-miterlimit:4;stroke-dasharray:none"
         id="path20274" />
    </g>
    <path
       id="path25-7-7-3-1-9"
       style="fill:#db5d3b;fill-opacity:1;stroke:none;stroke-width:0.263277;stroke-linecap:round;stroke-linejoin:round;paint-order:markers fill stroke"
       d="m 1415.9965,-1008.4758 a 13.3695,13.3695 0 0 1 -13.3695,13.36947 13.3695,13.3695 0 0 1 -13.3695,-13.36947 13.3695,13.3695 0 0 1 13.3695,-13.3695 13.3695,13.3695 0 0 1 13.3695,13.3695 z" />
    <g
       aria-label=""
       id="text873-4-3-1-20-3-8-9-5-8-5-2-6-7-2"
       style="font-size:27.2096px;line-height:1;font-family:'CMU Sans Serif';-inkscape-font-specification:'CMU Sans Serif';text-align:center;letter-spacing:0px;word-spacing:0px;text-anchor:middle;stroke-width:0.685599;stroke-miterlimit:4;stroke-dasharray:none">
      <path
         d="m 1397.1738,-1006.8723 q -1.2678,0 -2.1676,-0.8998 -0.8997,-0.8997 -0.8997,-2.1676 0,-1.2678 0.8997,-2.1676 0.8998,-0.8997 2.1676,-0.8997 1.2679,0 2.1677,0.8997 0.8997,0.8998 0.8997,2.1676 0,1.2679 -0.8997,2.1676 -0.8998,0.8998 -2.1677,0.8998 z m 0,-2.0449 q 0.4227,0 0.7226,-0.2999 0.2999,-0.3 0.2999,-0.7226 0,-0.4226 -0.2999,-0.7225 -0.2999,-0.2999 -0.7226,-0.2999 -0.4226,0 -0.7225,0.2999 -0.2999,0.2999 -0.2999,0.7225 0,0.4226 0.2999,0.7226 0.2999,0.2999 0.7225,0.2999 z m -1.0224,-5.4531 q -1.4178,0 -2.413,1.3224 -0.9952,1.3087 -0.9952,3.1764 0,1.8677 0.9952,3.1901 0.9952,1.3087 2.413,1.3087 v 2.0449 q -2.263,0 -3.8581,-1.9086 -1.595,-1.9222 -1.595,-4.6351 0,-2.7129 1.595,-4.6215 1.5951,-1.9222 3.8581,-1.9222 h 12.9511 q 2.2631,0 3.8581,1.9222 1.595,1.9086 1.595,4.6215 0,2.7129 -1.595,4.6351 -1.595,1.9086 -3.8581,1.9086 v -2.0449 q 1.4178,0 2.413,-1.3087 0.9952,-1.3224 0.9952,-3.1901 0,-1.8677 -0.9952,-3.1764 -0.9952,-1.3224 -2.413,-1.3224 h -5.4531 v 15.95032 h -2.0449 v -15.95032 z m 11.9287,7.498 q -1.2679,0 -2.1677,-0.8998 -0.8997,-0.8997 -0.8997,-2.1676 0,-1.2678 0.8997,-2.1676 0.8998,-0.8997 2.1677,-0.8997 1.2678,0 2.1676,0.8997 0.8997,0.8998 0.8997,2.1676 0,1.2679 -0.8997,2.1676 -0.8998,0.8998 -2.1676,0.8998 z m 0,-2.0449 q 0.4226,0 0.7225,-0.2999 0.2999,-0.3 0.2999,-0.7226 0,-0.4226 -0.2999,-0.7225 -0.2999,-0.2999 -0.7225,-0.2999 -0.4227,0 -0.7226,0.2999 -0.2999,0.2999 -0.2999,0.7225 0,0.4226 0.2999,0.7226 0.2999,0.2999 0.7226,0.2999 z"
         style="font-style:normal;font-variant:normal;font-weight:normal;font-stretch:normal;font-size:27.9199px;font-family:Catrinity;-inkscape-font-specification:Catrinity;text-align:center;text-anchor:middle;stroke-width:0.685599;stroke-miterlimit:4;stroke-dasharray:none"
         id="path20270" />
    </g>
    <path
       id="path25-7-5-4-5-9"
       style="fill:#cccccc;stroke:none;stroke-width:0.227806;stroke-linecap:round;stroke-linejoin:round;paint-order:markers fill stroke"
       d="m 1416.9098,-922.31329 a 14.28285,9.369648 0 0 1 -14.2828,9.36964 14.28285,9.369648 0 0 1 -14.2829,-9.36964 14.28285,9.369648 0 0 1 14.2829,-9.36965 14.28285,9.369648 0 0 1 14.2828,9.36965 z" />
    <path
       style="fill:#f4f4f4;fill-opacity:1;stroke:#f2f2f2;stroke-width:0.999998;stroke-linecap:round;stroke-linejoin:round;stroke-miterlimit:4;stroke-dasharray:none;paint-order:markers fill stroke"
       d="m 1363.1256,-922.3133 h 79.0026"
       id="path3412-7-0" />
    <g
       aria-label=""
       id="text873-4-3-1-20-3-8-9-5-8-5-7-1-0-4"
       style="font-size:24.4985px;line-height:1;font-family:'CMU Sans Serif';-inkscape-font-specification:'CMU Sans Serif';text-align:center;letter-spacing:0px;word-spacing:0px;text-anchor:middle;stroke-width:0.640951;stroke-miterlimit:4;stroke-dasharray:none">
      <path
         d="m 1399.0383,-921.41598 v 1.0766 q 0,2.38046 -1.0527,4.06713 -1.0407,1.6747 -2.5359,1.6747 v -1.79432 q 0.7416,0 1.2679,-1.14837 0.5264,-1.16033 0.5264,-2.79914 v -1.0766 h -1.7943 v -1.79432 h 14.3545 v 1.79432 h -1.7943 v 1.0766 q 0,1.63881 0.5264,2.79914 0.5263,1.14837 1.2679,1.14837 v 1.79432 q -1.4952,0 -2.5479,-1.6747 -1.0407,-1.68667 -1.0407,-4.06713 v -1.0766 z m 3.5887,-2.7513 q -1.3877,0 -2.3686,-0.98089 -0.9809,-0.9809 -0.9809,-2.36851 0,-1.38761 0.9809,-2.36851 0.9809,-0.98089 2.3686,-0.98089 1.3876,0 2.3685,0.98089 0.9809,0.9809 0.9809,2.36851 0,1.38761 -0.9809,2.36851 -0.9809,0.98089 -2.3685,0.98089 z m 0,-1.79432 q 0.6459,0 1.1005,-0.45456 0.4545,-0.45456 0.4545,-1.10052 0,-0.64596 -0.4545,-1.10052 -0.4546,-0.45456 -1.1005,-0.45456 -0.646,0 -1.1006,0.45456 -0.4545,0.45456 -0.4545,1.10052 0,0.64596 0.4545,1.10052 0.4546,0.45456 1.1006,0.45456 z m 0,12.2014 q -1.3877,0 -2.3686,-0.98089 -0.9809,-0.9809 -0.9809,-2.36851 0,-1.38761 0.9809,-2.36851 0.9809,-0.9809 2.3686,-0.9809 1.3876,0 2.3685,0.9809 0.9809,0.9809 0.9809,2.36851 0,1.38761 -0.9809,2.36851 -0.9809,0.98089 -2.3685,0.98089 z m 0,-1.79432 q 0.6459,0 1.1005,-0.45456 0.4545,-0.45457 0.4545,-1.10052 0,-0.64596 -0.4545,-1.10052 -0.4546,-0.45456 -1.1005,-0.45456 -0.646,0 -1.1006,0.45456 -0.4545,0.45456 -0.4545,1.10052 0,0.64595 0.4545,1.10052 0.4546,0.45456 1.1006,0.45456 z"
         style="font-style:normal;font-variant:normal;font-weight:normal;font-stretch:normal;font-size:24.4985px;font-family:Catrinity;-inkscape-font-specification:Catrinity;text-align:center;text-anchor:middle;stroke-width:0.640951;stroke-miterlimit:4;stroke-dasharray:none"
         id="path20266" />
    </g>
    <path
       id="path25-7-8-66-3-69"
       style="fill:#f8c4b6;fill-opacity:1;stroke:none;stroke-width:0.339367;stroke-linecap:round;stroke-linejoin:round;paint-order:markers fill stroke"
       d="m 1419.8605,-875.14514 a 17.2335,17.2335 0 0 1 -17.2335,17.2335 17.2335,17.2335 0 0 1 -17.2335,-17.2335 17.2335,17.2335 0 0 1 17.2335,-17.2335 17.2335,17.2335 0 0 1 17.2335,17.2335 z" />
    <g
       aria-label="♇"
       id="text873-4-3-1-20-3-8-9-5-8-5-3-31-2-08"
       style="font-size:35.0735px;line-height:1;font-family:'CMU Sans Serif';-inkscape-font-specification:'CMU Sans Serif';text-align:center;letter-spacing:0px;word-spacing:0px;text-anchor:middle;stroke-width:0.883749;stroke-miterlimit:4;stroke-dasharray:none">
      <path
         d="m 1402.5318,-876.28745 q 1.979,0 3.3681,-1.25589 1.3891,-1.25589 1.3891,-3.02555 0,-1.76966 -1.3891,-3.02555 -1.3891,-1.25589 -3.3681,-1.25589 h -4.5669 v 8.56288 z m 7.6115,13.7006 h -15.0326 v -25.11777 h 7.4211 q 3.1588,0 5.3851,2.09314 2.2264,2.09315 2.2264,5.04259 0,2.94943 -2.2264,5.04258 -2.2263,2.09315 -5.3851,2.09315 h -4.5669 v 7.99201 h 12.1784 z"
         style="font-style:normal;font-variant:normal;font-weight:normal;font-stretch:normal;font-size:38.9706px;font-family:Catrinity;-inkscape-font-specification:Catrinity;text-align:center;text-anchor:middle;stroke-width:0.883749;stroke-miterlimit:4;stroke-dasharray:none"
         id="path20262" />
    </g>
    <path
       id="path25-7-8-39-56-4-3-4"
       style="fill:#ff9d50;fill-opacity:1;stroke:none;stroke-width:2.63266;stroke-linecap:round;stroke-linejoin:round;paint-order:markers fill stroke"
       d="M 1536.3171,-69.37307 A 133.68993,133.68993 0 0 1 1402.6272,64.316856 133.68993,133.68993 0 0 1 1268.9373,-69.37307 133.68993,133.68993 0 0 1 1402.6272,-203.063 133.68993,133.68993 0 0 1 1536.3171,-69.37307 Z" />
    <g
       aria-label="♃"
       id="text873-4-3-1-20-3-8-9-5-8-5-3-8-1-21-6-6"
       style="font-size:272.085px;line-height:1;font-family:'CMU Sans Serif';-inkscape-font-specification:'CMU Sans Serif';text-align:center;letter-spacing:0px;word-spacing:0px;text-anchor:middle;stroke-width:6.85573;stroke-miterlimit:4;stroke-dasharray:none">
      <path
         d="m 1461.6733,-30.993369 v 59.046096 h -22.1423 v -59.046096 h -99.4927 q 0,-11.366373 31.2945,-37.051425 31.2944,-25.685051 31.2944,-47.827336 0,-15.4996 -8.7093,-23.61844 -8.5617,-8.11884 -20.8138,-8.11884 -12.252,0 -20.9613,8.85692 -8.5617,8.85691 -8.5617,21.40421 h -22.1423 q 0,-21.69944 15.0568,-37.05143 15.2043,-15.35198 36.6085,-15.35198 21.4043,0 36.461,14.61391 15.2044,14.6139 15.2044,39.26565 0,32.032506 -40.5942,62.58886 -0.1476,0 -0.1476,0.147615 h 55.5033 V -166.79939 h 22.1423 v 113.663735 h 22.1423 v 22.142286 z"
         style="font-style:normal;font-variant:normal;font-weight:normal;font-stretch:normal;font-size:302.316px;font-family:Catrinity;-inkscape-font-specification:Catrinity;text-align:center;text-anchor:middle;stroke-width:6.85573;stroke-miterlimit:4;stroke-dasharray:none"
         id="path20258" />
    </g>
    <path
       id="path25-7-8-39-7-0-2-8"
       style="fill:#73a4dc;fill-opacity:1;stroke:none;stroke-width:1.54945;stroke-linecap:round;stroke-linejoin:round;paint-order:markers fill stroke"
       d="m 1481.3103,-757.32996 a 78.682899,78.682899 0 0 1 -78.6829,78.6829 78.682899,78.682899 0 0 1 -78.6829,-78.6829 78.682899,78.682899 0 0 1 78.6829,-78.6829 78.682899,78.682899 0 0 1 78.6829,78.6829 z" />
    <g
       aria-label="♆"
       id="text873-4-3-1-20-3-8-9-5-8-5-3-8-0-6-2-1"
       style="font-size:160.135px;line-height:1;font-family:'CMU Sans Serif';-inkscape-font-specification:'CMU Sans Serif';text-align:center;letter-spacing:0px;word-spacing:0px;text-anchor:middle;stroke-width:4.03492;stroke-miterlimit:4;stroke-dasharray:none">
      <path
         d="m 1409.1434,-699.1217 h -13.0319 v -20.41655 h -15.2038 v -13.03183 h 15.2038 v -17.37578 q -13.8137,-1.91134 -24.1523,-12.33681 -12.7712,-12.68432 -12.7712,-31.53704 v -4.34394 h -6.5159 l 13.0318,-17.37578 13.0318,17.37578 h -6.5159 v 4.34394 q 0,13.46623 8.9486,22.32788 6.429,6.51592 14.9431,8.34037 v -35.01219 h -6.5159 l 13.0318,-17.37578 13.0319,17.37578 h -6.5159 v 35.01219 q 8.5141,-1.82445 15.03,-8.34037 8.8617,-8.86165 8.8617,-22.32788 v -4.34394 h -6.516 l 13.0319,-17.37578 13.0318,17.37578 h -6.5159 v 4.34394 q 0,18.85272 -12.6843,31.53704 -10.4255,10.42547 -24.2392,12.33681 v 17.37578 h 15.2038 v 13.03183 h -15.2038 z"
         style="font-style:normal;font-variant:normal;font-weight:normal;font-stretch:normal;font-size:177.928px;font-family:Catrinity;-inkscape-font-specification:Catrinity;text-align:center;text-anchor:middle;stroke-width:4.03492;stroke-miterlimit:4;stroke-dasharray:none"
         id="path20254" />
    </g>
    <path
       id="path25-7-8-39-56-1-2-5-5"
       style="fill:#fdff00;fill-opacity:1;stroke:none;stroke-width:8.21068;stroke-linecap:round;stroke-linejoin:round;paint-order:markers fill stroke"
       d="m 1819.5771,1017.1113 a 416.94998,416.94998 0 0 1 -416.95,416.95 416.94998,416.94998 0 0 1 -416.95001,-416.95 416.94998,416.94998 0 0 1 416.95001,-416.94995 416.94998,416.94998 0 0 1 416.95,416.94995 z" />
    <g
       aria-label="☉"
       id="text873-4-3-1-20-3-8-9-5-8-5-3-8-1-2-2-7-7"
       style="font-size:848.573px;line-height:1;font-family:'CMU Sans Serif';-inkscape-font-specification:'CMU Sans Serif';text-align:center;letter-spacing:0px;word-spacing:0px;text-anchor:middle;fill:#f1bf15;fill-opacity:1;stroke-width:21.3815;stroke-miterlimit:4;stroke-dasharray:none">
      <path
         d="m 1402.6271,1330.174 q -129.3665,0 -221.4423,-91.6154 -91.6154,-91.6154 -91.6154,-221.4423 0,-129.36643 91.6154,-220.98183 92.0758,-92.07579 221.4423,-92.07579 129.8268,0 221.4422,92.07579 91.6154,91.6154 91.6154,220.98183 0,129.8269 -91.6154,221.4423 -91.6154,91.6154 -221.4422,91.6154 z m 0,-69.0568 q 101.2833,0 172.6421,-71.3588 71.3587,-71.3587 71.3587,-172.6421 0,-101.28331 -71.3587,-172.64205 -71.3588,-71.35873 -172.6421,-71.35873 -101.2834,0 -172.6421,71.35873 -71.3587,71.35874 -71.3587,172.64205 0,101.2834 71.3587,172.6421 71.3587,71.3588 172.6421,71.3588 z m 0,-193.3592 q -20.7171,0 -35.9096,-14.7321 -14.7321,-15.1925 -14.7321,-35.9096 0,-21.17738 14.7321,-35.90951 15.1925,-14.73212 35.9096,-14.73212 21.1774,0 35.9095,14.73212 14.7322,14.73213 14.7322,35.90951 0,20.7171 -14.7322,35.9096 -14.7321,14.7321 -35.9095,14.7321 z"
         style="font-style:normal;font-variant:normal;font-weight:normal;font-stretch:normal;font-size:942.856px;font-family:Catrinity;-inkscape-font-specification:Catrinity;text-align:center;text-anchor:middle;fill:#f1bf15;fill-opacity:1;stroke-width:21.3815;stroke-miterlimit:4;stroke-dasharray:none"
         id="path20250" />
    </g>
    <path
       id="path25-7-46-4-9"
       style="fill:#bdb7bf;fill-opacity:1;stroke:none;stroke-width:0.214154;stroke-linecap:round;stroke-linejoin:round;paint-order:markers fill stroke"
       d="m 1413.502,145.84622 a 10.875,10.875 0 0 1 -10.875,10.875 10.875,10.875 0 0 1 -10.875,-10.875 10.875,10.875 0 0 1 10.875,-10.875 10.875,10.875 0 0 1 10.875,10.875 z" />
    <g
       aria-label="⚳"
       id="text873-4-3-1-20-3-8-9-5-8-5-8-8-1"
       style="font-size:24.6945px;line-height:1;font-family:'CMU Sans Serif';-inkscape-font-specification:'CMU Sans Serif';text-align:center;letter-spacing:0px;word-spacing:0px;text-anchor:middle;stroke-width:0.557677;stroke-miterlimit:4;stroke-dasharray:none">
      <path
         d="m 1403.5313,153.92474 h -1.8087 v -2.2307 h -2.1101 v -1.80868 h 2.1101 v -2.35128 h 0.9044 q 1.254,0 2.1342,-1.15756 0.8802,-1.16961 0.8802,-2.82154 0,-1.65192 -0.8802,-2.80948 -0.8802,-1.16961 -2.1342,-1.16961 -1.2541,0 -2.1343,1.16961 -0.8802,1.15756 -0.8802,2.80948 h -1.8087 q 0,-2.39951 1.4108,-4.08761 1.4107,-1.70016 3.4124,-1.70016 2.0016,0 3.4123,1.70016 1.4108,1.6881 1.4108,4.08761 0,2.39952 -1.4108,4.08762 -1.0852,1.30225 -2.508,1.60369 v 0.63907 h 2.1101 v 1.80868 h -2.1101 z"
         style="font-style:normal;font-variant:normal;font-weight:normal;font-stretch:normal;font-size:24.6945px;font-family:Catrinity;-inkscape-font-specification:Catrinity;text-align:center;text-anchor:middle;stroke-width:0.557677;stroke-miterlimit:4;stroke-dasharray:none"
         id="path20246" />
    </g>
    <path
       id="path25-7-8-39-5-8-4-1"
       style="fill:#94d6ef;fill-opacity:1;stroke:none;stroke-width:1.5741;stroke-linecap:round;stroke-linejoin:round;paint-order:markers fill stroke"
       d="m 1482.562,-574.55188 a 79.935005,79.935005 0 0 1 -79.935,79.93501 79.935005,79.935005 0 0 1 -79.9351,-79.93501 79.935005,79.935005 0 0 1 79.9351,-79.93501 79.935005,79.935005 0 0 1 79.935,79.93501 z" />
    <g
       aria-label="♅"
       id="text873-4-3-1-20-3-8-9-5-8-5-3-8-6-4-2-7"
       style="font-size:162.684px;line-height:1;font-family:'CMU Sans Serif';-inkscape-font-specification:'CMU Sans Serif';text-align:center;letter-spacing:0px;word-spacing:0px;text-anchor:middle;stroke-width:4.09913;stroke-miterlimit:4;stroke-dasharray:none">
      <path
         d="m 1402.627,-527.77285 q 4.7661,0 8.12,-3.35393 3.3539,-3.35392 3.3539,-8.12003 0,-4.76611 -3.3539,-8.12003 -3.3539,-3.35393 -8.12,-3.35393 -4.7662,0 -8.1201,3.35393 -3.3539,3.35392 -3.3539,8.12003 0,4.76611 3.3539,8.12003 3.3539,3.35393 8.1201,3.35393 z m 0,13.23919 q -10.2383,0 -17.4758,-7.23743 -7.2374,-7.23742 -7.2374,-17.47572 0,-10.2383 7.2374,-17.47572 4.7661,-4.76611 10.8562,-6.44307 v -22.41836 h -26.0371 v 33.98058 h -13.2392 v -81.20034 h 13.2392 v 33.98058 h 26.0371 v -33.98058 h 13.2391 v 33.98058 h 26.0371 v -33.98058 h 13.2392 v 81.20034 h -13.2392 v -33.98058 h -26.0371 v 22.41836 q 6.0901,1.67696 10.8562,6.44307 7.2374,7.23742 7.2374,17.47572 0,10.2383 -7.2374,17.47572 -7.2374,7.23743 -17.4757,7.23743 z"
         style="font-style:normal;font-variant:normal;font-weight:normal;font-stretch:normal;font-size:180.759px;font-family:Catrinity;-inkscape-font-specification:Catrinity;text-align:center;text-anchor:middle;stroke-width:4.09913;stroke-miterlimit:4;stroke-dasharray:none"
         id="path20242" />
    </g>
    <path
       id="path25-7-8-39-4-7-9-0"
       style="fill:#ffbe50;fill-opacity:1;stroke:none;stroke-width:2.41718;stroke-linecap:round;stroke-linejoin:round;paint-order:markers fill stroke"
       d="m 1525.3751,-348.83997 a 122.7475,122.7475 0 0 1 -122.7475,122.7475 122.7475,122.7475 0 0 1 -122.7475,-122.7475 122.7475,122.7475 0 0 1 122.7475,-122.74749 122.7475,122.7475 0 0 1 122.7475,122.74749 z" />
    <path
       style="fill:#f4f4f4;fill-opacity:1;stroke:#b88f16;stroke-width:5.99998;stroke-linecap:round;stroke-linejoin:round;stroke-miterlimit:4;stroke-dasharray:none;stroke-opacity:1;paint-order:markers fill stroke"
       d="m 1119.9726,-348.84005 h 565.31"
       id="path3412-4" />
    <g
       aria-label="♄"
       id="text873-4-3-1-20-3-8-9-5-8-5-3-8-07-0-7-41"
       style="font-size:234.526px;line-height:1;font-family:'CMU Sans Serif';-inkscape-font-specification:'CMU Sans Serif';text-align:center;letter-spacing:0px;word-spacing:0px;text-anchor:middle;stroke-width:5.90939;stroke-miterlimit:4;stroke-dasharray:none">
      <path
         d="m 1449.7057,-248.32393 q -14.7596,0 -25.1932,-10.43354 -10.4335,-10.43354 -10.4335,-25.19318 0,-14.75964 13.36,-31.93681 13.3601,-17.17717 13.3601,-36.77187 0,-14.88688 -6.7437,-22.01222 -6.6164,-7.25258 -17.3044,-7.25258 -13.1055,0 -22.9029,12.34211 -9.6701,12.21488 -10.3063,29.64652 v 58.52962 h -19.0857 v -129.9103 h -19.0858 v -19.08574 h 19.0858 v -18.9585 h 19.0857 v 18.9585 h 19.0858 v 19.08574 h -19.0858 v 25.32042 q 14.6324,-15.01411 33.9726,-15.01411 18.5768,0 30.41,12.85106 11.9604,12.72383 11.9604,35.49948 0,27.48347 -13.36,44.66064 -13.36,17.17717 -13.36,24.04804 0,6.87087 4.835,11.70592 4.8351,4.83506 11.7059,4.83506 z"
         style="font-style:normal;font-variant:normal;font-weight:normal;font-stretch:normal;font-size:260.584px;font-family:Catrinity;-inkscape-font-specification:Catrinity;text-align:center;text-anchor:middle;stroke-width:5.90939;stroke-miterlimit:4;stroke-dasharray:none"
         id="path20238" />
    </g>
    <path
       id="path25-7-8-66-3-4-4"
       style="fill:#d51c3c;fill-opacity:1;stroke:none;stroke-width:0.219504;stroke-linecap:round;stroke-linejoin:round;paint-order:markers fill stroke"
       d="m 1413.7743,-1153.5797 a 11.1467,11.1467 0 0 1 -11.1467,11.1467 11.1467,11.1467 0 0 1 -11.1467,-11.1467 11.1467,11.1467 0 0 1 11.1467,-11.1467 11.1467,11.1467 0 0 1 11.1467,11.1467 z" />
    <g
       aria-label="⯲"
       id="text873-4-3-1-20-3-8-9-5-8-5-3-31-2-0-9"
       style="font-size:20.5085px;line-height:1;font-family:'CMU Sans Serif';-inkscape-font-specification:'CMU Sans Serif';text-align:center;letter-spacing:0px;word-spacing:0px;text-anchor:middle;stroke-width:0.516754;stroke-miterlimit:4;stroke-dasharray:none">
      <path
         d="m 1399.067,-1154.2477 q 1.0571,0 1.8026,-0.7455 0.7566,-0.7566 0.7566,-1.8136 0,-1.057 -0.7566,-1.8025 -0.7455,-0.7566 -1.8026,-0.7566 -1.057,0 -1.8136,0.7566 -0.7455,0.7455 -0.7455,1.8025 0,1.057 0.7455,1.8136 0.7566,0.7455 1.8136,0.7455 z m 11.3492,8.1225 h -1.669 q 0,-1.5244 -1.0793,-2.5925 -1.0681,-1.0793 -2.5925,-1.0793 h -0.8345 v -2.7817 h -5.1739 q -1.7468,0 -2.993,-1.235 -1.2351,-1.2462 -1.2351,-2.9931 0,-1.7469 1.2351,-2.9819 1.2462,-1.2462 2.993,-1.2462 1.7469,0 2.982,1.2462 1.2462,1.235 1.2462,2.9819 0,1.4576 -0.8568,2.5591 h 1.8025 v -6.5647 h 1.669 v 6.5647 h 2.8373 v 1.669 h -2.8373 v 1.1683 q 1.6801,0.2448 2.9486,1.5132 1.5577,1.5689 1.5577,3.772 z"
         style="font-style:normal;font-variant:normal;font-weight:normal;font-stretch:normal;font-size:22.7873px;font-family:Catrinity;-inkscape-font-specification:Catrinity;text-align:center;text-anchor:middle;stroke-width:0.516754;stroke-miterlimit:4;stroke-dasharray:none"
         id="path20234" />
    </g>
    <path
       id="path25-7-8-66-3-4-2-6"
       style="fill:#886648;fill-opacity:1;stroke:none;stroke-width:0.219504;stroke-linecap:round;stroke-linejoin:round;paint-order:markers fill stroke"
       d="m 1413.7741,-963.39465 a 11.1467,11.1467 0 0 1 -11.1467,11.1467 11.1467,11.1467 0 0 1 -11.1467,-11.1467 11.1467,11.1467 0 0 1 11.1467,-11.1467 11.1467,11.1467 0 0 1 11.1467,11.1467 z" />
    <g
       aria-label=""
       id="text873-4-3-1-20-3-8-9-5-8-5-3-31-2-0-4-2"
       style="font-size:21.2089px;line-height:1;font-family:'CMU Sans Serif';-inkscape-font-specification:'CMU Sans Serif';text-align:center;letter-spacing:0px;word-spacing:0px;text-anchor:middle;stroke-width:0.534401;stroke-miterlimit:4;stroke-dasharray:none">
      <path
         d="m 1407.8169,-958.09445 q -0.4487,-1.25422 -1.4498,-2.25529 -1.0011,-1.00108 -2.2553,-1.44984 0.4487,1.25422 1.4498,2.2553 1.0011,1.00107 2.2553,1.44983 z m -2.8766,0.32218 -2.3129,2.31283 -7.8244,-7.82449 7.8244,-7.82448 7.8245,7.82448 -2.3128,2.31283 q 1.7375,2.10571 1.7375,4.93633 -2.8306,0 -4.9363,-1.7375 z m -1.2082,-1.2312 q -1.68,-2.0827 -1.68,-4.85579 2.7731,0 4.8558,1.67997 l 1.1046,-1.10464 -5.3851,-5.38508 -5.385,5.38508 5.385,5.38509 z"
         style="font-style:normal;font-variant:normal;font-weight:normal;font-stretch:normal;font-size:23.5655px;font-family:Catrinity;-inkscape-font-specification:Catrinity;text-align:center;text-anchor:middle;stroke-width:0.534401;stroke-miterlimit:4;stroke-dasharray:none"
         id="path20230" />
    </g>
    <path
       id="path25-7-8-66-3-4-22-69"
       style="fill:#b14955;fill-opacity:1;stroke:none;stroke-width:0.244086;stroke-linecap:round;stroke-linejoin:round;paint-order:markers fill stroke"
       d="m 1415.0221,-1054.8052 a 12.395,12.395 0 0 1 -12.395,12.395 12.395,12.395 0 0 1 -12.395,-12.395 12.395,12.395 0 0 1 12.395,-12.395 12.395,12.395 0 0 1 12.395,12.395 z" />
    <g
       aria-label="共"
       id="text873-4-3-1-20-3-8-9-5-8-5-3-31-2-0-6-2"
       style="font-style:normal;font-variant:normal;font-weight:normal;font-stretch:normal;font-size:16.7829px;line-height:1;font-family:'Noto Sans Mono CJK SC';-inkscape-font-specification:'Noto Sans Mono CJK SC';text-align:center;letter-spacing:0px;word-spacing:0px;text-anchor:middle;stroke-width:0.422879;stroke-miterlimit:4;stroke-dasharray:none">
      <path
         d="m 1399.2236,-1051.3924 c -1.0069,1.324 -3.0209,2.8904 -4.8111,3.8415 0.4103,0.2983 1.0443,0.8578 1.3986,1.2121 1.8461,-1.0443 3.8974,-2.7599 5.24,-4.345 z m 4.8298,0.8392 c 1.6969,1.2867 3.9347,3.1141 4.9976,4.1957 l 1.6783,-1.007 c -1.1935,-1.1375 -3.4685,-2.8717 -5.1468,-4.0838 z m -3.8787,-7.4778 h 4.8111 v 4.028 h -4.8111 z m 6.6199,4.028 v -4.028 h 3.5804 v -1.6782 h -3.5804 v -3.599 h -1.8088 v 3.599 h -4.8111 v -3.599 h -1.7902 v 3.599 h -3.4498 v 1.6782 h 3.4498 v 4.028 h -4.1585 v 1.6969 h 16.7643 v -1.6969 z"
         style="font-style:normal;font-variant:normal;font-weight:500;font-stretch:normal;font-size:18.6477px;font-family:'Noto Sans CJK SC';-inkscape-font-specification:'Noto Sans CJK SC Medium';text-align:center;text-anchor:middle;stroke-width:0.422879;stroke-miterlimit:4;stroke-dasharray:none"
         id="path20226" />
    </g>
    <path
       id="path2805-6"
       style="fill:#ebdd21;fill-opacity:1;stroke:none;stroke-width:0.0733365;stroke-miterlimit:10;paint-order:stroke fill markers"
       d="m 1569.4621,-168.19353 a 21.299999,21.299982 0 0 1 -21.3,21.29998 21.299999,21.299982 0 0 1 -21.3,-21.29998 21.299999,21.299982 0 0 1 21.3,-21.29998 21.299999,21.299982 0 0 1 21.3,21.29998 z" />
    <g
       aria-label="Ι"
       id="text3622-8"
       style="font-style:normal;font-variant:normal;font-weight:normal;font-stretch:normal;font-size:51.0841px;line-height:1;font-family:Catrinity;-inkscape-font-specification:Catrinity;letter-spacing:0px;word-spacing:0px;stroke-width:2.39457">
      <path
         d="m 1553.7727,-152.04572 h -11.2245 v -3.74151 h 3.7415 v -25.44227 h -3.7415 v -3.74151 h 11.2245 v 3.74151 h -3.7415 v 25.44227 h 3.7415 z"
         style="font-style:normal;font-variant:normal;font-weight:normal;font-stretch:normal;font-family:Catrinity;-inkscape-font-specification:Catrinity;stroke-width:2.39457"
         id="path20221" />
    </g>
    <path
       id="rect3624-18"
       style="fill:#000000;fill-opacity:1;stroke:none;stroke-width:3.88754;stroke-miterlimit:10;paint-order:stroke fill markers"
       d="m 1537.5096,-164.75252 h 21.3007 v 3.75222 h -21.3007 z" />
    <path
       id="path2805-2-5"
       style="fill:#b97565;fill-opacity:1;stroke:none;stroke-width:0.0681718;stroke-miterlimit:10;paint-order:stroke fill markers"
       d="m 1593.8499,-108.02079 a 19.799999,19.799984 0 0 1 -19.8,19.799984 19.799999,19.799984 0 0 1 -19.8,-19.799984 19.799999,19.799984 0 0 1 19.8,-19.79998 19.799999,19.799984 0 0 1 19.8,19.79998 z" />
    <g
       aria-label="Ε"
       id="text3622-6-0"
       style="font-style:normal;font-variant:normal;font-weight:normal;font-stretch:normal;font-size:41.006px;line-height:1;font-family:Catrinity;-inkscape-font-specification:Catrinity;text-align:center;letter-spacing:0px;word-spacing:0px;text-anchor:middle;stroke-width:1.92216">
      <path
         d="m 1582.5355,-96.897713 h -16.8188 v -26.429647 h 16.8188 v 3.00337 H 1568.72 v 8.70977 h 11.4128 v 3.00337 H 1568.72 v 8.709768 h 13.8155 z"
         style="font-style:normal;font-variant:normal;font-weight:normal;font-stretch:normal;font-family:Catrinity;-inkscape-font-specification:Catrinity;text-align:center;text-anchor:middle;stroke-width:1.92216"
         id="path20215" />
    </g>
    <path
       id="rect3624-1-9"
       style="fill:#000000;fill-opacity:1;stroke:none;stroke-width:2.54797;stroke-miterlimit:10;paint-order:stroke fill markers"
       transform="matrix(0,-1,-1,0,0,0)"
       d="m 92.712799,-1578.2711 h 11.399171 v 3.0119 H 92.712799 Z" />
    <path
       id="rect3816-4"
       style="fill:#b97565;fill-opacity:1;stroke:none;stroke-width:2.35172;stroke-miterlimit:10;paint-order:stroke fill markers"
       d="m 1573.0725,-116.06902 h 11.8615 v 11.8615 h -11.8615 z" />
    <path
       id="path2805-32-9"
       style="fill:#e7e1e9;fill-opacity:1;stroke:none;stroke-width:0.0883138;stroke-miterlimit:10;paint-order:stroke fill markers"
       d="m 1603.8755,-35.968319 a 25.65,25.649977 0 0 1 -25.65,25.649977 25.65,25.649977 0 0 1 -25.65,-25.649977 25.65,25.649977 0 0 1 25.65,-25.649977 25.65,25.649977 0 0 1 25.65,25.649977 z" />
    <g
       aria-label="Γ"
       id="text3622-4-7"
       style="font-style:normal;font-variant:normal;font-weight:normal;font-stretch:normal;font-size:52.6891px;line-height:1;font-family:Catrinity;-inkscape-font-specification:Catrinity;text-align:center;letter-spacing:0px;word-spacing:0px;text-anchor:middle;stroke-width:2.46981">
      <path
         d="m 1573.6957,-18.988377 h -3.8591 v -33.95977 h 21.6107 v 3.859065 h -17.7516 z"
         style="font-style:normal;font-variant:normal;font-weight:normal;font-stretch:normal;font-family:Catrinity;-inkscape-font-specification:Catrinity;text-align:center;text-anchor:middle;stroke-width:2.46981"
         id="path20210" />
    </g>
    <path
       id="rect3624-5-1"
       style="fill:#000000;fill-opacity:1;stroke:none;stroke-width:3.27473;stroke-miterlimit:10;paint-order:stroke fill markers"
       d="m 1564.4982,-29.104673 h 14.654 v 3.870121 h -14.654 z" />
    <path
       id="path2805-4-2-2-7"
       style="opacity:0.999;fill:#9e7f7a;fill-opacity:1;stroke:none;stroke-width:0.0883137;stroke-miterlimit:10;paint-order:stroke fill markers"
       d="m 1575.7794,29.403048 a 25.65,25.649981 0 0 1 -25.65,25.64998 25.65,25.649981 0 0 1 -25.65,-25.64998 25.65,25.649981 0 0 1 25.65,-25.649981 25.65,25.649981 0 0 1 25.65,25.649981 z" />
    <g
       aria-label="Κ"
       id="text3622-41-2-3-8"
       style="font-style:normal;font-variant:normal;font-weight:normal;font-stretch:normal;font-size:54.0737px;line-height:1;font-family:Catrinity;-inkscape-font-specification:Catrinity;text-align:center;letter-spacing:0px;word-spacing:0px;text-anchor:middle;stroke-width:2.5347">
      <path
         d="m 1562.1164,46.835663 h -4.8317 l -11.1158,-15.868308 -4.0661,5.808699 v 10.059609 h -3.9604 v -34.85219 h 3.9604 v 17.901352 l 12.5415,-17.901352 h 4.8318 l -10.8781,15.55147 z"
         style="font-style:normal;font-variant:normal;font-weight:normal;font-stretch:normal;font-family:Catrinity;-inkscape-font-specification:Catrinity;text-align:center;text-anchor:middle;stroke-width:2.5347"
         id="path20204" />
    </g>
    <path
       id="rect3624-50-5-9-0"
       style="fill:#000000;fill-opacity:1;stroke:none;stroke-width:3.44244;stroke-miterlimit:10;paint-order:stroke fill markers"
       inkscape:transform-center-x="2.1058146"
       inkscape:transform-center-y="0.55552165"
       transform="rotate(-55.230123)"
       d="m 844.08435,1297.969 h 21.45989 v 3.9717 h -21.45989 z" />
    <path
       id="rect11888-1"
       style="opacity:0.999;fill:#9e7f7a;fill-opacity:1;stroke:none;stroke-width:4;stroke-linecap:square;stroke-miterlimit:10;stroke-dasharray:none;paint-order:stroke fill markers"
       d="m 1541.7866,46.835663 h 14.9345 v 4.782049 h -14.9345 z" />
    <path
       id="path2805-0-9"
       style="fill:#ebc8df;fill-opacity:1;stroke:none;stroke-width:0.0634774;stroke-miterlimit:10;paint-order:stroke fill markers"
       d="m 1526.9825,-762.45105 a 18.436501,18.436483 0 0 1 -18.4365,18.43648 18.436501,18.436483 0 0 1 -18.4365,-18.43648 18.436501,18.436483 0 0 1 18.4365,-18.43648 18.436501,18.436483 0 0 1 18.4365,18.43648 z" />
    <g
       aria-label="Ψ"
       id="text3622-7-3"
       style="font-style:normal;font-variant:normal;font-weight:normal;font-stretch:normal;font-size:40.7099px;line-height:1;font-family:Catrinity;-inkscape-font-specification:Catrinity;text-align:center;letter-spacing:0px;word-spacing:0px;text-anchor:middle;stroke-width:1.90828">
      <path
         d="m 1510.0375,-748.62738 h -2.9817 v -11.62856 q -3.1606,-0.43731 -5.5261,-2.82266 -2.922,-2.90217 -2.922,-7.01689 v -4.77069 h 2.9817 v 4.77069 q 0,2.88229 2.0474,4.90983 1.471,1.49085 3.419,1.90828 v -11.5888 h 2.9817 v 11.5888 q 1.948,-0.41743 3.4388,-1.90828 2.0276,-2.02754 2.0276,-4.90983 v -4.77069 h 2.9817 v 4.77069 q 0,4.11472 -2.9022,7.01689 -2.3853,2.38535 -5.5459,2.82266 z"
         style="font-style:normal;font-variant:normal;font-weight:normal;font-stretch:normal;font-family:Catrinity;-inkscape-font-specification:Catrinity;text-align:center;text-anchor:middle;stroke-width:1.90828"
         id="path20199" />
    </g>
    <path
       id="rect3624-6-4"
       style="fill:#000000;fill-opacity:1;stroke:none;stroke-width:3.56526;stroke-miterlimit:10;paint-order:stroke fill markers"
       d="m 1497.3057,-769.28986 h 22.4809 v 2.99022 h -22.4809 z" />
    <path
       id="circle3031-8-3-4"
       style="fill:#bfc1c2;fill-opacity:1;stroke:none;stroke-width:0.410289;stroke-linecap:round;stroke-linejoin:round;paint-order:markers fill stroke"
       d="m 1508.1104,342.85236 a 20.835001,20.835001 0 0 1 -20.835,20.835 20.835001,20.835001 0 0 1 -20.835,-20.835 20.835001,20.835001 0 0 1 20.835,-20.83501 20.835001,20.835001 0 0 1 20.835,20.83501 z" />
    <g
       aria-label="☾"
       id="text3035-7-8-7"
       style="font-size:42.4033px;line-height:1;font-family:'CMU Sans Serif';-inkscape-font-specification:'CMU Sans Serif';text-align:center;letter-spacing:0px;word-spacing:0px;text-anchor:middle;stroke-width:1.06843;stroke-miterlimit:4;stroke-dasharray:none">
      <path
         d="m 1487.0916,330.65989 q -5.0611,0 -8.627,3.56583 -3.5658,3.56582 -3.5658,8.62699 0,5.06117 3.5658,8.627 3.5659,3.56582 8.627,3.56582 0.7592,0 1.4724,-0.069 -4.6471,-4.87713 -4.6471,-12.12381 0,-6.4875 3.7039,-11.06556 0.4601,-0.55213 0.9202,-1.05824 -0.7132,-0.069 -1.4494,-0.069 z m 0,-3.4508 q 5.7974,0 9.6623,3.4508 -2.4156,0 -4.256,1.21928 -1.3113,0.87421 -2.4386,2.34655 -2.6916,3.56582 -2.6916,8.62699 0,5.06117 2.6916,8.627 1.1273,1.47234 2.4386,2.34654 1.8404,1.21928 4.256,1.21928 -3.9109,3.4508 -9.6623,3.4508 -6.4875,0 -11.0655,-4.57806 -4.5781,-4.60106 -4.5781,-11.06556 0,-6.4875 4.5781,-11.06556 4.578,-4.57806 11.0655,-4.57806 z"
         style="font-style:normal;font-variant:normal;font-weight:normal;font-stretch:normal;font-size:47.1149px;font-family:Catrinity;-inkscape-font-specification:Catrinity;text-align:center;text-anchor:middle;stroke-width:1.06843;stroke-miterlimit:4;stroke-dasharray:none"
         id="path20195" />
    </g>
    <path
       id="circle3097-53-0-5"
       style="fill:#b4888d;fill-opacity:1;stroke:none;stroke-width:0.271618;stroke-linecap:round;stroke-linejoin:round;paint-order:markers fill stroke"
       d="m 1507.3393,-523.40826 a 13.793115,13.793115 0 0 1 -13.7932,13.79311 13.793115,13.793115 0 0 1 -13.7931,-13.79311 13.793115,13.793115 0 0 1 13.7931,-13.79312 13.793115,13.793115 0 0 1 13.7932,13.79312 z" />
    <g
       aria-label="♅"
       id="text3101-8-2-9"
       style="font-size:28.0717px;line-height:1;font-family:'CMU Sans Serif';-inkscape-font-specification:'CMU Sans Serif';text-align:center;letter-spacing:0px;word-spacing:0px;text-anchor:middle;stroke-width:0.707322;stroke-miterlimit:4;stroke-dasharray:none">
      <path
         d="m 1493.5461,-515.33883 q 0.8225,0 1.4012,-0.57873 0.5787,-0.57873 0.5787,-1.40114 0,-0.82242 -0.5787,-1.40115 -0.5787,-0.57873 -1.4012,-0.57873 -0.8224,0 -1.4011,0.57873 -0.5787,0.57873 -0.5787,1.40115 0,0.82241 0.5787,1.40114 0.5787,0.57873 1.4011,0.57873 z m 0,2.28448 q -1.7666,0 -3.0155,-1.24885 -1.2488,-1.24884 -1.2488,-3.0155 0,-1.76667 1.2488,-3.01551 0.8224,-0.82241 1.8733,-1.11178 v -3.86838 h -4.4928 v 5.86349 h -2.2845 v -14.01145 h 2.2845 v 5.86349 h 4.4928 v -5.86349 h 2.2845 v 5.86349 h 4.4928 v -5.86349 h 2.2845 v 14.01145 h -2.2845 v -5.86349 h -4.4928 v 3.86838 q 1.0508,0.28937 1.8732,1.11178 1.2489,1.24884 1.2489,3.01551 0,1.76666 -1.2489,3.0155 -1.2488,1.24885 -3.0155,1.24885 z"
         style="font-style:normal;font-variant:normal;font-weight:normal;font-stretch:normal;font-size:31.1907px;font-family:Catrinity;-inkscape-font-specification:Catrinity;text-align:center;text-anchor:middle;stroke-width:0.707322;stroke-miterlimit:4;stroke-dasharray:none"
         id="path20187" />
    </g>
    <path
       id="rect5746-4"
       style="opacity:0.999;fill:#b4888d;fill-opacity:1;stroke:none;stroke-width:2.16726;stroke-miterlimit:10;paint-order:stroke fill markers"
       d="m 1485.4482,-533.58582 h 16.2676 v 8.34722 h -16.2676 z" />
    <path
       id="rect5746-5-18"
       style="opacity:0.999;fill:#b4888d;fill-opacity:1;stroke:none;stroke-width:1.4191;stroke-miterlimit:10;paint-order:stroke fill markers"
       d="m 1481.5365,-526.97485 h 6.9746 v 8.34722 h -6.9746 z" />
    <path
       id="rect5746-5-1-8"
       style="opacity:0.999;fill:#b4888d;fill-opacity:1;stroke:none;stroke-width:1.4191;stroke-miterlimit:10;paint-order:stroke fill markers"
       d="m 1498.6969,-526.90845 h 6.9746 v 8.34722 h -6.9746 z" />
    <path
       id="path5744-1"
       style="opacity:0.999;fill:#b4888d;fill-opacity:1;stroke:#000000;stroke-width:4.53125;stroke-miterlimit:10;stroke-dasharray:none;paint-order:stroke fill markers"
       d="m 1497.8488,-529.34668 a 4.3026652,4.3026652 0 0 1 -4.3027,4.30267 4.3026652,4.3026652 0 0 1 -4.3026,-4.30267 4.3026652,4.3026652 0 0 1 4.3026,-4.30266 4.3026652,4.3026652 0 0 1 4.3027,4.30266 z" />
    <path
       id="circle3097-53-1-7"
       style="fill:#c7b6bd;fill-opacity:1;stroke:none;stroke-width:0.27657;stroke-linecap:round;stroke-linejoin:round;paint-order:markers fill stroke"
       d="m 1521.0276,-563.33392 a 14.044572,14.044572 0 0 1 -14.0446,14.04457 14.044572,14.044572 0 0 1 -14.0445,-14.04457 14.044572,14.044572 0 0 1 14.0445,-14.04458 14.044572,14.044572 0 0 1 14.0446,14.04458 z" />
    <g
       aria-label="♅"
       id="text3101-8-0-0"
       style="font-size:28.5835px;line-height:1;font-family:'CMU Sans Serif';-inkscape-font-specification:'CMU Sans Serif';text-align:center;letter-spacing:0px;word-spacing:0px;text-anchor:middle;fill:#000000;stroke-width:0.720217;stroke-miterlimit:4;stroke-dasharray:none">
      <path
         d="m 1506.983,-555.11552 q 0.8374,0 1.4267,-0.58928 0.5893,-0.58929 0.5893,-1.42669 0,-0.8374 -0.5893,-1.42669 -0.5893,-0.58928 -1.4267,-0.58928 -0.8374,0 -1.4267,0.58928 -0.5892,0.58929 -0.5892,1.42669 0,0.8374 0.5892,1.42669 0.5893,0.58928 1.4267,0.58928 z m 0,2.32612 q -1.7988,0 -3.0704,-1.27161 -1.2717,-1.27161 -1.2717,-3.07048 0,-1.79887 1.2717,-3.07048 0.8374,-0.8374 1.9074,-1.13205 v -3.93889 h -4.5747 v 5.97037 h -2.3262 v -14.26687 h 2.3262 v 5.97038 h 4.5747 v -5.97038 h 2.3261 v 5.97038 h 4.5747 v -5.97038 h 2.3261 v 14.26687 h -2.3261 v -5.97037 h -4.5747 v 3.93889 q 1.07,0.29465 1.9074,1.13205 1.2716,1.27161 1.2716,3.07048 0,1.79887 -1.2716,3.07048 -1.2716,1.27161 -3.0705,1.27161 z"
         style="font-style:normal;font-variant:normal;font-weight:normal;font-stretch:normal;font-size:31.7593px;font-family:Catrinity;-inkscape-font-specification:Catrinity;text-align:center;text-anchor:middle;fill:#000000;stroke-width:0.720217;stroke-miterlimit:4;stroke-dasharray:none"
         id="path20177" />
    </g>
    <path
       id="rect5898-1-9"
       style="opacity:0.999;fill:#c7b6bd;fill-opacity:1;stroke:none;stroke-width:8.95132;stroke-miterlimit:10;stroke-dasharray:none;paint-order:stroke fill markers"
       d="m 1497.6222,-571.23895 h 19.4329 v 8.32961 h -19.4329 z" />
    <path
       id="rect5898-1-9-1-2"
       style="opacity:0.999;fill:#c7b6bd;fill-opacity:1;stroke:none;stroke-width:4.07531;stroke-miterlimit:10;stroke-dasharray:none;paint-order:stroke fill markers"
       d="m 1497.8481,-566.48901 h 4.1578 v 8.06943 h -4.1578 z" />
    <path
       id="rect5898-1-9-1-0-5"
       style="opacity:0.999;fill:#c7b6bd;fill-opacity:1;stroke:none;stroke-width:8.36494;stroke-miterlimit:10;stroke-dasharray:none;paint-order:stroke fill markers"
       d="m 1498.1958,-574.06378 h 17.5173 v 8.06943 h -17.5173 z" />
    <path
       id="rect5898-6-4"
       style="opacity:0.999;fill:#000000;fill-opacity:1;stroke:none;stroke-width:3.60956;stroke-miterlimit:10;stroke-dasharray:none;paint-order:stroke fill markers"
       transform="matrix(0,1,1,0,0,0)"
       d="m -570.70007,1505.8271 h 11.34196 v 2.3207 h -11.34196 z" />
    <path
       id="rect5898-7"
       style="opacity:0.999;fill:#000000;fill-opacity:1;stroke:none;stroke-width:4.30268;stroke-miterlimit:10;stroke-dasharray:none;paint-order:stroke fill markers"
       d="m 1498.9346,-571.14771 h 16.116 v 2.32062 h -16.116 z" />
    <path
       id="rect5898-1-1-2"
       style="opacity:0.999;fill:#c7b6bd;fill-opacity:1;stroke:none;stroke-width:4.45382;stroke-miterlimit:10;stroke-dasharray:none;paint-order:stroke fill markers"
       d="m 1512.1981,-565.30261 h 4.8109 v 8.32961 h -4.8109 z" />
    <path
       id="circle3097-53-5-3"
       style="fill:#ebdfef;fill-opacity:1;stroke:none;stroke-width:0.236922;stroke-linecap:round;stroke-linejoin:round;paint-order:markers fill stroke"
       d="m 1497.681,-635.28412 a 12.031199,12.031199 0 0 1 -12.0312,12.0312 12.031199,12.031199 0 0 1 -12.0312,-12.0312 12.031199,12.031199 0 0 1 12.0312,-12.0312 12.031199,12.031199 0 0 1 12.0312,12.0312 z" />
    <g
       aria-label="♅"
       id="text3101-8-7-2"
       style="font-size:23.9226px;line-height:1;font-family:'CMU Sans Serif';-inkscape-font-specification:'CMU Sans Serif';text-align:center;letter-spacing:0px;word-spacing:0px;text-anchor:middle;stroke-width:0.602777;stroke-miterlimit:4;stroke-dasharray:none">
      <path
         d="m 1485.5898,-627.17376 q 0.7009,0 1.1941,-0.4932 0.4932,-0.4932 0.4932,-1.19405 0,-0.70086 -0.4932,-1.19406 -0.4932,-0.4932 -1.1941,-0.4932 -0.7008,0 -1.194,0.4932 -0.4932,0.4932 -0.4932,1.19406 0,0.70085 0.4932,1.19405 0.4932,0.4932 1.194,0.4932 z m 0,1.94683 q -1.5055,0 -2.5698,-1.06427 -1.0642,-1.06427 -1.0642,-2.56981 0,-1.50555 1.0642,-2.56982 0.7009,-0.70086 1.5964,-0.94745 v -3.29663 h -3.8287 v 4.99686 h -1.9469 v -11.94055 h 1.9469 v 4.99686 h 3.8287 v -4.99686 h 1.9469 v 4.99686 h 3.8287 v -4.99686 h 1.9468 v 11.94055 h -1.9468 v -4.99686 h -3.8287 v 3.29663 q 0.8955,0.24659 1.5964,0.94745 1.0642,1.06427 1.0642,2.56982 0,1.50554 -1.0642,2.56981 -1.0643,1.06427 -2.5699,1.06427 z"
         style="font-style:normal;font-variant:normal;font-weight:normal;font-stretch:normal;font-size:26.5807px;font-family:Catrinity;-inkscape-font-specification:Catrinity;text-align:center;text-anchor:middle;stroke-width:0.602777;stroke-miterlimit:4;stroke-dasharray:none"
         id="path20167" />
    </g>
    <path
       id="rect6276-9-90"
       style="opacity:0.999;fill:#ebdfef;fill-opacity:1;stroke:none;stroke-width:2.88208;stroke-miterlimit:10;stroke-dasharray:none;paint-order:stroke fill markers"
       d="m 1478.1653,-637.89227 h 3.4524 v 7.61645 h -3.4524 z" />
    <path
       id="rect6276-3"
       style="opacity:0.999;fill:#ebdfef;fill-opacity:1;stroke:none;stroke-width:5.37226;stroke-miterlimit:10;stroke-dasharray:none;paint-order:stroke fill markers"
       d="m 1478.5122,-643.33441 h 14.1838 v 6.44146 h -14.1838 z" />
    <path
       id="rect6276-9-9-1"
       style="opacity:0.999;fill:#ebdfef;fill-opacity:1;stroke:none;stroke-width:2.88208;stroke-miterlimit:10;stroke-dasharray:none;paint-order:stroke fill markers"
       d="m 1489.6639,-637.84772 h 3.4525 v 7.61645 h -3.4525 z" />
    <g
       aria-label="A"
       id="text3101-8-7-0-0"
       style="font-size:23.9226px;line-height:1;font-family:'CMU Sans Serif';-inkscape-font-specification:'CMU Sans Serif';text-align:center;letter-spacing:0px;word-spacing:0px;text-anchor:middle;stroke-width:0.602777;stroke-miterlimit:4;stroke-dasharray:none">
      <path
         d="m 1492.871,-629.23352 h -2.0766 l -2.2973,-6.29475 h -5.8145 l -2.2973,6.29475 h -2.0766 l 6.2428,-17.13209 h 2.0767 z m -5.0748,-8.24157 -2.2064,-6.03517 -2.2064,6.03517 z"
         style="font-style:normal;font-variant:normal;font-weight:normal;font-stretch:normal;font-size:26.5807px;font-family:Catrinity;-inkscape-font-specification:Catrinity;text-align:center;text-anchor:middle;stroke-width:0.602777;stroke-miterlimit:4;stroke-dasharray:none"
         id="path20173" />
    </g>
    <path
       id="circle3097-53-16-9"
       style="fill:#24272e;fill-opacity:1;stroke:none;stroke-width:0.238147;stroke-linecap:round;stroke-linejoin:round;paint-order:markers fill stroke"
       d="m 1517.3412,-602.7002 a 12.093387,12.093387 0 0 1 -12.0934,12.09339 12.093387,12.093387 0 0 1 -12.0934,-12.09339 12.093387,12.093387 0 0 1 12.0934,-12.09338 12.093387,12.093387 0 0 1 12.0934,12.09338 z" />
    <g
       aria-label="♅"
       id="text3101-8-6-7"
       style="font-size:24.6124px;line-height:1;font-family:'CMU Sans Serif';-inkscape-font-specification:'CMU Sans Serif';text-align:center;letter-spacing:0px;word-spacing:0px;text-anchor:middle;fill:#000000;stroke-width:0.620159;stroke-miterlimit:4;stroke-dasharray:none">
      <path
         d="m 1505.2478,-595.62402 q 0.7211,0 1.2285,-0.50742 0.5074,-0.50742 0.5074,-1.22848 0,-0.72107 -0.5074,-1.22849 -0.5074,-0.50741 -1.2285,-0.50741 -0.7211,0 -1.2285,0.50741 -0.5074,0.50742 -0.5074,1.22849 0,0.72106 0.5074,1.22848 0.5074,0.50742 1.2285,0.50742 z m 0,2.00296 q -1.549,0 -2.6439,-1.09495 -1.095,-1.09496 -1.095,-2.64391 0,-1.54896 1.095,-2.64391 0.7211,-0.72107 1.6424,-0.97478 v -3.39168 h -3.9391 v 5.14094 h -2.003 v -12.28483 h 2.003 v 5.14093 h 3.9391 v -5.14093 h 2.003 v 5.14093 h 3.9391 v -5.14093 h 2.003 v 12.28483 h -2.003 v -5.14094 h -3.9391 v 3.39168 q 0.9213,0.25371 1.6424,0.97478 1.095,1.09495 1.095,2.64391 0,1.54895 -1.095,2.64391 -1.0949,1.09495 -2.6439,1.09495 z"
         style="font-style:normal;font-variant:normal;font-weight:normal;font-stretch:normal;font-size:27.3471px;font-family:Catrinity;-inkscape-font-specification:Catrinity;text-align:center;text-anchor:middle;fill:#000000;stroke-width:0.620159;stroke-miterlimit:4;stroke-dasharray:none"
         id="path20160" />
    </g>
    <path
       id="rect6586-8"
       style="opacity:0.999;fill:#24272e;fill-opacity:1;stroke:none;stroke-width:5.1681;stroke-miterlimit:10;stroke-dasharray:none;paint-order:stroke fill markers"
       d="m 1497.9398,-611.77466 h 14.6243 v 7.52366 h -14.6243 z" />
    <path
       d="m 1505.2444,-603.95917 c -1.8399,0 -3.411,-0.65119 -4.7237,-1.94942 -1.3024,-1.30856 -1.9535,-2.8838 -1.9535,-4.72675 v -0.87858 h 2.0052 v 0.87858 c 0,1.29099 0.4134,2.39387 1.3644,3.31069 0.9302,0.90959 2.0155,1.36231 3.3076,1.36231 1.292,0 2.398,-0.45479 3.2972,-1.36231 0.9303,-0.91992 1.3747,-2.0197 1.3747,-3.31069 v -0.87858 h 2.0053 v 0.87858 c 0,1.84295 -0.6202,3.41819 -1.9639,4.72675 -1.292,1.29927 -2.8632,1.94942 -4.7133,1.94942 z"
       style="font-style:normal;font-variant:normal;font-weight:normal;font-stretch:normal;font-size:2.64575px;line-height:1;font-family:Catrinity;-inkscape-font-specification:Catrinity;text-align:center;letter-spacing:0px;word-spacing:0px;text-anchor:middle;fill:#000000;stroke-width:0.620159;stroke-miterlimit:4;stroke-dasharray:none"
       id="path6583-7"
       sodipodi:nodetypes="sssccsssssccsss" />
    <path
       id="rect6586-7-4"
       style="opacity:0.999;fill:#24272e;fill-opacity:1;stroke:none;stroke-width:2.41617;stroke-miterlimit:10;stroke-dasharray:none;paint-order:stroke fill markers"
       d="m 1509.7396,-605.24384 h 2.824 v 8.51609 h -2.824 z" />
    <path
       id="rect6586-7-9-1"
       style="opacity:0.999;fill:#24272e;fill-opacity:1;stroke:none;stroke-width:2.42492;stroke-miterlimit:10;stroke-dasharray:none;paint-order:stroke fill markers"
       d="m 1497.9398,-605.30444 h 2.824 v 8.57785 h -2.824 z" />
    <path
       id="circle3115-0-4-0"
       style="fill:#f8c4b6;fill-opacity:1;stroke:none;stroke-width:0.241723;stroke-linecap:round;stroke-linejoin:round;paint-order:markers fill stroke"
       d="m 1449.8923,-875.16919 a 12.275001,12.275001 0 0 1 -12.275,12.275 12.275001,12.275001 0 0 1 -12.275,-12.275 12.275001,12.275001 0 0 1 12.275,-12.275 12.275001,12.275001 0 0 1 12.275,12.275 z" />
    <g
       aria-label="⯕"
       id="text3119-8-3-9"
       style="font-size:24.982px;line-height:1;font-family:'CMU Sans Serif';-inkscape-font-specification:'CMU Sans Serif';text-align:center;letter-spacing:0px;word-spacing:0px;text-anchor:middle;stroke-width:0.629473;stroke-miterlimit:4;stroke-dasharray:none">
      <path
         d="m 1430.4339,-875.16963 q 0,2.9818 2.1008,5.08261 2.1008,2.10081 5.0826,2.10081 2.9818,0 5.0826,-2.10081 2.1008,-2.10081 2.1008,-5.08261 0,-0.44727 -0.041,-0.86743 -2.8734,2.73783 -7.1428,2.73783 -3.8221,0 -6.5193,-2.18213 -0.3253,-0.27107 -0.6234,-0.54215 -0.041,0.42017 -0.041,0.85388 z m -2.033,0 q 0,-3.41551 2.033,-5.69252 0,1.42313 0.7183,2.50742 0.5151,0.77256 1.3825,1.43669 2.1008,1.58577 5.0826,1.58577 2.9818,0 5.0826,-1.58577 0.8674,-0.66413 1.3825,-1.43669 0.7183,-1.08429 0.7183,-2.50742 2.0331,2.30412 2.0331,5.69252 0,3.82212 -2.7108,6.51929 -2.6971,2.69717 -6.5057,2.69717 -3.8221,0 -6.5193,-2.69717 -2.6971,-2.69717 -2.6971,-6.51929 z m 9.2164,-1.62643 q -1.5722,0 -2.6836,-1.1114 -1.1114,-1.11139 -1.1114,-2.68361 0,-1.57222 1.1114,-2.68362 1.1114,-1.11139 2.6836,-1.11139 1.5722,0 2.6836,1.11139 1.1114,1.1114 1.1114,2.68362 0,1.57222 -1.1114,2.68361 -1.1114,1.1114 -2.6836,1.1114 z m 0,-2.03304 q 0.7319,0 1.2469,-0.51504 0.5151,-0.51504 0.5151,-1.24693 0,-0.7319 -0.5151,-1.24694 -0.515,-0.51503 -1.2469,-0.51503 -0.7319,0 -1.2469,0.51503 -0.5151,0.51504 -0.5151,1.24694 0,0.73189 0.5151,1.24693 0.515,0.51504 1.2469,0.51504 z"
         style="font-style:normal;font-variant:normal;font-weight:normal;font-stretch:normal;font-size:27.7578px;font-family:Catrinity;-inkscape-font-specification:Catrinity;text-align:center;text-anchor:middle;stroke-width:0.629473;stroke-miterlimit:4;stroke-dasharray:none"
         id="path20156" />
    </g>
    <path
       id="path25-7-8-39-7-0-2-8-2"
       style="fill:#ebc8df;fill-opacity:1;stroke:none;stroke-width:0.363057;stroke-linecap:round;stroke-linejoin:round;paint-order:markers fill stroke"
       d="m 1724.9324,-762.45123 a 18.436501,18.436501 0 0 1 -18.4366,18.4365 18.436501,18.436501 0 0 1 -18.4365,-18.4365 18.436501,18.436501 0 0 1 18.4365,-18.4365 18.436501,18.436501 0 0 1 18.4366,18.4365 z" />
    <g
       aria-label="☾"
       transform="rotate(-90)"
       id="text3035-7-8-7-9-7"
       style="font-size:27.133px;line-height:1;font-family:'CMU Sans Serif';-inkscape-font-specification:'CMU Sans Serif';text-align:center;letter-spacing:0px;word-spacing:0px;text-anchor:middle;fill:#000000;stroke-width:0.68367;stroke-miterlimit:4;stroke-dasharray:none">
      <path
         d="m 771.21453,1698.694 q -3.23855,0 -5.52026,2.2817 -2.28171,2.2818 -2.28171,5.5203 0,3.2386 2.28171,5.5203 2.28171,2.2817 5.52026,2.2817 0.48579,0 0.94213,-0.044 -2.97358,-3.1208 -2.97358,-7.7578 0,-4.1512 2.37003,-7.0807 0.29441,-0.3532 0.58883,-0.6771 -0.45634,-0.044 -0.92741,-0.044 z m 0,-2.2081 q 3.70962,0 6.1827,2.2081 -1.54567,0 -2.72333,0.7802 -0.83908,0.5594 -1.5604,1.5015 -1.72232,2.2818 -1.72232,5.5203 0,3.2386 1.72232,5.5203 0.72132,0.9421 1.5604,1.5015 1.17766,0.7802 2.72333,0.7802 -2.50252,2.2081 -6.1827,2.2081 -4.15123,0 -7.08065,-2.9294 -2.92942,-2.9442 -2.92942,-7.0807 0,-4.1512 2.92942,-7.0807 2.92942,-2.9294 7.08065,-2.9294 z"
         style="font-style:normal;font-variant:normal;font-weight:normal;font-stretch:normal;font-size:30.148px;font-family:Catrinity;-inkscape-font-specification:Catrinity;text-align:center;text-anchor:middle;fill:#000000;stroke-width:0.68367;stroke-miterlimit:4;stroke-dasharray:none"
         id="path20152" />
    </g>
    <path
       d="m 1708.023,-748.8126 h -3.054 v -4.7839 h -3.562 v -3.0535 h 3.562 v -4.0714 c -2.158,-0.2985 -4.044,-1.2621 -5.659,-2.8907 -1.995,-1.9814 -2.993,-4.4446 -2.993,-7.3895 v -1.0179 h -1.526 l 3.053,-4.0714 3.054,4.0714 h -1.527 v 1.0179 c 0,2.1035 0.699,3.8474 2.097,5.2317 1.004,1.0179 2.171,1.6693 3.501,1.9543 v -11.3789 h -1.527 l 3.054,-4.0714 3.053,4.0714 h -1.526 v 11.3789 c 1.33,-0.285 2.504,-0.9364 3.521,-1.9543 1.385,-1.3843 2.077,-3.1282 2.077,-5.2317 v -1.0179 h -1.527 l 3.054,-4.0714 3.053,4.0714 h -1.527 v 1.0179 c 0,2.9449 -0.991,5.4081 -2.972,7.3895 -1.629,1.6286 -3.522,2.5922 -5.679,2.8907 v 4.0714 h 3.562 v 3.0535 h -3.562 z"
       style="font-style:normal;font-variant:normal;font-weight:normal;font-stretch:normal;font-size:41.691px;line-height:1;font-family:Catrinity;-inkscape-font-specification:Catrinity;text-align:center;letter-spacing:0px;word-spacing:0px;text-anchor:middle;stroke-width:0.945439;stroke-miterlimit:4;stroke-dasharray:none"
       id="path10790"
       sodipodi:nodetypes="ccccccccscccccsccccccccsscccccsscccccc" />
    <path
       style="font-style:normal;font-variant:normal;font-weight:normal;font-stretch:normal;font-size:30.148px;line-height:1;font-family:Catrinity;-inkscape-font-specification:Catrinity;text-align:center;letter-spacing:0px;word-spacing:0px;text-anchor:middle;fill:#ebc8df;fill-opacity:1;stroke-width:0.68367;stroke-miterlimit:4;stroke-dasharray:none"
       d="m 1698.694,-771.2146 q 0,3.2386 2.282,5.5203 2.281,2.2817 5.52,2.2817 3.239,0 5.52,-2.2817 2.282,-2.2817 2.282,-5.5203 0,-0.4857 -0.04,-0.9421 -3.121,2.9736 -7.758,2.9736 -4.151,0 -7.081,-2.37 -0.353,-0.2944 -0.677,-0.5889 -0.04,0.4564 -0.04,0.9274 z"
       id="path10783" />
    <path
       id="path25-7-8-39-7-0-2-8-2-6"
       style="fill:#ebc8df;fill-opacity:1;stroke:none;stroke-width:0.363057;stroke-linecap:round;stroke-linejoin:round;paint-order:markers fill stroke"
       d="m 1592.9659,-762.45007 a 18.436501,18.436501 0 0 1 -18.4365,18.4365 18.436501,18.436501 0 0 1 -18.4365,-18.4365 18.436501,18.436501 0 0 1 18.4365,-18.4365 18.436501,18.436501 0 0 1 18.4365,18.4365 z" />
    <g
       aria-label="☾"
       transform="rotate(-90)"
       id="text3035-7-8-7-9-7-4"
       style="font-size:27.133px;line-height:1;font-family:'CMU Sans Serif';-inkscape-font-specification:'CMU Sans Serif';text-align:center;letter-spacing:0px;word-spacing:0px;text-anchor:middle;fill:#000000;stroke-width:0.68367;stroke-miterlimit:4;stroke-dasharray:none">
      <path
         d="m 759.4599,1566.7272 q -3.23856,0 -5.52027,2.2817 -2.28171,2.2818 -2.28171,5.5203 0,3.2386 2.28171,5.5203 2.28171,2.2817 5.52027,2.2817 0.48578,0 0.94212,-0.044 -2.97358,-3.1208 -2.97358,-7.7578 0,-4.1512 2.37003,-7.0806 0.29442,-0.3533 0.58883,-0.6772 -0.45634,-0.044 -0.9274,-0.044 z m 0,-2.2081 q 3.70961,0 6.18269,2.2081 -1.54567,0 -2.72333,0.7802 -0.83908,0.5594 -1.56039,1.5015 -1.72233,2.2818 -1.72233,5.5203 0,3.2386 1.72233,5.5203 0.72131,0.9421 1.56039,1.5015 1.17766,0.7802 2.72333,0.7802 -2.50252,2.2081 -6.18269,2.2081 -4.15124,0 -7.08066,-2.9294 -2.92942,-2.9442 -2.92942,-7.0807 0,-4.1512 2.92942,-7.0806 2.92942,-2.9295 7.08066,-2.9295 z"
         style="font-style:normal;font-variant:normal;font-weight:normal;font-stretch:normal;font-size:30.148px;font-family:Catrinity;-inkscape-font-specification:Catrinity;text-align:center;text-anchor:middle;fill:#000000;stroke-width:0.68367;stroke-miterlimit:4;stroke-dasharray:none"
         id="path20148" />
    </g>
    <path
       d="m 1576.056,-749.7807 h -3.054 v 0 l -2.638,-1.1576 -0.924,-1.8959 h 3.562 v -4.0714 c -2.158,-0.2985 -4.044,-1.2621 -5.659,-2.8907 -1.995,-1.9814 -2.993,-4.4446 -2.993,-7.3895 v -1.0179 h -1.526 l 3.053,-4.0714 3.054,4.0714 h -1.527 v 1.0179 c 0,2.1035 0.699,3.8474 2.097,5.2317 1.004,1.0179 2.171,1.6693 3.501,1.9543 v -11.3789 h -1.527 l 3.054,-4.0714 3.053,4.0714 h -1.526 v 11.3789 c 1.33,-0.285 2.504,-0.9364 3.521,-1.9543 1.385,-1.3843 2.077,-3.1282 2.077,-5.2317 v -1.0179 h -1.527 l 3.054,-4.0714 3.053,4.0714 h -1.527 v 1.0179 c 0,2.9449 -0.991,5.4081 -2.972,7.3895 -1.629,1.6286 -3.522,2.5922 -5.679,2.8907 v 4.0714 h 3.562 l -0.819,2.1531 z"
       style="font-style:normal;font-variant:normal;font-weight:normal;font-stretch:normal;font-size:41.691px;line-height:1;font-family:Catrinity;-inkscape-font-specification:Catrinity;text-align:center;letter-spacing:0px;word-spacing:0px;text-anchor:middle;stroke-width:0.945439;stroke-miterlimit:4;stroke-dasharray:none"
       id="path10790-0"
       sodipodi:nodetypes="ccccccccscccccsccccccccsscccccsscccccc" />
    <path
       style="font-style:normal;font-variant:normal;font-weight:normal;font-stretch:normal;font-size:30.148px;line-height:1;font-family:Catrinity;-inkscape-font-specification:Catrinity;text-align:center;letter-spacing:0px;word-spacing:0px;text-anchor:middle;fill:#ebc8df;fill-opacity:1;stroke-width:0.68367;stroke-miterlimit:4;stroke-dasharray:none"
       d="m 1566.7269,-759.4617 q 0,3.2386 2.282,5.5203 2.281,2.2817 5.52,2.2817 3.239,0 5.52,-2.2817 2.282,-2.2817 2.282,-5.5203 0,-0.4857 -0.04,-0.9421 -3.121,2.9736 -7.758,2.9736 -4.151,0 -7.081,-2.37 -0.353,-0.2944 -0.677,-0.5889 -0.04,0.4564 -0.04,0.9274 z"
       id="path10783-2" />
    <path
       id="path25-7-8-39-7-0-2-8-1"
       style="fill:#ebc8df;fill-opacity:1;stroke:none;stroke-width:0.363057;stroke-linecap:round;stroke-linejoin:round;paint-order:markers fill stroke"
       d="m 1658.9491,-762.45117 a 18.436501,18.436501 0 0 1 -18.4365,18.4365 18.436501,18.436501 0 0 1 -18.4365,-18.4365 18.436501,18.436501 0 0 1 18.4365,-18.4365 18.436501,18.436501 0 0 1 18.4365,18.4365 z" />
    <path
       d="m 1641.9654,-749.47389 h -2.9049 v -4.55189 c 0,-1.11859 0,-2.05572 0,-2.90541 v -3.87395 c -2.0534,-0.28403 -3.8479,-1.2009 -5.3846,-2.75051 -1.8982,-1.88531 -2.8478,-4.22905 -2.8478,-7.03113 v -0.96854 h -1.453 l 2.9059,-3.87395 2.905,3.87395 h -1.452 v 0.96854 c 0,2.00148 0.6651,3.66081 1.9943,4.97797 0.9563,0.96854 2.0667,1.58835 3.3322,1.85953 v -7.80604 h -1.453 l 2.9059,-3.87395 2.905,3.87395 h -1.453 v 7.80604 c 1.2655,-0.27118 2.3826,-0.89099 3.3512,-1.85953 1.3169,-1.31716 1.9753,-2.97649 1.9753,-4.97797 v -0.96854 h -1.452 l 2.905,-3.87395 2.9059,3.87395 h -1.453 v 0.96854 c 0,2.80208 -0.9429,5.14582 -2.8278,7.03113 -1.55,1.54961 -3.3512,2.46648 -5.4046,2.75051 v 3.87395 c 0,0.83599 0,1.61517 0,2.90541 z"
       style="font-style:normal;font-variant:normal;font-weight:normal;font-stretch:normal;font-size:41.691px;line-height:1;font-family:Catrinity;-inkscape-font-specification:Catrinity;text-align:center;letter-spacing:0px;word-spacing:0px;text-anchor:middle;stroke-width:0.899588;stroke-miterlimit:4;stroke-dasharray:none"
       id="path10973"
       sodipodi:nodetypes="ccccccscccccsccccccccsscccccsscccc" />
    <path
       id="rect10976"
       style="opacity:0.999;fill:#000000;fill-opacity:1;stroke:none;stroke-width:0.272222;stroke-miterlimit:10;stroke-dasharray:none;paint-order:stroke fill markers"
       transform="rotate(90)"
       d="m -769.1618,-1653.8406 h 2.88758 v 26.6552 h -2.88758 z" />
    <path
       id="path25-7-8-39-56-4-3-4-5-0"
       style="fill:#b97565;fill-opacity:1;stroke:none;stroke-width:0.389908;stroke-linecap:round;stroke-linejoin:round;paint-order:markers fill stroke"
       d="m 1717.7606,-109.32948 a 19.799999,19.799999 0 0 1 -19.8,19.799996 19.799999,19.799999 0 0 1 -19.8,-19.799996 19.799999,19.799999 0 0 1 19.8,-19.8 19.799999,19.799999 0 0 1 19.8,19.8 z" />
    <path
       style="opacity:0.999;fill:none;fill-opacity:1;stroke:#000000;stroke-width:3;stroke-miterlimit:10;stroke-dasharray:none;paint-order:stroke fill markers"
       d="m 1703.658,-123.567 v 28.476"
       id="path11023-3"
       sodipodi:nodetypes="cc" />
    <path
       id="path11294-9"
       style="opacity:0.999;fill:none;fill-opacity:1;stroke:#000000;stroke-width:3;stroke-linecap:square;stroke-miterlimit:10;stroke-dasharray:none;paint-order:stroke fill markers"
       d="m 1693.3864,-105.22123 a 4.371922,4.371922 0 0 1 -3.7862,-2.18596 4.371922,4.371922 0 0 1 0,-4.37192 4.371922,4.371922 0 0 1 3.7862,-2.18596" />
    <path
       style="opacity:0.999;fill:none;fill-opacity:1;stroke:#000000;stroke-width:3;stroke-miterlimit:10;stroke-dasharray:none;paint-order:stroke fill markers"
       d="m 1708.412,-105.221 h -14.933"
       id="path11023-5-7"
       sodipodi:nodetypes="cc" />
    <path
       id="path11294-8-2"
       style="opacity:0.999;fill:none;fill-opacity:1;stroke:#000000;stroke-width:3;stroke-linecap:square;stroke-miterlimit:10;stroke-dasharray:none;paint-order:stroke fill markers"
       d="m 1693.2955,-113.94976 a 3.716629,3.716629 0 0 1 -3.4337,-2.29434 3.716629,3.716629 0 0 1 0.8057,-4.05034 3.716629,3.716629 0 0 1 4.0503,-0.80567 3.716629,3.716629 0 0 1 2.2944,3.43372" />
    <path
       id="path25-7-8-39-56-4-3-4-5-7-4-9"
       style="fill:#b97565;fill-opacity:1;stroke:none;stroke-width:0.389908;stroke-linecap:round;stroke-linejoin:round;paint-order:markers fill stroke"
       d="m 1658.0743,-109.33044 a 19.799999,19.799999 0 0 1 -19.8,19.800003 19.799999,19.799999 0 0 1 -19.8,-19.800003 19.799999,19.799999 0 0 1 19.8,-19.8 19.799999,19.799999 0 0 1 19.8,19.8 z" />
    <path
       style="opacity:0.999;fill:none;fill-opacity:1;stroke:#000000;stroke-width:3;stroke-miterlimit:10;stroke-dasharray:none;paint-order:stroke fill markers"
       d="m 1648.726,-105.222 h -19.403 v -16.814 h 9.522"
       id="path11021-1-8-0"
       sodipodi:nodetypes="cccc" />
    <path
       style="opacity:0.999;fill:none;fill-opacity:1;stroke:#000000;stroke-width:3;stroke-miterlimit:10;stroke-dasharray:none;paint-order:stroke fill markers"
       d="m 1643.972,-123.568 v 28.476"
       id="path11023-4-2-9"
       sodipodi:nodetypes="cc" />
    <path
       style="opacity:0.999;fill:none;fill-opacity:1;stroke:#000000;stroke-width:3;stroke-miterlimit:10;stroke-dasharray:none;paint-order:stroke fill markers"
       d="m 1630.314,-116.228 h 4.934"
       id="path11025-3-0-8" />
    <path
       id="path25-7-8-39-56-4-3-4-5-79-5"
       style="fill:#e7e1e9;fill-opacity:1;stroke:none;stroke-width:0.505108;stroke-linecap:round;stroke-linejoin:round;paint-order:markers fill stroke"
       d="m 1670.2552,-38.006657 a 25.65,25.65 0 0 1 -25.65,25.65 25.65,25.65 0 0 1 -25.65,-25.65 25.65,25.65 0 0 1 25.65,-25.649999 25.65,25.65 0 0 1 25.65,25.649999 z" />
    <path
       style="opacity:0.999;fill:none;fill-opacity:1;stroke:#000000;stroke-width:3.88636;stroke-miterlimit:10;stroke-dasharray:none;paint-order:stroke fill markers"
       d="m 1651.986,-56.451 v 36.89"
       id="path11023-9-2"
       sodipodi:nodetypes="cc" />
    <g
       aria-label="γ"
       id="text3622-4-7-6-1"
       style="font-style:normal;font-variant:normal;font-weight:normal;font-stretch:normal;font-size:52.6891px;line-height:1;font-family:Catrinity;-inkscape-font-specification:Catrinity;text-align:center;letter-spacing:0px;word-spacing:0px;text-anchor:middle;stroke-width:2.46981">
      <path
         d="m 1643.2039,-25.740027 q 0.3087,0 0.5403,-0.231544 0.2315,-0.231544 0.2315,-0.540269 0,-0.308726 -0.2315,-1.183447 -0.2316,-0.874721 -0.5403,-0.874721 -0.3087,0 -0.5402,0.874721 -0.2316,0.874721 -0.2316,1.183447 0,0.308725 0.2316,0.540269 0.2315,0.231544 0.5402,0.231544 z m 0,3.859064 q -1.9295,0 -3.293,-1.363536 -1.3379,-1.337809 -1.3379,-3.267341 0,-1.929533 1.3636,-4.965331 0.4631,-1.054811 1.0291,-1.749442 l -6.4061,-17.571609 q -0.4631,-1.312082 -1.7237,-1.903805 -0.6689,-0.308725 -1.3635,-0.308725 v -3.859065 q 1.5179,0 3.01,0.694632 2.7014,1.260627 3.7047,4.064881 l 5.0168,13.763998 6.5604,-18.008969 h 4.1164 l -8.4128,23.128662 q 0.5403,0.694631 1.0291,1.749442 1.3378,3.035798 1.3378,4.965331 0,1.929532 -1.3635,3.267341 -1.3378,1.363536 -3.2674,1.363536 z"
         style="font-style:normal;font-variant:normal;font-weight:normal;font-stretch:normal;font-family:Catrinity;-inkscape-font-specification:Catrinity;text-align:center;text-anchor:middle;stroke-width:2.46981"
         id="path20138" />
    </g>
    <path
       id="path2805-4-2-5-5"
       style="opacity:0.999;fill:#9e7f7a;fill-opacity:1;stroke:none;stroke-width:0.0883137;stroke-miterlimit:10;paint-order:stroke fill markers"
       d="m 1639.1288,26.101976 a 25.65,25.649981 0 0 1 -25.65,25.649981 25.65,25.649981 0 0 1 -25.65,-25.649981 25.65,25.649981 0 0 1 25.65,-25.64998015 25.65,25.649981 0 0 1 25.65,25.64998015 z" />
    <g
       aria-label="ϰ"
       id="text3622-41-2-5-2"
       style="font-style:normal;font-variant:normal;font-weight:normal;font-stretch:normal;font-size:47.3929px;line-height:1;font-family:Catrinity;-inkscape-font-specification:Catrinity;text-align:center;letter-spacing:0px;word-spacing:0px;text-anchor:middle;stroke-width:2.22154">
      <path
         d="m 1618.8729,32.970523 q -2.6844,0 -4.582,-1.897567 -1.8975,-1.897567 -1.8975,-4.581931 v -6.687767 q -10.2515,10.598607 -10.9226,11.269698 -1.8976,1.897567 -4.5819,1.897567 v -3.471159 q 1.2496,0 2.1289,-0.879361 0.8794,-0.87936 0.8794,-2.128978 V 17.2346 q 0,-1.249618 -0.8794,-2.128978 -0.8793,-0.87936 -2.1289,-0.87936 v -3.47116 q 2.6843,0 4.5819,1.897567 1.8976,1.897567 1.8976,4.581931 v 6.687767 q 10.2514,-10.598607 10.9225,-11.269698 1.8976,-1.897567 4.582,-1.897567 v 3.47116 q -1.2497,0 -2.129,0.87936 -0.8794,0.87936 -0.8794,2.128978 v 9.256425 q 0,1.249618 0.8794,2.128978 0.8793,0.879361 2.129,0.879361 z"
         style="font-style:normal;font-variant:normal;font-weight:normal;font-stretch:normal;font-family:Catrinity;-inkscape-font-specification:Catrinity;text-align:center;text-anchor:middle;stroke-width:2.22154"
         id="path20134" />
    </g>
    <path
       style="opacity:0.999;fill:none;fill-opacity:1;stroke:#000000;stroke-width:3.5;stroke-miterlimit:10;stroke-dasharray:none;paint-order:stroke fill markers"
       d="M 1624.1484,14.621412 V 43.102563"
       id="path11023-6-7"
       sodipodi:nodetypes="cc" />
    <path
       style="opacity:0.999;fill:none;fill-opacity:1;stroke:#000000;stroke-width:3.5058;stroke-miterlimit:10;stroke-dasharray:none;paint-order:stroke fill markers"
       d="M 1630.0689,31.217888 H 1618.129"
       id="path11023-5-8-1"
       sodipodi:nodetypes="cc" />
    <path
       id="path2805-4-2-5-7-11"
       style="opacity:0.999;fill:#9e7f7a;fill-opacity:1;stroke:none;stroke-width:0.0883137;stroke-miterlimit:10;paint-order:stroke fill markers"
       d="m 1701.7801,26.101727 a 25.65,25.649981 0 0 1 -25.65,25.64998 25.65,25.649981 0 0 1 -25.65,-25.64998 25.65,25.649981 0 0 1 25.65,-25.64998101 25.65,25.649981 0 0 1 25.65,25.64998101 z" />
    <g
       aria-label="ϰ"
       id="text3622-41-2-5-3-3"
       style="font-style:normal;font-variant:normal;font-weight:normal;font-stretch:normal;font-size:42.8809px;line-height:1;font-family:Catrinity;-inkscape-font-specification:Catrinity;text-align:center;letter-spacing:0px;word-spacing:0px;text-anchor:middle;stroke-width:2.01004">
      <path
         d="m 1682.2027,29.017121 q -2.4288,0 -4.1457,-1.716911 -1.7169,-1.716911 -1.7169,-4.145712 v -6.051065 q -9.2755,9.589576 -9.8827,10.196777 -1.7169,1.716911 -4.1457,1.716911 V 25.87643 q 1.1306,0 1.9263,-0.795642 0.7956,-0.795642 0.7956,-1.92629 v -8.375177 q 0,-1.130648 -0.7956,-1.92629 -0.7957,-0.795642 -1.9263,-0.795642 V 8.9166983 q 2.4288,0 4.1457,1.7169107 1.7169,1.716911 1.7169,4.145712 v 6.051065 q 9.2755,-9.589576 9.8827,-10.196777 1.7169,-1.7169107 4.1457,-1.7169107 v 3.1406907 q -1.1306,0 -1.9263,0.795642 -0.7956,0.795642 -0.7956,1.92629 v 8.375177 q 0,1.130648 0.7956,1.92629 0.7957,0.795642 1.9263,0.795642 z"
         style="font-style:normal;font-variant:normal;font-weight:normal;font-stretch:normal;font-family:Catrinity;-inkscape-font-specification:Catrinity;text-align:center;text-anchor:middle;stroke-width:2.01004"
         id="path20130" />
    </g>
    <path
       style="opacity:0.999;fill:none;fill-opacity:1;stroke:#000000;stroke-width:3.17203;stroke-miterlimit:10;stroke-dasharray:none;paint-order:stroke fill markers"
       d="M 1677.8112,12.953236 V 45.039989"
       id="path11023-6-5-2"
       sodipodi:nodetypes="cc" />
    <path
       style="opacity:0.999;fill:none;fill-opacity:1;stroke:#000000;stroke-width:3.17203;stroke-miterlimit:10;stroke-dasharray:none;paint-order:stroke fill markers"
       d="m 1692.8716,27.430864 h -10.8033"
       id="path11023-5-8-3-7"
       sodipodi:nodetypes="cc" />
    <path
       id="path2805-4-2-5-7-1-6"
       style="opacity:0.999;fill:#9e7f7a;fill-opacity:1;stroke:none;stroke-width:0.0883137;stroke-miterlimit:10;paint-order:stroke fill markers"
       d="m 1763.6021,27.186726 a 25.65,25.649981 0 0 1 -25.65,25.64998 25.65,25.649981 0 0 1 -25.65,-25.64998 25.65,25.649981 0 0 1 25.65,-25.6499809 25.65,25.649981 0 0 1 25.65,25.6499809 z" />
    <g
       aria-label="ϰ"
       id="text3622-41-2-5-3-2-3"
       style="font-style:normal;font-variant:normal;font-weight:normal;font-stretch:normal;font-size:42.8809px;line-height:1;font-family:Catrinity;-inkscape-font-specification:Catrinity;text-align:center;letter-spacing:0px;word-spacing:0px;text-anchor:middle;stroke-width:2.01004">
      <path
         d="m 1747.6635,29.225556 q -2.4288,0 -4.1457,-1.716911 -1.7169,-1.716911 -1.7169,-4.145712 v -6.051065 q -9.2755,9.589576 -9.8827,10.196777 -1.7169,1.716911 -4.1457,1.716911 v -3.140691 q 1.1306,0 1.9263,-0.795642 0.7956,-0.795642 0.7956,-1.92629 v -8.375176 q 0,-1.130649 -0.7956,-1.926291 -0.7957,-0.795642 -1.9263,-0.795642 V 9.1251333 q 2.4288,0 4.1457,1.7169107 1.7169,1.716912 1.7169,4.145713 v 6.051064 q 9.2755,-9.589576 9.8827,-10.196777 1.7169,-1.7169107 4.1457,-1.7169107 v 3.1406907 q -1.1306,0 -1.9263,0.795642 -0.7956,0.795642 -0.7956,1.926291 v 8.375176 q 0,1.130648 0.7956,1.92629 0.7957,0.795642 1.9263,0.795642 z"
         style="font-style:normal;font-variant:normal;font-weight:normal;font-stretch:normal;font-family:Catrinity;-inkscape-font-specification:Catrinity;text-align:center;text-anchor:middle;stroke-width:2.01004"
         id="path20126" />
    </g>
    <path
       style="opacity:0.999;fill:none;fill-opacity:1;stroke:#000000;stroke-width:3.17203;stroke-miterlimit:10;stroke-dasharray:none;paint-order:stroke fill markers"
       d="M 1743.272,13.161 V 45.248"
       id="path11023-6-5-5-2"
       sodipodi:nodetypes="cc" />
    <path
       style="opacity:0.999;fill:#9e7f7a;fill-opacity:1;stroke:#9e7f7a;stroke-width:3.17203;stroke-miterlimit:10;stroke-dasharray:none;stroke-opacity:1;paint-order:stroke fill markers"
       d="m 1746.545,23.027 c -0.133,1.16 -0.184,2.329 -0.192,3.501 -0.01,2.426 0.158,4.871 0.192,7.302"
       id="path11023-5-8-3-1-4"
       sodipodi:nodetypes="csc" />
    <path
       id="circle3105-3-5-0-2"
       style="fill:#f39e11;fill-opacity:1;stroke:none;stroke-width:0.499733;stroke-linecap:round;stroke-linejoin:round;paint-order:markers fill stroke"
       d="m 1601.5456,-309.86301 a 25.377001,25.377001 0 0 1 -25.377,25.377 25.377001,25.377001 0 0 1 -25.377,-25.377 25.377001,25.377001 0 0 1 25.377,-25.377 25.377001,25.377001 0 0 1 25.377,25.377 z" />
    <path
       d="m 1587.8935,-290.66579 q -2.2858,0 -3.897,-1.61447 -1.6148,-1.61447 -1.6148,-3.89848 0,-2.284 2.0646,-4.94222 2.0683,-2.65785 2.0683,-5.69029 0,-2.30354 -1.0434,-3.40628 -1.0249,-1.12227 -2.6766,-1.12227 -2.0278,0 -3.5468,1.91015 -1.4931,1.88988 -1.5927,4.58755 v 9.05712 h -2.9532 v -20.10292 h -2.9531 v -2.95354 h 2.9531 v -2.93363 h 2.9532 v 2.93363 h 2.9532 v 2.95354 h -2.9532 v 3.91801 q 2.2637,-2.32308 5.2575,-2.32308 2.872,0 4.7044,1.98832 1.8508,1.96914 1.8508,5.4934 0,4.25315 -2.0683,6.911 -2.0647,2.65822 -2.0647,3.72151 0,1.06329 0.7485,1.81135 0.7484,0.74843 1.8102,0.74843 z"
       style="font-style:normal;font-variant:normal;font-weight:normal;font-stretch:normal;font-size:10.9373px;line-height:1;font-family:Catrinity;-inkscape-font-specification:Catrinity;text-align:center;letter-spacing:0px;word-spacing:0px;text-anchor:middle;stroke-width:0.914453;stroke-miterlimit:4;stroke-dasharray:none"
       id="path6934-5-0" />
    <path
       id="rect6912-49-1"
       style="opacity:0.999;fill:#000000;fill-opacity:1;stroke:none;stroke-width:2.74261;stroke-miterlimit:10;stroke-dasharray:none;paint-order:stroke fill markers"
       d="m 1558.2933,-323.47256 h 35.7539 v 2.94335 h -35.7539 z" />
    <path
       id="rect6912-5-5-1-9"
       style="opacity:0.999;fill:#f39e11;fill-opacity:1;stroke:none;stroke-width:2.12459;stroke-miterlimit:10;stroke-dasharray:none;paint-order:stroke fill markers"
       d="m 1569.9966,-320.15302 h 12.339 v 5.11802 h -12.339 z" />
    <path
       id="rect6912-4-9-7"
       style="opacity:0.999;fill:#000000;fill-opacity:1;stroke:none;stroke-width:2.00794;stroke-miterlimit:10;stroke-dasharray:none;paint-order:stroke fill markers"
       transform="rotate(90)"
       d="m -323.2533,-1577.64 h 19.16427 v 2.9433 h -19.16427 z" />
    <path
       id="rect6912-5-6-9"
       style="opacity:0.999;fill:#f39e11;fill-opacity:1;stroke:none;stroke-width:2.18038;stroke-miterlimit:10;stroke-dasharray:none;paint-order:stroke fill markers"
       d="m 1573.4529,-306.81824 h 5.4298 v 12.24947 h -5.4298 z" />
    <path
       id="path6981-6-5"
       style="opacity:0.999;fill:none;fill-opacity:1;stroke:#000000;stroke-width:2.94948;stroke-miterlimit:10;stroke-dasharray:none;paint-order:stroke fill markers"
       d="m 1581.8572,-321.77505 a 5.8109603,5.8109603 0 0 1 -5.8109,5.81096 5.8109603,5.8109603 0 0 1 -5.811,-5.81096 5.8109603,5.8109603 0 0 1 5.811,-5.81097 5.8109603,5.8109603 0 0 1 5.8109,5.81097 z" />
    <path
       id="circle3105-3-5-9-2-77"
       style="fill:#ececec;fill-opacity:1;stroke:none;stroke-width:0.272148;stroke-linecap:round;stroke-linejoin:round;paint-order:markers fill stroke"
       d="m 1589.6404,-384.08374 a 13.82,13.82 0 0 1 -13.82,13.82 13.82,13.82 0 0 1 -13.82,-13.82 13.82,13.82 0 0 1 13.82,-13.82 13.82,13.82 0 0 1 13.82,13.82 z" />
    <path
       id="rect6912-4-4-8-5"
       style="opacity:0.999;fill:#000000;fill-opacity:1;stroke:none;stroke-width:0.837241;stroke-miterlimit:10;stroke-dasharray:none;paint-order:stroke fill markers"
       transform="rotate(90)"
       d="m -390.92953,-1575.3563 h 5.38527 v 1.821 h -5.38527 z" />
    <path
       id="path6981-9-8-2"
       style="opacity:0.999;fill:none;fill-opacity:1;stroke:#000000;stroke-width:1.82486;stroke-miterlimit:10;stroke-dasharray:none;paint-order:stroke fill markers"
       d="m 1581.6108,-391.26569 a 3.5952821,3.5952821 0 0 1 -3.5953,3.59529 3.5952821,3.5952821 0 0 1 -3.5953,-3.59529 3.5952821,3.5952821 0 0 1 3.5953,-3.59528 3.5952821,3.5952821 0 0 1 3.5953,3.59528 z" />
    <path
       d="m 1577.805,-372.40181 c -0.9421,0 -1.7473,-0.33303 -2.4111,-0.99888 -0.6661,-0.66585 -0.9992,-1.46993 -0.9992,-2.41201 0,-0.94209 0.4266,-1.96128 1.2775,-3.05779 0.8531,-1.09629 1.2796,-2.26991 1.2796,-3.52062 0,-0.95007 -0.2053,-1.65264 -0.6455,-2.10749 -0.422,-0.46283 -0.974,-0.69436 -1.6561,-0.69436 -0.8371,0 -1.7313,0.15967 -2.3586,0.9471 -0.6159,0.77945 -0.7801,1.96036 -0.8212,3.07307 v 5.6037 l -1.2957,-0.0639 c 0,-8.3597 -0.4402,-8.18542 1.1543,-10.03219 0.9329,-0.95828 2.1602,-1.35519 3.3942,-1.35519 1.1839,0 2.1556,0.41014 2.9107,1.23019 0.7641,0.81229 1.1451,1.94508 1.1451,3.39881 0,1.75438 -0.4266,3.1796 -1.2797,4.27589 -0.8508,1.09651 -1.2774,1.86387 -1.2774,2.30252 0,0.43865 0.1597,0.81206 0.4631,1.12069 0.3079,0.30863 0.682,0.46306 1.12,0.46306 z"
       style="font-style:normal;font-variant:normal;font-weight:normal;font-stretch:normal;font-size:10.9373px;line-height:1;font-family:Catrinity;-inkscape-font-specification:Catrinity;text-align:center;letter-spacing:0px;word-spacing:0px;text-anchor:middle;fill:#000000;stroke-width:0.565779;stroke-miterlimit:4;stroke-dasharray:none"
       id="path6934-4-4-9-8"
       sodipodi:nodetypes="csssssssccccsssssscc" />
    <path
       id="rect6912-5-7-2-9"
       style="opacity:0.999;fill:#ececec;fill-opacity:1;stroke:none;stroke-width:1.34902;stroke-miterlimit:10;stroke-dasharray:none;paint-order:stroke fill markers"
       d="m 1569.1349,-382.5506 h 3.3594 v 7.57883 h -3.3594 z" />
    <path
       id="path2805-3-2-4-8"
       style="fill:#a99066;fill-opacity:1;stroke:none;stroke-width:0.0467031;stroke-miterlimit:10;paint-order:stroke fill markers"
       d="m 1563.0549,-256.30756 a 13.5645,13.564488 0 0 1 -13.5645,13.56449 13.5645,13.564488 0 0 1 -13.5645,-13.56449 13.5645,13.564488 0 0 1 13.5645,-13.56448 13.5645,13.564488 0 0 1 13.5645,13.56448 z" />
    <path
       d="m 1553.4697,-247.35538 q -1.2483,0 -2.1282,-0.88169 -0.8819,-0.8817 -0.8819,-2.12903 0,-1.24734 1.1275,-2.69904 1.1296,-1.4515 1.1296,-3.10757 0,-1.25801 -0.5698,-1.86024 -0.5598,-0.61289 -1.4618,-0.61289 -1.1074,0 -1.9369,1.04317 -0.8155,1.0321 -0.8699,2.50534 v 4.94626 h -1.6127 v -10.97857 h -1.6128 v -1.61299 h 1.6128 v -1.6021 h 1.6127 v 1.6021 h 1.6128 v 1.61299 h -1.6128 v 2.1397 q 1.2363,-1.26868 2.8712,-1.26868 1.5685,0 2.5692,1.08585 1.0108,1.07539 1.0108,3.00006 0,2.32272 -1.1296,3.77422 -1.1275,1.45171 -1.1275,2.03239 0,0.58068 0.4087,0.98921 0.4087,0.40873 0.9886,0.40873 z"
       style="font-style:normal;font-variant:normal;font-weight:normal;font-stretch:normal;font-size:10.9373px;line-height:1;font-family:Catrinity;-inkscape-font-specification:Catrinity;text-align:center;letter-spacing:0px;word-spacing:0px;text-anchor:middle;stroke-width:0.4994;stroke-miterlimit:4;stroke-dasharray:none"
       id="path6934-5-2-9-6-37" />
    <path
       id="rect6912-5-5-7-6-9-6-8"
       style="opacity:0.999;fill:#a99066;fill-opacity:1;stroke:none;stroke-width:1.16027;stroke-miterlimit:10;stroke-dasharray:none;paint-order:stroke fill markers"
       d="m 1543.6971,-263.49649 h 6.7386 v 2.79504 h -6.7386 z" />
    <path
       id="rect6912-4-2-4-9-9-5"
       style="opacity:0.999;fill:#000000;fill-opacity:1;stroke:none;stroke-width:1.09657;stroke-miterlimit:10;stroke-dasharray:none;paint-order:stroke fill markers"
       transform="rotate(90)"
       d="m -264.34698,-1547.8713 h 10.46596 v 1.6074 h -10.46596 z" />
    <path
       id="rect6912-5-72-9-9-5-9"
       style="opacity:0.999;fill:#a99066;fill-opacity:1;stroke:none;stroke-width:1.19075;stroke-miterlimit:10;stroke-dasharray:none;paint-order:stroke fill markers"
       d="m 1545.582,-256.17783 h 2.9653 v 6.68967 h -2.9653 z" />
    <path
       id="rect6912-1-8-2-8-1"
       style="opacity:0.999;fill:#000000;fill-opacity:1;stroke:none;stroke-width:1.31091;stroke-miterlimit:10;stroke-dasharray:none;paint-order:stroke fill markers"
       d="m 1542.0115,-265.2756 h 14.9573 v 1.60741 h -14.9573 z" />
    <path
       id="rect9240-9-1-3-2"
       style="opacity:0.999;fill:#000000;fill-opacity:1;stroke:none;stroke-width:1.31091;stroke-miterlimit:10;stroke-dasharray:none;paint-order:stroke fill markers"
       d="m 1542.0115,-248.9465 h 14.9573 v 1.60742 h -14.9573 z" />
    <path
       id="circle3105-3-5-9-4-2-9"
       style="fill:#ececec;fill-opacity:1;stroke:none;stroke-width:0.233354;stroke-linecap:round;stroke-linejoin:round;paint-order:markers fill stroke"
       d="m 1564.6779,-418.05185 a 11.85,11.85 0 0 1 -11.85,11.85 11.85,11.85 0 0 1 -11.85,-11.85 11.85,11.85 0 0 1 11.85,-11.85 11.85,11.85 0 0 1 11.85,11.85 z" />
    <path
       id="rect6912-8-6-3-1"
       style="opacity:0.999;fill:#000000;fill-opacity:1;stroke:none;stroke-width:1.28069;stroke-miterlimit:10;stroke-dasharray:none;paint-order:stroke fill markers"
       d="m 1544.4165,-418.5741 h 16.6956 v 1.37443 h -16.6956 z" />
    <path
       style="opacity:0.999;fill:none;fill-opacity:1;stroke:#000000;stroke-width:1.56032;stroke-miterlimit:10;stroke-dasharray:none;paint-order:stroke fill markers"
       d="m 1544.4021,-417.93976 h 16.7101 l -8.413,-8.5554 z"
       id="path9574-2-24" />
    <path
       d="m 1555.6479,-408.60358 c -0.8078,0 -1.4983,-0.28557 -2.0674,-0.8565 -0.5712,-0.57093 -0.8567,-1.26039 -0.8567,-2.06819 0,-0.80779 0.3657,-1.6817 1.0953,-2.62191 0.7315,-0.94001 1.0973,-1.94633 1.0973,-3.01876 0,-0.81464 -0.1761,-1.41707 -0.5536,-1.80708 -0.3618,-0.39685 -0.8351,-0.59538 -1.42,-0.59538 -0.7178,0 -1.4845,0.13692 -2.0224,0.8121 -0.5281,0.66834 -0.6689,1.68092 -0.7041,2.63501 v 4.80491 l -1.111,-0.0548 c 0,-7.16805 -0.3775,-7.01862 0.9897,-8.60213 0.8,-0.82169 1.8523,-1.16202 2.9104,-1.16202 1.0151,0 1.8484,0.35168 2.4958,1.05483 0.6552,0.6965 0.9818,1.66781 0.9818,2.91432 0,1.5043 -0.3657,2.72636 -1.0972,3.66637 -0.7296,0.94021 -1.0953,1.59818 -1.0953,1.97431 0,0.37612 0.1369,0.6963 0.397,0.96094 0.2641,0.26464 0.5848,0.39705 0.9604,0.39705 z"
       style="font-style:normal;font-variant:normal;font-weight:normal;font-stretch:normal;font-size:10.9373px;line-height:1;font-family:Catrinity;-inkscape-font-specification:Catrinity;text-align:center;letter-spacing:0px;word-spacing:0px;text-anchor:middle;fill:#000000;stroke-width:0.485129;stroke-miterlimit:4;stroke-dasharray:none"
       id="path6934-4-4-6-2-0"
       sodipodi:nodetypes="csssssssccccsssssscc" />
    <path
       d="m 1554.9164,-417.16894 c 0,-0.81464 -0.1761,-1.41707 -0.5536,-1.80708 -0.3618,-0.39685 -0.8351,-0.59538 -1.42,-0.59538 -0.7178,0 -1.4845,0.13692 -2.0224,0.8121 -0.5281,0.66834 -0.6689,1.68092 -0.7041,2.63501 v 4.80491 l 1.5256,-0.13104 c 0,-7.16806 -0.8137,-2.96518 0.5535,-4.54869 1.0073,-0.3239 0.8782,-0.0998 2.621,-1.16983 z"
       style="font-style:normal;font-variant:normal;font-weight:normal;font-stretch:normal;font-size:10.9373px;line-height:1;font-family:Catrinity;-inkscape-font-specification:Catrinity;text-align:center;letter-spacing:0px;word-spacing:0px;text-anchor:middle;fill:#ececec;fill-opacity:1;stroke-width:0.485129;stroke-miterlimit:4;stroke-dasharray:none"
       id="path9576-3-8"
       sodipodi:nodetypes="csssccccc" />
    <path
       id="rect6912-5-7-5-5-1"
       style="opacity:0.999;fill:#ececec;fill-opacity:1;stroke:none;stroke-width:1.2948;stroke-miterlimit:10;stroke-dasharray:none;paint-order:stroke fill markers"
       d="m 1547.3096,-417.15332 h 3.7917 v 6.18613 h -3.7917 z" />
    <path
       id="circle3105-3-5-3-2"
       style="fill:#ececec;fill-opacity:1;stroke:none;stroke-width:0.227315;stroke-linecap:round;stroke-linejoin:round;paint-order:markers fill stroke"
       d="m 1540.6234,-444.49948 a 11.54335,11.54335 0 0 1 -11.5433,11.54335 11.54335,11.54335 0 0 1 -11.5434,-11.54335 11.54335,11.54335 0 0 1 11.5434,-11.54335 11.54335,11.54335 0 0 1 11.5433,11.54335 z" />
    <path
       d="m 1533.9685,-436.47689 q -0.9515,0 -1.6222,-0.67206 -0.6722,-0.67206 -0.6722,-1.62283 0,-0.95077 0.8594,-2.05731 0.861,-1.10639 0.861,-2.36871 0,-0.9589 -0.4343,-1.41794 -0.4267,-0.46718 -1.1142,-0.46718 -0.8442,0 -1.4765,0.79515 -0.6215,0.7867 -0.663,1.90967 v 3.77023 h -1.2293 v -8.36829 h -1.2293 v -1.22948 h 1.2293 v -1.22119 h 1.2293 v 1.22119 h 1.2294 v 1.22948 h -1.2294 v 1.63096 q 0.9424,-0.96704 2.1886,-0.96704 1.1955,0 1.9583,0.82768 0.7704,0.8197 0.7704,2.28676 0,1.77047 -0.861,2.87686 -0.8594,1.10654 -0.8594,1.54916 0,0.44261 0.3115,0.75401 0.3116,0.31155 0.7536,0.31155 z"
       style="font-style:normal;font-variant:normal;font-weight:normal;font-stretch:normal;font-size:10.9373px;line-height:1;font-family:Catrinity;-inkscape-font-specification:Catrinity;text-align:center;letter-spacing:0px;word-spacing:0px;text-anchor:middle;stroke-width:0.380662;stroke-miterlimit:4;stroke-dasharray:none"
       id="path6934-2-9" />
    <path
       id="rect6912-2-3"
       style="opacity:0.999;fill:#000000;fill-opacity:1;stroke:none;stroke-width:1.09353;stroke-miterlimit:10;stroke-dasharray:none;paint-order:stroke fill markers"
       d="m 1522.252,-451.71915 h 13.6543 v 1.22524 h -13.6543 z" />
    <path
       id="rect6912-5-5-2-46"
       style="opacity:0.999;fill:#ececec;fill-opacity:1;stroke:none;stroke-width:0.884408;stroke-miterlimit:10;stroke-dasharray:none;paint-order:stroke fill markers"
       d="m 1526.5197,-448.75302 h 5.1364 v 2.13049 h -5.1364 z" />
    <path
       id="rect6912-5-2-7"
       style="opacity:0.999;fill:#ececec;fill-opacity:1;stroke:none;stroke-width:0.739734;stroke-miterlimit:10;stroke-dasharray:none;paint-order:stroke fill markers"
       d="m 1527.9519,-441.48526 h 2.2603 v 3.38709 h -2.2603 z" />
    <path
       id="rect6912-4-3-0"
       style="opacity:0.999;fill:#000000;fill-opacity:1;stroke:none;stroke-width:0.961116;stroke-miterlimit:10;stroke-dasharray:none;paint-order:stroke fill markers"
       transform="rotate(90)"
       d="m -450.7756,-1529.7036 h 10.54789 v 1.2252 h -10.54789 z" />
  </g>
</svg>
