<?xml version="1.0" encoding="UTF-8" standalone="no"?>
<svg
   xmlns:dc="http://purl.org/dc/elements/1.1/"
   xmlns:cc="http://creativecommons.org/ns#"
   xmlns:rdf="http://www.w3.org/1999/02/22-rdf-syntax-ns#"
   xmlns:svg="http://www.w3.org/2000/svg"
   xmlns="http://www.w3.org/2000/svg"
   xmlns:sodipodi="http://sodipodi.sourceforge.net/DTD/sodipodi-0.dtd"
   xmlns:inkscape="http://www.inkscape.org/namespaces/inkscape"
   width="139.7mm"
   height="139.7mm"
   viewBox="0 0 139.7 139.70001"
   version="1.1"
   id="svg14134"
   inkscape:version="1.0.2-2 (e86c870879, 2021-01-15)"
   sodipodi:docname="scalesaturn - Copy.svg">
  <defs
     id="defs14128" />
  <sodipodi:namedview
     id="base"
     pagecolor="#ffffff"
     bordercolor="#666666"
     borderopacity="1.0"
     inkscape:pageopacity="0.0"
     inkscape:pageshadow="2"
     inkscape:zoom="0.49497475"
     inkscape:cx="501.35927"
     inkscape:cy="542.66529"
     inkscape:document-units="mm"
     inkscape:current-layer="layer1"
     inkscape:document-rotation="0"
     showgrid="false"
     inkscape:snap-object-midpoints="true" />
  <metadata
     id="metadata14131">
    <rdf:RDF>
      <cc:Work
         rdf:about="">
        <dc:format>image/svg+xml</dc:format>
        <dc:type
           rdf:resource="http://purl.org/dc/dcmitype/StillImage" />
        <dc:title />
      </cc:Work>
    </rdf:RDF>
  </metadata>
  <g
     inkscape:label="Layer 1"
     inkscape:groupmode="layer"
     id="layer1"
     transform="translate(-10672.836,4757.0938)">
    <rect
       style="fill:#000000;fill-opacity:1;stroke:none;stroke-width:1;stroke-linecap:round;stroke-linejoin:round;paint-order:markers stroke fill"
       id="rect1890-1-0-8-1"
       width="139.7"
       height="139.7"
       x="10672.836"
       y="-4757.0938"
       rx="3.408278e-15" />
    <circle
       style="fill:#f4d284;fill-opacity:1;stroke-width:0.999998;stroke-linecap:round;stroke-linejoin:round;paint-order:markers stroke fill"
       id="path1685-5-0-7-1-1-8-1-9"
       cx="10742.686"
       cy="-4687.2437"
       r="25.4" />
    <path
       id="path1685-5-5-4-5-8-7-8-8-1"
       style="fill:#ffe2b4;fill-opacity:0.411765;stroke-width:0.999998;stroke-linecap:round;stroke-linejoin:round;paint-order:markers stroke fill"
       d="m 10742.686,-4744.8894 a 57.645297,57.645297 0 0 0 -57.645,57.6456 57.645297,57.645297 0 0 0 57.645,57.645 57.645297,57.645297 0 0 0 57.645,-57.645 57.645297,57.645297 0 0 0 -57.645,-57.6456 z m 0,1.2826 a 56.362597,56.362597 0 0 1 56.362,56.3625 56.362597,56.362597 0 0 1 -56.362,56.3629 56.362597,56.362597 0 0 1 -56.362,-56.3629 56.362597,56.362597 0 0 1 56.362,-56.3625 z m -0.1,0.1395 a 56.222899,56.222899 0 0 0 -56.125,56.223 56.222899,56.222899 0 0 0 56.223,56.2229 56.222899,56.222899 0 0 0 56.223,-56.2229 56.222899,56.222899 0 0 0 -56.223,-56.223 56.222899,56.222899 0 0 0 -0.1,0 z m 0.1,4.6613 a 51.561999,51.561999 0 0 1 51.562,51.5622 51.561999,51.561999 0 0 1 -51.562,51.5617 51.561999,51.561999 0 0 1 -51.562,-51.5617 51.561999,51.561999 0 0 1 51.562,-51.5622 z" />
    <path
       id="path1685-5-8-9-5-7-7-5-2-4"
       style="fill:#ffe2b4;fill-opacity:0.6;stroke-width:0.999998;stroke-linecap:round;stroke-linejoin:round;paint-order:markers stroke fill"
       d="m 10742.686,-4736.7614 a 49.517299,49.517299 0 0 0 -49.517,49.5174 49.517299,49.517299 0 0 0 49.517,49.5173 49.517299,49.517299 0 0 0 49.517,-49.5173 49.517299,49.517299 0 0 0 -49.517,-49.5174 z m -0.02,10.757 a 38.7604,38.7604 0 0 1 0.02,0 38.7604,38.7604 0 0 1 38.76,38.7604 38.7604,38.7604 0 0 1 -38.76,38.7605 38.7604,38.7604 0 0 1 -38.76,-38.7605 38.7604,38.7604 0 0 1 38.735,-38.7604 z" />
    <path
       id="path1685-5-9-7-2-7-5-2-5-4"
       style="fill:#ffe2b4;fill-opacity:0.168627;stroke-width:0.999998;stroke-linecap:round;stroke-linejoin:round;paint-order:markers stroke fill"
       d="m 10742.661,-4726.0042 a 38.7604,38.7604 0 0 0 -38.735,38.7604 38.7604,38.7604 0 0 0 38.76,38.7604 38.7604,38.7604 0 0 0 38.76,-38.7604 38.7604,38.7604 0 0 0 -38.76,-38.7604 38.7604,38.7604 0 0 0 -0.02,0 z m 0.02,1.7776 a 36.9824,36.9824 0 0 1 36.982,36.9823 36.9824,36.9824 0 0 1 -36.982,36.9827 36.9824,36.9824 0 0 1 -36.982,-36.9827 36.9824,36.9824 0 0 1 36.982,-36.9823 z m 0,0.1142 a 36.8681,36.8681 0 0 0 -36.868,36.8681 36.8681,36.8681 0 0 0 36.868,36.8685 36.8681,36.8681 0 0 0 36.868,-36.8685 36.8681,36.8681 0 0 0 -36.868,-36.8681 z m 0,5.3982 a 31.4706,31.4706 0 0 1 31.47,31.4704 31.4706,31.4706 0 0 1 -31.47,31.4704 31.4706,31.4706 0 0 1 -31.47,-31.4704 31.4706,31.4706 0 0 1 31.47,-31.4704 z" />
    <path
       id="path1685-5-92-6-8-6-2-7-4-8"
       style="fill:#ffe2b4;fill-opacity:0.0509804;stroke-width:0.999998;stroke-linecap:round;stroke-linejoin:round;paint-order:markers stroke fill"
       d="m 10742.559,-4718.6511 a 31.4071,31.4071 0 0 0 -31.28,31.4069 31.4071,31.4071 0 0 0 31.407,31.4074 31.4071,31.4071 0 0 0 31.407,-31.4074 31.4071,31.4071 0 0 0 -31.407,-31.4069 31.4071,31.4071 0 0 0 -0.127,0 z m 0.127,3.2133 a 28.194,28.194 0 0 1 28.194,28.1936 28.194,28.194 0 0 1 -28.194,28.1941 28.194,28.194 0 0 1 -28.194,-28.1941 28.194,28.194 0 0 1 28.194,-28.1936 z" />
  </g>
</svg>
