<?xml version="1.0" encoding="UTF-8" standalone="no"?>
<svg
   xmlns:dc="http://purl.org/dc/elements/1.1/"
   xmlns:cc="http://creativecommons.org/ns#"
   xmlns:rdf="http://www.w3.org/1999/02/22-rdf-syntax-ns#"
   xmlns:svg="http://www.w3.org/2000/svg"
   xmlns="http://www.w3.org/2000/svg"
   xmlns:sodipodi="http://sodipodi.sourceforge.net/DTD/sodipodi-0.dtd"
   xmlns:inkscape="http://www.inkscape.org/namespaces/inkscape"
   width="139.7mm"
   height="139.7mm"
   viewBox="0 0 139.7 139.70002"
   version="1.1"
   id="svg14134"
   inkscape:version="1.0.2-2 (e86c870879, 2021-01-15)"
   sodipodi:docname="scalesaturn.svg">
  <defs
     id="defs14128" />
  <sodipodi:namedview
     id="base"
     pagecolor="#ffffff"
     bordercolor="#666666"
     borderopacity="1.0"
     inkscape:pageopacity="0.0"
     inkscape:pageshadow="2"
     inkscape:zoom="0.0875"
     inkscape:cx="1911.7944"
     inkscape:cy="248.1533"
     inkscape:document-units="mm"
     inkscape:current-layer="layer1"
     inkscape:document-rotation="0"
     showgrid="false"
     inkscape:snap-object-midpoints="true" />
  <metadata
     id="metadata14131">
    <rdf:RDF>
      <cc:Work
         rdf:about="">
        <dc:format>image/svg+xml</dc:format>
        <dc:type
           rdf:resource="http://purl.org/dc/dcmitype/StillImage" />
        <dc:title />
      </cc:Work>
    </rdf:RDF>
  </metadata>
  <g
     inkscape:label="Layer 1"
     inkscape:groupmode="layer"
     id="layer1"
     transform="translate(-10713.945,4849.1343)">
    <rect
       style="fill:#000000;fill-opacity:1;stroke:none;stroke-width:1;stroke-linecap:round;stroke-linejoin:round;paint-order:markers stroke fill"
       id="rect1890-1-0"
       width="148.96474"
       height="135.12648"
       x="10080.081"
       y="-4847.4033"
       rx="3.6343105e-15" />
    <rect
       style="fill:#000000;fill-opacity:1;stroke:none;stroke-width:1;stroke-linecap:round;stroke-linejoin:round;paint-order:markers stroke fill"
       id="rect1890-1"
       width="148.96474"
       height="135.12648"
       x="9739.0439"
       y="-4703.0771"
       rx="3.6343105e-15" />
    <rect
       style="fill:#000000;fill-opacity:1;stroke:none;stroke-width:1;stroke-linecap:round;stroke-linejoin:round;paint-order:markers stroke fill"
       id="rect1890"
       width="86.462051"
       height="78.430054"
       x="7658.0776"
       y="-5095.1313"
       rx="2.109425e-15" />
    <path
       id="path1713-9"
       style="fill:#efd7b2;fill-opacity:1;stroke-width:1;stroke-linecap:round;stroke-linejoin:round;paint-order:markers stroke fill"
       d="m 7701.3088,-5080.6814 a 24.764999,24.764999 0 0 0 -24.7654,24.7649 24.764999,24.764999 0 0 0 24.7654,24.7649 24.764999,24.764999 0 0 0 24.7649,-24.7649 24.764999,24.764999 0 0 0 -24.7649,-24.7649 z m 0,5.3847 a 19.380201,19.380201 0 0 1 19.3802,19.3802 19.380201,19.380201 0 0 1 -19.3802,19.3802 19.380201,19.380201 0 0 1 -19.3802,-19.3802 19.380201,19.380201 0 0 1 19.3802,-19.3802 z" />
    <path
       id="path1685-6"
       style="fill:#c8b18b;fill-opacity:1;stroke-width:0.999998;stroke-linecap:round;stroke-linejoin:round;paint-order:markers stroke fill"
       d="m 7881.2255,-5133.5044 a 28.829,28.829 0 0 0 -28.8292,28.8288 28.829,28.829 0 0 0 28.8292,28.8292 28.829,28.829 0 0 0 28.8287,-28.8292 28.829,28.829 0 0 0 -28.8287,-28.8288 z m -0.086,3.0479 a 25.781,25.781 0 0 1 0.086,0 25.781,25.781 0 0 1 25.7809,25.7809 25.781,25.781 0 0 1 -25.7809,25.7808 25.781,25.781 0 0 1 -25.7809,-25.7808 25.781,25.781 0 0 1 25.6946,-25.7809 z" />
    <circle
       style="fill:#f4d284;fill-opacity:1;stroke-width:0.999997;stroke-linecap:round;stroke-linejoin:round;paint-order:markers stroke fill"
       id="path1685"
       cx="7701.3086"
       cy="-5055.9165"
       r="12.7" />
    <path
       id="path1713-3"
       style="fill:#a99066;fill-opacity:1;stroke-width:1;stroke-linecap:round;stroke-linejoin:round;paint-order:markers stroke fill"
       d="m 7781.2222,-5104.9634 a 19.380201,19.380201 0 0 0 -19.3802,19.3797 19.380201,19.380201 0 0 0 19.3802,19.3803 19.380201,19.380201 0 0 0 19.3802,-19.3803 19.380201,19.380201 0 0 0 -19.3802,-19.3797 z m -0.01,3.6448 a 15.7353,15.7353 0 0 1 0.01,0 15.7353,15.7353 0 0 1 15.7355,15.7349 15.7353,15.7353 0 0 1 -15.7355,15.7355 15.7353,15.7353 0 0 1 -15.7354,-15.7355 15.7353,15.7353 0 0 1 15.7256,-15.7349 z" />
    <circle
       style="fill:#0000ff;stroke-width:1;stroke-linecap:round;stroke-linejoin:round;paint-order:markers stroke fill"
       id="path1713-9-4"
       cx="7835.0723"
       cy="-4976.1411"
       r="24.764999" />
    <circle
       style="fill:#008000;stroke-width:1;stroke-linecap:round;stroke-linejoin:round;paint-order:markers stroke fill"
       id="path1713-2"
       cx="7835.0723"
       cy="-4976.1411"
       r="19.380201" />
    <circle
       style="fill:#008000;stroke-width:1;stroke-linecap:round;stroke-linejoin:round;paint-order:markers stroke fill"
       id="path1713-3-2"
       cx="7916.5894"
       cy="-4977.4775"
       r="19.380201" />
    <circle
       style="fill:#800080;stroke-width:1;stroke-linecap:round;stroke-linejoin:round;paint-order:markers stroke fill"
       id="path1713-3-3-7"
       cx="7916.5894"
       cy="-4977.4775"
       r="15.7353" />
    <path
       id="path1713-3-3-7-9"
       style="fill:#c8b18b;fill-opacity:1;stroke-width:1;stroke-linecap:round;stroke-linejoin:round;paint-order:markers stroke fill"
       d="m 7701.2988,-5071.6515 a 15.6972,15.6972 0 0 0 -15.6973,15.6973 15.6972,15.6972 0 0 0 15.6973,15.6972 15.6972,15.6972 0 0 0 15.6972,-15.6972 15.6972,15.6972 0 0 0 -15.6972,-15.6973 z m -0.057,1.6004 a 14.097,14.097 0 0 1 0.057,0 14.097,14.097 0 0 1 14.0968,14.0969 14.097,14.097 0 0 1 -14.0968,14.0968 14.097,14.097 0 0 1 -14.0974,-14.0968 14.097,14.097 0 0 1 14.04,-14.0969 z" />
    <circle
       style="fill:#800080;stroke-width:1;stroke-linecap:round;stroke-linejoin:round;paint-order:markers stroke fill"
       id="path1713-3-3-7-9-2"
       cx="7982.7793"
       cy="-4979.9761"
       r="15.6972" />
    <circle
       style="fill:#800000;stroke-width:1;stroke-linecap:round;stroke-linejoin:round;paint-order:markers stroke fill"
       id="path1713-3-3-7-2-5"
       cx="7982.7793"
       cy="-4979.9761"
       r="14.097" />
    <circle
       style="fill:none;stroke:#000000;stroke-width:0.4318;stroke-linecap:round;stroke-linejoin:round;stroke-miterlimit:4;stroke-dasharray:none;paint-order:markers stroke fill"
       id="path1713-3-3-7-2-5-7"
       cx="8051.686"
       cy="-4977.6196"
       r="29.464001" />
    <circle
       style="fill:none;stroke:#000000;stroke-width:0.4318;stroke-linecap:round;stroke-linejoin:round;stroke-miterlimit:4;stroke-dasharray:none;paint-order:markers stroke fill"
       id="path1713-3-3-7-2-5-7-7-6"
       cx="7834.4087"
       cy="-5042.0879"
       r="28.549601" />
    <path
       id="path1685-6-2"
       style="fill:#c8b18b;fill-opacity:1;stroke-width:0.999998;stroke-linecap:round;stroke-linejoin:round;paint-order:markers stroke fill"
       d="m 7701.3088,-5084.7454 a 28.829,28.829 0 0 0 -28.8293,28.8288 28.829,28.829 0 0 0 28.8293,28.8292 28.829,28.829 0 0 0 28.8287,-28.8292 28.829,28.829 0 0 0 -28.8287,-28.8288 z m -6e-4,0.6476 c 15.5633,0 28.1818,12.6184 28.1818,28.1817 0,15.5634 -12.6185,28.1817 -28.1818,28.1817 -15.5634,0 -28.1817,-12.6183 -28.1817,-28.1817 0,-15.5633 12.6183,-28.1817 28.1817,-28.1817 z m 0,0.127 c -15.4947,0 -28.0546,12.56 -28.0546,28.0547 0,15.4947 12.5599,28.0546 28.0546,28.0546 15.4947,0 28.0547,-12.5599 28.0547,-28.0546 0,-15.4947 -12.56,-28.0547 -28.0547,-28.0547 z m -0.086,2.2732 a 25.781,25.781 0 0 1 0.086,0 25.781,25.781 0 0 1 25.7808,25.7809 25.781,25.781 0 0 1 -25.7808,25.7808 25.781,25.781 0 0 1 -25.7809,-25.7808 25.781,25.781 0 0 1 25.6946,-25.7809 z" />
    <path
       id="path1713-9-9"
       style="fill:#efd7b2;fill-opacity:1;stroke-width:1;stroke-linecap:round;stroke-linejoin:round;paint-order:markers stroke fill"
       d="m 7753.4135,-5192.1459 a 24.764999,24.764999 0 0 0 -24.7654,24.7649 24.764999,24.764999 0 0 0 24.7654,24.7649 24.764999,24.764999 0 0 0 24.7649,-24.7649 24.764999,24.764999 0 0 0 -24.7649,-24.7649 z m 0,5.3847 a 19.380201,19.380201 0 0 1 19.3802,19.3802 19.380201,19.380201 0 0 1 -19.3802,19.3802 19.380201,19.380201 0 0 1 -19.3802,-19.3802 19.380201,19.380201 0 0 1 19.3802,-19.3802 z" />
    <circle
       style="fill:#f4d284;fill-opacity:1;stroke-width:0.999997;stroke-linecap:round;stroke-linejoin:round;paint-order:markers stroke fill"
       id="path1685-3"
       cx="7753.4131"
       cy="-5167.3809"
       r="12.7" />
    <path
       id="path1713-3-9"
       style="fill:#a99066;fill-opacity:1;stroke-width:1;stroke-linecap:round;stroke-linejoin:round;paint-order:markers stroke fill"
       d="m 7753.4133,-5186.761 a 19.380201,19.380201 0 0 0 -19.3802,19.3797 19.380201,19.380201 0 0 0 19.3802,19.3803 19.380201,19.380201 0 0 0 19.3802,-19.3803 19.380201,19.380201 0 0 0 -19.3802,-19.3797 z m -0.01,3.6448 a 15.7353,15.7353 0 0 1 0.01,0 15.7353,15.7353 0 0 1 15.7355,15.7349 15.7353,15.7353 0 0 1 -15.7355,15.7355 15.7353,15.7353 0 0 1 -15.7354,-15.7355 15.7353,15.7353 0 0 1 15.7256,-15.7349 z" />
    <path
       id="path1713-3-3-7-9-8"
       style="fill:#c8b18b;fill-opacity:1;stroke-width:1;stroke-linecap:round;stroke-linejoin:round;paint-order:markers stroke fill"
       d="m 7753.4133,-5183.0782 a 15.6972,15.6972 0 0 0 -15.6973,15.6973 15.6972,15.6972 0 0 0 15.6973,15.6972 15.6972,15.6972 0 0 0 15.6972,-15.6972 15.6972,15.6972 0 0 0 -15.6972,-15.6973 z m -0.057,1.6004 a 14.097,14.097 0 0 1 0.057,0 14.097,14.097 0 0 1 14.0968,14.0969 14.097,14.097 0 0 1 -14.0968,14.0968 14.097,14.097 0 0 1 -14.0974,-14.0968 14.097,14.097 0 0 1 14.04,-14.0969 z" />
    <path
       id="path1685-6-2-8"
       style="fill:#c8b18b;fill-opacity:1;stroke-width:0.999998;stroke-linecap:round;stroke-linejoin:round;paint-order:markers stroke fill"
       d="m 7753.4135,-5196.2099 a 28.829,28.829 0 0 0 -28.8293,28.8288 28.829,28.829 0 0 0 28.8293,28.8292 28.829,28.829 0 0 0 28.8287,-28.8292 28.829,28.829 0 0 0 -28.8287,-28.8288 z m -6e-4,0.6476 c 15.5633,0 28.1818,12.6184 28.1818,28.1817 0,15.5634 -12.6185,28.1817 -28.1818,28.1817 -15.5634,0 -28.1817,-12.6183 -28.1817,-28.1817 0,-15.5633 12.6183,-28.1817 28.1817,-28.1817 z m 0,0.127 c -15.4947,0 -28.0546,12.56 -28.0546,28.0547 0,15.4947 12.5599,28.0546 28.0546,28.0546 15.4947,0 28.0547,-12.5599 28.0547,-28.0546 0,-15.4947 -12.56,-28.0547 -28.0547,-28.0547 z m -0.086,2.2732 a 25.781,25.781 0 0 1 0.086,0 25.781,25.781 0 0 1 25.7808,25.7809 25.781,25.781 0 0 1 -25.7808,25.7808 25.781,25.781 0 0 1 -25.7809,-25.7808 25.781,25.781 0 0 1 25.6946,-25.7809 z" />
    <path
       id="path1713-3-1"
       style="fill:#a99066;fill-opacity:1;stroke-width:1;stroke-linecap:round;stroke-linejoin:round;paint-order:markers stroke fill"
       d="m 7701.3086,-5075.2962 a 19.380201,19.380201 0 0 0 -19.3802,19.3797 19.380201,19.380201 0 0 0 19.3802,19.3802 19.380201,19.380201 0 0 0 19.3802,-19.3802 19.380201,19.380201 0 0 0 -19.3802,-19.3797 z m 0,0.8883 c 10.2118,0 18.4904,8.2806 18.4904,18.4924 0,10.2118 -8.2786,18.4904 -18.4904,18.4904 -10.2118,0 -18.4898,-8.2786 -18.4898,-18.4904 0,-10.2118 8.278,-18.4924 18.4898,-18.4924 z m 0,0.1018 c -10.1569,0 -18.3885,8.2337 -18.3885,18.3906 0,10.1569 8.2316,18.3886 18.3885,18.3886 10.1569,0 18.3891,-8.2317 18.3891,-18.3886 0,-10.1569 -8.2322,-18.3906 -18.3891,-18.3906 z m -0.01,2.6546 a 15.7353,15.7353 0 0 1 0.01,0 15.7353,15.7353 0 0 1 15.7355,15.735 15.7353,15.7353 0 0 1 -15.7355,15.7355 15.7353,15.7353 0 0 1 -15.7355,-15.7355 15.7353,15.7353 0 0 1 15.7257,-15.735 z" />
    <path
       id="path1713-3-8"
       style="fill:#a99066;fill-opacity:1;stroke-width:1;stroke-linecap:round;stroke-linejoin:round;paint-order:markers stroke fill"
       d="m 7824.7741,-5151.4813 a 19.380201,19.380201 0 0 0 -19.3802,19.3797 19.380201,19.380201 0 0 0 19.3802,19.3803 19.380201,19.380201 0 0 0 19.3802,-19.3803 19.380201,19.380201 0 0 0 -19.3802,-19.3797 z m -0.01,3.6448 a 15.7353,15.7353 0 0 1 0.01,0 15.7353,15.7353 0 0 1 15.7355,15.7349 15.7353,15.7353 0 0 1 -15.7355,15.7355 15.7353,15.7353 0 0 1 -15.7354,-15.7355 15.7353,15.7353 0 0 1 15.7256,-15.7349 z" />
    <circle
       style="fill:#f4d284;fill-opacity:1;stroke-width:0.999998;stroke-linecap:round;stroke-linejoin:round;paint-order:markers stroke fill"
       id="path1685-5"
       cx="7739.1348"
       cy="-4839.6851"
       r="25.4" />
    <circle
       style="fill:#f4d284;fill-opacity:1;stroke-width:0.999998;stroke-linecap:round;stroke-linejoin:round;paint-order:markers stroke fill"
       id="path1685-5-1"
       cx="7848.2246"
       cy="-4840.5864"
       r="51.562" />
    <circle
       style="fill:#f4d284;fill-opacity:1;stroke-width:0.999998;stroke-linecap:round;stroke-linejoin:round;paint-order:markers stroke fill"
       id="path1685-5-5"
       cx="7966.5674"
       cy="-4836.3921"
       r="57.645298" />
    <circle
       style="fill:#f4d284;fill-opacity:1;stroke-width:0.999998;stroke-linecap:round;stroke-linejoin:round;paint-order:markers stroke fill"
       id="path1685-5-58"
       cx="7844.1172"
       cy="-4740.373"
       r="38.760399" />
    <circle
       style="fill:#f4d284;fill-opacity:1;stroke-width:0.999998;stroke-linecap:round;stroke-linejoin:round;paint-order:markers stroke fill"
       id="path1685-5-8"
       cx="7962.9746"
       cy="-4732.2612"
       r="49.5173" />
    <circle
       style="fill:#f4d284;fill-opacity:1;stroke-width:0.999998;stroke-linecap:round;stroke-linejoin:round;paint-order:markers stroke fill"
       id="path1685-5-4"
       cx="7848.166"
       cy="-4638.0493"
       r="31.4706" />
    <circle
       style="fill:#f4d284;fill-opacity:1;stroke-width:0.999998;stroke-linecap:round;stroke-linejoin:round;paint-order:markers stroke fill"
       id="path1685-5-9"
       cx="7965.8252"
       cy="-4636.8081"
       r="38.760399" />
    <circle
       style="fill:#f4d284;fill-opacity:1;stroke-width:0.999998;stroke-linecap:round;stroke-linejoin:round;paint-order:markers stroke fill"
       id="path1685-5-83"
       cx="7847.9136"
       cy="-4528.311"
       r="28.194" />
    <circle
       style="fill:#f4d284;fill-opacity:1;stroke-width:0.999998;stroke-linecap:round;stroke-linejoin:round;paint-order:markers stroke fill"
       id="path1685-5-92"
       cx="7959.6055"
       cy="-4540.5947"
       r="31.407099" />
    <circle
       style="fill:#000000;fill-opacity:1;stroke-width:0.999998;stroke-linecap:round;stroke-linejoin:round;paint-order:markers stroke fill"
       id="path1685-5-11"
       cx="7868.3047"
       cy="-4407.0005"
       r="36.868099" />
    <circle
       style="fill:#000000;fill-opacity:1;stroke-width:0.999998;stroke-linecap:round;stroke-linejoin:round;paint-order:markers stroke fill"
       id="path1685-5-95"
       cx="7982.9463"
       cy="-4408.02"
       r="36.982399" />
    <circle
       style="fill:#000000;fill-opacity:1;stroke-width:0.999997;stroke-linecap:round;stroke-linejoin:round;paint-order:markers stroke fill"
       id="path1685-5-11-4"
       cx="7874.0776"
       cy="-4284.6758"
       r="56.2229" />
    <circle
       style="fill:#000000;fill-opacity:1;stroke-width:0.999999;stroke-linecap:round;stroke-linejoin:round;paint-order:markers stroke fill"
       id="path1685-5-95-3"
       cx="7999.3281"
       cy="-4275.8428"
       r="56.362598" />
    <circle
       style="fill:#f4d284;fill-opacity:1;stroke-width:0.999998;stroke-linecap:round;stroke-linejoin:round;paint-order:markers stroke fill"
       id="path1685-5-0"
       cx="8513.3252"
       cy="-4806.0942"
       r="25.4" />
    <circle
       style="fill:#f4d284;fill-opacity:1;stroke-width:0.999998;stroke-linecap:round;stroke-linejoin:round;paint-order:markers stroke fill"
       id="path1685-5-5-4"
       cx="8740.7578"
       cy="-4802.8013"
       r="57.645298" />
    <circle
       style="fill:#f4d284;fill-opacity:1;stroke-width:0.999998;stroke-linecap:round;stroke-linejoin:round;paint-order:markers stroke fill"
       id="path1685-5-8-9"
       cx="8740.7578"
       cy="-4685.9673"
       r="49.5173" />
    <circle
       style="fill:#f4d284;fill-opacity:1;stroke-width:0.999998;stroke-linecap:round;stroke-linejoin:round;paint-order:markers stroke fill"
       id="path1685-5-9-7"
       cx="8740.7578"
       cy="-4590.5142"
       r="38.760399" />
    <circle
       style="fill:#f4d284;fill-opacity:1;stroke-width:0.999998;stroke-linecap:round;stroke-linejoin:round;paint-order:markers stroke fill"
       id="path1685-5-92-6"
       cx="8740.7578"
       cy="-4507.0039"
       r="31.407099" />
    <circle
       style="fill:#000000;fill-opacity:1;stroke-width:0.999998;stroke-linecap:round;stroke-linejoin:round;paint-order:markers stroke fill"
       id="path1685-5-95-0"
       cx="8740.7578"
       cy="-4381.9624"
       r="36.982399" />
    <circle
       style="fill:#000000;fill-opacity:1;stroke-width:0.999999;stroke-linecap:round;stroke-linejoin:round;paint-order:markers stroke fill"
       id="path1685-5-95-3-4"
       cx="8740.7578"
       cy="-4248.2998"
       r="56.362598" />
    <circle
       style="fill:#ff0000;fill-opacity:1;stroke-width:0.999998;stroke-linecap:round;stroke-linejoin:round;paint-order:markers stroke fill"
       id="path1685-5-1-6"
       cx="8740.7578"
       cy="-4802.8013"
       r="51.562" />
    <circle
       style="fill:#ff0000;fill-opacity:1;stroke-width:0.999998;stroke-linecap:round;stroke-linejoin:round;paint-order:markers stroke fill"
       id="path1685-5-58-3"
       cx="8740.7578"
       cy="-4685.9673"
       r="38.760399" />
    <circle
       style="fill:#ff0000;fill-opacity:1;stroke-width:0.999998;stroke-linecap:round;stroke-linejoin:round;paint-order:markers stroke fill"
       id="path1685-5-4-6"
       cx="8740.7578"
       cy="-4590.5142"
       r="31.4706" />
    <circle
       style="fill:#ff0000;fill-opacity:1;stroke-width:0.999998;stroke-linecap:round;stroke-linejoin:round;paint-order:markers stroke fill"
       id="path1685-5-83-7"
       cx="8740.7578"
       cy="-4507.0039"
       r="28.194" />
    <circle
       style="fill:#ff0000;fill-opacity:1;stroke-width:0.999998;stroke-linecap:round;stroke-linejoin:round;paint-order:markers stroke fill"
       id="path1685-5-11-0"
       cx="8740.7578"
       cy="-4381.9624"
       r="36.868099" />
    <circle
       style="fill:#ff0000;fill-opacity:1;stroke-width:0.999997;stroke-linecap:round;stroke-linejoin:round;paint-order:markers stroke fill"
       id="path1685-5-11-4-4"
       cx="8740.7578"
       cy="-4248.2998"
       r="56.2229" />
    <circle
       style="fill:#f4d284;fill-opacity:1;stroke-width:0.999998;stroke-linecap:round;stroke-linejoin:round;paint-order:markers stroke fill"
       id="path1685-5-0-7"
       cx="9157.167"
       cy="-4805.3018"
       r="25.4" />
    <path
       id="path1685-5-5-4-5"
       style="fill:#efd7b2;fill-opacity:1;stroke-width:3.77952;stroke-linecap:round;stroke-linejoin:round;paint-order:markers stroke fill"
       d="m 6474.2207,853.95508 a 217.87199,217.87199 0 0 0 -217.8711,217.87302 217.87199,217.87199 0 0 0 217.8711,217.8711 217.87199,217.87199 0 0 0 217.8711,-217.8711 217.87199,217.87199 0 0 0 -217.8711,-217.87302 z m 0,22.99219 a 194.88,194.88 0 0 1 194.8809,194.88083 194.88,194.88 0 0 1 -194.8809,194.8789 194.88,194.88 0 0 1 -194.8809,-194.8789 194.88,194.88 0 0 1 194.8809,-194.88083 z"
       transform="matrix(0.26458333,0,0,0.26458333,7671.6287,-5085.5964)" />
    <path
       id="path1685-5-8-9-5"
       style="fill:#efd7b2;fill-opacity:1;stroke-width:3.77952;stroke-linecap:round;stroke-linejoin:round;paint-order:markers stroke fill"
       d="m 6474.2207,1326.252 a 187.152,187.152 0 0 0 -187.1523,187.1523 187.152,187.152 0 0 0 187.1523,187.1523 187.152,187.152 0 0 0 187.1523,-187.1523 187.152,187.152 0 0 0 -187.1523,-187.1523 z m -0.096,40.6562 a 146.496,146.496 0 0 1 0.096,0 146.496,146.496 0 0 1 146.4961,146.4961 146.496,146.496 0 0 1 -146.4961,146.4961 146.496,146.496 0 0 1 -146.4961,-146.4961 146.496,146.496 0 0 1 146.4004,-146.4961 z"
       transform="matrix(0.26458333,0,0,0.26458333,7671.6287,-5085.5964)" />
    <path
       id="path1685-5-9-7-2"
       style="fill:#efd7b2;fill-opacity:1;stroke-width:3.77952;stroke-linecap:round;stroke-linejoin:round;paint-order:markers stroke fill"
       d="m 6474.125,1727.6758 a 146.496,146.496 0 0 0 -146.4004,146.4961 146.496,146.496 0 0 0 146.4961,146.4961 146.496,146.496 0 0 0 146.4961,-146.4961 146.496,146.496 0 0 0 -146.4961,-146.4961 146.496,146.496 0 0 0 -0.096,0 z m 0.096,27.5527 a 118.944,118.944 0 0 1 118.9434,118.9434 118.944,118.944 0 0 1 -118.9434,118.9433 118.944,118.944 0 0 1 -118.9434,-118.9433 118.944,118.944 0 0 1 118.9434,-118.9434 z"
       transform="matrix(0.26458333,0,0,0.26458333,7671.6287,-5085.5964)" />
    <path
       id="path1685-5-92-6-8"
       style="fill:#efd7b2;fill-opacity:1;stroke-width:3.77952;stroke-linecap:round;stroke-linejoin:round;paint-order:markers stroke fill"
       d="m 6473.7422,2071.0977 a 118.704,118.704 0 0 0 -118.2246,118.7031 118.704,118.704 0 0 0 118.7031,118.7051 118.704,118.704 0 0 0 118.7031,-118.7051 118.704,118.704 0 0 0 -118.7031,-118.7031 118.704,118.704 0 0 0 -0.4785,0 z m 0.4785,12.1445 a 106.56,106.56 0 0 1 106.5605,106.5586 106.56,106.56 0 0 1 -106.5605,106.5605 106.56,106.56 0 0 1 -106.5605,-106.5605 106.56,106.56 0 0 1 106.5605,-106.5586 z"
       transform="matrix(0.26458333,0,0,0.26458333,7671.6287,-5085.5964)" />
    <path
       id="path1685-5-95-0-4"
       style="fill:#000000;fill-opacity:1;stroke-width:3.77952;stroke-linecap:round;stroke-linejoin:round;paint-order:markers stroke fill"
       d="m 6474.2207,2522.623 a 139.776,139.776 0 0 0 -139.7754,139.7754 139.776,139.776 0 0 0 139.7754,139.7774 139.776,139.776 0 0 0 139.7754,-139.7774 139.776,139.776 0 0 0 -139.7754,-139.7754 z m 0,0.4317 a 139.344,139.344 0 0 1 139.3438,139.3437 139.344,139.344 0 0 1 -139.3438,139.3457 139.344,139.344 0 0 1 -139.3437,-139.3457 139.344,139.344 0 0 1 139.3437,-139.3437 z"
       transform="matrix(0.26458333,0,0,0.26458333,7671.6287,-5085.5964)" />
    <path
       id="path1685-5-95-3-4-5"
       style="fill:#000000;fill-opacity:1;stroke-width:3.77952;stroke-linecap:round;stroke-linejoin:round;paint-order:markers stroke fill"
       d="m 6474.2207,2954.5566 a 213.02399,213.02399 0 0 0 -213.0234,213.0235 213.02399,213.02399 0 0 0 213.0234,213.0254 213.02399,213.02399 0 0 0 213.0234,-213.0254 213.02399,213.02399 0 0 0 -213.0234,-213.0235 z m 0,0.5274 a 212.496,212.496 0 0 1 212.4961,212.4961 212.496,212.496 0 0 1 -212.4961,212.4961 212.496,212.496 0 0 1 -212.4961,-212.4961 212.496,212.496 0 0 1 212.4961,-212.4961 z"
       transform="matrix(0.26458333,0,0,0.26458333,7671.6287,-5085.5964)" />
    <circle
       style="fill:#f4d284;fill-opacity:1;stroke-width:0.999998;stroke-linecap:round;stroke-linejoin:round;paint-order:markers stroke fill"
       id="path1685-5-0-7-1-1"
       cx="9816.7334"
       cy="-4787.8579"
       r="25.4" />
    <path
       id="path1685-5-5-4-5-8-7"
       style="fill:#efd7b2;fill-opacity:1;stroke-width:0.999998;stroke-linecap:round;stroke-linejoin:round;paint-order:markers stroke fill"
       d="m 9816.7339,-4845.5034 a 57.645297,57.645297 0 0 0 -57.645,57.6455 57.645297,57.645297 0 0 0 57.645,57.6451 57.645297,57.645297 0 0 0 57.645,-57.6451 57.645297,57.645297 0 0 0 -57.645,-57.6455 z m 0,6.0833 a 51.561999,51.561999 0 0 1 51.562,51.5622 51.561999,51.561999 0 0 1 -51.562,51.5618 51.561999,51.561999 0 0 1 -51.562,-51.5618 51.561999,51.561999 0 0 1 51.562,-51.5622 z" />
    <path
       id="path1685-5-8-9-5-7-7"
       style="fill:#efd7b2;fill-opacity:1;stroke-width:0.999998;stroke-linecap:round;stroke-linejoin:round;paint-order:markers stroke fill"
       d="m 9816.7339,-4837.3755 a 49.517299,49.517299 0 0 0 -49.517,49.5174 49.517299,49.517299 0 0 0 49.517,49.5173 49.517299,49.517299 0 0 0 49.517,-49.5173 49.517299,49.517299 0 0 0 -49.517,-49.5174 z m -0.02,10.757 a 38.7604,38.7604 0 0 1 0.02,0 38.7604,38.7604 0 0 1 38.76,38.7604 38.7604,38.7604 0 0 1 -38.76,38.7605 38.7604,38.7604 0 0 1 -38.76,-38.7605 38.7604,38.7604 0 0 1 38.735,-38.7604 z" />
    <path
       id="path1685-5-9-7-2-7-5"
       style="fill:#efd7b2;fill-opacity:1;stroke-width:0.999998;stroke-linecap:round;stroke-linejoin:round;paint-order:markers stroke fill"
       d="m 9816.7089,-4826.6185 a 38.7604,38.7604 0 0 0 -38.735,38.7604 38.7604,38.7604 0 0 0 38.76,38.7605 38.7604,38.7604 0 0 0 38.76,-38.7605 38.7604,38.7604 0 0 0 -38.76,-38.7604 38.7604,38.7604 0 0 0 -0.02,0 z m 0.02,7.29 a 31.4706,31.4706 0 0 1 31.47,31.4704 31.4706,31.4706 0 0 1 -31.47,31.4705 31.4706,31.4706 0 0 1 -31.47,-31.4705 31.4706,31.4706 0 0 1 31.47,-31.4704 z" />
    <path
       id="path1685-5-92-6-8-6-2"
       style="fill:#efd7b2;fill-opacity:1;stroke-width:0.999998;stroke-linecap:round;stroke-linejoin:round;paint-order:markers stroke fill"
       d="m 9816.6069,-4819.2652 a 31.4071,31.4071 0 0 0 -31.28,31.4069 31.4071,31.4071 0 0 0 31.407,31.4074 31.4071,31.4071 0 0 0 31.407,-31.4074 31.4071,31.4071 0 0 0 -31.407,-31.4069 31.4071,31.4071 0 0 0 -0.127,0 z m 0.127,3.2133 a 28.194,28.194 0 0 1 28.194,28.1936 28.194,28.194 0 0 1 -28.194,28.1941 28.194,28.194 0 0 1 -28.194,-28.1941 28.194,28.194 0 0 1 28.194,-28.1936 z" />
    <path
       id="path1685-5-95-0-4-1-4"
       style="fill:#000000;fill-opacity:1;stroke-width:0.999998;stroke-linecap:round;stroke-linejoin:round;paint-order:markers stroke fill"
       d="m 9816.7339,-4824.8406 a 36.9824,36.9824 0 0 0 -36.982,36.9822 36.9824,36.9824 0 0 0 36.982,36.9828 36.9824,36.9824 0 0 0 36.982,-36.9828 36.9824,36.9824 0 0 0 -36.982,-36.9822 z m 0,0.1142 a 36.8681,36.8681 0 0 1 36.868,36.868 36.8681,36.8681 0 0 1 -36.868,36.8686 36.8681,36.8681 0 0 1 -36.868,-36.8686 36.8681,36.8681 0 0 1 36.868,-36.868 z" />
    <path
       id="path1685-5-95-3-4-5-5-2"
       style="fill:#000000;fill-opacity:1;stroke-width:0.999998;stroke-linecap:round;stroke-linejoin:round;paint-order:markers stroke fill"
       d="m 9816.7339,-4844.2208 a 56.362597,56.362597 0 0 0 -56.362,56.3625 56.362597,56.362597 0 0 0 56.362,56.363 56.362597,56.362597 0 0 0 56.362,-56.363 56.362597,56.362597 0 0 0 -56.362,-56.3625 z m 0,0.1396 a 56.222899,56.222899 0 0 1 56.223,56.2229 56.222899,56.222899 0 0 1 -56.223,56.2229 56.222899,56.222899 0 0 1 -56.223,-56.2229 56.222899,56.222899 0 0 1 56.223,-56.2229 z" />
    <circle
       style="fill:#f4d284;fill-opacity:1;stroke-width:0.999998;stroke-linecap:round;stroke-linejoin:round;paint-order:markers stroke fill"
       id="path1685-5-0-7-1-1-8"
       cx="10154.562"
       cy="-4779.8398"
       r="25.4" />
    <path
       id="path1685-5-5-4-5-8-7-8"
       style="fill:#efd7b2;fill-opacity:0.69;stroke-width:0.999998;stroke-linecap:round;stroke-linejoin:round;paint-order:markers stroke fill"
       d="m 10154.563,-4837.4854 a 57.645297,57.645297 0 0 0 -57.645,57.6455 57.645297,57.645297 0 0 0 57.645,57.6451 57.645297,57.645297 0 0 0 57.645,-57.6451 57.645297,57.645297 0 0 0 -57.645,-57.6455 z m 0,6.0833 a 51.561999,51.561999 0 0 1 51.562,51.5622 51.561999,51.561999 0 0 1 -51.562,51.5618 51.561999,51.561999 0 0 1 -51.562,-51.5618 51.561999,51.561999 0 0 1 51.562,-51.5622 z" />
    <path
       id="path1685-5-8-9-5-7-7-5"
       style="fill:#efd7b2;fill-opacity:1;stroke-width:0.999998;stroke-linecap:round;stroke-linejoin:round;paint-order:markers stroke fill"
       d="m 10154.563,-4829.3575 a 49.517299,49.517299 0 0 0 -49.517,49.5174 49.517299,49.517299 0 0 0 49.517,49.5173 49.517299,49.517299 0 0 0 49.517,-49.5173 49.517299,49.517299 0 0 0 -49.517,-49.5174 z m -0.02,10.757 a 38.7604,38.7604 0 0 1 0.02,0 38.7604,38.7604 0 0 1 38.76,38.7604 38.7604,38.7604 0 0 1 -38.76,38.7605 38.7604,38.7604 0 0 1 -38.76,-38.7605 38.7604,38.7604 0 0 1 38.735,-38.7604 z" />
    <path
       id="path1685-5-9-7-2-7-5-2"
       style="fill:#efd7b2;fill-opacity:0.37;stroke-width:0.999998;stroke-linecap:round;stroke-linejoin:round;paint-order:markers stroke fill"
       d="m 10154.538,-4818.6005 a 38.7604,38.7604 0 0 0 -38.735,38.7604 38.7604,38.7604 0 0 0 38.76,38.7605 38.7604,38.7604 0 0 0 38.76,-38.7605 38.7604,38.7604 0 0 0 -38.76,-38.7604 38.7604,38.7604 0 0 0 -0.02,0 z m 0.02,7.29 a 31.4706,31.4706 0 0 1 31.47,31.4704 31.4706,31.4706 0 0 1 -31.47,31.4705 31.4706,31.4706 0 0 1 -31.47,-31.4705 31.4706,31.4706 0 0 1 31.47,-31.4704 z" />
    <path
       id="path1685-5-92-6-8-6-2-7"
       style="fill:#efd7b2;fill-opacity:0.05;stroke-width:0.999998;stroke-linecap:round;stroke-linejoin:round;paint-order:markers stroke fill"
       d="m 10154.436,-4811.2472 a 31.4071,31.4071 0 0 0 -31.28,31.4069 31.4071,31.4071 0 0 0 31.407,31.4074 31.4071,31.4071 0 0 0 31.407,-31.4074 31.4071,31.4071 0 0 0 -31.407,-31.4069 31.4071,31.4071 0 0 0 -0.127,0 z m 0.127,3.2133 a 28.194,28.194 0 0 1 28.194,28.1936 28.194,28.194 0 0 1 -28.194,28.1941 28.194,28.194 0 0 1 -28.194,-28.1941 28.194,28.194 0 0 1 28.194,-28.1936 z" />
    <path
       id="path1685-5-95-0-4-1-4-9"
       style="fill:#000000;fill-opacity:1;stroke-width:0.999998;stroke-linecap:round;stroke-linejoin:round;paint-order:markers stroke fill"
       d="m 10154.563,-4816.8226 a 36.9824,36.9824 0 0 0 -36.982,36.9822 36.9824,36.9824 0 0 0 36.982,36.9828 36.9824,36.9824 0 0 0 36.982,-36.9828 36.9824,36.9824 0 0 0 -36.982,-36.9822 z m 0,0.1142 a 36.8681,36.8681 0 0 1 36.868,36.868 36.8681,36.8681 0 0 1 -36.868,36.8686 36.8681,36.8681 0 0 1 -36.868,-36.8686 36.8681,36.8681 0 0 1 36.868,-36.868 z" />
    <path
       id="path1685-5-95-3-4-5-5-2-8"
       style="fill:#000000;fill-opacity:1;stroke-width:0.999998;stroke-linecap:round;stroke-linejoin:round;paint-order:markers stroke fill"
       d="m 10154.563,-4836.2028 a 56.362597,56.362597 0 0 0 -56.362,56.3625 56.362597,56.362597 0 0 0 56.362,56.363 56.362597,56.362597 0 0 0 56.362,-56.363 56.362597,56.362597 0 0 0 -56.362,-56.3625 z m 0,0.1396 a 56.222899,56.222899 0 0 1 56.223,56.2229 56.222899,56.222899 0 0 1 -56.223,56.2229 56.222899,56.222899 0 0 1 -56.223,-56.2229 56.222899,56.222899 0 0 1 56.223,-56.2229 z" />
    <rect
       style="fill:#000000;fill-opacity:1;stroke:none;stroke-width:1;stroke-linecap:round;stroke-linejoin:round;paint-order:markers stroke fill"
       id="rect1890-1-0-8"
       width="148.96474"
       height="135.12648"
       x="10460.131"
       y="-4845.3281"
       rx="3.6343105e-15" />
    <circle
       style="fill:#f4d284;fill-opacity:1;stroke-width:0.999998;stroke-linecap:round;stroke-linejoin:round;paint-order:markers stroke fill"
       id="path1685-5-0-7-1-1-8-1"
       cx="10534.613"
       cy="-4777.7651"
       r="25.4" />
    <path
       id="path1685-5-5-4-5-8-7-8-8"
       style="fill:#efd7b2;fill-opacity:0.69;stroke-width:3.77952;stroke-linecap:round;stroke-linejoin:round;paint-order:markers stroke fill"
       d="M 1654.2832,7.8417969 A 217.87199,217.87199 0 0 0 1436.4141,225.71484 217.87199,217.87199 0 0 0 1654.2832,443.58594 217.87199,217.87199 0 0 0 1872.1543,225.71484 217.87199,217.87199 0 0 0 1654.2832,7.8417969 Z m 0,4.8476561 A 213.02399,213.02399 0 0 1 1867.3066,225.71289 213.02399,213.02399 0 0 1 1654.2832,438.73828 213.02399,213.02399 0 0 1 1441.2617,225.71289 213.02399,213.02399 0 0 1 1654.2832,12.689453 Z m -0.3711,0.527344 a 212.496,212.496 0 0 0 -212.125,212.496093 212.496,212.496 0 0 0 212.4961,212.49609 212.496,212.496 0 0 0 212.498,-212.49609 212.496,212.496 0 0 0 -212.498,-212.496093 212.496,212.496 0 0 0 -0.3711,0 z m 0.3711,17.617187 A 194.88,194.88 0 0 1 1849.1641,225.71484 194.88,194.88 0 0 1 1654.2832,420.59375 194.88,194.88 0 0 1 1459.4043,225.71484 194.88,194.88 0 0 1 1654.2832,30.833984 Z"
       transform="matrix(0.26458333,0,0,0.26458333,10096.918,-4837.4854)" />
    <path
       id="path1685-5-8-9-5-7-7-5-2"
       style="fill:#efd7b2;fill-opacity:1;stroke-width:0.999998;stroke-linecap:round;stroke-linejoin:round;paint-order:markers stroke fill"
       d="m 10534.614,-4827.2826 a 49.517299,49.517299 0 0 0 -49.517,49.5174 49.517299,49.517299 0 0 0 49.517,49.5173 49.517299,49.517299 0 0 0 49.517,-49.5173 49.517299,49.517299 0 0 0 -49.517,-49.5174 z m -0.02,10.757 a 38.7604,38.7604 0 0 1 0.02,0 38.7604,38.7604 0 0 1 38.76,38.7604 38.7604,38.7604 0 0 1 -38.76,38.7605 38.7604,38.7604 0 0 1 -38.76,-38.7605 38.7604,38.7604 0 0 1 38.735,-38.7604 z" />
    <path
       id="path1685-5-9-7-2-7-5-2-5"
       style="fill:#efd7b2;fill-opacity:0.37;stroke-width:3.77952;stroke-linecap:round;stroke-linejoin:round;paint-order:markers stroke fill"
       d="m 1654.1895,79.21875 a 146.496,146.496 0 0 0 -146.4004,146.49609 146.496,146.496 0 0 0 146.4941,146.4961 146.496,146.496 0 0 0 146.4961,-146.4961 146.496,146.496 0 0 0 -146.4961,-146.49609 146.496,146.496 0 0 0 -0.074,0 z m 0.094,6.71875 A 139.776,139.776 0 0 1 1794.0586,225.71289 139.776,139.776 0 0 1 1654.2832,365.49023 139.776,139.776 0 0 1 1514.5098,225.71289 139.776,139.776 0 0 1 1654.2832,85.9375 Z m 0,0.431641 A 139.344,139.344 0 0 0 1514.9414,225.71289 139.344,139.344 0 0 0 1654.2832,365.05859 139.344,139.344 0 0 0 1793.627,225.71289 139.344,139.344 0 0 0 1654.2832,86.369141 Z m -0.018,20.402339 A 118.944,118.944 0 0 1 1773.207,225.71484 118.944,118.944 0 0 1 1654.2656,344.6582 118.944,118.944 0 0 1 1535.3242,225.71484 118.944,118.944 0 0 1 1654.2656,106.77148 Z"
       transform="matrix(0.26458333,0,0,0.26458333,10096.918,-4837.4854)" />
    <path
       id="path1685-5-92-6-8-6-2-7-4"
       style="fill:#efd7b2;fill-opacity:0.05;stroke-width:0.999998;stroke-linecap:round;stroke-linejoin:round;paint-order:markers stroke fill"
       d="m 10534.487,-4809.1723 a 31.4071,31.4071 0 0 0 -31.28,31.4069 31.4071,31.4071 0 0 0 31.407,31.4074 31.4071,31.4071 0 0 0 31.407,-31.4074 31.4071,31.4071 0 0 0 -31.407,-31.4069 31.4071,31.4071 0 0 0 -0.127,0 z m 0.127,3.2133 a 28.194,28.194 0 0 1 28.194,28.1936 28.194,28.194 0 0 1 -28.194,28.1941 28.194,28.194 0 0 1 -28.194,-28.1941 28.194,28.194 0 0 1 28.194,-28.1936 z" />
    <rect
       style="fill:#000000;fill-opacity:1;stroke:none;stroke-width:1;stroke-linecap:round;stroke-linejoin:round;paint-order:markers stroke fill"
       id="rect1890-1-0-8-1"
       width="139.7"
       height="139.7"
       x="10713.945"
       y="-4849.1343"
       rx="3.408278e-15" />
    <circle
       style="fill:#f4d284;fill-opacity:1;stroke-width:0.999998;stroke-linecap:round;stroke-linejoin:round;paint-order:markers stroke fill"
       id="path1685-5-0-7-1-1-8-1-9"
       cx="10783.795"
       cy="-4779.2842"
       r="25.4" />
    <path
       id="path1685-5-5-4-5-8-7-8-8-1"
       style="fill:#ffe2b4;fill-opacity:0.411765;stroke-width:0.999998;stroke-linecap:round;stroke-linejoin:round;paint-order:markers stroke fill"
       d="m 10783.795,-4836.9297 a 57.645297,57.645297 0 0 0 -57.645,57.6456 57.645297,57.645297 0 0 0 57.645,57.645 57.645297,57.645297 0 0 0 57.645,-57.645 57.645297,57.645297 0 0 0 -57.645,-57.6456 z m 0,1.2826 a 56.362597,56.362597 0 0 1 56.362,56.3625 56.362597,56.362597 0 0 1 -56.362,56.3629 56.362597,56.362597 0 0 1 -56.362,-56.3629 56.362597,56.362597 0 0 1 56.362,-56.3625 z m -0.1,0.1395 a 56.222899,56.222899 0 0 0 -56.125,56.223 56.222899,56.222899 0 0 0 56.223,56.2229 56.222899,56.222899 0 0 0 56.223,-56.2229 56.222899,56.222899 0 0 0 -56.223,-56.223 56.222899,56.222899 0 0 0 -0.1,0 z m 0.1,4.6613 a 51.561999,51.561999 0 0 1 51.562,51.5622 51.561999,51.561999 0 0 1 -51.562,51.5617 51.561999,51.561999 0 0 1 -51.562,-51.5617 51.561999,51.561999 0 0 1 51.562,-51.5622 z" />
    <path
       id="path1685-5-8-9-5-7-7-5-2-4"
       style="fill:#ffe2b4;fill-opacity:0.6;stroke-width:0.999998;stroke-linecap:round;stroke-linejoin:round;paint-order:markers stroke fill"
       d="m 10783.795,-4828.8017 a 49.517299,49.517299 0 0 0 -49.517,49.5174 49.517299,49.517299 0 0 0 49.517,49.5173 49.517299,49.517299 0 0 0 49.517,-49.5173 49.517299,49.517299 0 0 0 -49.517,-49.5174 z m -0.02,10.757 a 38.7604,38.7604 0 0 1 0.02,0 38.7604,38.7604 0 0 1 38.76,38.7604 38.7604,38.7604 0 0 1 -38.76,38.7605 38.7604,38.7604 0 0 1 -38.76,-38.7605 38.7604,38.7604 0 0 1 38.735,-38.7604 z" />
    <path
       id="path1685-5-9-7-2-7-5-2-5-4"
       style="fill:#ffe2b4;fill-opacity:0.168627;stroke-width:0.999998;stroke-linecap:round;stroke-linejoin:round;paint-order:markers stroke fill"
       d="m 10783.77,-4818.0445 a 38.7604,38.7604 0 0 0 -38.735,38.7604 38.7604,38.7604 0 0 0 38.76,38.7604 38.7604,38.7604 0 0 0 38.76,-38.7604 38.7604,38.7604 0 0 0 -38.76,-38.7604 38.7604,38.7604 0 0 0 -0.02,0 z m 0.02,1.7776 a 36.9824,36.9824 0 0 1 36.982,36.9823 36.9824,36.9824 0 0 1 -36.982,36.9827 36.9824,36.9824 0 0 1 -36.982,-36.9827 36.9824,36.9824 0 0 1 36.982,-36.9823 z m 0,0.1142 a 36.8681,36.8681 0 0 0 -36.868,36.8681 36.8681,36.8681 0 0 0 36.868,36.8685 36.8681,36.8681 0 0 0 36.868,-36.8685 36.8681,36.8681 0 0 0 -36.868,-36.8681 z m 0,5.3982 a 31.4706,31.4706 0 0 1 31.47,31.4704 31.4706,31.4706 0 0 1 -31.47,31.4704 31.4706,31.4706 0 0 1 -31.47,-31.4704 31.4706,31.4706 0 0 1 31.47,-31.4704 z" />
    <path
       id="path1685-5-92-6-8-6-2-7-4-8"
       style="fill:#ffe2b4;fill-opacity:0.0509804;stroke-width:0.999998;stroke-linecap:round;stroke-linejoin:round;paint-order:markers stroke fill"
       d="m 10783.668,-4810.6914 a 31.4071,31.4071 0 0 0 -31.28,31.4069 31.4071,31.4071 0 0 0 31.407,31.4074 31.4071,31.4071 0 0 0 31.407,-31.4074 31.4071,31.4071 0 0 0 -31.407,-31.4069 31.4071,31.4071 0 0 0 -0.127,0 z m 0.127,3.2133 a 28.194,28.194 0 0 1 28.194,28.1936 28.194,28.194 0 0 1 -28.194,28.1941 28.194,28.194 0 0 1 -28.194,-28.1941 28.194,28.194 0 0 1 28.194,-28.1936 z" />
    <rect
       style="fill:#000000;fill-opacity:1;stroke:none;stroke-width:1;stroke-linecap:round;stroke-linejoin:round;paint-order:markers stroke fill"
       id="rect1890-1-0-8-1-0"
       width="139.7"
       height="139.7"
       x="10951.456"
       y="-4845.7524"
       rx="3.408278e-15" />
    <circle
       style="fill:#f4d284;fill-opacity:1;stroke-width:0.999998;stroke-linecap:round;stroke-linejoin:round;paint-order:markers stroke fill"
       id="path1685-5-0-7-1-1-8-1-9-5"
       cx="11021.305"
       cy="-4775.9023"
       r="25.4" />
    <path
       id="path1685-5-5-4-5-8-7-8-8-1-9"
       style="fill:#695d4a;fill-opacity:1;stroke-width:0.999995;stroke-linecap:round;stroke-linejoin:round;paint-order:markers stroke fill"
       d="m 11021.305,-4798.2072 a 57.645297,22.304525 0 0 0 -57.645,22.3047 57.645297,22.304525 0 0 0 57.645,22.3044 57.645297,22.304525 0 0 0 57.645,-22.3044 57.645297,22.304525 0 0 0 -57.645,-22.3047 z m 0,0.4963 a 56.362597,21.808213 0 0 1 56.362,21.8082 56.362597,21.808213 0 0 1 -56.362,21.8083 56.362597,21.808213 0 0 1 -56.362,-21.8083 56.362597,21.808213 0 0 1 56.362,-21.8082 z m -0.1,0.054 a 56.222899,21.75416 0 0 0 -56.125,21.7542 56.222899,21.75416 0 0 0 56.223,21.7541 56.222899,21.75416 0 0 0 56.223,-21.7541 56.222899,21.75416 0 0 0 -56.223,-21.7542 56.222899,21.75416 0 0 0 -0.1,0 z m 0.1,1.8036 a 51.561999,19.950732 0 0 1 51.562,19.9508 51.561999,19.950732 0 0 1 -51.562,19.9506 51.561999,19.950732 0 0 1 -51.562,-19.9506 51.561999,19.950732 0 0 1 51.562,-19.9508 z" />
    <path
       id="path1685-5-8-9-5-7-7-5-2-4-2"
       style="fill:#99886c;fill-opacity:1;stroke-width:0.999995;stroke-linecap:round;stroke-linejoin:round;paint-order:markers stroke fill"
       d="m 11021.305,-4795.0622 a 49.517299,19.159582 0 0 0 -49.517,19.1596 49.517299,19.159582 0 0 0 49.517,19.1596 49.517299,19.159582 0 0 0 49.517,-19.1596 49.517299,19.159582 0 0 0 -49.517,-19.1596 z m -0.02,4.1621 a 38.7604,14.997447 0 0 1 0.02,0 38.7604,14.997447 0 0 1 38.76,14.9975 38.7604,14.997447 0 0 1 -38.76,14.9975 38.7604,14.997447 0 0 1 -38.76,-14.9975 38.7604,14.997447 0 0 1 38.735,-14.9975 z" />
    <path
       id="path1685-5-9-7-2-7-5-2-5-4-4"
       style="fill:#2b261e;fill-opacity:1;stroke-width:0.999995;stroke-linecap:round;stroke-linejoin:round;paint-order:markers stroke fill"
       d="m 11021.28,-4790.9 a 38.7604,14.997447 0 0 0 -38.735,14.9975 38.7604,14.997447 0 0 0 38.76,14.9974 38.7604,14.997447 0 0 0 38.76,-14.9974 38.7604,14.997447 0 0 0 -38.76,-14.9975 38.7604,14.997447 0 0 0 -0.02,0 z m 0.02,0.6878 a 36.9824,14.309491 0 0 1 36.982,14.3095 36.9824,14.309491 0 0 1 -36.982,14.3096 36.9824,14.309491 0 0 1 -36.982,-14.3096 36.9824,14.309491 0 0 1 36.982,-14.3095 z m 0,0.044 a 36.8681,14.265265 0 0 0 -36.868,14.2653 36.8681,14.265265 0 0 0 36.868,14.2654 36.8681,14.265265 0 0 0 36.868,-14.2654 36.8681,14.265265 0 0 0 -36.868,-14.2653 z m 0,2.0887 a 31.4706,12.176826 0 0 1 31.47,12.1768 31.4706,12.176826 0 0 1 -31.47,12.1767 31.4706,12.176826 0 0 1 -31.47,-12.1767 31.4706,12.176826 0 0 1 31.47,-12.1768 z" />
    <path
       id="path1685-5-92-6-8-6-2-7-4-8-8"
       style="fill:#0d0b09;fill-opacity:1;stroke-width:0.999995;stroke-linecap:round;stroke-linejoin:round;paint-order:markers stroke fill"
       d="m 11021.178,-4788.0549 a 31.4071,12.152257 0 0 0 -31.28,12.1522 31.4071,12.152257 0 0 0 31.407,12.1524 31.4071,12.152257 0 0 0 31.407,-12.1524 31.4071,12.152257 0 0 0 -31.407,-12.1522 31.4071,12.152257 0 0 0 -0.127,0 z m 0.127,1.2434 a 28.194,10.909021 0 0 1 28.194,10.9088 28.194,10.909021 0 0 1 -28.194,10.9091 28.194,10.909021 0 0 1 -28.194,-10.9091 28.194,10.909021 0 0 1 28.194,-10.9088 z" />
    <path
       style="fill:#f4d284;fill-opacity:1;stroke-width:0.999998;stroke-linecap:round;stroke-linejoin:round;paint-order:markers stroke fill"
       id="circle3256"
       sodipodi:type="arc"
       sodipodi:cx="11021.305"
       sodipodi:cy="4775.9023"
       sodipodi:rx="25.4"
       sodipodi:ry="25.4"
       sodipodi:start="0"
       sodipodi:end="3.1415927"
       sodipodi:arc-type="slice"
       d="m 11046.705,4775.9023 a 25.4,25.4 0 0 1 -12.7,21.9971 25.4,25.4 0 0 1 -25.4,0 25.4,25.4 0 0 1 -12.7,-21.9971 h 25.4 z"
       transform="scale(1,-1)" />
    <rect
       style="fill:#000000;fill-opacity:1;stroke:none;stroke-width:1;stroke-linecap:round;stroke-linejoin:round;paint-order:markers stroke fill"
       id="rect1890-1-0-8-1-0-9"
       width="139.7"
       height="139.7"
       x="11184.601"
       y="-4844.5234"
       rx="3.408278e-15" />
    <circle
       style="fill:#c5808a;fill-opacity:1;stroke-width:0.999998;stroke-linecap:round;stroke-linejoin:round;paint-order:markers stroke fill"
       id="path1685-5-0-7-1-1-8-1-9-5-4"
       cx="12085.969"
       cy="1841.0593"
       r="25.4"
       transform="rotate(-31.650267)" />
    <path
       id="path1685-5-5-4-5-8-7-8-8-1-9-6"
       style="fill:#ebc8df;fill-opacity:1;stroke-width:0.999995;stroke-linecap:round;stroke-linejoin:round;paint-order:markers stroke fill"
       d="m 11242.746,-4793.6604 a 22.304525,57.645297 58.349733 0 0 -37.367,49.2355 22.304525,57.645297 58.349733 0 0 60.775,-11.2612 22.304525,57.645297 58.349733 0 0 37.367,-49.2353 22.304525,57.645297 58.349733 0 0 -60.775,11.261 z m 0.261,0.4225 a 21.808213,56.362597 58.349733 0 1 59.422,-11.0104 21.808213,56.362597 58.349733 0 1 -36.535,48.1397 21.808213,56.362597 58.349733 0 1 -59.423,11.0103 21.808213,56.362597 58.349733 0 1 36.536,-48.1396 z m -0.06,0.098 a 21.75416,56.222899 58.349733 0 0 -36.362,47.9693 21.75416,56.222899 58.349733 0 0 59.275,-10.9835 21.75416,56.222899 58.349733 0 0 36.446,-48.0206 21.75416,56.222899 58.349733 0 0 -59.276,10.9834 21.75416,56.222899 58.349733 0 0 -0.08,0.052 z m 1.031,1.4829 a 19.950732,51.561999 58.349733 0 1 54.362,-10.0728 19.950732,51.561999 58.349733 0 1 -33.424,44.0395 19.950732,51.561999 58.349733 0 1 -54.362,10.073 19.950732,51.561999 58.349733 0 1 33.424,-44.0397 z" />
    <path
       id="path1685-5-8-9-5-7-7-5-2-4-2-9"
       style="fill:#efd1dc;fill-opacity:1;stroke-width:0.999995;stroke-linecap:round;stroke-linejoin:round;paint-order:markers stroke fill"
       d="m 11244.396,-4790.9832 a 19.159582,49.517299 58.349733 0 0 -32.098,42.2932 19.159582,49.517299 58.349733 0 0 52.206,-9.6733 19.159582,49.517299 58.349733 0 0 32.098,-42.2931 19.159582,49.517299 58.349733 0 0 -52.206,9.6732 z m 2.167,3.5536 a 14.997447,38.7604 58.349733 0 1 0.02,-0.01 14.997447,38.7604 58.349733 0 1 40.865,-7.5718 14.997447,38.7604 58.349733 0 1 -25.125,33.1056 14.997447,38.7604 58.349733 0 1 -40.865,7.5717 14.997447,38.7604 58.349733 0 1 25.104,-33.0924 z" />
    <path
       id="path1685-5-9-7-2-7-5-2-5-4-4-7"
       style="fill:#c7a3b9;fill-opacity:1;stroke-width:0.999995;stroke-linecap:round;stroke-linejoin:round;paint-order:markers stroke fill"
       d="m 11246.559,-4787.4269 a 14.997447,38.7604 58.349733 0 0 -25.104,33.0924 14.997447,38.7604 58.349733 0 0 40.865,-7.5718 14.997447,38.7604 58.349733 0 0 25.125,-33.1055 14.997447,38.7604 58.349733 0 0 -40.865,7.5718 14.997447,38.7604 58.349733 0 0 -0.02,0.01 z m 0.378,0.575 a 14.309491,36.9824 58.349733 0 1 38.99,-7.2245 14.309491,36.9824 58.349733 0 1 -23.973,31.587 14.309491,36.9824 58.349733 0 1 -38.99,7.2244 14.309491,36.9824 58.349733 0 1 23.973,-31.5869 z m 0.02,0.037 a 14.265265,36.8681 58.349733 0 0 -23.899,31.4894 14.265265,36.8681 58.349733 0 0 38.87,-7.2022 14.265265,36.8681 58.349733 0 0 23.899,-31.4895 14.265265,36.8681 58.349733 0 0 -38.87,7.2023 z m 1.096,1.778 a 12.176826,31.4706 58.349733 0 1 33.179,-6.1476 12.176826,31.4706 58.349733 0 1 -20.4,26.8789 12.176826,31.4706 58.349733 0 1 -33.179,6.1478 12.176826,31.4706 58.349733 0 1 20.4,-26.8791 z" />
    <path
       id="path1685-5-92-6-8-6-2-7-4-8-8-6"
       style="fill:#cbadb7;fill-opacity:1;stroke-width:0.999995;stroke-linecap:round;stroke-linejoin:round;paint-order:markers stroke fill"
       d="m 11398.512,-4803.5997 a 12.152257,31.4071 58.349733 0 0 -20.251,26.7584 12.152257,31.4071 58.349733 0 0 33.113,-6.1354 12.152257,31.4071 58.349733 0 0 20.359,-26.8252 12.152257,31.4071 58.349733 0 0 -33.113,6.1355 12.152257,31.4071 58.349733 0 0 -0.108,0.067 z m 0.761,0.9918 a 10.909021,28.194 58.349733 0 1 29.725,-5.508 10.909021,28.194 58.349733 0 1 -18.277,24.0808 10.909021,28.194 58.349733 0 1 -29.725,5.5078 10.909021,28.194 58.349733 0 1 18.277,-24.0806 z" />
    <path
       style="fill:#c5808a;fill-opacity:1;stroke-width:0.999998;stroke-linecap:round;stroke-linejoin:round;paint-order:markers stroke fill"
       id="circle3256-9"
       sodipodi:type="arc"
       sodipodi:cx="12085.969"
       sodipodi:cy="-1841.0593"
       sodipodi:rx="25.4"
       sodipodi:ry="25.4"
       sodipodi:start="0"
       sodipodi:end="3.1415927"
       sodipodi:arc-type="slice"
       transform="matrix(0.8512669,-0.52473295,-0.52473295,-0.8512669,0,0)"
       d="m 12111.369,-1841.0593 a 25.4,25.4 0 0 1 -12.7,21.997 25.4,25.4 0 0 1 -25.4,0 25.4,25.4 0 0 1 -12.7,-21.997 h 25.4 z" />
    <rect
       style="fill:#000000;fill-opacity:1;stroke:none;stroke-width:1;stroke-linecap:round;stroke-linejoin:round;paint-order:markers stroke fill"
       id="rect1890-1-0-8-1-0-3"
       width="139.7"
       height="139.7"
       x="11496.054"
       y="-4849.8145"
       rx="3.408278e-15" />
    <circle
       style="fill:#d95656;fill-opacity:1;stroke-width:0.999998;stroke-linecap:round;stroke-linejoin:round;paint-order:markers stroke fill"
       id="path1685-5-0-7-1-1-8-1-9-5-7"
       cx="11565.902"
       cy="-4779.9644"
       r="25.4" />
    <path
       id="path1685-5-5-4-5-8-7-8-8-1-9-8"
       style="fill:#c3df69;fill-opacity:1;stroke-width:0.999997;stroke-linecap:round;stroke-linejoin:round;paint-order:markers stroke fill"
       d="m 11565.902,-4798.1906 a 57.645297,18.2257 0 0 0 -57.645,18.2259 57.645297,18.2257 0 0 0 57.645,18.2256 57.645297,18.2257 0 0 0 57.645,-18.2256 57.645297,18.2257 0 0 0 -57.645,-18.2259 z m 0,0.4056 a 56.362597,17.820148 0 0 1 56.362,17.8201 56.362597,17.820148 0 0 1 -56.362,17.8202 56.362597,17.820148 0 0 1 -56.362,-17.8202 56.362597,17.820148 0 0 1 56.362,-17.8201 z m -0.1,0.044 a 56.222899,17.77598 0 0 0 -56.125,17.776 56.222899,17.77598 0 0 0 56.223,17.7759 56.222899,17.77598 0 0 0 56.223,-17.7759 56.222899,17.77598 0 0 0 -56.223,-17.776 56.222899,17.77598 0 0 0 -0.1,0 z m 0.1,1.4738 a 51.561999,16.302344 0 0 1 51.562,16.3024 51.561999,16.302344 0 0 1 -51.562,16.3022 51.561999,16.302344 0 0 1 -51.562,-16.3022 51.561999,16.302344 0 0 1 51.562,-16.3024 z" />
    <path
       id="path1685-5-8-9-5-7-7-5-2-4-2-7"
       style="fill:#87d989;fill-opacity:1;stroke-width:0.999997;stroke-linecap:round;stroke-linejoin:round;paint-order:markers stroke fill"
       d="m 11565.902,-4795.6207 a 49.517299,15.655872 0 0 0 -49.517,15.6559 49.517299,15.655872 0 0 0 49.517,15.6559 49.517299,15.655872 0 0 0 49.517,-15.6559 49.517299,15.655872 0 0 0 -49.517,-15.6559 z m -0.02,3.401 a 38.7604,12.254866 0 0 1 0.02,0 38.7604,12.254866 0 0 1 38.76,12.2549 38.7604,12.254866 0 0 1 -38.76,12.2549 38.7604,12.254866 0 0 1 -38.76,-12.2549 38.7604,12.254866 0 0 1 38.735,-12.2549 z" />
    <path
       id="path1685-5-9-7-2-7-5-2-5-4-4-4"
       style="fill:#176a1e;fill-opacity:1;stroke-width:0.999997;stroke-linecap:round;stroke-linejoin:round;paint-order:markers stroke fill"
       d="m 11565.877,-4792.2196 a 38.7604,12.254866 0 0 0 -38.735,12.2549 38.7604,12.254866 0 0 0 38.76,12.2548 38.7604,12.254866 0 0 0 38.76,-12.2548 38.7604,12.254866 0 0 0 -38.76,-12.2549 38.7604,12.254866 0 0 0 -0.02,0 z m 0.02,0.562 a 36.9824,11.692716 0 0 1 36.982,11.6927 36.9824,11.692716 0 0 1 -36.982,11.6928 36.9824,11.692716 0 0 1 -36.982,-11.6928 36.9824,11.692716 0 0 1 36.982,-11.6927 z m 0,0.036 a 36.8681,11.656578 0 0 0 -36.868,11.6566 36.8681,11.656578 0 0 0 36.868,11.6567 36.8681,11.656578 0 0 0 36.868,-11.6567 36.8681,11.656578 0 0 0 -36.868,-11.6566 z m 0,1.7068 a 31.4706,9.9500515 0 0 1 31.47,9.95 31.4706,9.9500515 0 0 1 -31.47,9.95 31.4706,9.9500515 0 0 1 -31.47,-9.95 31.4706,9.9500515 0 0 1 31.47,-9.95 z" />
    <path
       id="path1685-5-92-6-8-6-2-7-4-8-8-7"
       style="fill:#054208;fill-opacity:1;stroke-width:0.999997;stroke-linecap:round;stroke-linejoin:round;paint-order:markers stroke fill"
       d="m 11565.775,-4789.8948 a 31.4071,9.9299755 0 0 0 -31.28,9.9299 31.4071,9.9299755 0 0 0 31.407,9.9301 31.4071,9.9299755 0 0 0 31.407,-9.9301 31.4071,9.9299755 0 0 0 -31.407,-9.9299 31.4071,9.9299755 0 0 0 -0.127,0 z m 0.127,1.016 a 28.194,8.9140899 0 0 1 28.194,8.9139 28.194,8.9140899 0 0 1 -28.194,8.9142 28.194,8.9140899 0 0 1 -28.194,-8.9142 28.194,8.9140899 0 0 1 28.194,-8.9139 z" />
    <path
       style="fill:#d95656;fill-opacity:1;stroke-width:0.999998;stroke-linecap:round;stroke-linejoin:round;paint-order:markers stroke fill"
       id="circle3256-6"
       sodipodi:type="arc"
       sodipodi:cx="11565.902"
       sodipodi:cy="4779.9644"
       sodipodi:rx="25.4"
       sodipodi:ry="25.4"
       sodipodi:start="0"
       sodipodi:end="3.1415927"
       sodipodi:arc-type="slice"
       transform="scale(1,-1)"
       d="m 11591.302,4779.9644 a 25.4,25.4 0 0 1 -12.7,21.997 25.4,25.4 0 0 1 -25.4,0 25.4,25.4 0 0 1 -12.7,-21.997 h 25.4 z" />
    <rect
       style="fill:#000000;fill-opacity:1;stroke:none;stroke-width:0.999998;stroke-linecap:round;stroke-linejoin:round;paint-order:markers stroke fill"
       id="rect1890-1-0-8-1-0-3-8"
       width="105.48949"
       height="105.48949"
       x="11717.984"
       y="-4832.3887"
       rx="2.5736404e-15" />
    <circle
       style="fill:#ef6366;fill-opacity:1;stroke-width:0.999998;stroke-linecap:round;stroke-linejoin:round;paint-order:markers stroke fill"
       id="path1685-5-0-7-1-1-8-1-9-5-7-6"
       cx="12174.463"
       cy="3630.0798"
       r="25.4"
       transform="rotate(-38.703289)" />
    <path
       id="path1685-5-5-4-5-8-7-8-8-1-9-8-8"
       style="fill:#13fcd5;fill-opacity:1;stroke-width:0.999997;stroke-linecap:round;stroke-linejoin:round;paint-order:markers stroke fill"
       d="m 11759.33,-4793.8678 a 18.2257,57.645297 51.296711 0 0 -33.589,50.2681 18.2257,57.645297 51.296711 0 0 56.382,-21.8215 18.2257,57.645297 51.296711 0 0 33.59,-50.2679 18.2257,57.645297 51.296711 0 0 -56.383,21.8213 z m 0.254,0.3165 a 17.820148,56.362597 51.296711 0 1 55.127,-21.3357 17.820148,56.362597 51.296711 0 1 -32.842,49.1492 17.820148,56.362597 51.296711 0 1 -55.127,21.3357 17.820148,56.362597 51.296711 0 1 32.842,-49.1492 z m -0.05,0.097 a 17.77598,56.222899 51.296711 0 0 -32.684,48.9666 17.77598,56.222899 51.296711 0 0 54.991,-21.2834 17.77598,56.222899 51.296711 0 0 32.761,-49.0277 17.77598,56.222899 51.296711 0 0 -54.991,21.2832 17.77598,56.222899 51.296711 0 0 -0.08,0.063 z m 1,1.0876 a 16.302344,51.561999 51.296711 0 1 50.432,-19.5187 16.302344,51.561999 51.296711 0 1 -30.045,44.9632 16.302344,51.561999 51.296711 0 1 -50.432,19.5189 16.302344,51.561999 51.296711 0 1 30.045,-44.9634 z" />
    <path
       id="path1685-5-8-9-5-7-7-5-2-4-2-7-3"
       style="fill:#35d7ce;fill-opacity:1;stroke-width:0.999997;stroke-linecap:round;stroke-linejoin:round;paint-order:markers stroke fill"
       d="m 11760.937,-4791.8623 a 15.655872,49.517299 51.296711 0 0 -28.853,43.1802 15.655872,49.517299 51.296711 0 0 48.432,-18.7446 15.655872,49.517299 51.296711 0 0 28.853,-43.1801 15.655872,49.517299 51.296711 0 0 -48.432,18.7445 z m 2.111,2.6667 a 12.254866,38.7604 51.296711 0 1 0.02,-0.012 12.254866,38.7604 51.296711 0 1 37.911,-14.6725 12.254866,38.7604 51.296711 0 1 -22.586,33.7998 12.254866,38.7604 51.296711 0 1 -37.91,14.6725 12.254866,38.7604 51.296711 0 1 22.565,-33.7842 z" />
    <path
       id="path1685-5-9-7-2-7-5-2-5-4-4-4-5"
       style="fill:#0d8f82;fill-opacity:1;stroke-width:0.999997;stroke-linecap:round;stroke-linejoin:round;paint-order:markers stroke fill"
       d="m 11763.044,-4789.1924 a 12.254866,38.7604 51.296711 0 0 -22.565,33.7841 12.254866,38.7604 51.296711 0 0 37.91,-14.6725 12.254866,38.7604 51.296711 0 0 22.586,-33.7997 12.254866,38.7604 51.296711 0 0 -37.911,14.6724 12.254866,38.7604 51.296711 0 0 -0.02,0.012 z m 0.367,0.4261 a 11.692716,36.9824 51.296711 0 1 36.172,-13.9995 11.692716,36.9824 51.296711 0 1 -21.549,32.2494 11.692716,36.9824 51.296711 0 1 -36.172,13.9994 11.692716,36.9824 51.296711 0 1 21.549,-32.2493 z m 0.02,0.028 a 11.656578,36.8681 51.296711 0 0 -21.483,32.1499 11.656578,36.8681 51.296711 0 0 36.06,-13.9563 11.656578,36.8681 51.296711 0 0 21.483,-32.1499 11.656578,36.8681 51.296711 0 0 -36.06,13.9563 z m 1.067,1.332 a 9.9500515,31.4706 51.296711 0 1 30.781,-11.9128 9.9500515,31.4706 51.296711 0 1 -18.338,27.4427 9.9500515,31.4706 51.296711 0 1 -30.78,11.9128 9.9500515,31.4706 51.296711 0 1 18.337,-27.4427 z" />
    <path
       id="path1685-5-92-6-8-6-2-7-4-8-8-7-3"
       style="fill:#0a5043;fill-opacity:1;stroke-width:0.999997;stroke-linecap:round;stroke-linejoin:round;paint-order:markers stroke fill"
       d="m 11764.418,-4787.3144 a 9.9299755,31.4071 51.296711 0 0 -18.201,27.3082 9.9299755,31.4071 51.296711 0 0 30.719,-11.889 9.9299755,31.4071 51.296711 0 0 18.3,-27.3878 9.9299755,31.4071 51.296711 0 0 -30.718,11.8892 9.9299755,31.4071 51.296711 0 0 -0.1,0.079 z m 0.735,0.7135 a 8.9140899,28.194 51.296711 0 1 27.576,-10.673 8.9140899,28.194 51.296711 0 1 -16.428,24.5859 8.9140899,28.194 51.296711 0 1 -27.577,10.6728 8.9140899,28.194 51.296711 0 1 16.429,-24.5857 z" />
    <path
       style="fill:#ef6366;fill-opacity:1;stroke-width:0.999998;stroke-linecap:round;stroke-linejoin:round;paint-order:markers stroke fill"
       id="circle3256-6-3"
       sodipodi:type="arc"
       sodipodi:cx="12174.463"
       sodipodi:cy="-3630.0798"
       sodipodi:rx="25.4"
       sodipodi:ry="25.4"
       sodipodi:start="0"
       sodipodi:end="3.1415927"
       sodipodi:arc-type="slice"
       transform="matrix(0.78039452,-0.62528745,-0.62528745,-0.78039452,0,0)"
       d="m 12199.863,-3630.0798 a 25.4,25.4 0 0 1 -12.7,21.997 25.4,25.4 0 0 1 -25.4,0 25.4,25.4 0 0 1 -12.7,-21.997 h 25.4 z" />
  </g>
</svg>
