<?xml version="1.0" encoding="UTF-8"?>
<svg width="139.7mm" height="139.7mm" version="1.1" viewBox="0 0 139.7 139.7" xmlns="http://www.w3.org/2000/svg">
 <g transform="translate(-10673 4757.1)">
  <rect x="10673" y="-4757.1" width="139.7" height="139.7" rx="3.4083e-15" style="fill:#000000;paint-order:markers stroke fill"/>
  <circle cx="10743" cy="-4687.2" r="25.4" style="fill:#f4d284;paint-order:markers stroke fill;stroke-linecap:round;stroke-linejoin:round"/>
  <path d="m10743-4744.9a57.645 57.645 0 0 0-57.645 57.646 57.645 57.645 0 0 0 57.645 57.645 57.645 57.645 0 0 0 57.645-57.645 57.645 57.645 0 0 0-57.645-57.646zm0 1.2826a56.363 56.363 0 0 1 56.362 56.362 56.363 56.363 0 0 1-56.362 56.363 56.363 56.363 0 0 1-56.362-56.363 56.363 56.363 0 0 1 56.362-56.362zm-0.1 0.1395a56.223 56.223 0 0 0-56.125 56.223 56.223 56.223 0 0 0 56.223 56.223 56.223 56.223 0 0 0 56.223-56.223 56.223 56.223 0 0 0-56.223-56.223 56.223 56.223 0 0 0-0.1 0zm0.1 4.6613a51.562 51.562 0 0 1 51.562 51.562 51.562 51.562 0 0 1-51.562 51.562 51.562 51.562 0 0 1-51.562-51.562 51.562 51.562 0 0 1 51.562-51.562z" style="fill-opacity:.41176;fill:#ffe2b4;paint-order:markers stroke fill;stroke-linecap:round;stroke-linejoin:round"/>
  <path d="m10743-4736.8a49.517 49.517 0 0 0-49.517 49.517 49.517 49.517 0 0 0 49.517 49.517 49.517 49.517 0 0 0 49.517-49.517 49.517 49.517 0 0 0-49.517-49.517zm-0.02 10.757a38.76 38.76 0 0 1 0.02 0 38.76 38.76 0 0 1 38.76 38.76 38.76 38.76 0 0 1-38.76 38.76 38.76 38.76 0 0 1-38.76-38.76 38.76 38.76 0 0 1 38.735-38.76z" style="fill-opacity:.6;fill:#ffe2b4;paint-order:markers stroke fill;stroke-linecap:round;stroke-linejoin:round"/>
  <path d="m10743-4726a38.76 38.76 0 0 0-38.735 38.76 38.76 38.76 0 0 0 38.76 38.76 38.76 38.76 0 0 0 38.76-38.76 38.76 38.76 0 0 0-38.76-38.76 38.76 38.76 0 0 0-0.02 0zm0.02 1.7776a36.982 36.982 0 0 1 36.982 36.982 36.982 36.982 0 0 1-36.982 36.983 36.982 36.982 0 0 1-36.982-36.983 36.982 36.982 0 0 1 36.982-36.982zm0 0.1142a36.868 36.868 0 0 0-36.868 36.868 36.868 36.868 0 0 0 36.868 36.868 36.868 36.868 0 0 0 36.868-36.868 36.868 36.868 0 0 0-36.868-36.868zm0 5.3982a31.471 31.471 0 0 1 31.47 31.47 31.471 31.471 0 0 1-31.47 31.47 31.471 31.471 0 0 1-31.47-31.47 31.471 31.471 0 0 1 31.47-31.47z" style="fill-opacity:.16863;fill:#ffe2b4;paint-order:markers stroke fill;stroke-linecap:round;stroke-linejoin:round"/>
  <path d="m10743-4718.7a31.407 31.407 0 0 0-31.28 31.407 31.407 31.407 0 0 0 31.407 31.407 31.407 31.407 0 0 0 31.407-31.407 31.407 31.407 0 0 0-31.407-31.407 31.407 31.407 0 0 0-0.127 0zm0.127 3.2133a28.194 28.194 0 0 1 28.194 28.194 28.194 28.194 0 0 1-28.194 28.194 28.194 28.194 0 0 1-28.194-28.194 28.194 28.194 0 0 1 28.194-28.194z" style="fill-opacity:.05098;fill:#ffe2b4;paint-order:markers stroke fill;stroke-linecap:round;stroke-linejoin:round"/>
 </g>
</svg>
