<?xml version="1.0" encoding="utf-8" standalone="no"?>
<!DOCTYPE svg PUBLIC "-//W3C//DTD SVG 1.1//EN"
  "http://www.w3.org/Graphics/SVG/1.1/DTD/svg11.dtd">
<svg height="18pt" version="1.1" viewBox="0 0 1080 18" width="1080pt" xmlns="http://www.w3.org/2000/svg" xmlns:xlink="http://www.w3.org/1999/xlink">
 <metadata>
  <rdf:RDF xmlns:cc="http://creativecommons.org/ns#" xmlns:dc="http://purl.org/dc/elements/1.1/" xmlns:rdf="http://www.w3.org/1999/02/22-rdf-syntax-ns#">
   <cc:Work>
    <dc:type rdf:resource="http://purl.org/dc/dcmitype/StillImage"/>
    <dc:date>2022-10-24T14:24:40.394614</dc:date>
    <dc:format>image/svg+xml</dc:format>
    <dc:creator>
     <cc:Agent>
      <dc:title>Matplotlib v3.4.3, https://matplotlib.org/</dc:title>
     </cc:Agent>
    </dc:creator>
   </cc:Work>
  </rdf:RDF>
 </metadata>
 <defs>
  <style type="text/css">*{stroke-linecap:butt;stroke-linejoin:round;}</style>
 </defs>
 <g id="figure_1">
  <g id="patch_1">
   <path d="M 0 18 
L 1080 18 
L 1080 0 
L 0 0 
z
" style="fill:none;"/>
  </g>
  <g id="axes_1">
   <g id="patch_2">
    <path clip-path="url(#p952f3e451c)" d="M 14.210526 18 
L 14.944853 18 
L 14.944853 0 
L 14.210526 0 
z
"/>
   </g>
   <g id="patch_3">
    <path clip-path="url(#p952f3e451c)" d="M 14.944853 18 
L 82.429616 18 
L 82.429616 0 
L 14.944853 0 
z
" style="fill:#80b1d3;"/>
   </g>
   <g id="patch_4">
    <path clip-path="url(#p952f3e451c)" d="M 82.429616 18 
L 93.110772 18 
L 93.110772 0 
L 82.429616 0 
z
" style="fill:#ccebc5;"/>
   </g>
   <g id="patch_5">
    <path clip-path="url(#p952f3e451c)" d="M 93.110772 18 
L 101.863691 18 
L 101.863691 0 
L 93.110772 0 
z
" style="fill:#8dd3c7;"/>
   </g>
   <g id="patch_6">
    <path clip-path="url(#p952f3e451c)" d="M 101.863691 18 
L 121.409791 18 
L 121.409791 0 
L 101.863691 0 
z
" style="fill:#b3de69;"/>
   </g>
   <g id="patch_7">
    <path clip-path="url(#p952f3e451c)" d="M 121.409791 18 
L 223.712209 18 
L 223.712209 0 
L 121.409791 0 
z
" style="fill:#fb8072;"/>
   </g>
   <g id="patch_8">
    <path clip-path="url(#p952f3e451c)" d="M 223.712209 18 
L 230.054283 18 
L 230.054283 0 
L 223.712209 0 
z
" style="fill:#bebada;"/>
   </g>
   <g id="patch_9">
    <path clip-path="url(#p952f3e451c)" d="M 230.054283 18 
L 244.130578 18 
L 244.130578 0 
L 230.054283 0 
z
" style="fill:#ffed6f;"/>
   </g>
   <g id="patch_10">
    <path clip-path="url(#p952f3e451c)" d="M 244.130578 18 
L 258.273092 18 
L 258.273092 0 
L 244.130578 0 
z
" style="fill:#ffffb3;"/>
   </g>
   <g id="patch_11">
    <path clip-path="url(#p952f3e451c)" d="M 258.273092 18 
L 273.904496 18 
L 273.904496 0 
L 258.273092 0 
z
" style="fill:#fdb462;"/>
   </g>
   <g id="patch_12">
    <path clip-path="url(#p952f3e451c)" d="M 273.904496 18 
L 314.160621 18 
L 314.160621 0 
L 273.904496 0 
z
" style="fill:#d9d9d9;"/>
   </g>
   <g id="text_1">
    <text style="font-family:DejaVu Sans;font-size:10px;font-stretch:normal;font-style:normal;font-weight:normal;text-anchor:middle;" transform="rotate(-0, 48.687235, 11.759375)" x="48.687235" y="11.759375">19</text>
   </g>
   <g id="text_2">
    <text style="font-family:DejaVu Sans;font-size:10px;font-stretch:normal;font-style:normal;font-weight:normal;text-anchor:middle;" transform="rotate(-0, 87.770194, 11.759375)" x="87.770194" y="11.759375">3</text>
   </g>
   <g id="text_3">
    <text style="font-family:DejaVu Sans;font-size:10px;font-stretch:normal;font-style:normal;font-weight:normal;text-anchor:middle;" transform="rotate(-0, 97.487232, 11.759375)" x="97.487232" y="11.759375">2</text>
   </g>
   <g id="text_4">
    <text style="font-family:DejaVu Sans;font-size:10px;font-stretch:normal;font-style:normal;font-weight:normal;text-anchor:middle;" transform="rotate(-0, 111.636741, 11.759375)" x="111.636741" y="11.759375">6</text>
   </g>
   <g id="text_5">
    <text style="font-family:DejaVu Sans;font-size:10px;font-stretch:normal;font-style:normal;font-weight:normal;text-anchor:middle;" transform="rotate(-0, 172.561, 11.759375)" x="172.561" y="11.759375">29</text>
   </g>
   <g id="text_6">
    <text style="font-family:DejaVu Sans;font-size:10px;font-stretch:normal;font-style:normal;font-weight:normal;text-anchor:middle;" transform="rotate(-0, 226.883246, 11.759375)" x="226.883246" y="11.759375">2</text>
   </g>
   <g id="text_7">
    <text style="font-family:DejaVu Sans;font-size:10px;font-stretch:normal;font-style:normal;font-weight:normal;text-anchor:middle;" transform="rotate(-0, 237.092431, 11.759375)" x="237.092431" y="11.759375">4</text>
   </g>
   <g id="text_8">
    <text style="font-family:DejaVu Sans;font-size:10px;font-stretch:normal;font-style:normal;font-weight:normal;text-anchor:middle;" transform="rotate(-0, 251.201835, 11.759375)" x="251.201835" y="11.759375">4</text>
   </g>
   <g id="text_9">
    <text style="font-family:DejaVu Sans;font-size:10px;font-stretch:normal;font-style:normal;font-weight:normal;text-anchor:middle;" transform="rotate(-0, 266.088794, 11.759375)" x="266.088794" y="11.759375">4</text>
   </g>
   <g id="text_10">
    <text style="font-family:DejaVu Sans;font-size:10px;font-stretch:normal;font-style:normal;font-weight:normal;text-anchor:middle;" transform="rotate(-0, 294.032559, 11.759375)" x="294.032559" y="11.759375">11</text>
   </g>
   <g id="text_11">
    <text style="font-family:DejaVu Sans;font-size:10px;font-stretch:normal;font-style:normal;font-weight:normal;text-anchor:start;" transform="rotate(-0, 321.265884, 11.759375)" x="321.265884" y="11.759375">Total: 1:24 (+4:15 secondary childcare)</text>
   </g>
  </g>
 </g>
 <defs>
  <clipPath id="p952f3e451c">
   <rect height="18" width="1080" x="0" y="0"/>
  </clipPath>
 </defs>
</svg>
