<?xml version="1.0" encoding="utf-8" standalone="no"?>
<!DOCTYPE svg PUBLIC "-//W3C//DTD SVG 1.1//EN"
  "http://www.w3.org/Graphics/SVG/1.1/DTD/svg11.dtd">
<svg height="18pt" version="1.1" viewBox="0 0 1080 18" width="1080pt" xmlns="http://www.w3.org/2000/svg" xmlns:xlink="http://www.w3.org/1999/xlink">
 <metadata>
  <rdf:RDF xmlns:cc="http://creativecommons.org/ns#" xmlns:dc="http://purl.org/dc/elements/1.1/" xmlns:rdf="http://www.w3.org/1999/02/22-rdf-syntax-ns#">
   <cc:Work>
    <dc:type rdf:resource="http://purl.org/dc/dcmitype/StillImage"/>
    <dc:date>2022-10-24T14:24:42.650742</dc:date>
    <dc:format>image/svg+xml</dc:format>
    <dc:creator>
     <cc:Agent>
      <dc:title>Matplotlib v3.4.3, https://matplotlib.org/</dc:title>
     </cc:Agent>
    </dc:creator>
   </cc:Work>
  </rdf:RDF>
 </metadata>
 <defs>
  <style type="text/css">*{stroke-linecap:butt;stroke-linejoin:round;}</style>
 </defs>
 <g id="figure_1">
  <g id="patch_1">
   <path d="M 0 18 
L 1080 18 
L 1080 0 
L 0 0 
z
" style="fill:none;"/>
  </g>
  <g id="axes_1">
   <g id="patch_2">
    <path clip-path="url(#p8e676e33f8)" d="M 14.210526 18 
L 15.089981 18 
L 15.089981 0 
L 14.210526 0 
z
"/>
   </g>
   <g id="patch_3">
    <path clip-path="url(#p8e676e33f8)" d="M 15.089981 18 
L 92.720753 18 
L 92.720753 0 
L 15.089981 0 
z
" style="fill:#80b1d3;"/>
   </g>
   <g id="patch_4">
    <path clip-path="url(#p8e676e33f8)" d="M 92.720753 18 
L 106.681448 18 
L 106.681448 0 
L 92.720753 0 
z
" style="fill:#ccebc5;"/>
   </g>
   <g id="patch_5">
    <path clip-path="url(#p8e676e33f8)" d="M 106.681448 18 
L 117.845063 18 
L 117.845063 0 
L 106.681448 0 
z
" style="fill:#8dd3c7;"/>
   </g>
   <g id="patch_6">
    <path clip-path="url(#p8e676e33f8)" d="M 117.845063 18 
L 143.45001 18 
L 143.45001 0 
L 117.845063 0 
z
" style="fill:#b3de69;"/>
   </g>
   <g id="patch_7">
    <path clip-path="url(#p8e676e33f8)" d="M 143.45001 18 
L 283.592026 18 
L 283.592026 0 
L 143.45001 0 
z
" style="fill:#fb8072;"/>
   </g>
   <g id="patch_8">
    <path clip-path="url(#p8e676e33f8)" d="M 283.592026 18 
L 292.537859 18 
L 292.537859 0 
L 283.592026 0 
z
" style="fill:#bebada;"/>
   </g>
   <g id="patch_9">
    <path clip-path="url(#p8e676e33f8)" d="M 292.537859 18 
L 309.000887 18 
L 309.000887 0 
L 292.537859 0 
z
" style="fill:#ffed6f;"/>
   </g>
   <g id="patch_10">
    <path clip-path="url(#p8e676e33f8)" d="M 309.000887 18 
L 326.3403 18 
L 326.3403 0 
L 309.000887 0 
z
" style="fill:#ffffb3;"/>
   </g>
   <g id="patch_11">
    <path clip-path="url(#p8e676e33f8)" d="M 326.3403 18 
L 347.041309 18 
L 347.041309 0 
L 326.3403 0 
z
" style="fill:#fdb462;"/>
   </g>
   <g id="patch_12">
    <path clip-path="url(#p8e676e33f8)" d="M 347.041309 18 
L 398.326627 18 
L 398.326627 0 
L 347.041309 0 
z
" style="fill:#d9d9d9;"/>
   </g>
   <g id="text_1">
    <text style="font-family:DejaVu Sans;font-size:10px;font-stretch:normal;font-style:normal;font-weight:normal;text-anchor:middle;" transform="rotate(-0, 53.905367, 11.759375)" x="53.905367" y="11.759375">22</text>
   </g>
   <g id="text_2">
    <text style="font-family:DejaVu Sans;font-size:10px;font-stretch:normal;font-style:normal;font-weight:normal;text-anchor:middle;" transform="rotate(-0, 99.7011, 11.759375)" x="99.7011" y="11.759375">4</text>
   </g>
   <g id="text_3">
    <text style="font-family:DejaVu Sans;font-size:10px;font-stretch:normal;font-style:normal;font-weight:normal;text-anchor:middle;" transform="rotate(-0, 112.263255, 11.759375)" x="112.263255" y="11.759375">3</text>
   </g>
   <g id="text_4">
    <text style="font-family:DejaVu Sans;font-size:10px;font-stretch:normal;font-style:normal;font-weight:normal;text-anchor:middle;" transform="rotate(-0, 130.647537, 11.759375)" x="130.647537" y="11.759375">7</text>
   </g>
   <g id="text_5">
    <text style="font-family:DejaVu Sans;font-size:10px;font-stretch:normal;font-style:normal;font-weight:normal;text-anchor:middle;" transform="rotate(-0, 213.521018, 11.759375)" x="213.521018" y="11.759375">39</text>
   </g>
   <g id="text_6">
    <text style="font-family:DejaVu Sans;font-size:10px;font-stretch:normal;font-style:normal;font-weight:normal;text-anchor:middle;" transform="rotate(-0, 288.064942, 11.759375)" x="288.064942" y="11.759375">3</text>
   </g>
   <g id="text_7">
    <text style="font-family:DejaVu Sans;font-size:10px;font-stretch:normal;font-style:normal;font-weight:normal;text-anchor:middle;" transform="rotate(-0, 300.769373, 11.759375)" x="300.769373" y="11.759375">5</text>
   </g>
   <g id="text_8">
    <text style="font-family:DejaVu Sans;font-size:10px;font-stretch:normal;font-style:normal;font-weight:normal;text-anchor:middle;" transform="rotate(-0, 317.670593, 11.759375)" x="317.670593" y="11.759375">5</text>
   </g>
   <g id="text_9">
    <text style="font-family:DejaVu Sans;font-size:10px;font-stretch:normal;font-style:normal;font-weight:normal;text-anchor:middle;" transform="rotate(-0, 336.690804, 11.759375)" x="336.690804" y="11.759375">6</text>
   </g>
   <g id="text_10">
    <text style="font-family:DejaVu Sans;font-size:10px;font-stretch:normal;font-style:normal;font-weight:normal;text-anchor:middle;" transform="rotate(-0, 372.683968, 11.759375)" x="372.683968" y="11.759375">14</text>
   </g>
   <g id="text_11">
    <text style="font-family:DejaVu Sans;font-size:10px;font-stretch:normal;font-style:normal;font-weight:normal;text-anchor:start;" transform="rotate(-0, 405.431891, 11.759375)" x="405.431891" y="11.759375">Total: 1:48 (+4:57 secondary childcare)</text>
   </g>
   <g id="text_12">
    <text style="font-family:DejaVu Sans;font-size:10px;font-stretch:normal;font-style:normal;font-weight:normal;text-anchor:start;" transform="rotate(-0, 3.552632, 11.759375)" x="3.552632" y="11.759375">♀</text>
   </g>
  </g>
 </g>
 <defs>
  <clipPath id="p8e676e33f8">
   <rect height="18" width="1080" x="0" y="0"/>
  </clipPath>
 </defs>
</svg>
