<?xml version="1.0" encoding="utf-8" standalone="no"?>
<!DOCTYPE svg PUBLIC "-//W3C//DTD SVG 1.1//EN"
  "http://www.w3.org/Graphics/SVG/1.1/DTD/svg11.dtd">
<svg height="18pt" version="1.1" viewBox="0 0 1080 18" width="1080pt" xmlns="http://www.w3.org/2000/svg" xmlns:xlink="http://www.w3.org/1999/xlink">
 <metadata>
  <rdf:RDF xmlns:cc="http://creativecommons.org/ns#" xmlns:dc="http://purl.org/dc/elements/1.1/" xmlns:rdf="http://www.w3.org/1999/02/22-rdf-syntax-ns#">
   <cc:Work>
    <dc:type rdf:resource="http://purl.org/dc/dcmitype/StillImage"/>
    <dc:date>2022-10-24T14:22:32.758313</dc:date>
    <dc:format>image/svg+xml</dc:format>
    <dc:creator>
     <cc:Agent>
      <dc:title>Matplotlib v3.4.3, https://matplotlib.org/</dc:title>
     </cc:Agent>
    </dc:creator>
   </cc:Work>
  </rdf:RDF>
 </metadata>
 <defs>
  <style type="text/css">*{stroke-linecap:butt;stroke-linejoin:round;}</style>
 </defs>
 <g id="figure_1">
  <g id="patch_1">
   <path d="M 0 18 
L 1080 18 
L 1080 0 
L 0 0 
z
" style="fill:none;"/>
  </g>
  <g id="axes_1">
   <g id="patch_2">
    <path clip-path="url(#pc51b563461)" d="M 14.210526 18 
L 14.889951 18 
L 14.889951 0 
L 14.210526 0 
z
"/>
   </g>
   <g id="patch_3">
    <path clip-path="url(#pc51b563461)" d="M 14.889951 18 
L 78.875567 18 
L 78.875567 0 
L 14.889951 0 
z
" style="fill:#80b1d3;"/>
   </g>
   <g id="patch_4">
    <path clip-path="url(#pc51b563461)" d="M 78.875567 18 
L 85.557323 18 
L 85.557323 0 
L 78.875567 0 
z
" style="fill:#ccebc5;"/>
   </g>
   <g id="patch_5">
    <path clip-path="url(#pc51b563461)" d="M 85.557323 18 
L 92.156151 18 
L 92.156151 0 
L 85.557323 0 
z
" style="fill:#8dd3c7;"/>
   </g>
   <g id="patch_6">
    <path clip-path="url(#pc51b563461)" d="M 92.156151 18 
L 107.691704 18 
L 107.691704 0 
L 92.156151 0 
z
" style="fill:#b3de69;"/>
   </g>
   <g id="patch_7">
    <path clip-path="url(#pc51b563461)" d="M 107.691704 18 
L 167.911154 18 
L 167.911154 0 
L 107.691704 0 
z
" style="fill:#fb8072;"/>
   </g>
   <g id="patch_8">
    <path clip-path="url(#pc51b563461)" d="M 167.911154 18 
L 171.002564 18 
L 171.002564 0 
L 167.911154 0 
z
" style="fill:#bebada;"/>
   </g>
   <g id="patch_9">
    <path clip-path="url(#pc51b563461)" d="M 171.002564 18 
L 184.172957 18 
L 184.172957 0 
L 171.002564 0 
z
" style="fill:#ffed6f;"/>
   </g>
   <g id="patch_10">
    <path clip-path="url(#pc51b563461)" d="M 184.172957 18 
L 198.527339 18 
L 198.527339 0 
L 184.172957 0 
z
" style="fill:#ffffb3;"/>
   </g>
   <g id="patch_11">
    <path clip-path="url(#pc51b563461)" d="M 198.527339 18 
L 208.857799 18 
L 208.857799 0 
L 198.527339 0 
z
" style="fill:#fdb462;"/>
   </g>
   <g id="patch_12">
    <path clip-path="url(#pc51b563461)" d="M 208.857799 18 
L 237.857146 18 
L 237.857146 0 
L 208.857799 0 
z
" style="fill:#d9d9d9;"/>
   </g>
   <g id="text_1">
    <text style="font-family:DejaVu Sans;font-size:10px;font-stretch:normal;font-style:normal;font-weight:normal;text-anchor:middle;" transform="rotate(-0, 46.882759, 11.759375)" x="46.882759" y="11.759375">18</text>
   </g>
   <g id="text_2">
    <text style="font-family:DejaVu Sans;font-size:10px;font-stretch:normal;font-style:normal;font-weight:normal;text-anchor:middle;" transform="rotate(-0, 82.216445, 11.759375)" x="82.216445" y="11.759375">2</text>
   </g>
   <g id="text_3">
    <text style="font-family:DejaVu Sans;font-size:10px;font-stretch:normal;font-style:normal;font-weight:normal;text-anchor:middle;" transform="rotate(-0, 88.856737, 11.759375)" x="88.856737" y="11.759375">2</text>
   </g>
   <g id="text_4">
    <text style="font-family:DejaVu Sans;font-size:10px;font-stretch:normal;font-style:normal;font-weight:normal;text-anchor:middle;" transform="rotate(-0, 99.923928, 11.759375)" x="99.923928" y="11.759375">4</text>
   </g>
   <g id="text_5">
    <text style="font-family:DejaVu Sans;font-size:10px;font-stretch:normal;font-style:normal;font-weight:normal;text-anchor:middle;" transform="rotate(-0, 137.801429, 11.759375)" x="137.801429" y="11.759375">17</text>
   </g>
   <g id="text_6">
    <text style="font-family:DejaVu Sans;font-size:10px;font-stretch:normal;font-style:normal;font-weight:normal;text-anchor:middle;" transform="rotate(-0, 177.58776, 11.759375)" x="177.58776" y="11.759375">4</text>
   </g>
   <g id="text_7">
    <text style="font-family:DejaVu Sans;font-size:10px;font-stretch:normal;font-style:normal;font-weight:normal;text-anchor:middle;" transform="rotate(-0, 191.350148, 11.759375)" x="191.350148" y="11.759375">4</text>
   </g>
   <g id="text_8">
    <text style="font-family:DejaVu Sans;font-size:10px;font-stretch:normal;font-style:normal;font-weight:normal;text-anchor:middle;" transform="rotate(-0, 203.692569, 11.759375)" x="203.692569" y="11.759375">3</text>
   </g>
   <g id="text_9">
    <text style="font-family:DejaVu Sans;font-size:10px;font-stretch:normal;font-style:normal;font-weight:normal;text-anchor:middle;" transform="rotate(-0, 223.357473, 11.759375)" x="223.357473" y="11.759375">8</text>
   </g>
   <g id="text_10">
    <text style="font-family:DejaVu Sans;font-size:10px;font-stretch:normal;font-style:normal;font-weight:normal;text-anchor:start;" transform="rotate(-0, 244.962409, 11.759375)" x="244.962409" y="11.759375">Total: 1:03 (+3:46 secondary childcare)</text>
   </g>
   <g id="text_11">
    <text style="font-family:DejaVu Sans;font-size:10px;font-stretch:normal;font-style:normal;font-weight:normal;text-anchor:start;" transform="rotate(-0, 3.552632, 11.759375)" x="3.552632" y="11.759375">♂</text>
   </g>
  </g>
 </g>
 <defs>
  <clipPath id="pc51b563461">
   <rect height="18" width="1080" x="0" y="0"/>
  </clipPath>
 </defs>
</svg>
