<?xml version="1.0" encoding="utf-8" standalone="no"?>
<!DOCTYPE svg PUBLIC "-//W3C//DTD SVG 1.1//EN"
  "http://www.w3.org/Graphics/SVG/1.1/DTD/svg11.dtd">
<svg height="18pt" version="1.1" viewBox="0 0 1080 18" width="1080pt" xmlns="http://www.w3.org/2000/svg" xmlns:xlink="http://www.w3.org/1999/xlink">
 <metadata>
  <rdf:RDF xmlns:cc="http://creativecommons.org/ns#" xmlns:dc="http://purl.org/dc/elements/1.1/" xmlns:rdf="http://www.w3.org/1999/02/22-rdf-syntax-ns#">
   <cc:Work>
    <dc:type rdf:resource="http://purl.org/dc/dcmitype/StillImage"/>
    <dc:date>2022-10-24T14:24:55.202461</dc:date>
    <dc:format>image/svg+xml</dc:format>
    <dc:creator>
     <cc:Agent>
      <dc:title>Matplotlib v3.4.3, https://matplotlib.org/</dc:title>
     </cc:Agent>
    </dc:creator>
   </cc:Work>
  </rdf:RDF>
 </metadata>
 <defs>
  <style type="text/css">*{stroke-linecap:butt;stroke-linejoin:round;}</style>
 </defs>
 <g id="figure_1">
  <g id="patch_1">
   <path d="M 0 18 
L 1080 18 
L 1080 0 
L 0 0 
z
" style="fill:none;"/>
  </g>
  <g id="axes_1">
   <g id="patch_2">
    <path clip-path="url(#p20e51be8ee)" d="M 14.210526 18 
L 14.951148 18 
L 14.951148 0 
L 14.210526 0 
z
"/>
   </g>
   <g id="patch_3">
    <path clip-path="url(#p20e51be8ee)" d="M 14.951148 18 
L 67.743533 18 
L 67.743533 0 
L 14.951148 0 
z
" style="fill:#80b1d3;"/>
   </g>
   <g id="patch_4">
    <path clip-path="url(#p20e51be8ee)" d="M 67.743533 18 
L 82.125113 18 
L 82.125113 0 
L 67.743533 0 
z
" style="fill:#ccebc5;"/>
   </g>
   <g id="patch_5">
    <path clip-path="url(#p20e51be8ee)" d="M 82.125113 18 
L 92.056573 18 
L 92.056573 0 
L 82.125113 0 
z
" style="fill:#8dd3c7;"/>
   </g>
   <g id="patch_6">
    <path clip-path="url(#p20e51be8ee)" d="M 92.056573 18 
L 119.535045 18 
L 119.535045 0 
L 92.056573 0 
z
" style="fill:#b3de69;"/>
   </g>
   <g id="patch_7">
    <path clip-path="url(#p20e51be8ee)" d="M 119.535045 18 
L 245.933436 18 
L 245.933436 0 
L 119.535045 0 
z
" style="fill:#fb8072;"/>
   </g>
   <g id="patch_8">
    <path clip-path="url(#p20e51be8ee)" d="M 245.933436 18 
L 254.905623 18 
L 254.905623 0 
L 245.933436 0 
z
" style="fill:#bebada;"/>
   </g>
   <g id="patch_9">
    <path clip-path="url(#p20e51be8ee)" d="M 254.905623 18 
L 270.432376 18 
L 270.432376 0 
L 254.905623 0 
z
" style="fill:#ffed6f;"/>
   </g>
   <g id="patch_10">
    <path clip-path="url(#p20e51be8ee)" d="M 270.432376 18 
L 292.796811 18 
L 292.796811 0 
L 270.432376 0 
z
" style="fill:#ffffb3;"/>
   </g>
   <g id="patch_11">
    <path clip-path="url(#p20e51be8ee)" d="M 292.796811 18 
L 315.68784 18 
L 315.68784 0 
L 292.796811 0 
z
" style="fill:#fdb462;"/>
   </g>
   <g id="patch_12">
    <path clip-path="url(#p20e51be8ee)" d="M 315.68784 18 
L 373.158204 18 
L 373.158204 0 
L 315.68784 0 
z
" style="fill:#d9d9d9;"/>
   </g>
   <g id="text_1">
    <text style="font-family:DejaVu Sans;font-size:10px;font-stretch:normal;font-style:normal;font-weight:normal;text-anchor:middle;" transform="rotate(-0, 41.34734, 11.759375)" x="41.34734" y="11.759375">15</text>
   </g>
   <g id="text_2">
    <text style="font-family:DejaVu Sans;font-size:10px;font-stretch:normal;font-style:normal;font-weight:normal;text-anchor:middle;" transform="rotate(-0, 74.934323, 11.759375)" x="74.934323" y="11.759375">4</text>
   </g>
   <g id="text_3">
    <text style="font-family:DejaVu Sans;font-size:10px;font-stretch:normal;font-style:normal;font-weight:normal;text-anchor:middle;" transform="rotate(-0, 87.090843, 11.759375)" x="87.090843" y="11.759375">3</text>
   </g>
   <g id="text_4">
    <text style="font-family:DejaVu Sans;font-size:10px;font-stretch:normal;font-style:normal;font-weight:normal;text-anchor:middle;" transform="rotate(-0, 105.795809, 11.759375)" x="105.795809" y="11.759375">8</text>
   </g>
   <g id="text_5">
    <text style="font-family:DejaVu Sans;font-size:10px;font-stretch:normal;font-style:normal;font-weight:normal;text-anchor:middle;" transform="rotate(-0, 182.73424, 11.759375)" x="182.73424" y="11.759375">36</text>
   </g>
   <g id="text_6">
    <text style="font-family:DejaVu Sans;font-size:10px;font-stretch:normal;font-style:normal;font-weight:normal;text-anchor:middle;" transform="rotate(-0, 250.419529, 11.759375)" x="250.419529" y="11.759375">3</text>
   </g>
   <g id="text_7">
    <text style="font-family:DejaVu Sans;font-size:10px;font-stretch:normal;font-style:normal;font-weight:normal;text-anchor:middle;" transform="rotate(-0, 262.669, 11.759375)" x="262.669" y="11.759375">4</text>
   </g>
   <g id="text_8">
    <text style="font-family:DejaVu Sans;font-size:10px;font-stretch:normal;font-style:normal;font-weight:normal;text-anchor:middle;" transform="rotate(-0, 281.614594, 11.759375)" x="281.614594" y="11.759375">6</text>
   </g>
   <g id="text_9">
    <text style="font-family:DejaVu Sans;font-size:10px;font-stretch:normal;font-style:normal;font-weight:normal;text-anchor:middle;" transform="rotate(-0, 304.242325, 11.759375)" x="304.242325" y="11.759375">6</text>
   </g>
   <g id="text_10">
    <text style="font-family:DejaVu Sans;font-size:10px;font-stretch:normal;font-style:normal;font-weight:normal;text-anchor:middle;" transform="rotate(-0, 344.423022, 11.759375)" x="344.423022" y="11.759375">16</text>
   </g>
   <g id="text_11">
    <text style="font-family:DejaVu Sans;font-size:10px;font-stretch:normal;font-style:normal;font-weight:normal;text-anchor:start;" transform="rotate(-0, 380.263468, 11.759375)" x="380.263468" y="11.759375">Total: 1:41 (+4:39 secondary childcare)</text>
   </g>
   <g id="text_12">
    <text style="font-family:DejaVu Sans;font-size:10px;font-stretch:normal;font-style:normal;font-weight:normal;text-anchor:start;" transform="rotate(-0, 3.552632, 11.759375)" x="3.552632" y="11.759375">♀</text>
   </g>
  </g>
 </g>
 <defs>
  <clipPath id="p20e51be8ee">
   <rect height="18" width="1080" x="0" y="0"/>
  </clipPath>
 </defs>
</svg>
