<?xml version="1.0" encoding="utf-8" standalone="no"?>
<!DOCTYPE svg PUBLIC "-//W3C//DTD SVG 1.1//EN"
  "http://www.w3.org/Graphics/SVG/1.1/DTD/svg11.dtd">
<svg height="18pt" version="1.1" viewBox="0 0 720 18" width="720pt" xmlns="http://www.w3.org/2000/svg" xmlns:xlink="http://www.w3.org/1999/xlink">
 <metadata>
  <rdf:RDF xmlns:cc="http://creativecommons.org/ns#" xmlns:dc="http://purl.org/dc/elements/1.1/" xmlns:rdf="http://www.w3.org/1999/02/22-rdf-syntax-ns#">
   <cc:Work>
    <dc:type rdf:resource="http://purl.org/dc/dcmitype/StillImage"/>
    <dc:date>2022-10-22T18:54:26.633533</dc:date>
    <dc:format>image/svg+xml</dc:format>
    <dc:creator>
     <cc:Agent>
      <dc:title>Matplotlib v3.4.3, https://matplotlib.org/</dc:title>
     </cc:Agent>
    </dc:creator>
   </cc:Work>
  </rdf:RDF>
 </metadata>
 <defs>
  <style type="text/css">*{stroke-linecap:butt;stroke-linejoin:round;}</style>
 </defs>
 <g id="figure_1">
  <g id="patch_1">
   <path d="M 0 18 
L 720 18 
L 720 0 
L 0 0 
z
" style="fill:none;"/>
  </g>
  <g id="axes_1">
   <g id="patch_2">
    <path clip-path="url(#pda740d1f81)" d="M 14.117647 18 
L 14.68515 18 
L 14.68515 0 
L 14.117647 0 
z
"/>
   </g>
   <g id="patch_3">
    <path clip-path="url(#pda740d1f81)" d="M 14.68515 18 
L 44.169236 18 
L 44.169236 0 
L 14.68515 0 
z
" style="fill:#80b1d3;"/>
   </g>
   <g id="patch_4">
    <path clip-path="url(#pda740d1f81)" d="M 44.169236 18 
L 56.348872 18 
L 56.348872 0 
L 44.169236 0 
z
" style="fill:#ccebc5;"/>
   </g>
   <g id="patch_5">
    <path clip-path="url(#pda740d1f81)" d="M 56.348872 18 
L 64.779711 18 
L 64.779711 0 
L 56.348872 0 
z
" style="fill:#8dd3c7;"/>
   </g>
   <g id="patch_6">
    <path clip-path="url(#pda740d1f81)" d="M 64.779711 18 
L 104.503017 18 
L 104.503017 0 
L 64.779711 0 
z
" style="fill:#bc80bd;"/>
   </g>
   <g id="patch_7">
    <path clip-path="url(#pda740d1f81)" d="M 104.503017 18 
L 167.435727 18 
L 167.435727 0 
L 104.503017 0 
z
" style="fill:#fb8072;"/>
   </g>
   <g id="patch_8">
    <path clip-path="url(#pda740d1f81)" d="M 167.435727 18 
L 172.45518 18 
L 172.45518 0 
L 167.435727 0 
z
" style="fill:#fccde5;"/>
   </g>
   <g id="patch_9">
    <path clip-path="url(#pda740d1f81)" d="M 172.45518 18 
L 189.47861 18 
L 189.47861 0 
L 172.45518 0 
z
" style="fill:#ffed6f;"/>
   </g>
   <g id="patch_10">
    <path clip-path="url(#pda740d1f81)" d="M 189.47861 18 
L 214.540682 18 
L 214.540682 0 
L 189.47861 0 
z
" style="fill:#ffffb3;"/>
   </g>
   <g id="patch_11">
    <path clip-path="url(#pda740d1f81)" d="M 214.540682 18 
L 232.742878 18 
L 232.742878 0 
L 214.540682 0 
z
" style="fill:#fdb462;"/>
   </g>
   <g id="patch_12">
    <path clip-path="url(#pda740d1f81)" d="M 232.742878 18 
L 276.163581 18 
L 276.163581 0 
L 232.742878 0 
z
" style="fill:#d9d9d9;"/>
   </g>
   <g id="text_1">
    <text style="font-family:DejaVu Sans;font-size:10px;font-stretch:normal;font-style:normal;font-weight:normal;text-anchor:middle;" transform="rotate(-0, 29.427193, 11.759375)" x="29.427193" y="11.759375">8</text>
   </g>
   <g id="text_2">
    <text style="font-family:DejaVu Sans;font-size:10px;font-stretch:normal;font-style:normal;font-weight:normal;text-anchor:middle;" transform="rotate(-0, 50.259054, 11.759375)" x="50.259054" y="11.759375">3</text>
   </g>
   <g id="text_3">
    <text style="font-family:DejaVu Sans;font-size:10px;font-stretch:normal;font-style:normal;font-weight:normal;text-anchor:middle;" transform="rotate(-0, 60.564292, 11.759375)" x="60.564292" y="11.759375">2</text>
   </g>
   <g id="text_4">
    <text style="font-family:DejaVu Sans;font-size:10px;font-stretch:normal;font-style:normal;font-weight:normal;text-anchor:middle;" transform="rotate(-0, 84.641364, 11.759375)" x="84.641364" y="11.759375">11</text>
   </g>
   <g id="text_5">
    <text style="font-family:DejaVu Sans;font-size:10px;font-stretch:normal;font-style:normal;font-weight:normal;text-anchor:middle;" transform="rotate(-0, 135.969372, 11.759375)" x="135.969372" y="11.759375">18</text>
   </g>
   <g id="text_6">
    <text style="font-family:DejaVu Sans;font-size:10px;font-stretch:normal;font-style:normal;font-weight:normal;text-anchor:middle;" transform="rotate(-0, 169.945454, 11.759375)" x="169.945454" y="11.759375">1</text>
   </g>
   <g id="text_7">
    <text style="font-family:DejaVu Sans;font-size:10px;font-stretch:normal;font-style:normal;font-weight:normal;text-anchor:middle;" transform="rotate(-0, 180.966895, 11.759375)" x="180.966895" y="11.759375">5</text>
   </g>
   <g id="text_8">
    <text style="font-family:DejaVu Sans;font-size:10px;font-stretch:normal;font-style:normal;font-weight:normal;text-anchor:middle;" transform="rotate(-0, 202.009646, 11.759375)" x="202.009646" y="11.759375">7</text>
   </g>
   <g id="text_9">
    <text style="font-family:DejaVu Sans;font-size:10px;font-stretch:normal;font-style:normal;font-weight:normal;text-anchor:middle;" transform="rotate(-0, 223.64178, 11.759375)" x="223.64178" y="11.759375">5</text>
   </g>
   <g id="text_10">
    <text style="font-family:DejaVu Sans;font-size:10px;font-stretch:normal;font-style:normal;font-weight:normal;text-anchor:middle;" transform="rotate(-0, 254.45323, 11.759375)" x="254.45323" y="11.759375">12</text>
   </g>
   <g id="text_11">
    <text style="font-family:DejaVu Sans;font-size:10px;font-stretch:normal;font-style:normal;font-weight:normal;text-anchor:start;" transform="rotate(-0, 283.222404, 11.759375)" x="283.222404" y="11.759375">Total: 1:14 (+5:33 secondary childcare)</text>
   </g>
  </g>
 </g>
 <defs>
  <clipPath id="pda740d1f81">
   <rect height="18" width="720" x="0" y="0"/>
  </clipPath>
 </defs>
</svg>
