<?xml version="1.0" encoding="utf-8" standalone="no"?>
<!DOCTYPE svg PUBLIC "-//W3C//DTD SVG 1.1//EN"
  "http://www.w3.org/Graphics/SVG/1.1/DTD/svg11.dtd">
<svg height="18pt" version="1.1" viewBox="0 0 720 18" width="720pt" xmlns="http://www.w3.org/2000/svg" xmlns:xlink="http://www.w3.org/1999/xlink">
 <metadata>
  <rdf:RDF xmlns:cc="http://creativecommons.org/ns#" xmlns:dc="http://purl.org/dc/elements/1.1/" xmlns:rdf="http://www.w3.org/1999/02/22-rdf-syntax-ns#">
   <cc:Work>
    <dc:type rdf:resource="http://purl.org/dc/dcmitype/StillImage"/>
    <dc:date>2022-10-22T11:17:48.358771</dc:date>
    <dc:format>image/svg+xml</dc:format>
    <dc:creator>
     <cc:Agent>
      <dc:title>Matplotlib v3.4.3, https://matplotlib.org/</dc:title>
     </cc:Agent>
    </dc:creator>
   </cc:Work>
  </rdf:RDF>
 </metadata>
 <defs>
  <style type="text/css">*{stroke-linecap:butt;stroke-linejoin:round;}</style>
 </defs>
 <g id="figure_1">
  <g id="patch_1">
   <path d="M 0 18 
L 720 18 
L 720 0 
L 0 0 
z
" style="fill:none;"/>
  </g>
  <g id="axes_1">
   <g id="patch_2">
    <path clip-path="url(#p994395abc6)" d="M 14.117647 18 
L 15.216015 18 
L 15.216015 0 
L 14.117647 0 
z
"/>
   </g>
   <g id="patch_3">
    <path clip-path="url(#p994395abc6)" d="M 15.216015 18 
L 27.109358 18 
L 27.109358 0 
L 15.216015 0 
z
" style="fill:#8dd3c7;"/>
   </g>
   <g id="patch_4">
    <path clip-path="url(#p994395abc6)" d="M 27.109358 18 
L 42.693186 18 
L 42.693186 0 
L 27.109358 0 
z
" style="fill:#ccebc5;"/>
   </g>
   <g id="patch_5">
    <path clip-path="url(#p994395abc6)" d="M 42.693186 18 
L 64.08753 18 
L 64.08753 0 
L 42.693186 0 
z
" style="fill:#b3de69;"/>
   </g>
   <g id="patch_6">
    <path clip-path="url(#p994395abc6)" d="M 64.08753 18 
L 140.492783 18 
L 140.492783 0 
L 64.08753 0 
z
" style="fill:#80b1d3;"/>
   </g>
   <g id="patch_7">
    <path clip-path="url(#p994395abc6)" d="M 140.492783 18 
L 289.379 18 
L 289.379 0 
L 140.492783 0 
z
" style="fill:#fb8072;"/>
   </g>
   <g id="patch_8">
    <path clip-path="url(#p994395abc6)" d="M 289.379 18 
L 300.268415 18 
L 300.268415 0 
L 289.379 0 
z
" style="fill:#fccde5;"/>
   </g>
   <g id="patch_9">
    <path clip-path="url(#p994395abc6)" d="M 300.268415 18 
L 333.842309 18 
L 333.842309 0 
L 300.268415 0 
z
" style="fill:#bebada;"/>
   </g>
   <g id="patch_10">
    <path clip-path="url(#p994395abc6)" d="M 333.842309 18 
L 355.950977 18 
L 355.950977 0 
L 333.842309 0 
z
" style="fill:#ffed6f;"/>
   </g>
   <g id="patch_11">
    <path clip-path="url(#p994395abc6)" d="M 355.950977 18 
L 379.201159 18 
L 379.201159 0 
L 355.950977 0 
z
" style="fill:#fdb462;"/>
   </g>
   <g id="patch_12">
    <path clip-path="url(#p994395abc6)" d="M 379.201159 18 
L 435.235592 18 
L 435.235592 0 
L 379.201159 0 
z
" style="fill:#d9d9d9;"/>
   </g>
   <g id="text_1">
    <text style="font-family:DejaVu Sans;font-size:10px;font-stretch:normal;font-style:normal;font-weight:normal;text-anchor:middle;" transform="rotate(-0, 21.162687, 11.759375)" x="21.162687" y="11.759375">3</text>
   </g>
   <g id="text_2">
    <text style="font-family:DejaVu Sans;font-size:10px;font-stretch:normal;font-style:normal;font-weight:normal;text-anchor:middle;" transform="rotate(-0, 34.901272, 11.759375)" x="34.901272" y="11.759375">4</text>
   </g>
   <g id="text_3">
    <text style="font-family:DejaVu Sans;font-size:10px;font-stretch:normal;font-style:normal;font-weight:normal;text-anchor:middle;" transform="rotate(-0, 53.390358, 11.759375)" x="53.390358" y="11.759375">6</text>
   </g>
   <g id="text_4">
    <text style="font-family:DejaVu Sans;font-size:10px;font-stretch:normal;font-style:normal;font-weight:normal;text-anchor:middle;" transform="rotate(-0, 102.290156, 11.759375)" x="102.290156" y="11.759375">22</text>
   </g>
   <g id="text_5">
    <text style="font-family:DejaVu Sans;font-size:10px;font-stretch:normal;font-style:normal;font-weight:normal;text-anchor:middle;" transform="rotate(-0, 214.935891, 11.759375)" x="214.935891" y="11.759375">42</text>
   </g>
   <g id="text_6">
    <text style="font-family:DejaVu Sans;font-size:10px;font-stretch:normal;font-style:normal;font-weight:normal;text-anchor:middle;" transform="rotate(-0, 294.823707, 11.759375)" x="294.823707" y="11.759375">3</text>
   </g>
   <g id="text_7">
    <text style="font-family:DejaVu Sans;font-size:10px;font-stretch:normal;font-style:normal;font-weight:normal;text-anchor:middle;" transform="rotate(-0, 317.055362, 11.759375)" x="317.055362" y="11.759375">10</text>
   </g>
   <g id="text_8">
    <text style="font-family:DejaVu Sans;font-size:10px;font-stretch:normal;font-style:normal;font-weight:normal;text-anchor:middle;" transform="rotate(-0, 344.896643, 11.759375)" x="344.896643" y="11.759375">6</text>
   </g>
   <g id="text_9">
    <text style="font-family:DejaVu Sans;font-size:10px;font-stretch:normal;font-style:normal;font-weight:normal;text-anchor:middle;" transform="rotate(-0, 367.576068, 11.759375)" x="367.576068" y="11.759375">7</text>
   </g>
   <g id="text_10">
    <text style="font-family:DejaVu Sans;font-size:10px;font-stretch:normal;font-style:normal;font-weight:normal;text-anchor:middle;" transform="rotate(-0, 407.218375, 11.759375)" x="407.218375" y="11.759375">16</text>
   </g>
   <g id="text_11">
    <text style="font-family:DejaVu Sans;font-size:10px;font-stretch:normal;font-style:normal;font-weight:normal;text-anchor:start;" transform="rotate(-0, 442.294415, 11.759375)" x="442.294415" y="11.759375">Total: 1:59 (+5:24 secondary childcare)</text>
   </g>
   <g id="text_12">
    <text style="font-family:DejaVu Sans;font-size:10px;font-stretch:normal;font-style:normal;font-weight:normal;text-anchor:start;" transform="rotate(-0, 3.529412, 11.759375)" x="3.529412" y="11.759375">♀</text>
   </g>
  </g>
 </g>
 <defs>
  <clipPath id="p994395abc6">
   <rect height="18" width="720" x="0" y="0"/>
  </clipPath>
 </defs>
</svg>
