<?xml version="1.0" encoding="utf-8" standalone="no"?>
<!DOCTYPE svg PUBLIC "-//W3C//DTD SVG 1.1//EN"
  "http://www.w3.org/Graphics/SVG/1.1/DTD/svg11.dtd">
<svg height="18pt" version="1.1" viewBox="0 0 720 18" width="720pt" xmlns="http://www.w3.org/2000/svg" xmlns:xlink="http://www.w3.org/1999/xlink">
 <metadata>
  <rdf:RDF xmlns:cc="http://creativecommons.org/ns#" xmlns:dc="http://purl.org/dc/elements/1.1/" xmlns:rdf="http://www.w3.org/1999/02/22-rdf-syntax-ns#">
   <cc:Work>
    <dc:type rdf:resource="http://purl.org/dc/dcmitype/StillImage"/>
    <dc:date>2022-10-22T11:17:45.462747</dc:date>
    <dc:format>image/svg+xml</dc:format>
    <dc:creator>
     <cc:Agent>
      <dc:title>Matplotlib v3.4.3, https://matplotlib.org/</dc:title>
     </cc:Agent>
    </dc:creator>
   </cc:Work>
  </rdf:RDF>
 </metadata>
 <defs>
  <style type="text/css">*{stroke-linecap:butt;stroke-linejoin:round;}</style>
 </defs>
 <g id="figure_1">
  <g id="patch_1">
   <path d="M 0 18 
L 720 18 
L 720 0 
L 0 0 
z
" style="fill:none;"/>
  </g>
  <g id="axes_1">
   <g id="patch_2">
    <path clip-path="url(#p0baaa536af)" d="M 14.117647 18 
L 15.083542 18 
L 15.083542 0 
L 14.117647 0 
z
"/>
   </g>
   <g id="patch_3">
    <path clip-path="url(#p0baaa536af)" d="M 15.083542 18 
L 24.4582 18 
L 24.4582 0 
L 15.083542 0 
z
" style="fill:#8dd3c7;"/>
   </g>
   <g id="patch_4">
    <path clip-path="url(#p0baaa536af)" d="M 24.4582 18 
L 36.169024 18 
L 36.169024 0 
L 24.4582 0 
z
" style="fill:#ccebc5;"/>
   </g>
   <g id="patch_5">
    <path clip-path="url(#p0baaa536af)" d="M 36.169024 18 
L 53.997252 18 
L 53.997252 0 
L 36.169024 0 
z
" style="fill:#b3de69;"/>
   </g>
   <g id="patch_6">
    <path clip-path="url(#p0baaa536af)" d="M 53.997252 18 
L 124.857556 18 
L 124.857556 0 
L 53.997252 0 
z
" style="fill:#80b1d3;"/>
   </g>
   <g id="patch_7">
    <path clip-path="url(#p0baaa536af)" d="M 124.857556 18 
L 233.83066 18 
L 233.83066 0 
L 124.857556 0 
z
" style="fill:#fb8072;"/>
   </g>
   <g id="patch_8">
    <path clip-path="url(#p0baaa536af)" d="M 233.83066 18 
L 241.294537 18 
L 241.294537 0 
L 233.83066 0 
z
" style="fill:#fccde5;"/>
   </g>
   <g id="patch_9">
    <path clip-path="url(#p0baaa536af)" d="M 241.294537 18 
L 266.686564 18 
L 266.686564 0 
L 241.294537 0 
z
" style="fill:#bebada;"/>
   </g>
   <g id="patch_10">
    <path clip-path="url(#p0baaa536af)" d="M 266.686564 18 
L 285.151472 18 
L 285.151472 0 
L 266.686564 0 
z
" style="fill:#ffed6f;"/>
   </g>
   <g id="patch_11">
    <path clip-path="url(#p0baaa536af)" d="M 285.151472 18 
L 302.63176 18 
L 302.63176 0 
L 285.151472 0 
z
" style="fill:#fdb462;"/>
   </g>
   <g id="patch_12">
    <path clip-path="url(#p0baaa536af)" d="M 302.63176 18 
L 346.628231 18 
L 346.628231 0 
L 302.63176 0 
z
" style="fill:#d9d9d9;"/>
   </g>
   <g id="text_1">
    <text style="font-family:DejaVu Sans;font-size:10px;font-stretch:normal;font-style:normal;font-weight:normal;text-anchor:middle;" transform="rotate(-0, 19.770871, 11.759375)" x="19.770871" y="11.759375">3</text>
   </g>
   <g id="text_2">
    <text style="font-family:DejaVu Sans;font-size:10px;font-stretch:normal;font-style:normal;font-weight:normal;text-anchor:middle;" transform="rotate(-0, 30.313612, 11.759375)" x="30.313612" y="11.759375">3</text>
   </g>
   <g id="text_3">
    <text style="font-family:DejaVu Sans;font-size:10px;font-stretch:normal;font-style:normal;font-weight:normal;text-anchor:middle;" transform="rotate(-0, 45.083138, 11.759375)" x="45.083138" y="11.759375">5</text>
   </g>
   <g id="text_4">
    <text style="font-family:DejaVu Sans;font-size:10px;font-stretch:normal;font-style:normal;font-weight:normal;text-anchor:middle;" transform="rotate(-0, 89.427404, 11.759375)" x="89.427404" y="11.759375">20</text>
   </g>
   <g id="text_5">
    <text style="font-family:DejaVu Sans;font-size:10px;font-stretch:normal;font-style:normal;font-weight:normal;text-anchor:middle;" transform="rotate(-0, 179.344108, 11.759375)" x="179.344108" y="11.759375">31</text>
   </g>
   <g id="text_6">
    <text style="font-family:DejaVu Sans;font-size:10px;font-stretch:normal;font-style:normal;font-weight:normal;text-anchor:middle;" transform="rotate(-0, 237.562598, 11.759375)" x="237.562598" y="11.759375">2</text>
   </g>
   <g id="text_7">
    <text style="font-family:DejaVu Sans;font-size:10px;font-stretch:normal;font-style:normal;font-weight:normal;text-anchor:middle;" transform="rotate(-0, 253.99055, 11.759375)" x="253.99055" y="11.759375">7</text>
   </g>
   <g id="text_8">
    <text style="font-family:DejaVu Sans;font-size:10px;font-stretch:normal;font-style:normal;font-weight:normal;text-anchor:middle;" transform="rotate(-0, 275.919018, 11.759375)" x="275.919018" y="11.759375">5</text>
   </g>
   <g id="text_9">
    <text style="font-family:DejaVu Sans;font-size:10px;font-stretch:normal;font-style:normal;font-weight:normal;text-anchor:middle;" transform="rotate(-0, 293.891616, 11.759375)" x="293.891616" y="11.759375">5</text>
   </g>
   <g id="text_10">
    <text style="font-family:DejaVu Sans;font-size:10px;font-stretch:normal;font-style:normal;font-weight:normal;text-anchor:middle;" transform="rotate(-0, 324.629996, 11.759375)" x="324.629996" y="11.759375">12</text>
   </g>
   <g id="text_11">
    <text style="font-family:DejaVu Sans;font-size:10px;font-stretch:normal;font-style:normal;font-weight:normal;text-anchor:start;" transform="rotate(-0, 353.687055, 11.759375)" x="353.687055" y="11.759375">Total: 1:34 (+4:40 secondary childcare)</text>
   </g>
  </g>
 </g>
 <defs>
  <clipPath id="p0baaa536af">
   <rect height="18" width="720" x="0" y="0"/>
  </clipPath>
 </defs>
</svg>
