<?xml version="1.0" encoding="utf-8" standalone="no"?>
<!DOCTYPE svg PUBLIC "-//W3C//DTD SVG 1.1//EN"
  "http://www.w3.org/Graphics/SVG/1.1/DTD/svg11.dtd">
<svg height="18pt" version="1.1" viewBox="0 0 720 18" width="720pt" xmlns="http://www.w3.org/2000/svg" xmlns:xlink="http://www.w3.org/1999/xlink">
 <metadata>
  <rdf:RDF xmlns:cc="http://creativecommons.org/ns#" xmlns:dc="http://purl.org/dc/elements/1.1/" xmlns:rdf="http://www.w3.org/1999/02/22-rdf-syntax-ns#">
   <cc:Work>
    <dc:type rdf:resource="http://purl.org/dc/dcmitype/StillImage"/>
    <dc:date>2022-10-22T18:55:23.688796</dc:date>
    <dc:format>image/svg+xml</dc:format>
    <dc:creator>
     <cc:Agent>
      <dc:title>Matplotlib v3.4.3, https://matplotlib.org/</dc:title>
     </cc:Agent>
    </dc:creator>
   </cc:Work>
  </rdf:RDF>
 </metadata>
 <defs>
  <style type="text/css">*{stroke-linecap:butt;stroke-linejoin:round;}</style>
 </defs>
 <g id="figure_1">
  <g id="patch_1">
   <path d="M 0 18 
L 720 18 
L 720 0 
L 0 0 
z
" style="fill:none;"/>
  </g>
  <g id="axes_1">
   <g id="patch_2">
    <path clip-path="url(#p373059721f)" d="M 14.117647 18 
L 14.931962 18 
L 14.931962 0 
L 14.117647 0 
z
"/>
   </g>
   <g id="patch_3">
    <path clip-path="url(#p373059721f)" d="M 14.931962 18 
L 74.532899 18 
L 74.532899 0 
L 14.931962 0 
z
" style="fill:#80b1d3;"/>
   </g>
   <g id="patch_4">
    <path clip-path="url(#p373059721f)" d="M 74.532899 18 
L 81.453612 18 
L 81.453612 0 
L 74.532899 0 
z
" style="fill:#ccebc5;"/>
   </g>
   <g id="patch_5">
    <path clip-path="url(#p373059721f)" d="M 81.453612 18 
L 87.877071 18 
L 87.877071 0 
L 81.453612 0 
z
" style="fill:#8dd3c7;"/>
   </g>
   <g id="patch_6">
    <path clip-path="url(#p373059721f)" d="M 87.877071 18 
L 102.391445 18 
L 102.391445 0 
L 87.877071 0 
z
" style="fill:#bc80bd;"/>
   </g>
   <g id="patch_7">
    <path clip-path="url(#p373059721f)" d="M 102.391445 18 
L 162.251677 18 
L 162.251677 0 
L 102.391445 0 
z
" style="fill:#fb8072;"/>
   </g>
   <g id="patch_8">
    <path clip-path="url(#p373059721f)" d="M 162.251677 18 
L 165.662685 18 
L 165.662685 0 
L 162.251677 0 
z
" style="fill:#fccde5;"/>
   </g>
   <g id="patch_9">
    <path clip-path="url(#p373059721f)" d="M 165.662685 18 
L 177.319523 18 
L 177.319523 0 
L 165.662685 0 
z
" style="fill:#ffed6f;"/>
   </g>
   <g id="patch_10">
    <path clip-path="url(#p373059721f)" d="M 177.319523 18 
L 191.164363 18 
L 191.164363 0 
L 177.319523 0 
z
" style="fill:#ffffb3;"/>
   </g>
   <g id="patch_11">
    <path clip-path="url(#p373059721f)" d="M 191.164363 18 
L 201.454283 18 
L 201.454283 0 
L 191.164363 0 
z
" style="fill:#fdb462;"/>
   </g>
   <g id="patch_12">
    <path clip-path="url(#p373059721f)" d="M 201.454283 18 
L 229.364356 18 
L 229.364356 0 
L 201.454283 0 
z
" style="fill:#d9d9d9;"/>
   </g>
   <g id="text_1">
    <text style="font-family:DejaVu Sans;font-size:10px;font-stretch:normal;font-style:normal;font-weight:normal;text-anchor:middle;" transform="rotate(-0, 44.732431, 11.759375)" x="44.732431" y="11.759375">17</text>
   </g>
   <g id="text_2">
    <text style="font-family:DejaVu Sans;font-size:10px;font-stretch:normal;font-style:normal;font-weight:normal;text-anchor:middle;" transform="rotate(-0, 77.993256, 11.759375)" x="77.993256" y="11.759375">2</text>
   </g>
   <g id="text_3">
    <text style="font-family:DejaVu Sans;font-size:10px;font-stretch:normal;font-style:normal;font-weight:normal;text-anchor:middle;" transform="rotate(-0, 84.665341, 11.759375)" x="84.665341" y="11.759375">2</text>
   </g>
   <g id="text_4">
    <text style="font-family:DejaVu Sans;font-size:10px;font-stretch:normal;font-style:normal;font-weight:normal;text-anchor:middle;" transform="rotate(-0, 95.134258, 11.759375)" x="95.134258" y="11.759375">4</text>
   </g>
   <g id="text_5">
    <text style="font-family:DejaVu Sans;font-size:10px;font-stretch:normal;font-style:normal;font-weight:normal;text-anchor:middle;" transform="rotate(-0, 132.321561, 11.759375)" x="132.321561" y="11.759375">17</text>
   </g>
   <g id="text_6">
    <text style="font-family:DejaVu Sans;font-size:10px;font-stretch:normal;font-style:normal;font-weight:normal;text-anchor:middle;" transform="rotate(-0, 171.491104, 11.759375)" x="171.491104" y="11.759375">3</text>
   </g>
   <g id="text_7">
    <text style="font-family:DejaVu Sans;font-size:10px;font-stretch:normal;font-style:normal;font-weight:normal;text-anchor:middle;" transform="rotate(-0, 184.241943, 11.759375)" x="184.241943" y="11.759375">4</text>
   </g>
   <g id="text_8">
    <text style="font-family:DejaVu Sans;font-size:10px;font-stretch:normal;font-style:normal;font-weight:normal;text-anchor:middle;" transform="rotate(-0, 196.309323, 11.759375)" x="196.309323" y="11.759375">3</text>
   </g>
   <g id="text_9">
    <text style="font-family:DejaVu Sans;font-size:10px;font-stretch:normal;font-style:normal;font-weight:normal;text-anchor:middle;" transform="rotate(-0, 215.409319, 11.759375)" x="215.409319" y="11.759375">8</text>
   </g>
   <g id="text_10">
    <text style="font-family:DejaVu Sans;font-size:10px;font-stretch:normal;font-style:normal;font-weight:normal;text-anchor:start;" transform="rotate(-0, 236.423179, 11.759375)" x="236.423179" y="11.759375">Total: 1:01 (+3:46 secondary childcare)</text>
   </g>
   <g id="text_11">
    <text style="font-family:DejaVu Sans;font-size:10px;font-stretch:normal;font-style:normal;font-weight:normal;text-anchor:start;" transform="rotate(-0, 3.529412, 11.759375)" x="3.529412" y="11.759375">♂</text>
   </g>
  </g>
 </g>
 <defs>
  <clipPath id="p373059721f">
   <rect height="18" width="720" x="0" y="0"/>
  </clipPath>
 </defs>
</svg>
