<?xml version="1.0" encoding="utf-8" standalone="no"?>
<!DOCTYPE svg PUBLIC "-//W3C//DTD SVG 1.1//EN"
  "http://www.w3.org/Graphics/SVG/1.1/DTD/svg11.dtd">
<svg height="18pt" version="1.1" viewBox="0 0 720 18" width="720pt" xmlns="http://www.w3.org/2000/svg" xmlns:xlink="http://www.w3.org/1999/xlink">
 <metadata>
  <rdf:RDF xmlns:cc="http://creativecommons.org/ns#" xmlns:dc="http://purl.org/dc/elements/1.1/" xmlns:rdf="http://www.w3.org/1999/02/22-rdf-syntax-ns#">
   <cc:Work>
    <dc:type rdf:resource="http://purl.org/dc/dcmitype/StillImage"/>
    <dc:date>2022-10-22T18:53:16.409516</dc:date>
    <dc:format>image/svg+xml</dc:format>
    <dc:creator>
     <cc:Agent>
      <dc:title>Matplotlib v3.4.3, https://matplotlib.org/</dc:title>
     </cc:Agent>
    </dc:creator>
   </cc:Work>
  </rdf:RDF>
 </metadata>
 <defs>
  <style type="text/css">*{stroke-linecap:butt;stroke-linejoin:round;}</style>
 </defs>
 <g id="figure_1">
  <g id="patch_1">
   <path d="M 0 18 
L 720 18 
L 720 0 
L 0 0 
z
" style="fill:none;"/>
  </g>
  <g id="axes_1">
   <g id="patch_2">
    <path clip-path="url(#p375e9fa9e2)" d="M 14.117647 18 
L 14.472714 18 
L 14.472714 0 
L 14.117647 0 
z
"/>
   </g>
   <g id="patch_3">
    <path clip-path="url(#p375e9fa9e2)" d="M 14.472714 18 
L 86.014293 18 
L 86.014293 0 
L 14.472714 0 
z
" style="fill:#80b1d3;"/>
   </g>
   <g id="patch_4">
    <path clip-path="url(#p375e9fa9e2)" d="M 86.014293 18 
L 94.992864 18 
L 94.992864 0 
L 86.014293 0 
z
" style="fill:#ccebc5;"/>
   </g>
   <g id="patch_5">
    <path clip-path="url(#p375e9fa9e2)" d="M 94.992864 18 
L 101.405499 18 
L 101.405499 0 
L 94.992864 0 
z
" style="fill:#8dd3c7;"/>
   </g>
   <g id="patch_6">
    <path clip-path="url(#p375e9fa9e2)" d="M 101.405499 18 
L 118.858677 18 
L 118.858677 0 
L 101.405499 0 
z
" style="fill:#bc80bd;"/>
   </g>
   <g id="patch_7">
    <path clip-path="url(#p375e9fa9e2)" d="M 118.858677 18 
L 180.862189 18 
L 180.862189 0 
L 118.858677 0 
z
" style="fill:#fb8072;"/>
   </g>
   <g id="patch_8">
    <path clip-path="url(#p375e9fa9e2)" d="M 180.862189 18 
L 185.601118 18 
L 185.601118 0 
L 180.862189 0 
z
" style="fill:#fccde5;"/>
   </g>
   <g id="patch_9">
    <path clip-path="url(#p375e9fa9e2)" d="M 185.601118 18 
L 198.869792 18 
L 198.869792 0 
L 185.601118 0 
z
" style="fill:#ffed6f;"/>
   </g>
   <g id="patch_10">
    <path clip-path="url(#p375e9fa9e2)" d="M 198.869792 18 
L 216.659827 18 
L 216.659827 0 
L 198.869792 0 
z
" style="fill:#ffffb3;"/>
   </g>
   <g id="patch_11">
    <path clip-path="url(#p375e9fa9e2)" d="M 216.659827 18 
L 228.461737 18 
L 228.461737 0 
L 216.659827 0 
z
" style="fill:#fdb462;"/>
   </g>
   <g id="patch_12">
    <path clip-path="url(#p375e9fa9e2)" d="M 228.461737 18 
L 260.73997 18 
L 260.73997 0 
L 228.461737 0 
z
" style="fill:#d9d9d9;"/>
   </g>
   <g id="text_1">
    <text style="font-family:DejaVu Sans;font-size:10px;font-stretch:normal;font-style:normal;font-weight:normal;text-anchor:middle;" transform="rotate(-0, 50.243503, 11.759375)" x="50.243503" y="11.759375">20</text>
   </g>
   <g id="text_2">
    <text style="font-family:DejaVu Sans;font-size:10px;font-stretch:normal;font-style:normal;font-weight:normal;text-anchor:middle;" transform="rotate(-0, 90.503578, 11.759375)" x="90.503578" y="11.759375">3</text>
   </g>
   <g id="text_3">
    <text style="font-family:DejaVu Sans;font-size:10px;font-stretch:normal;font-style:normal;font-weight:normal;text-anchor:middle;" transform="rotate(-0, 98.199181, 11.759375)" x="98.199181" y="11.759375">2</text>
   </g>
   <g id="text_4">
    <text style="font-family:DejaVu Sans;font-size:10px;font-stretch:normal;font-style:normal;font-weight:normal;text-anchor:middle;" transform="rotate(-0, 110.132088, 11.759375)" x="110.132088" y="11.759375">5</text>
   </g>
   <g id="text_5">
    <text style="font-family:DejaVu Sans;font-size:10px;font-stretch:normal;font-style:normal;font-weight:normal;text-anchor:middle;" transform="rotate(-0, 149.860433, 11.759375)" x="149.860433" y="11.759375">18</text>
   </g>
   <g id="text_6">
    <text style="font-family:DejaVu Sans;font-size:10px;font-stretch:normal;font-style:normal;font-weight:normal;text-anchor:middle;" transform="rotate(-0, 183.231654, 11.759375)" x="183.231654" y="11.759375">1</text>
   </g>
   <g id="text_7">
    <text style="font-family:DejaVu Sans;font-size:10px;font-stretch:normal;font-style:normal;font-weight:normal;text-anchor:middle;" transform="rotate(-0, 192.235455, 11.759375)" x="192.235455" y="11.759375">4</text>
   </g>
   <g id="text_8">
    <text style="font-family:DejaVu Sans;font-size:10px;font-stretch:normal;font-style:normal;font-weight:normal;text-anchor:middle;" transform="rotate(-0, 207.76481, 11.759375)" x="207.76481" y="11.759375">5</text>
   </g>
   <g id="text_9">
    <text style="font-family:DejaVu Sans;font-size:10px;font-stretch:normal;font-style:normal;font-weight:normal;text-anchor:middle;" transform="rotate(-0, 222.560782, 11.759375)" x="222.560782" y="11.759375">3</text>
   </g>
   <g id="text_10">
    <text style="font-family:DejaVu Sans;font-size:10px;font-stretch:normal;font-style:normal;font-weight:normal;text-anchor:middle;" transform="rotate(-0, 244.600853, 11.759375)" x="244.600853" y="11.759375">9</text>
   </g>
   <g id="text_11">
    <text style="font-family:DejaVu Sans;font-size:10px;font-stretch:normal;font-style:normal;font-weight:normal;text-anchor:start;" transform="rotate(-0, 267.798793, 11.759375)" x="267.798793" y="11.759375">Total: 1:10 (+3:44 secondary childcare)</text>
   </g>
   <g id="text_12">
    <text style="font-family:DejaVu Sans;font-size:10px;font-stretch:normal;font-style:normal;font-weight:normal;text-anchor:start;" transform="rotate(-0, 3.529412, 11.759375)" x="3.529412" y="11.759375">♂</text>
   </g>
  </g>
 </g>
 <defs>
  <clipPath id="p375e9fa9e2">
   <rect height="18" width="720" x="0" y="0"/>
  </clipPath>
 </defs>
</svg>
