<?xml version="1.0" encoding="utf-8" standalone="no"?>
<!DOCTYPE svg PUBLIC "-//W3C//DTD SVG 1.1//EN"
  "http://www.w3.org/Graphics/SVG/1.1/DTD/svg11.dtd">
<svg height="18pt" version="1.1" viewBox="0 0 720 18" width="720pt" xmlns="http://www.w3.org/2000/svg" xmlns:xlink="http://www.w3.org/1999/xlink">
 <metadata>
  <rdf:RDF xmlns:cc="http://creativecommons.org/ns#" xmlns:dc="http://purl.org/dc/elements/1.1/" xmlns:rdf="http://www.w3.org/1999/02/22-rdf-syntax-ns#">
   <cc:Work>
    <dc:type rdf:resource="http://purl.org/dc/dcmitype/StillImage"/>
    <dc:date>2022-10-22T11:17:46.824769</dc:date>
    <dc:format>image/svg+xml</dc:format>
    <dc:creator>
     <cc:Agent>
      <dc:title>Matplotlib v3.4.3, https://matplotlib.org/</dc:title>
     </cc:Agent>
    </dc:creator>
   </cc:Work>
  </rdf:RDF>
 </metadata>
 <defs>
  <style type="text/css">*{stroke-linecap:butt;stroke-linejoin:round;}</style>
 </defs>
 <g id="figure_1">
  <g id="patch_1">
   <path d="M 0 18 
L 720 18 
L 720 0 
L 0 0 
z
" style="fill:none;"/>
  </g>
  <g id="axes_1">
   <g id="patch_2">
    <path clip-path="url(#p9d2f80a0b7)" d="M 14.117647 18 
L 14.920388 18 
L 14.920388 0 
L 14.117647 0 
z
"/>
   </g>
   <g id="patch_3">
    <path clip-path="url(#p9d2f80a0b7)" d="M 14.920388 18 
L 21.193065 18 
L 21.193065 0 
L 14.920388 0 
z
" style="fill:#8dd3c7;"/>
   </g>
   <g id="patch_4">
    <path clip-path="url(#p9d2f80a0b7)" d="M 21.193065 18 
L 28.133943 18 
L 28.133943 0 
L 21.193065 0 
z
" style="fill:#ccebc5;"/>
   </g>
   <g id="patch_5">
    <path clip-path="url(#p9d2f80a0b7)" d="M 28.133943 18 
L 41.570185 18 
L 41.570185 0 
L 28.133943 0 
z
" style="fill:#b3de69;"/>
   </g>
   <g id="patch_6">
    <path clip-path="url(#p9d2f80a0b7)" d="M 41.570185 18 
L 105.601393 18 
L 105.601393 0 
L 41.570185 0 
z
" style="fill:#80b1d3;"/>
   </g>
   <g id="patch_7">
    <path clip-path="url(#p9d2f80a0b7)" d="M 105.601393 18 
L 165.417972 18 
L 165.417972 0 
L 105.601393 0 
z
" style="fill:#fb8072;"/>
   </g>
   <g id="patch_8">
    <path clip-path="url(#p9d2f80a0b7)" d="M 165.417972 18 
L 168.662995 18 
L 168.662995 0 
L 165.417972 0 
z
" style="fill:#fccde5;"/>
   </g>
   <g id="patch_9">
    <path clip-path="url(#p9d2f80a0b7)" d="M 168.662995 18 
L 183.978331 18 
L 183.978331 0 
L 168.662995 0 
z
" style="fill:#bebada;"/>
   </g>
   <g id="patch_10">
    <path clip-path="url(#p9d2f80a0b7)" d="M 183.978331 18 
L 197.955627 18 
L 197.955627 0 
L 183.978331 0 
z
" style="fill:#ffed6f;"/>
   </g>
   <g id="patch_11">
    <path clip-path="url(#p9d2f80a0b7)" d="M 197.955627 18 
L 208.329782 18 
L 208.329782 0 
L 197.955627 0 
z
" style="fill:#fdb462;"/>
   </g>
   <g id="patch_12">
    <path clip-path="url(#p9d2f80a0b7)" d="M 208.329782 18 
L 237.500439 18 
L 237.500439 0 
L 208.329782 0 
z
" style="fill:#d9d9d9;"/>
   </g>
   <g id="text_1">
    <text style="font-family:DejaVu Sans;font-size:10px;font-stretch:normal;font-style:normal;font-weight:normal;text-anchor:middle;" transform="rotate(-0, 18.056727, 11.759375)" x="18.056727" y="11.759375">2</text>
   </g>
   <g id="text_2">
    <text style="font-family:DejaVu Sans;font-size:10px;font-stretch:normal;font-style:normal;font-weight:normal;text-anchor:middle;" transform="rotate(-0, 24.663504, 11.759375)" x="24.663504" y="11.759375">2</text>
   </g>
   <g id="text_3">
    <text style="font-family:DejaVu Sans;font-size:10px;font-stretch:normal;font-style:normal;font-weight:normal;text-anchor:middle;" transform="rotate(-0, 34.852064, 11.759375)" x="34.852064" y="11.759375">4</text>
   </g>
   <g id="text_4">
    <text style="font-family:DejaVu Sans;font-size:10px;font-stretch:normal;font-style:normal;font-weight:normal;text-anchor:middle;" transform="rotate(-0, 73.585789, 11.759375)" x="73.585789" y="11.759375">18</text>
   </g>
   <g id="text_5">
    <text style="font-family:DejaVu Sans;font-size:10px;font-stretch:normal;font-style:normal;font-weight:normal;text-anchor:middle;" transform="rotate(-0, 135.509683, 11.759375)" x="135.509683" y="11.759375">17</text>
   </g>
   <g id="text_6">
    <text style="font-family:DejaVu Sans;font-size:10px;font-stretch:normal;font-style:normal;font-weight:normal;text-anchor:middle;" transform="rotate(-0, 176.320663, 11.759375)" x="176.320663" y="11.759375">4</text>
   </g>
   <g id="text_7">
    <text style="font-family:DejaVu Sans;font-size:10px;font-stretch:normal;font-style:normal;font-weight:normal;text-anchor:middle;" transform="rotate(-0, 190.966979, 11.759375)" x="190.966979" y="11.759375">4</text>
   </g>
   <g id="text_8">
    <text style="font-family:DejaVu Sans;font-size:10px;font-stretch:normal;font-style:normal;font-weight:normal;text-anchor:middle;" transform="rotate(-0, 203.142704, 11.759375)" x="203.142704" y="11.759375">3</text>
   </g>
   <g id="text_9">
    <text style="font-family:DejaVu Sans;font-size:10px;font-stretch:normal;font-style:normal;font-weight:normal;text-anchor:middle;" transform="rotate(-0, 222.91511, 11.759375)" x="222.91511" y="11.759375">8</text>
   </g>
   <g id="text_10">
    <text style="font-family:DejaVu Sans;font-size:10px;font-stretch:normal;font-style:normal;font-weight:normal;text-anchor:start;" transform="rotate(-0, 244.559262, 11.759375)" x="244.559262" y="11.759375">Total: 1:03 (+3:46 secondary childcare)</text>
   </g>
   <g id="text_11">
    <text style="font-family:DejaVu Sans;font-size:10px;font-stretch:normal;font-style:normal;font-weight:normal;text-anchor:start;" transform="rotate(-0, 3.529412, 11.759375)" x="3.529412" y="11.759375">♂</text>
   </g>
  </g>
 </g>
 <defs>
  <clipPath id="p9d2f80a0b7">
   <rect height="18" width="720" x="0" y="0"/>
  </clipPath>
 </defs>
</svg>
