<?xml version="1.0" encoding="UTF-8" standalone="no"?>
<svg
   xmlns:dc="http://purl.org/dc/elements/1.1/"
   xmlns:cc="http://creativecommons.org/ns#"
   xmlns:rdf="http://www.w3.org/1999/02/22-rdf-syntax-ns#"
   xmlns:svg="http://www.w3.org/2000/svg"
   xmlns="http://www.w3.org/2000/svg"
   xmlns:sodipodi="http://sodipodi.sourceforge.net/DTD/sodipodi-0.dtd"
   xmlns:inkscape="http://www.inkscape.org/namespaces/inkscape"
   sodipodi:docname="special-relativity.svg"
   inkscape:version="1.0 (4035a4fb49, 2020-05-01)"
   id="svg8"
   version="1.1"
   viewBox="0 0 160.62125 33.885254"
   height="33.885254mm"
   width="160.62125mm">
  <defs
     id="defs2">
    <marker
       inkscape:isstock="true"
       style="overflow:visible"
       id="Arrow1Send"
       refX="0"
       refY="0"
       orient="auto"
       inkscape:stockid="Arrow1Send">
      <path
         transform="matrix(-0.2,0,0,-0.2,-1.2,0)"
         style="fill:#ffff00;fill-opacity:1;fill-rule:evenodd;stroke:#ffff00;stroke-width:1pt;stroke-opacity:1"
         d="M 0,0 5,-5 -12.5,0 5,5 Z"
         id="path1399" />
    </marker>
    <marker
       inkscape:isstock="true"
       style="overflow:visible"
       id="Arrow1Mend"
       refX="0"
       refY="0"
       orient="auto"
       inkscape:stockid="Arrow1Mend">
      <path
         transform="matrix(-0.4,0,0,-0.4,-4,0)"
         style="fill:#ff0000;fill-opacity:1;fill-rule:evenodd;stroke:#ff0000;stroke-width:1pt;stroke-opacity:1"
         d="M 0,0 5,-5 -12.5,0 5,5 Z"
         id="path1393" />
    </marker>
    <marker
       inkscape:isstock="true"
       style="overflow:visible"
       id="Arrow1Sstart"
       refX="0"
       refY="0"
       orient="auto"
       inkscape:stockid="Arrow1Sstart">
      <path
         transform="matrix(0.2,0,0,0.2,1.2,0)"
         style="fill:#ffff00;fill-opacity:1;fill-rule:evenodd;stroke:#ffff00;stroke-width:1pt;stroke-opacity:1"
         d="M 0,0 5,-5 -12.5,0 5,5 Z"
         id="path1396" />
    </marker>
    <marker
       inkscape:isstock="true"
       inkscape:stockid="DistanceEnd"
       orient="auto"
       refY="0"
       refX="0"
       id="DistanceEnd"
       style="overflow:visible">
      <g
         style="fill:#ff0000;fill-opacity:1;stroke:#ff0000;stroke-opacity:1"
         id="g2301">
        <path
           id="path2316"
           d="M 0,0 H -2"
           style="fill:#ff0000;fill-opacity:1;stroke:#ff0000;stroke-width:1.15;stroke-linecap:square;stroke-opacity:1" />
        <path
           id="path2312"
           d="m 0,0 -13,4 4,-4 -4,-4 z"
           style="fill:#ff0000;fill-opacity:1;fill-rule:evenodd;stroke:#ff0000;stroke-opacity:1" />
        <path
           id="path2314"
           d="M 0,-4 V 40"
           style="fill:#ff0000;fill-opacity:1;stroke:#ff0000;stroke-width:1;stroke-linecap:square;stroke-opacity:1" />
      </g>
    </marker>
  </defs>
  <sodipodi:namedview
     inkscape:window-maximized="1"
     inkscape:window-y="-8"
     inkscape:window-x="1016"
     inkscape:window-height="1058"
     inkscape:window-width="1857"
     showgrid="false"
     inkscape:document-rotation="0"
     inkscape:current-layer="layer1"
     inkscape:document-units="mm"
     inkscape:cy="179.44539"
     inkscape:cx="289.90464"
     inkscape:zoom="1.4"
     inkscape:pageshadow="2"
     inkscape:pageopacity="0.0"
     borderopacity="1.0"
     bordercolor="#666666"
     pagecolor="#ffffff"
     id="base" />
  <metadata
     id="metadata5">
    <rdf:RDF>
      <cc:Work
         rdf:about="">
        <dc:format>image/svg+xml</dc:format>
        <dc:type
           rdf:resource="http://purl.org/dc/dcmitype/StillImage" />
        <dc:title></dc:title>
      </cc:Work>
    </rdf:RDF>
  </metadata>
  <g
     transform="translate(-16.436729,-159.25285)"
     id="layer1"
     inkscape:groupmode="layer"
     inkscape:label="Layer 1">
    <g
       transform="matrix(0.26458333,0,0,0.26458333,48.655873,57.559655)"
       id="g901">
      <g
         id="color">
        <path
           fill="#9b9b9a"
           stroke="#9b9b9a"
           stroke-miterlimit="10"
           stroke-width="2"
           d="m 53.9958,40.5232 h 0.6992 c 1.1,0 2,-0.9 2,-2 v -5.1541 c 0,-1.1 -0.9,-2 -2,-2 H 53.9959 50 v 9.1648 z"
           id="path833" />
        <path
           fill="#9b9b9a"
           stroke="none"
           stroke-miterlimit="10"
           stroke-width="2"
           d="M 25,21 V 9 c 0,-0.5523 0.4477,-1 1,-1 h 20 c 0.5523,0 1,0.4477 1,1 v 12"
           id="path835" />
        <path
           fill="#9b9b9a"
           stroke="#9b9b9a"
           stroke-miterlimit="10"
           stroke-width="2"
           d="m 47,51 v 12 c 0,0.5523 -0.4477,1 -1,1 H 26 c -0.5523,0 -1,-0.4477 -1,-1 V 51"
           id="path837" />
        <path
           fill="#d0cfce"
           stroke="#d0cfce"
           stroke-miterlimit="10"
           stroke-width="2"
           d="M 48,51 H 24 c -1.1,0 -2,-0.9 -2,-2 V 23 c 0,-1.1 0.9,-2 2,-2 h 24 c 1.1,0 2,0.9 2,2 v 26 c 0,1.1 -0.9,2 -2,2 z"
           id="path839" />
      </g>
      <g
         id="hair" />
      <g
         id="skin" />
      <g
         id="skin-shadow" />
      <g
         id="line">
        <path
           fill="none"
           stroke="#000000"
           stroke-miterlimit="10"
           stroke-width="2"
           d="M 25,21 V 9 c 0,-0.5523 0.4477,-1 1,-1 h 20 c 0.5523,0 1,0.4477 1,1 v 12"
           id="path845" />
        <path
           fill="none"
           stroke="#000000"
           stroke-linecap="round"
           stroke-linejoin="round"
           stroke-miterlimit="10"
           stroke-width="2"
           d="M 25,16.0003"
           id="path847" />
        <path
           fill="none"
           stroke="#000000"
           stroke-linecap="round"
           stroke-linejoin="round"
           stroke-miterlimit="10"
           stroke-width="2"
           d="M 47,55.9997"
           id="path849" />
        <path
           fill="none"
           stroke="#000000"
           stroke-linecap="round"
           stroke-linejoin="round"
           stroke-miterlimit="10"
           stroke-width="2"
           d="M 47,16.0003"
           id="path851" />
        <polyline
           fill="none"
           stroke="#000000"
           stroke-linecap="round"
           stroke-linejoin="round"
           stroke-miterlimit="10"
           stroke-width="2"
           points="35.8442,26.1875 35.8442,36.1875 44.1558,36.1875"
           id="polyline853" />
        <path
           fill="none"
           stroke="#000000"
           stroke-linecap="round"
           stroke-linejoin="round"
           stroke-miterlimit="10"
           stroke-width="2"
           d="M 25,16.0003"
           id="path855" />
        <polyline
           fill="none"
           stroke="#000000"
           stroke-linecap="round"
           stroke-linejoin="round"
           stroke-miterlimit="10"
           stroke-width="2"
           points="47,54.9997 47,64 25,64 25,54.9997"
           id="polyline857" />
        <path
           fill="none"
           stroke="#000000"
           stroke-linecap="round"
           stroke-linejoin="round"
           stroke-miterlimit="10"
           stroke-width="2"
           d="M 47,55.9997"
           id="path859" />
        <path
           fill="none"
           stroke="#000000"
           stroke-linecap="round"
           stroke-linejoin="round"
           stroke-miterlimit="10"
           stroke-width="2"
           d="M 47,16.0003"
           id="path861" />
        <polyline
           fill="none"
           stroke="#000000"
           stroke-linecap="round"
           stroke-linejoin="round"
           stroke-miterlimit="10"
           stroke-width="2"
           points="25,17.0003 25,8 47,8 47,17.0003"
           id="polyline863" />
        <path
           fill="none"
           stroke="#000000"
           stroke-linecap="round"
           stroke-linejoin="round"
           stroke-miterlimit="10"
           stroke-width="2"
           d="m 53.9959,31.3691 h 0.6991 c 1.1,0 2,0.9 2,2 v 5.1541 c 0,1.1 -0.9,2 -2,2 h -0.6992"
           id="path865" />
        <path
           fill="none"
           stroke="#000000"
           stroke-linecap="round"
           stroke-linejoin="round"
           stroke-miterlimit="10"
           stroke-width="2"
           d="M 48,51 H 24 c -1.1,0 -2,-0.9 -2,-2 V 23 c 0,-1.1 0.9,-2 2,-2 h 24 c 1.1,0 2,0.9 2,2 v 26 c 0,1.1 -0.9,2 -2,2 z"
           id="path867" />
        <polyline
           fill="none"
           stroke="#000000"
           stroke-linecap="round"
           stroke-linejoin="round"
           stroke-miterlimit="10"
           stroke-width="2"
           points="35.8442,26.1875 35.8442,36.1875 44.1558,36.1875"
           id="polyline869" />
      </g>
    </g>
    <g
       transform="matrix(0.26458333,0,0,0.26458333,-30.687644,75.952873)"
       id="g932">
      <path
         fill="#ffcc4d"
         d="m 20,6.042 c 0,1.112 -0.903,2.014 -2,2.014 -1.097,0 -2,-0.902 -2,-2.014 V 2.014 C 16,0.901 16.903,0 18,0 c 1.097,0 2,0.901 2,2.014 z"
         id="path903" />
      <path
         fill="#ffac33"
         d="M 9.18,36 C 8.956,36 8.728,35.948 8.514,35.841 7.778,35.467 7.479,34.561 7.847,33.814 l 8.94,-18.127 c 0.252,-0.512 0.768,-0.835 1.333,-0.835 0.565,0 1.081,0.323 1.333,0.835 l 8.941,18.127 c 0.368,0.747 0.07,1.653 -0.666,2.027 -0.736,0.372 -1.631,0.07 -1.999,-0.676 L 18.121,19.74 10.514,35.165 C 10.252,35.694 9.726,36 9.18,36 Z"
         id="path905" />
      <path
         fill="#58595b"
         d="m 18.121,20.392 c -0.263,0 -0.516,-0.106 -0.702,-0.295 L 3.512,5.998 C 3.124,5.604 3.124,4.967 3.512,4.574 3.9,4.181 4.529,4.181 4.916,4.574 L 18.121,17.96 31.324,4.573 c 0.389,-0.393 1.017,-0.393 1.405,0 0.388,0.394 0.388,1.031 0,1.424 l -13.905,14.1 c -0.187,0.188 -0.439,0.295 -0.703,0.295 z"
         id="path907" />
      <path
         fill="#dd2e44"
         d="m 34.015,19.385 c 0,8.898 -7.115,16.111 -15.894,16.111 -8.777,0 -15.893,-7.213 -15.893,-16.111 0,-8.9 7.116,-16.113 15.893,-16.113 8.778,-10e-4 15.894,7.213 15.894,16.113 z"
         id="path909" />
      <path
         fill="#e6e7e8"
         d="m 30.041,19.385 c 0,6.674 -5.335,12.084 -11.92,12.084 -6.583,0 -11.919,-5.41 -11.919,-12.084 0,-6.675 5.336,-12.085 11.919,-12.085 6.585,-10e-4 11.92,5.41 11.92,12.085 z"
         id="path911" />
      <path
         fill="#ffcc4d"
         d="m 30.04,1.257 c -1.646,0 -3.135,0.676 -4.214,1.77 l 8.429,8.544 C 35.333,10.478 36,8.968 36,7.299 36,3.963 33.331,1.257 30.04,1.257 Z m -24.08,0 c 1.645,0 3.135,0.676 4.214,1.77 L 1.745,11.571 C 0.667,10.478 0,8.968 0,7.299 0,3.963 2.668,1.257 5.96,1.257 Z"
         id="path913" />
      <path
         fill="#414042"
         d="m 23,20 h -5 c -0.552,0 -1,-0.447 -1,-1 v -9 c 0,-0.552 0.448,-1 1,-1 0.552,0 1,0.448 1,1 v 8 h 4 c 0.553,0 1,0.448 1,1 0,0.553 -0.447,1 -1,1 z"
         id="path915" />
    </g>
    <g
       transform="matrix(0.26458333,0,0,0.26458333,71.190397,66.234638)"
       id="g1011">
      <g
         id="color-2">
        <line
           x1="50.257999"
           x2="53.141899"
           y1="55.035999"
           y2="59.864498"
           fill="#ffffff"
           stroke="none"
           stroke-linecap="round"
           stroke-linejoin="round"
           stroke-miterlimit="10"
           stroke-width="2"
           id="line934" />
        <line
           x1="21.741899"
           x2="18.858"
           y1="55.035999"
           y2="59.864498"
           fill="#ffffff"
           stroke="none"
           stroke-linecap="round"
           stroke-linejoin="round"
           stroke-miterlimit="10"
           stroke-width="2"
           id="line936" />
        <path
           fill="#d0cfce"
           stroke="#d0cfce"
           stroke-miterlimit="10"
           stroke-width="2"
           d="M 36,19"
           id="path938" />
        <path
           fill="#d0cfce"
           stroke="#d0cfce"
           stroke-miterlimit="10"
           stroke-width="2"
           d="M 36,19"
           id="path940" />
        <path
           fill="#d0cfce"
           stroke="none"
           d="m 46.1859,14.7917 c 2.2534,-4.6476 4.2653,-4.0842 6.1673,-4.3168 1.2869,-0.1573 6.4609,3.1641 6.4609,6.5799 0,3.4158 -2.2433,4.739 -3.5597,5.4867"
           id="path942" />
        <path
           fill="#d0cfce"
           stroke="none"
           d="m 25.8141,14.7917 c -2.2533,-4.6476 -4.2652,-4.0842 -6.1672,-4.3168 -1.287,-0.1573 -6.461,3.1641 -6.461,6.5799 0,3.4158 2.2433,4.739 3.5597,5.4867"
           id="path944" />
        <circle
           cx="36"
           cy="36.294102"
           r="23"
           fill="#ffffff"
           stroke="none"
           stroke-linecap="round"
           stroke-linejoin="round"
           stroke-miterlimit="10"
           stroke-width="2"
           id="circle946" />
        <line
           x1="36.0257"
           x2="36.0257"
           y1="18.9893"
           y2="35.9893"
           fill="#ffffff"
           stroke="none"
           stroke-linecap="round"
           stroke-linejoin="round"
           stroke-miterlimit="10"
           stroke-width="2"
           id="line948" />
        <line
           x1="35.974201"
           x2="29.974199"
           y1="35.934898"
           y2="46.327202"
           fill="#ffffff"
           stroke="none"
           stroke-linecap="round"
           stroke-linejoin="round"
           stroke-miterlimit="10"
           stroke-width="2.0785"
           id="line950" />
      </g>
      <g
         id="hair-3" />
      <g
         id="skin-4" />
      <g
         id="skin-shadow-1" />
      <g
         id="line-4">
        <path
           fill="none"
           stroke="#000000"
           stroke-linecap="round"
           stroke-linejoin="round"
           stroke-miterlimit="10"
           stroke-width="2"
           d="M 36,12.6326"
           id="path956" />
        <path
           fill="none"
           stroke="#000000"
           stroke-linecap="round"
           stroke-linejoin="round"
           stroke-miterlimit="10"
           stroke-width="2"
           d="M 36,19.0725"
           id="path958" />
        <path
           fill="none"
           stroke="#000000"
           stroke-linecap="round"
           stroke-linejoin="round"
           stroke-miterlimit="10"
           stroke-width="2"
           d="M 36,19.2478"
           id="path960" />
        <path
           fill="none"
           stroke="#000000"
           stroke-linecap="round"
           stroke-linejoin="round"
           stroke-miterlimit="10"
           stroke-width="2"
           d="M 36,12.7539"
           id="path962" />
        <line
           x1="50.257999"
           x2="53.141899"
           y1="55.035999"
           y2="59.864498"
           fill="none"
           stroke="#000000"
           stroke-linecap="round"
           stroke-linejoin="round"
           stroke-miterlimit="10"
           stroke-width="2"
           id="line964" />
        <line
           x1="21.741899"
           x2="18.858"
           y1="55.035999"
           y2="59.864498"
           fill="none"
           stroke="#000000"
           stroke-linecap="round"
           stroke-linejoin="round"
           stroke-miterlimit="10"
           stroke-width="2"
           id="line966" />
        <path
           fill="none"
           stroke="#000000"
           stroke-linecap="round"
           stroke-linejoin="round"
           stroke-miterlimit="10"
           stroke-width="2"
           d="m 48.8497,12.5761 c 0.9692,-0.8502 2.2395,-1.3655 3.6301,-1.3655 3.0417,0 5.5076,2.4657 5.5076,5.5075 0,1.1088 -0.3277,2.1411 -0.8914,3.0052"
           id="path968" />
        <path
           fill="none"
           stroke="#000000"
           stroke-linecap="round"
           stroke-linejoin="round"
           stroke-miterlimit="10"
           stroke-width="2"
           d="m 23.1504,12.5761 c -0.9693,-0.8502 -2.2396,-1.3655 -3.6302,-1.3655 -3.0417,0 -5.5075,2.4657 -5.5075,5.5075 0,1.1088 0.3276,2.1411 0.8914,3.0052"
           id="path970" />
        <circle
           cx="36"
           cy="36.294102"
           r="23"
           fill="none"
           stroke="#000000"
           stroke-linecap="round"
           stroke-linejoin="round"
           stroke-miterlimit="10"
           stroke-width="2"
           id="circle972" />
        <line
           x1="36.0257"
           x2="36.0257"
           y1="18.9893"
           y2="35.9893"
           fill="none"
           stroke="#000000"
           stroke-linecap="round"
           stroke-linejoin="round"
           stroke-miterlimit="10"
           stroke-width="2"
           id="line974" />
        <line
           x1="35.974201"
           x2="29.974199"
           y1="35.934898"
           y2="46.327202"
           fill="none"
           stroke="#000000"
           stroke-linecap="round"
           stroke-linejoin="round"
           stroke-miterlimit="10"
           stroke-width="2.0785"
           id="line976" />
      </g>
    </g>
    <g
       transform="matrix(-0.04302954,0,0,0.04302954,177.31617,171.2883)"
       id="g1056">
      <g
         id="Layer_2">
	<path
   fill="#6b8da1"
   d="m 275.816,58.999 v 123.14 c 0,10.899 -8.917,19.816 -19.816,19.816 v 0 c -10.899,0 -19.816,-8.917 -19.816,-19.816 V 58.999 c 0,-10.899 8.917,-19.816 19.816,-19.816 v 0 c 10.899,0 19.816,8.917 19.816,19.816 z m 91.749,103.044 c 7.738,7.738 20.284,7.739 28.022,0.001 l 50.586,-50.586 c 7.738,-7.738 7.738,-20.285 0,-28.023 -7.738,-7.738 -20.285,-7.738 -28.023,0 l -50.586,50.586 c -7.737,7.738 -7.736,20.285 10e-4,28.022 m -223.123,0.001 c 7.738,-7.738 7.739,-20.284 0.001,-28.022 L 93.857,83.436 c -7.738,-7.738 -20.285,-7.738 -28.023,0 -7.738,7.738 -7.738,20.285 0,28.023 l 50.586,50.586 c 7.738,7.737 20.284,7.737 28.022,-10e-4 m 258.984,320.575 v 0 c 7.706,-7.706 7.706,-20.317 0,-28.023 l -87.073,-87.073 c -7.706,-7.706 -20.317,-7.706 -28.023,0 v 0 c -7.706,7.706 -7.706,20.317 0,28.023 l 87.073,87.073 c 7.706,7.706 20.317,7.706 28.023,0 z m -266.829,0 87.073,-87.073 c 7.706,-7.706 7.706,-20.317 0,-28.023 v 0 c -7.706,-7.706 -20.317,-7.706 -28.023,0 l -87.073,87.073 c -7.706,7.706 -7.706,20.317 0,28.023 v 0 c 7.706,7.706 20.317,7.706 28.023,0 z"
   id="path1013" />

</g>
      <g
         id="Layer_3">
	<path
   fill="#ffb636"
   d="m 354.319,45.692 c 36.12,-30.974 90.561,-29.384 124.768,4.823 34.242,34.242 35.8,88.76 4.727,124.879 -2.812,1.987 -6.524,2.121 -9.46,0.405 L 353.826,55.271 c -1.741,-2.978 -1.576,-6.754 0.493,-9.579 z M 37.669,175.783 158.197,55.255 c 1.717,-2.936 1.582,-6.648 -0.405,-9.46 C 121.672,14.722 67.155,16.28 32.913,50.522 -1.293,84.729 -2.883,139.17 28.091,175.29 c 2.825,2.07 6.601,2.234 9.578,0.493 z"
   id="path1016" />

</g>
      <g
         id="Layer_4">
	<path
   fill="#ffd469"
   d="m 477.511,108.534 c -4.411,0 -8.386,-3.056 -9.377,-7.541 -2.136,-9.668 -6.91,-18.579 -13.807,-25.772 -6.88,-7.176 -15.559,-12.318 -25.098,-14.871 -5.128,-1.372 -8.173,-6.643 -6.801,-11.771 1.373,-5.128 6.643,-8.173 11.771,-6.801 12.934,3.461 24.693,10.425 34.005,20.137 9.338,9.739 15.805,21.818 18.702,34.931 1.145,5.184 -2.129,10.314 -7.313,11.46 -0.698,0.154 -1.395,0.228 -2.082,0.228 z M 42.749,100.38 C 45.302,90.841 50.444,82.162 57.62,75.282 64.813,68.385 73.725,63.611 83.392,61.475 88.576,60.33 91.85,55.199 90.705,50.015 89.56,44.831 84.429,41.557 79.245,42.702 66.133,45.599 54.054,52.066 44.314,61.404 34.601,70.717 27.638,82.475 24.177,95.409 c -1.372,5.129 1.672,10.398 6.801,11.771 0.833,0.223 1.668,0.329 2.491,0.329 4.245,0.001 8.13,-2.833 9.28,-7.129 z"
   id="path1019" />

</g>
      <g
         id="Layer_5">
	<path
   fill="#fb5046"
   d="m 256,64.394 c -117.011,0 -211.863,94.852 -211.863,211.863 0,117.011 94.852,211.872 211.863,211.872 117.011,0 211.863,-94.861 211.863,-211.872 C 467.863,159.246 373.011,64.394 256,64.394"
   id="path1022" />

</g>
      <g
         id="Layer_6">
	<path
   fill="#f9f9f8"
   d="m 83.765,276.261 c 0,94.973 77.267,172.239 172.239,172.239 94.972,0 172.23,-77.267 172.23,-172.239 0,-94.972 -77.258,-172.239 -172.23,-172.239 -94.972,0 -172.239,77.267 -172.239,172.239"
   id="path1025" />

</g>
      <g
         id="Layer_7">
	<path
   fill="#6b8da1"
   d="m 256,289.451 h 123.172 c 6.11,0 11.071,-4.96 11.071,-11.079 0,-6.11 -4.961,-11.07 -11.071,-11.07 H 256 c -6.119,0 -11.08,4.961 -11.08,11.07 0,6.118 4.961,11.079 11.08,11.079"
   id="path1028" />

</g>
      <g
         id="Layer_8">
	<path
   fill="#6b8da1"
   d="m 256,289.451 c 6.119,0 11.08,-4.96 11.08,-11.079 V 157.844 c 0,-6.119 -4.961,-11.08 -11.08,-11.08 -6.119,0 -11.08,4.961 -11.08,11.08 v 120.527 c 0,6.119 4.961,11.08 11.08,11.08"
   id="path1031" />

</g>
    </g>
    <g
       transform="matrix(0.0390625,0,0,0.0390625,13.15876,173.1381)"
       id="g1091">
      <g
         id="Layer_2-0">
	<path
   fill="#597b91"
   d="m 443.174,256 c 0,8.334 -6.756,15.09 -15.09,15.09 -8.334,0 -15.09,-6.756 -15.09,-15.09 0,-8.334 6.756,-15.09 15.09,-15.09 8.334,0 15.09,6.756 15.09,15.09 z"
   id="path1058" />

</g>
      <g
         id="Layer_3-2">
	<path
   fill="#2b3b47"
   d="M 319.747,512 H 197.082 c -15.906,0 -28.8,-12.894 -28.8,-28.8 V 28.8 c 0,-15.906 12.894,-28.8 28.8,-28.8 h 122.665 c 15.906,0 28.8,12.894 28.8,28.8 v 454.4 c 0,15.906 -12.894,28.8 -28.8,28.8 z"
   id="path1061" />

</g>
      <g
         id="Layer_4-8">
	<path
   fill="#bfbcaf"
   d="M 428.084,256 C 428.084,351.039 351.039,428.084 256,428.084 160.961,428.084 83.916,351.039 83.916,256 83.916,160.961 160.961,83.916 256,83.916 c 95.039,0 172.084,77.045 172.084,172.084 z"
   id="path1064" />

</g>
      <g
         id="Layer_5-8">
	<path
   fill="#f9f9f7"
   d="m 256,394.21 c -76.209,0 -138.209,-62.002 -138.209,-138.211 0,-76.209 62,-138.207 138.209,-138.207 76.209,0 138.209,61.998 138.209,138.207 0,76.209 -62,138.211 -138.209,138.211 z"
   id="path1067" />

</g>
      <g
         id="Layer_6-5">
	<path
   fill="#597b91"
   d="m 266.48,163.463 v 93.992 c 0,4.77 -3.867,8.637 -8.638,8.637 -0.383,0 -0.758,-0.034 -1.128,-0.082 -0.37,0.048 -0.745,0.082 -1.128,0.082 h -96.047 c -4.77,0 -8.638,-3.867 -8.638,-8.637 0,-4.77 3.867,-8.637 8.638,-8.637 h 89.665 v -85.355 c 0,-4.77 3.867,-8.637 8.638,-8.637 4.77,-0.001 8.638,3.866 8.638,8.637 z"
   id="path1070" />

</g>
    </g>
    <g
       transform="matrix(0.26458333,0,0,0.26458333,-9.8379348,96.799921)"
       id="g1116">
      <path
         fill="#31373d"
         d="m 25,32 c 0,2.209 -1.791,4 -4,4 h -6 c -2.209,0 -4,-1.791 -4,-4 V 4 c 0,-2.209 1.791,-4 4,-4 h 6 c 2.209,0 4,1.791 4,4 z"
         id="path1093" />
      <path
         fill="#99aab5"
         d="m 32,18 c 0,-1.104 -0.896,-2 -2,-2 h -1 c -1.104,0 -2,0.896 -2,2 0,1.104 0.896,2 2,2 h 1 c 1.104,0 2,-0.896 2,-2 z"
         id="path1095" />
      <path
         fill="#ccd6dd"
         d="M 6,18 C 6,11.373 11.373,6 18,6 24.628,6 30,11.373 30,18 30,24.627 24.628,30 18,30 11.373,30 6,24.627 6,18 Z"
         id="path1097" />
      <path
         fill="#f5f8fa"
         d="m 10,18 c 0,-4.418 3.582,-8 8,-8 4.419,0 8,3.582 8,8 0,4.418 -3.581,8 -8,8 -4.418,0 -8,-3.582 -8,-8 z"
         id="path1099" />
      <path
         fill="#66757f"
         d="m 23,22 c -0.175,0 -0.353,-0.046 -0.514,-0.143 l -5,-3 C 17.185,18.677 17,18.352 17,18 v -7 c 0,-0.552 0.448,-1 1,-1 0.552,0 1,0.448 1,1 v 6.434 l 4.516,2.708 c 0.474,0.284 0.627,0.898 0.343,1.372 C 23.671,21.827 23.34,22 23,22 Z"
         id="path1101" />
    </g>
    <g
       transform="matrix(0.60567518,0,0,0.60567518,134.1137,158.64717)"
       id="g1153">
      <path
         fill="#ffac33"
         d="M 29.96,23.087 C 34,27 34.043,34.021 33.021,34.021 c -1.022,0 -4.115,-1.852 -6.068,-3.937 C 25,28 25.203,23.306 25.203,23.306 l 1.586,-4.319 c 0,-10e-4 -0.869,0.187 3.171,4.1 z"
         id="path1118" />
      <path
         fill="#ffac33"
         d="M 26.96,23.087 C 31,27 31.043,34.021 30.021,34.021 c -1.022,0 -4.115,-1.852 -6.068,-3.937 C 22,28 22.203,23.306 22.203,23.306 l 1.586,-4.319 c 0,-10e-4 -0.869,0.187 3.171,4.1 z M 3,34 C 2,34 2,27 6,23 10,19 9,19 9,19 l 2,4 c 0,0 0,5 -2,7 -2,2 -5,4 -6,4 z"
         id="path1120" />
      <path
         fill="#ffac33"
         d="m 6,34 c -1,0 -1,-7 3,-11 4,-4 3,-4 3,-4 l 2,4 c 0,0 0,5 -2,7 -2,2 -5,4 -6,4 z"
         id="path1122" />
      <path
         fill="#ffdc5d"
         d="m 6.914,18.353 c -0.571,-2.134 -2.116,-3.575 -3.45,-3.217 -1.334,0.358 -1.95,2.378 -1.379,4.511 0.571,2.135 2.116,3.574 3.45,3.217 1.334,-0.358 1.951,-2.378 1.379,-4.511 z m 27.001,1.294 c 0.571,-2.134 -0.046,-4.154 -1.38,-4.512 -1.333,-0.356 -2.878,1.083 -3.449,3.218 -0.572,2.134 0.045,4.153 1.379,4.511 1.334,0.358 2.879,-1.083 3.45,-3.217 z"
         id="path1124" />
      <path
         fill="#ffdc5d"
         d="M 31,19 C 31,9.611 25.18,3 18,3 10.82,3 5,9.611 5,19 c 0,9.389 5.82,15 13,15 7.18,0 13,-5.611 13,-15 z"
         id="path1126" />
      <path
         fill="#df1f32"
         d="m 18,27.651 c -2.42,0 -4.274,-0.687 -4.352,-0.715 -0.517,-0.194 -0.779,-0.771 -0.584,-1.288 0.194,-0.517 0.769,-0.779 1.286,-0.585 0.016,0.006 1.61,0.588 3.65,0.588 2.041,0 3.635,-0.582 3.65,-0.588 0.516,-0.194 1.094,0.071 1.285,0.587 0.193,0.517 -0.067,1.092 -0.584,1.286 -0.077,0.029 -1.93,0.715 -4.351,0.715 z"
         id="path1128" />
      <path
         fill="#c1694f"
         d="m 19,23 h -2 c -0.552,0 -1,-0.447 -1,-1 0,-0.553 0.448,-1 1,-1 h 2 c 0.553,0 1,0.447 1,1 0,0.553 -0.447,1 -1,1 z"
         id="path1130" />
      <path
         fill="#662113"
         d="m 12,20 c -0.552,0 -1,-0.447 -1,-1 v -2 c 0,-0.552 0.448,-1 1,-1 0.552,0 1,0.448 1,1 v 2 c 0,0.553 -0.448,1 -1,1 z m 12,0 c -0.553,0 -1,-0.447 -1,-1 v -2 c 0,-0.552 0.447,-1 1,-1 0.553,0 1,0.448 1,1 v 2 c 0,0.553 -0.447,1 -1,1 z"
         id="path1132" />
      <path
         fill="#ffac33"
         d="M 32,10 C 30,3 25,1 22,1 20,1 18,3 18,3 18,3 16,1 14,1 11,1 6,3 4,10 c -1.648,5.769 1,11 1,11 0,-3.001 2,-9 7,-9 5,0 6,-4 6,-4 0,0 0.786,4 5.786,4 5,0 7.214,6 7.214,9 0,0 2.648,-5.231 1,-11 z"
         id="path1134" />
    </g>
    <g
       transform="matrix(0.57726722,0,0,0.57726722,27.798968,159.71666)"
       id="g1178">
      <path
         fill="#ffdc5d"
         d="M 6,20 C 6,22.209 4.881,24 3.5,24 2.119,24 1,22.209 1,20 1,17.791 2.119,16 3.5,16 4.881,16 6,17.791 6,20 Z m 29,0 c 0,2.209 -1.119,4 -2.5,4 -1.381,0 -2.5,-1.791 -2.5,-4 0,-2.209 1.119,-4 2.5,-4 1.381,0 2.5,1.791 2.5,4 z"
         id="path1155" />
      <path
         fill="#ffdc5d"
         d="M 4,20.562 C 4,12.036 10.268,5.124 18,5.124 c 7.732,0 14,6.912 14,15.438 C 32,29.088 25.732,35 18,35 10.268,35 4,29.088 4,20.562 Z"
         id="path1157" />
      <path
         fill="#662113"
         d="m 12,22 c -0.552,0 -1,-0.447 -1,-1 v -2 c 0,-0.552 0.448,-1 1,-1 0.552,0 1,0.448 1,1 v 2 c 0,0.553 -0.448,1 -1,1 z m 12,0 c -0.553,0 -1,-0.447 -1,-1 v -2 c 0,-0.552 0.447,-1 1,-1 0.553,0 1,0.448 1,1 v 2 c 0,0.553 -0.447,1 -1,1 z"
         id="path1159" />
      <path
         fill="#c1694f"
         d="m 18,30 c -4.188,0 -6.357,-1.06 -6.447,-1.105 -0.494,-0.247 -0.694,-0.848 -0.447,-1.342 0.247,-0.492 0.843,-0.692 1.337,-0.449 C 12.494,27.128 14.368,28 18,28 c 3.665,0 5.54,-0.888 5.559,-0.897 0.496,-0.241 1.094,-0.034 1.336,0.457 0.243,0.493 0.045,1.089 -0.447,1.335 C 24.356,28.94 22.188,30 18,30 Z m 1,-5 h -2 c -0.552,0 -1,-0.447 -1,-1 0,-0.553 0.448,-1 1,-1 h 2 c 0.553,0 1,0.447 1,1 0,0.553 -0.447,1 -1,1 z"
         id="path1161" />
      <path
         fill="#ffac33"
         d="M 18,0.354 C 8.77,0.354 3,6.816 3,12.2 c 0,5.385 1.154,7.539 2.308,5.385 l 2.308,-4.308 c 0,0 3.791,-0.124 6.099,-2.278 0,0 -1.071,4 6.594,0.124 0,0 -0.166,3.876 5.191,-0.124 0,0 4.039,1.201 5.191,6.586 C 31.011,19.079 33,17.585 33,12.2 33,6.816 28.385,0.354 18,0.354 Z"
         id="path1163" />
    </g>
    <path
       style="stroke-width:0.264583"
       id="path1202"
       d="m 119.59848,95.49004 c -1.13771,-1.13771 -2.96333,-1.13771 -4.10104,0 0,0 0,0 0,0 -0.15875,0.15875 -0.42333,0.15875 -0.58208,0 0,0 0,0 0,0 -1.13771,-1.13771 -2.93688,-1.13771 -4.07459,-0.0265 -0.97895,0.9525 -1.16416,2.54 -0.39687,3.70417 0.23812,0.34395 0.52917,0.60854 0.84667,0.8202 l 3.38666,2.75167 c 0.3175,0.26458 0.76729,0.26458 1.08479,0 l 3.38667,-2.77808 c 0.23813,-0.15875 0.47625,-0.37042 0.66146,-0.60855 0.92604,-1.1377 0.82021,-2.83104 -0.21167,-3.86291 z"
       fill="#ff473e" />
    <g
       transform="matrix(0.02880782,0.02880782,-0.02880782,0.02880782,45.369979,168.37509)"
       id="g1341">
      <g
         id="Layer_2-7">
	<path
   fill="#597b91"
   d="m 450.959,234.428 c -59.536,59.536 -134.393,106.468 -182.502,106.468 -4.376,0 -8.355,-0.408 -11.981,-1.141 l -152.46,152.46 c -22.343,22.343 -58.568,22.343 -80.912,0 l -3.316,-3.316 c -22.343,-22.343 -22.343,-58.568 0,-80.911 L 172.126,255.65 c -0.772,-3.705 -1.199,-7.787 -1.199,-12.283 0,-48.109 46.931,-122.966 106.467,-182.502 12.018,-12.018 60.614,17.093 108.542,65.021 47.93,47.928 77.041,96.524 65.023,108.542 z"
   id="path1318" />

</g>
      <g
         id="Layer_3-6">
	<path
   fill="#2b3b47"
   d="m 138.266,414.081 -10.629,-10.629 c -6.702,-6.702 -6.702,-17.568 0,-24.27 l 29.708,-29.708 c 1.907,-1.907 4.999,-1.907 6.906,0 l 27.993,27.993 c 1.907,1.907 1.907,4.999 0,6.906 l -29.708,29.708 c -6.702,6.701 -17.568,6.701 -24.27,0 z"
   id="path1321" />

</g>
      <g
         id="Layer_4-4">
	<path
   fill="#ffb636"
   d="m 437.138,227.796 c -10.033,10.033 -52.44,-16.109 -94.721,-58.39 -42.281,-42.281 -68.422,-84.688 -58.39,-94.721 10.033,-10.033 52.44,16.109 94.721,58.39 42.281,42.281 68.422,84.689 58.39,94.721 z M 418.015,108.338 465.974,60.379 c 3.962,-3.962 3.962,-10.387 0,-14.349 -3.963,-3.962 -10.387,-3.962 -14.35,0 l -47.959,47.959 c -3.962,3.962 -3.962,10.387 0,14.349 1.981,1.981 4.578,2.972 7.175,2.972 2.597,0 5.193,-0.991 7.175,-2.972 z M 370.855,64.404 V 12.47 c 0,-5.604 -4.543,-10.146 -10.146,-10.146 -5.603,0 -10.146,4.543 -10.146,10.146 v 51.934 c 0,5.604 4.543,10.146 10.146,10.146 5.603,0 10.146,-4.543 10.146,-10.146 z M 509.5,151.368 c 0,-5.604 -4.543,-10.146 -10.146,-10.146 h -54.491 c -5.604,0 -10.146,4.543 -10.146,10.146 0,5.603 4.543,10.146 10.146,10.146 h 54.491 c 5.603,10e-4 10.146,-4.542 10.146,-10.146 z"
   id="path1324" />

</g>
    </g>
    <g
       transform="matrix(0,-0.60920868,0.60920868,0,127.16726,195.68876)"
       id="g1378">
      <path
         fill="#ffac33"
         d="M 29,32 H 7 C 6.45,32 6,31.55 6,31 V 7 C 6,6.45 6.45,6 7,6 h 22 c 0.55,0 1,0.45 1,1 v 24 c 0,0.55 -0.45,1 -1,1 z"
         id="path1343" />
      <path
         fill="#d99e82"
         d="M 8,8 H 28 V 30 H 8 Z"
         id="path1345" />
      <path
         fill="#ffd983"
         d="M 28,30 H 8 L 28,8 Z"
         id="path1347" />
      <path
         fill="#bbddf5"
         d="M 9,9 H 27 V 29 H 9 Z"
         id="path1349" />
      <path
         fill="#f5f8fa"
         d="M 24.231,9 11.769,29 H 18 L 27,14.385 V 9 Z"
         id="path1351" />
      <path
         fill="#662113"
         d="M 28,8 H 7 V 7 H 29 Z M 8,30 7,31 V 8 h 1 z"
         id="path1353" />
      <path
         fill="#c1694f"
         d="M 29,31 H 7 L 8,30 H 29 Z M 29,7 28,8 v 22 h 1 z"
         id="path1355" />
      <path
         d="m 26.294,5.31 c 0,0 -0.163,-0.587 -1.04,-1.069 C 24.66,3.914 23.65,4.152 23.65,4.152 c 0,0 -0.323,-0.834 -1.634,-1.366 C 21.066,2.399 20,3 20,3 20,2 19.023,1 18,1 16.977,1 16,2 16,3 16,3 14.934,2.399 13.984,2.786 12.674,3.318 12.35,4.152 12.35,4.152 c 0,0 -1.01,-0.238 -1.604,0.089 C 9.87,4.723 9.706,5.31 9.706,5.31 9.706,5.31 7.894,6 7,6 H 29 C 28.106,6 26.294,5.31 26.294,5.31 Z M 7,32 c 0.894,0 2.706,0.414 2.706,0.414 0,0 0.163,0.352 1.04,0.642 0.594,0.196 1.604,0.053 1.604,0.053 0,0 0.323,0.5 1.634,0.82 C 14.934,34.16 16,33.8 16,33.8 c 0,0.6 0.977,1.2 2,1.2 1.023,0 2,-0.6 2,-1.2 0,0 1.066,0.36 2.016,0.129 1.31,-0.319 1.634,-0.82 1.634,-0.82 0,0 1.01,0.143 1.604,-0.053 0.876,-0.289 1.04,-0.642 1.04,-0.642 0,0 1.812,-0.414 2.706,-0.414 z"
         fill="#ffac33"
         id="path1357" />
      <path
         d="M 9.868,6.375 H 11 c 0.207,0 0.375,-0.168 0.375,-0.375 0,-0.317 0.092,-0.537 0.28,-0.673 0.551,-0.398 1.793,-0.115 2.227,0.029 0.114,0.038 0.238,0.018 0.335,-0.052 0.097,-0.069 0.156,-0.182 0.158,-0.301 0.002,-0.147 0.056,-0.628 0.625,-0.628 0.688,0 1.483,0.641 1.734,0.889 l 10e-4,10e-4 c 0.146,0.146 0.384,0.146 0.53,0 0.144,-0.144 0.146,-0.376 0.007,-0.523 L 17.271,4.741 17.266,4.736 C 16.861,4.331 16.919,3.699 17.109,3.242 17.312,2.747 17.696,2.375 18,2.375 c 0.304,0 0.688,0.372 0.892,0.866 0.19,0.457 0.248,1.089 -0.157,1.494 L 18.73,4.74 18.729,4.741 c -0.14,0.147 -0.137,0.379 0.007,0.523 0.146,0.146 0.383,0.146 0.531,0 V 5.263 C 19.517,5.016 20.312,4.375 21,4.375 c 0.569,0 0.622,0.481 0.625,0.625 0,0.121 0.058,0.233 0.155,0.304 0.099,0.07 0.226,0.09 0.338,0.052 0.433,-0.143 1.674,-0.427 2.227,-0.029 0.188,0.136 0.28,0.356 0.28,0.673 0,0.207 0.168,0.375 0.375,0.375 h 1.132 c 0.207,0 0.375,-0.168 0.375,-0.375 0,-0.207 -0.168,-0.375 -0.375,-0.375 h -0.79 C 25.252,5.153 25.001,4.875 24.783,4.718 24.065,4.201 22.916,4.378 22.294,4.528 22.138,4.072 21.744,3.625 21,3.625 20.57,3.625 20.148,3.776 19.789,3.967 19.794,3.641 19.727,3.296 19.585,2.954 19.282,2.222 18.718,1.732 18.148,1.655 18.102,1.636 18.052,1.625 18,1.625 c -0.052,0 -0.102,0.011 -0.148,0.031 -0.57,0.077 -1.135,0.567 -1.438,1.299 C 16.272,3.297 16.206,3.642 16.211,3.968 15.851,3.776 15.43,3.625 15,3.625 c -0.744,0 -1.138,0.447 -1.294,0.903 -0.623,-0.151 -1.775,-0.326 -2.489,0.19 -0.218,0.157 -0.469,0.435 -0.558,0.907 H 9.868 C 9.661,5.625 9.493,5.793 9.493,6 c 0,0.207 0.168,0.375 0.375,0.375 z m 16.264,24.95 H 25 c -0.207,0 -0.405,0.222 -0.405,0.429 -0.333,0.283 -1.708,0.214 -2.533,0.076 -0.11,-0.018 -0.218,-0.007 -0.302,0.063 -0.084,0.071 -0.131,0.156 -0.131,0.267 -0.016,0.043 -0.163,0.165 -0.629,0.165 -0.896,0 -1.823,-0.456 -1.833,-0.461 -0.184,-0.091 -0.409,-0.018 -0.502,0.168 -0.093,0.186 -0.018,0.411 0.168,0.503 0.152,0.076 0.22,0.152 0.203,0.225 -0.052,0.223 -0.521,0.565 -1.035,0.565 -0.514,0 -0.983,-0.343 -1.035,-0.565 -0.018,-0.072 0.051,-0.148 0.203,-0.225 0.186,-0.092 0.261,-0.317 0.168,-0.503 -0.093,-0.184 -0.318,-0.259 -0.502,-0.168 -0.009,0.005 -0.937,0.461 -1.833,0.461 -0.466,0 -0.614,-0.122 -0.625,-0.125 0,-0.11 -0.048,-0.215 -0.133,-0.286 -0.083,-0.071 -0.194,-0.1 -0.304,-0.084 -0.823,0.139 -2.198,0.208 -2.563,-0.13 0,-0.207 -0.168,-0.375 -0.375,-0.375 H 9.868 c -0.207,0 -0.375,0.168 -0.375,0.375 0,0.207 0.168,0.375 0.375,0.375 h 0.848 c 0.049,0.093 0.118,0.177 0.204,0.251 0.611,0.517 2.153,0.38 2.854,0.287 0.164,0.227 0.507,0.462 1.227,0.462 0.435,0 0.864,-0.084 1.226,-0.187 0.002,0.015 0.006,0.029 0.009,0.044 0.146,0.619 0.955,1.143 1.765,1.143 0.81,0 1.619,-0.523 1.766,-1.143 l 0.009,-0.044 c 0.361,0.103 0.791,0.187 1.226,0.187 0.72,0 1.062,-0.235 1.227,-0.462 0.699,0.094 2.243,0.23 2.854,-0.287 0.087,-0.074 0.155,-0.158 0.204,-0.251 h 0.848 c 0.207,0 0.375,-0.168 0.375,-0.375 0,-0.207 -0.171,-0.375 -0.378,-0.375 z"
         fill="#c1694f"
         id="path1359" />
    </g>
    <path
       id="path1380"
       d="M 63.688988,181.42859 H 120.95238"
       style="fill:#ffff00;stroke:#ffff00;stroke-width:3;stroke-linecap:round;stroke-linejoin:round;stroke-miterlimit:4;stroke-dasharray:none;marker-start:url(#Arrow1Sstart);marker-end:url(#Arrow1Send);paint-order:markers fill stroke" />
  </g>
</svg>
